<?xml version="1.0" encoding="utf-8"?>
<!-- Generator: Adobe Illustrator 16.0.0, SVG Export Plug-In . SVG Version: 6.00 Build 0)  -->
<!DOCTYPE svg PUBLIC "-//W3C//DTD SVG 1.1//EN" "http://www.w3.org/Graphics/SVG/1.1/DTD/svg11.dtd">
<svg version="1.1" id="Layer_1" xmlns="http://www.w3.org/2000/svg" xmlns:xlink="http://www.w3.org/1999/xlink" x="0px" y="0px"
	 width="117.633px" height="117.633px" viewBox="0 0 117.633 117.633" enable-background="new 0 0 117.633 117.633"
	 xml:space="preserve">
<circle cx="58.817" cy="58.816" r="58.817"/>
<polygon fill="none" points="85.345,63.024 85.345,63.024 85.34,63.024 "/>
<path fill="#FFFFFF" d="M85.198,62.872L85.198,62.872 M32.198,63.032c-1-0.184-2.13,0.086-2.923,0.688
	c-0.895,0.68-1.436,1.758-1.729,3.059c-0.263,1.152-0.292,2.504-0.155,3.895c0.363,3.727,2.078,7.91,4.434,9.48
	c0.289,0.195,0.563,0.285,0.82,0.309c0.926,6.125,3.807,12.266,7.948,17.055c4.75,5.5,11.173,9.254,18.238,9.254
	c7.039,0,13.458-3.77,18.212-9.281c4.144-4.797,7.035-10.934,7.97-17.035c0.258-0.023,0.526-0.113,0.819-0.309
	c2.355-1.57,4.066-5.75,4.426-9.48c0.134-1.391,0.054-2.742-0.208-3.895c-0.293-1.301-0.9-2.379-1.799-3.059
	c-0.792-0.597-2.054-0.941-3.054-0.764L32.198,63.032z"/>
<circle fill="#4D4C4D" cx="71.421" cy="73.663" r="3.05"/>
<circle fill="#4D4C4D" cx="46.213" cy="73.663" r="3.05"/>
<path fill="#FFCE00" d="M55.894,66.059c-0.83-1.188-2.016-1.55-5.456-1.55l-9.136,0.051h-0.355c-2.669,0-3.618-0.103-4.923-0.361
	c-0.949-0.207-1.839-0.62-2.551-1.188c-1.542-1.137-2.076-2.532-2.076-5.477v-2.738h4.271l-0.06,0.879
	c-0.059,1.136,0.298,1.859,0.949,2.376c0.416,0.31,0.831,0.517,1.306,0.62c0.89,0.207,1.424,0.207,4.211,0.207h8.897
	c4.864,0,6.524,0.877,8.067,4.235c0.355-1.188,0.593-1.653,1.364-2.428c1.424-1.396,2.966-1.808,6.524-1.808h8.957
	c2.669,0,3.321-0.053,4.152-0.26c1.482-0.31,2.254-1.395,2.254-3.1v-0.723h4.271v2.687c0,3.048-0.534,4.339-2.076,5.528
	c-0.771,0.567-1.661,0.98-2.551,1.188c-1.364,0.259-2.254,0.361-4.982,0.361h-0.296l-9.194-0.051c-2.373,0-3.5,0.104-4.33,0.516
	c-1.187,0.568-1.721,1.705-1.957,3.927h-4.449C56.547,67.35,56.428,66.833,55.894,66.059z"/>
<g>
	
		<polygon fill="#FFCE00" stroke="#FFCE00" stroke-width="4" stroke-linecap="round" stroke-linejoin="round" stroke-miterlimit="10" points="
		43,24.471 46.311,21.234 49.622,18 43,18 	"/>
	
		<circle fill="#FFCE00" stroke="#FFCE00" stroke-width="4" stroke-linecap="round" stroke-linejoin="round" stroke-miterlimit="10" cx="47.322" cy="44.959" r="3.511"/>
	
		<polygon fill="#FFCE00" stroke="#FFCE00" stroke-width="4" stroke-linecap="round" stroke-linejoin="round" stroke-miterlimit="10" points="
		73,42.494 70.322,45.248 67.644,48 73,48 	"/>
	
		<circle fill="#FFCE00" stroke="#FFCE00" stroke-width="4" stroke-linecap="round" stroke-linejoin="round" stroke-miterlimit="10" cx="70.3" cy="21.982" r="3.511"/>
	
		<line fill="none" stroke="#FFCE00" stroke-width="4" stroke-linecap="round" stroke-linejoin="round" stroke-miterlimit="10" x1="55.142" y1="37.138" x2="62.978" y2="29.302"/>
	
		<line fill="none" stroke="#FFCE00" stroke-width="4" stroke-linecap="round" stroke-linejoin="round" stroke-miterlimit="10" x1="62.978" y1="37.138" x2="55.142" y2="29.302"/>
</g>
</svg>
