<?xml version="1.0" encoding="utf-8"?>
<!-- Generator: Adobe Illustrator 16.0.0, SVG Export Plug-In . SVG Version: 6.00 Build 0)  -->
<!DOCTYPE svg PUBLIC "-//W3C//DTD SVG 1.1//EN" "http://www.w3.org/Graphics/SVG/1.1/DTD/svg11.dtd">
<svg version="1.1" id="Layer_1" xmlns="http://www.w3.org/2000/svg" xmlns:xlink="http://www.w3.org/1999/xlink" x="0px" y="0px"
	 width="117.633px" height="117.633px" viewBox="0 0 117.633 117.633" enable-background="new 0 0 117.633 117.633"
	 xml:space="preserve">
<g>
	<circle cx="58.816" cy="58.816" r="58.816"/>
</g>
<g>
	<g>
		<g>
			<polygon fill="none" points="85.345,59.598 85.345,59.598 85.34,59.598 			"/>
		</g>
		<g>
			<path fill="#FFFFFF" d="M85.198,59.445L85.198,59.445 M32.198,59.605c-1-0.184-2.13,0.086-2.923,0.688
				c-0.895,0.68-1.436,1.758-1.729,3.059c-0.263,1.152-0.292,2.504-0.155,3.895c0.363,3.727,2.078,7.91,4.434,9.48
				c0.289,0.195,0.563,0.285,0.82,0.309c0.926,6.125,3.807,12.266,7.948,17.055c4.75,5.5,11.173,9.254,18.239,9.254
				c7.039,0,13.457-3.77,18.211-9.281c4.145-4.797,7.035-10.934,7.97-17.035c0.258-0.023,0.526-0.113,0.819-0.309
				c2.355-1.57,4.066-5.75,4.426-9.48c0.134-1.391,0.054-2.742-0.208-3.895c-0.293-1.301-0.899-2.379-1.799-3.059
				c-0.792-0.597-2.054-0.941-3.054-0.764L32.198,59.605z"/>
		</g>
	</g>
	<g>
		<g>
			<circle fill="#4D4C4D" cx="71.422" cy="70.236" r="3.05"/>
		</g>
		<g>
			<circle fill="#4D4C4D" cx="46.213" cy="70.236" r="3.05"/>
		</g>
	</g>
	<g>
		<g>
			<path fill="#FFCE00" d="M55.895,62.632c-0.83-1.188-2.017-1.55-5.457-1.55l-9.135,0.051h-0.355c-2.67,0-3.619-0.103-4.924-0.361
				c-0.949-0.207-1.839-0.62-2.551-1.188c-1.542-1.137-2.076-2.532-2.076-5.477v-2.738h4.271l-0.061,0.879
				c-0.059,1.136,0.298,1.859,0.949,2.376c0.416,0.31,0.831,0.517,1.306,0.62c0.89,0.207,1.424,0.207,4.212,0.207h8.896
				c4.864,0,6.525,0.877,8.067,4.235c0.356-1.188,0.593-1.653,1.364-2.428c1.424-1.396,2.966-1.808,6.524-1.808h8.957
				c2.669,0,3.321-0.053,4.152-0.26c1.482-0.31,2.254-1.395,2.254-3.1v-0.723h4.271v2.687c0,3.048-0.533,4.339-2.076,5.528
				c-0.771,0.567-1.66,0.98-2.551,1.188c-1.363,0.259-2.254,0.361-4.982,0.361h-0.296l-9.194-0.051c-2.373,0-3.5,0.104-4.33,0.516
				c-1.187,0.568-1.721,1.705-1.957,3.927h-4.449C56.547,63.923,56.428,63.406,55.895,62.632z"/>
		</g>
	</g>
	<g>
		<g>
			<path fill="#FFCE00" d="M83.514,42.86c-0.384,0-0.768-0.146-1.061-0.439l-9.07-9.07c-0.586-0.586-0.586-1.535,0-2.121
				s1.535-0.586,2.121,0l9.07,9.07c0.586,0.586,0.586,1.535,0,2.121C84.282,42.714,83.898,42.86,83.514,42.86z"/>
		</g>
		<g>
			<path fill="#FFCE00" d="M74.444,42.86c-0.384,0-0.768-0.146-1.061-0.439c-0.586-0.586-0.586-1.535,0-2.121l9.07-9.07
				c0.586-0.586,1.535-0.586,2.121,0s0.586,1.535,0,2.121l-9.07,9.07C75.211,42.714,74.828,42.86,74.444,42.86z"/>
		</g>
	</g>
	<g>
		<g>
			<path fill="#FFCE00" d="M42.105,42.86c-0.384,0-0.768-0.146-1.061-0.439l-9.07-9.07c-0.586-0.586-0.586-1.535,0-2.121
				s1.535-0.586,2.121,0l9.07,9.07c0.586,0.586,0.586,1.535,0,2.121C42.873,42.714,42.489,42.86,42.105,42.86z"/>
		</g>
		<g>
			<path fill="#FFCE00" d="M33.035,42.86c-0.384,0-0.768-0.146-1.061-0.439c-0.586-0.586-0.586-1.535,0-2.121l9.07-9.07
				c0.586-0.586,1.535-0.586,2.121,0s0.586,1.535,0,2.121l-9.07,9.07C33.802,42.714,33.418,42.86,33.035,42.86z"/>
		</g>
	</g>
	<g>
		<g>
			<path fill="#FFCE00" d="M56.127,26.36c-0.512,0-1.023-0.195-1.414-0.586l-3.297-3.296c-0.781-0.78-0.781-2.047,0-2.828
				c0.781-0.781,2.047-0.781,2.829,0l3.297,3.296c0.781,0.78,0.781,2.047,0,2.828C57.151,26.165,56.639,26.36,56.127,26.36z"/>
		</g>
		<g>
			<path fill="#FFCE00" d="M56.057,26.36c-0.512,0-1.024-0.195-1.414-0.586c-0.781-0.781-0.781-2.047,0-2.828l10.07-10.07
				c0.78-0.781,2.048-0.781,2.828,0c0.781,0.781,0.781,2.047,0,2.828l-10.07,10.07C57.081,26.165,56.569,26.36,56.057,26.36z"/>
		</g>
	</g>
</g>
</svg>
