<?xml version="1.0" encoding="utf-8"?>
<!-- Generator: Adobe Illustrator 16.0.0, SVG Export Plug-In . SVG Version: 6.00 Build 0)  -->
<!DOCTYPE svg PUBLIC "-//W3C//DTD SVG 1.1//EN" "http://www.w3.org/Graphics/SVG/1.1/DTD/svg11.dtd">
<svg version="1.1" id="Layer_1" xmlns="http://www.w3.org/2000/svg" xmlns:xlink="http://www.w3.org/1999/xlink" x="0px" y="0px"
	 width="117.633px" height="117.633px" viewBox="0 0 117.633 117.633" enable-background="new 0 0 117.633 117.633"
	 xml:space="preserve">
<circle cx="58.816" cy="58.816" r="58.816"/>
<g>
	<g>
		<g>
			<polygon fill="none" points="85.345,59.739 85.345,59.739 85.341,59.739 			"/>
		</g>
		<g>
			<path fill="#FFFFFF" d="M85.198,59.587L85.198,59.587 M32.198,59.747c-1-0.184-2.13,0.086-2.923,0.688
				c-0.895,0.68-1.436,1.758-1.729,3.059c-0.262,1.152-0.292,2.504-0.155,3.895c0.363,3.727,2.079,7.91,4.434,9.48
				c0.289,0.195,0.563,0.285,0.82,0.309c0.926,6.125,3.807,12.266,7.948,17.055c4.75,5.5,11.173,9.254,18.239,9.254
				c7.039,0,13.458-3.77,18.211-9.281c4.144-4.797,7.035-10.934,7.97-17.035c0.258-0.023,0.527-0.113,0.82-0.309
				c2.355-1.57,4.066-5.75,4.426-9.48c0.133-1.391,0.053-2.742-0.208-3.895c-0.293-1.301-0.9-2.379-1.799-3.059
				c-0.792-0.597-2.054-0.941-3.054-0.764L32.198,59.747z"/>
		</g>
	</g>
	<g>
		<g>
			<circle fill="#4D4C4D" cx="71.422" cy="70.377" r="3.05"/>
		</g>
		<g>
			<circle fill="#4D4C4D" cx="46.213" cy="70.377" r="3.05"/>
		</g>
	</g>
	<g>
		<g>
			<path fill="#FFCE00" d="M55.895,62.773c-0.83-1.188-2.016-1.55-5.457-1.55l-9.135,0.051h-0.355c-2.669,0-3.618-0.103-4.923-0.361
				c-0.949-0.207-1.839-0.62-2.551-1.188c-1.542-1.137-2.076-2.532-2.076-5.477v-2.738h4.271l-0.06,0.879
				c-0.059,1.136,0.297,1.859,0.949,2.376c0.416,0.31,0.831,0.517,1.305,0.62c0.89,0.207,1.424,0.207,4.211,0.207h8.897
				c4.864,0,6.524,0.877,8.067,4.235c0.356-1.188,0.593-1.653,1.364-2.428c1.424-1.396,2.966-1.808,6.524-1.808h8.957
				c2.669,0,3.322-0.053,4.152-0.26c1.482-0.31,2.254-1.395,2.254-3.1v-0.723h4.271v2.687c0,3.048-0.534,4.339-2.076,5.528
				c-0.771,0.567-1.661,0.98-2.551,1.188c-1.364,0.259-2.254,0.361-4.982,0.361h-0.296l-9.194-0.051c-2.373,0-3.5,0.104-4.33,0.516
				c-1.187,0.568-1.72,1.705-1.957,3.927h-4.449C56.547,64.064,56.429,63.548,55.895,62.773z"/>
		</g>
	</g>
	<g>
		<path fill="#FFCE00" d="M86.683,29.208c-0.275,0.893-0.801,2.129-2.724,2.998c-0.687,0.297-1.236,0.436-2.655,0.596v2.746h-1.831
			v-2.746c-0.435-0.047-0.847-0.092-1.282-0.16c-1.877-0.299-3.319-0.962-3.914-1.305c-0.32-0.184-0.664-0.412-0.984-0.642
			l2.105-2.38c0.435,0.229,1.694,1.007,3.205,1.281c0.274,0.046,0.572,0.068,0.87,0.092v-3.525c-0.114-0.022-1.762-0.32-2.77-0.686
			c-0.824-0.321-2.747-1.191-2.747-3.754c0-3.137,2.266-4.212,3.342-4.578c0.961-0.32,1.808-0.344,2.151-0.389v-2.609h1.854v2.632
			c0.435,0.046,0.87,0.092,1.282,0.183c1.854,0.412,3.296,1.352,3.822,1.672l-2.014,2.334c-1.694-0.847-2.014-0.893-3.09-1.121
			v3.044c0.778,0.183,1.579,0.366,2.334,0.618c1.763,0.572,2.472,1.373,2.861,2.151c0.183,0.343,0.458,1.007,0.458,1.945
			C86.957,28.178,86.866,28.658,86.683,29.208z M79.45,19.823c-0.618,0.092-1.167,0.206-1.579,0.756
			c-0.206,0.297-0.252,0.595-0.252,0.732c0,0.092,0,0.297,0.137,0.526c0.229,0.411,0.778,0.55,1.717,0.732L79.45,19.823z
			 M83.135,27.308c-0.343-0.572-1.282-0.709-1.831-0.801v3.136c0.183-0.046,1.19-0.138,1.694-0.824
			c0.274-0.366,0.297-0.732,0.297-0.915C83.295,27.583,83.204,27.423,83.135,27.308z"/>
	</g>
	<g>
		<path fill="#FFCE00" d="M65.333,39.208c-0.275,0.893-0.801,2.129-2.724,2.998c-0.687,0.297-1.236,0.436-2.655,0.596v2.746h-1.831
			v-2.746c-0.435-0.047-0.847-0.092-1.282-0.16c-1.877-0.299-3.319-0.962-3.914-1.305c-0.32-0.184-0.664-0.412-0.984-0.642
			l2.105-2.38c0.435,0.229,1.694,1.007,3.205,1.281c0.274,0.046,0.572,0.068,0.87,0.092v-3.525c-0.114-0.022-1.762-0.32-2.77-0.686
			c-0.824-0.321-2.747-1.191-2.747-3.754c0-3.137,2.266-4.212,3.342-4.578c0.961-0.32,1.808-0.344,2.151-0.389v-2.609h1.854v2.632
			c0.435,0.046,0.87,0.092,1.282,0.183c1.854,0.412,3.296,1.352,3.822,1.672l-2.014,2.334c-1.694-0.847-2.014-0.893-3.09-1.121
			v3.044c0.778,0.183,1.579,0.366,2.334,0.618c1.763,0.572,2.472,1.373,2.861,2.151c0.183,0.343,0.458,1.007,0.458,1.945
			C65.607,38.178,65.516,38.658,65.333,39.208z M58.1,29.823c-0.618,0.092-1.167,0.206-1.579,0.756
			c-0.206,0.297-0.252,0.595-0.252,0.732c0,0.092,0,0.297,0.137,0.526c0.229,0.411,0.778,0.55,1.717,0.732L58.1,29.823z
			 M61.785,37.308c-0.343-0.572-1.282-0.709-1.831-0.801v3.136c0.183-0.046,1.19-0.138,1.694-0.824
			c0.274-0.366,0.297-0.732,0.297-0.915C61.945,37.583,61.854,37.423,61.785,37.308z"/>
	</g>
	<g>
		<path fill="#FFCE00" d="M45.382,29.208c-0.275,0.893-0.801,2.129-2.724,2.998c-0.687,0.297-1.236,0.436-2.655,0.596v2.746h-1.831
			v-2.746c-0.435-0.047-0.847-0.092-1.282-0.16c-1.877-0.299-3.319-0.962-3.914-1.305c-0.32-0.184-0.664-0.412-0.984-0.642
			l2.105-2.38c0.435,0.229,1.694,1.007,3.205,1.281c0.274,0.046,0.572,0.068,0.87,0.092v-3.525c-0.114-0.022-1.762-0.32-2.77-0.686
			c-0.824-0.321-2.747-1.191-2.747-3.754c0-3.137,2.266-4.212,3.342-4.578c0.961-0.32,1.808-0.344,2.151-0.389v-2.609h1.854v2.632
			c0.435,0.046,0.87,0.092,1.282,0.183c1.854,0.412,3.296,1.352,3.822,1.672l-2.014,2.334c-1.694-0.847-2.014-0.893-3.09-1.121
			v3.044c0.778,0.183,1.579,0.366,2.334,0.618c1.763,0.572,2.472,1.373,2.861,2.151c0.183,0.343,0.458,1.007,0.458,1.945
			C45.657,28.178,45.565,28.658,45.382,29.208z M38.149,19.823c-0.618,0.092-1.167,0.206-1.579,0.756
			c-0.206,0.297-0.252,0.595-0.252,0.732c0,0.092,0,0.297,0.137,0.526c0.229,0.411,0.778,0.55,1.717,0.732L38.149,19.823z
			 M41.834,27.308c-0.343-0.572-1.282-0.709-1.831-0.801v3.136c0.183-0.046,1.19-0.138,1.694-0.824
			c0.274-0.366,0.297-0.732,0.297-0.915C41.995,27.583,41.903,27.423,41.834,27.308z"/>
	</g>
</g>
</svg>
