<?xml version="1.0" encoding="utf-8"?>
<!-- Generator: Adobe Illustrator 16.0.0, SVG Export Plug-In . SVG Version: 6.00 Build 0)  -->
<!DOCTYPE svg PUBLIC "-//W3C//DTD SVG 1.1//EN" "http://www.w3.org/Graphics/SVG/1.1/DTD/svg11.dtd">
<svg version="1.1" id="Layer_1" xmlns="http://www.w3.org/2000/svg" xmlns:xlink="http://www.w3.org/1999/xlink" x="0px" y="0px"
	 width="117.633px" height="117.633px" viewBox="0 0 117.633 117.633" enable-background="new 0 0 117.633 117.633"
	 xml:space="preserve">
<circle cx="58.816" cy="58.816" r="58.816"/>
<polygon fill="none" points="85.345,56.02 85.345,56.02 85.341,56.02 "/>
<path fill="#FFFFFF" d="M85.198,55.867L85.198,55.867 M32.198,56.027c-1-0.184-2.13,0.086-2.923,0.688
	c-0.895,0.68-1.436,1.758-1.729,3.059c-0.262,1.152-0.292,2.504-0.155,3.896c0.363,3.728,2.079,7.91,4.434,9.479
	c0.289,0.195,0.563,0.285,0.82,0.31c0.926,6.125,3.807,12.267,7.948,17.056c4.75,5.5,11.173,9.254,18.239,9.254
	c7.039,0,13.458-3.771,18.211-9.281c4.145-4.797,7.035-10.935,7.971-17.035c0.258-0.023,0.526-0.113,0.819-0.309
	c2.354-1.57,4.065-5.75,4.426-9.48c0.134-1.391,0.054-2.742-0.208-3.895c-0.293-1.302-0.9-2.379-1.799-3.06
	c-0.792-0.597-2.054-0.941-3.054-0.764L32.198,56.027z"/>
<circle fill="#4D4C4D" cx="71.422" cy="66.658" r="3.05"/>
<circle fill="#4D4C4D" cx="46.213" cy="66.658" r="3.05"/>
<path fill="#FFCE00" d="M55.895,59.054c-0.83-1.188-2.016-1.55-5.457-1.55l-9.135,0.051h-0.354c-2.669,0-3.618-0.103-4.923-0.361
	c-0.949-0.207-1.839-0.62-2.551-1.188c-1.542-1.137-2.076-2.532-2.076-5.477v-2.738h4.271l-0.06,0.879
	c-0.059,1.136,0.297,1.859,0.949,2.376c0.416,0.31,0.831,0.517,1.305,0.62c0.89,0.207,1.424,0.207,4.211,0.207h8.897
	c4.864,0,6.524,0.877,8.067,4.235c0.356-1.188,0.593-1.653,1.364-2.428c1.424-1.396,2.966-1.808,6.523-1.808h8.957
	c2.669,0,3.322-0.053,4.152-0.26c1.482-0.31,2.254-1.395,2.254-3.1v-0.723h4.271v2.687c0,3.048-0.535,4.339-2.076,5.528
	c-0.771,0.567-1.661,0.98-2.551,1.188c-1.365,0.259-2.254,0.361-4.982,0.361h-0.296l-9.194-0.051c-2.373,0-3.5,0.104-4.33,0.516
	c-1.188,0.568-1.72,1.705-1.957,3.927h-4.449C56.547,60.345,56.429,59.828,55.895,59.054z"/>
<line fill="none" stroke="#FFCE00" stroke-width="3" stroke-linecap="round" stroke-miterlimit="10" x1="38.311" y1="21.574" x2="51.311" y2="21.574"/>
<line fill="none" stroke="#FFCE00" stroke-width="3" stroke-linecap="round" stroke-miterlimit="10" x1="38.311" y1="29.574" x2="47.311" y2="29.574"/>
<line fill="none" stroke="#FFCE00" stroke-width="3" stroke-linecap="round" stroke-miterlimit="10" x1="38.311" y1="37.574" x2="50.311" y2="37.574"/>
<path fill="#FFCE00" d="M71.48,35.321c-0.017-0.017-0.033-0.032-0.049-0.048c0.95-1.534,1.5-3.342,1.5-5.271
	c0-5.537-4.521-10.058-10.059-10.058c-5.537,0-10.058,4.521-10.058,10.058c0,5.538,4.521,10.059,10.058,10.059
	c1.93,0,3.738-0.55,5.271-1.5c0.015,0.017,0.031,0.032,0.047,0.048l5.416,5.58c0.433,0.453,1.029,0.885,1.656,0.885
	c0.008,0,0.017,0,0.024,0c0.617,0,1.208-0.408,1.646-0.846c0.443-0.443,0.688-1.128,0.682-1.754
	c-0.008-0.627-0.268-1.265-0.721-1.696L71.48,35.321z M62.873,36.966c-3.862,0-6.962-3.1-6.962-6.963c0-3.862,3.1-6.963,6.962-6.963
	c3.863,0,6.964,3.101,6.964,6.963C69.837,33.866,66.736,36.966,62.873,36.966z"/>
</svg>
