<?xml version="1.0" encoding="utf-8"?>
<!-- Generator: Adobe Illustrator 16.0.0, SVG Export Plug-In . SVG Version: 6.00 Build 0)  -->
<!DOCTYPE svg PUBLIC "-//W3C//DTD SVG 1.1//EN" "http://www.w3.org/Graphics/SVG/1.1/DTD/svg11.dtd">
<svg version="1.1" id="Layer_1" xmlns="http://www.w3.org/2000/svg" xmlns:xlink="http://www.w3.org/1999/xlink" x="0px" y="0px"
	 width="117.633px" height="117.633px" viewBox="0 0 117.633 117.633" enable-background="new 0 0 117.633 117.633"
	 xml:space="preserve">
<g>
	<g>
		<circle cx="58.817" cy="58.816" r="58.817"/>
	</g>
	<g>
		<g>
			<polygon fill="none" points="85.345,56.02 85.345,56.02 85.34,56.02 			"/>
		</g>
		<g>
			<path fill="#FFFFFF" d="M85.198,55.867L85.198,55.867 M32.198,56.027c-1-0.184-2.13,0.086-2.923,0.688
				c-0.895,0.68-1.436,1.758-1.729,3.059c-0.262,1.152-0.292,2.504-0.155,3.895c0.363,3.727,2.079,7.91,4.434,9.48
				c0.289,0.195,0.563,0.285,0.82,0.309c0.926,6.125,3.807,12.266,7.948,17.055c4.75,5.5,11.173,9.254,18.239,9.254
				c7.04,0,13.458-3.77,18.211-9.281c4.145-4.797,7.035-10.934,7.97-17.035c0.258-0.023,0.526-0.113,0.819-0.309
				c2.355-1.57,4.066-5.75,4.426-9.48c0.134-1.391,0.054-2.742-0.208-3.895c-0.293-1.301-0.899-2.379-1.799-3.059
				c-0.792-0.597-2.054-0.941-3.054-0.764L32.198,56.027z"/>
		</g>
	</g>
	<g>
		<g>
			<circle fill="#4D4C4D" cx="71.422" cy="66.658" r="3.05"/>
		</g>
		<g>
			<circle fill="#4D4C4D" cx="46.213" cy="66.658" r="3.05"/>
		</g>
	</g>
	<g>
		<g>
			<path fill="#FFCE00" d="M55.895,59.054c-0.83-1.188-2.016-1.55-5.457-1.55l-9.135,0.051h-0.355c-2.669,0-3.618-0.103-4.923-0.361
				c-0.949-0.207-1.839-0.62-2.551-1.188c-1.542-1.137-2.076-2.532-2.076-5.477v-2.738h4.271l-0.06,0.879
				c-0.059,1.136,0.297,1.859,0.949,2.376c0.416,0.31,0.831,0.517,1.305,0.62c0.89,0.207,1.424,0.207,4.211,0.207h8.897
				c4.864,0,6.524,0.877,8.067,4.235c0.356-1.188,0.593-1.653,1.364-2.428c1.424-1.396,2.966-1.808,6.524-1.808h8.957
				c2.669,0,3.321-0.053,4.152-0.26c1.482-0.31,2.254-1.395,2.254-3.1v-0.723h4.271v2.687c0,3.048-0.533,4.339-2.076,5.528
				c-0.771,0.567-1.66,0.98-2.551,1.188c-1.363,0.259-2.254,0.361-4.982,0.361h-0.296l-9.194-0.051c-2.373,0-3.5,0.104-4.33,0.516
				c-1.187,0.568-1.721,1.705-1.957,3.927h-4.449C56.547,60.345,56.429,59.828,55.895,59.054z"/>
		</g>
	</g>
	<g>
		<path fill="#FFCE00" d="M77.311,23.074h-19c-0.829,0-1.5-0.671-1.5-1.5s0.671-1.5,1.5-1.5h19c0.828,0,1.5,0.671,1.5,1.5
			S78.139,23.074,77.311,23.074z"/>
	</g>
	<g>
		<path fill="#FFCE00" d="M77.311,32.074h-12c-0.828,0-1.5-0.671-1.5-1.5s0.672-1.5,1.5-1.5h12c0.828,0,1.5,0.671,1.5,1.5
			S78.139,32.074,77.311,32.074z"/>
	</g>
	<g>
		<path fill="#FFCE00" d="M77.311,41.074h-16c-0.828,0-1.5-0.671-1.5-1.5s0.672-1.5,1.5-1.5h16c0.828,0,1.5,0.671,1.5,1.5
			S78.139,41.074,77.311,41.074z"/>
	</g>
	<g>
		<g>
			<path fill="#FFCE00" d="M39.387,42.498c-0.64,0-1.28-0.244-1.768-0.732c-0.976-0.976-0.976-2.559,0-3.536l11.313-11.312
				c0.976-0.976,2.559-0.976,3.536,0c0.976,0.976,0.976,2.559,0,3.536L41.154,41.766C40.667,42.254,40.026,42.498,39.387,42.498z"/>
		</g>
		<g>
			<path fill="#FFCE00" d="M42.922,25.235c-0.384,0-0.768-0.146-1.061-0.439c-0.586-0.585-0.586-1.535,0-2.121l3.536-3.536
				c0.585-0.586,1.535-0.586,2.121,0c0.586,0.585,0.586,1.535,0,2.121l-3.536,3.536C43.69,25.089,43.306,25.235,42.922,25.235z"/>
		</g>
		<g>
			<path fill="#FFCE00" d="M55.65,37.963c-0.384,0-0.768-0.146-1.061-0.439c-0.586-0.586-0.586-1.536,0-2.121l3.536-3.535
				c0.586-0.586,1.536-0.586,2.121,0c0.586,0.586,0.586,1.536,0,2.121l-3.536,3.535C56.418,37.816,56.034,37.963,55.65,37.963z"/>
		</g>
		<g>
			<path fill="#FFCE00" d="M53.784,34.794c-0.727,0.727-1.904,0.728-2.63,0.001l-6.562-6.562c-0.727-0.727-0.727-1.904,0-2.631
				l3.733-3.732c0.727-0.727,1.904-0.727,2.631,0l6.562,6.562c0.727,0.727,0.726,1.903,0,2.63L53.784,34.794z"/>
		</g>
	</g>
</g>
</svg>
