<?xml version="1.0" encoding="utf-8"?>
<!-- Generator: Adobe Illustrator 16.0.0, SVG Export Plug-In . SVG Version: 6.00 Build 0)  -->
<!DOCTYPE svg PUBLIC "-//W3C//DTD SVG 1.1//EN" "http://www.w3.org/Graphics/SVG/1.1/DTD/svg11.dtd">
<svg version="1.1" id="Layer_1" xmlns="http://www.w3.org/2000/svg" xmlns:xlink="http://www.w3.org/1999/xlink" x="0px" y="0px"
	 width="117.633px" height="117.633px" viewBox="0 0 117.633 117.633" enable-background="new 0 0 117.633 117.633"
	 xml:space="preserve">
<g>
	<circle cx="58.816" cy="58.816" r="58.816"/>
	<g>
		<g>
			<polygon fill="none" points="85.345,51.416 85.345,51.416 85.34,51.416 			"/>
			<path fill="#FFFFFF" d="M85.198,51.264L85.198,51.264 M32.198,51.424c-1-0.184-2.13,0.086-2.923,0.688
				c-0.895,0.68-1.436,1.758-1.729,3.059c-0.263,1.152-0.292,2.504-0.155,3.895c0.363,3.727,2.078,7.911,4.434,9.48
				c0.289,0.195,0.563,0.285,0.82,0.31c0.926,6.125,3.807,12.266,7.948,17.055c4.75,5.5,11.173,9.254,18.239,9.254
				c7.039,0,13.457-3.77,18.211-9.281c4.145-4.797,7.035-10.934,7.971-17.035c0.258-0.022,0.525-0.113,0.818-0.309
				c2.355-1.57,4.066-5.75,4.426-9.48c0.135-1.391,0.055-2.742-0.208-3.895c-0.293-1.301-0.899-2.379-1.799-3.059
				c-0.792-0.597-2.054-0.941-3.054-0.764L32.198,51.424z"/>
		</g>
		<g>
			<circle fill="#4D4C4D" cx="71.422" cy="62.054" r="3.05"/>
			<circle fill="#4D4C4D" cx="46.213" cy="62.054" r="3.05"/>
		</g>
		<g>
			<path fill="#FFCE00" d="M55.895,54.45c-0.83-1.188-2.017-1.55-5.457-1.55l-9.135,0.051h-0.354c-2.67,0-3.619-0.103-4.924-0.361
				c-0.949-0.207-1.839-0.62-2.551-1.188c-1.542-1.137-2.076-2.532-2.076-5.477v-2.738h4.271l-0.061,0.879
				c-0.059,1.136,0.298,1.859,0.949,2.376c0.416,0.31,0.831,0.517,1.306,0.62c0.89,0.207,1.424,0.207,4.212,0.207h8.896
				c4.864,0,6.525,0.877,8.067,4.235c0.355-1.188,0.593-1.653,1.363-2.428c1.425-1.396,2.967-1.808,6.524-1.808h8.957
				c2.669,0,3.321-0.053,4.152-0.26c1.481-0.31,2.254-1.395,2.254-3.1v-0.723h4.271v2.687c0,3.048-0.533,4.339-2.076,5.528
				c-0.771,0.567-1.659,0.98-2.551,1.188c-1.363,0.259-2.254,0.361-4.981,0.361h-0.296L67.461,52.9c-2.373,0-3.5,0.104-4.33,0.516
				c-1.188,0.568-1.721,1.705-1.957,3.927h-4.449C56.547,55.741,56.428,55.225,55.895,54.45z"/>
		</g>
		<circle fill="#FFCE00" cx="80.389" cy="28.644" r="6.173"/>
		<g>
			
				<line fill="none" stroke="#FFCE00" stroke-width="3" stroke-linecap="round" stroke-miterlimit="10" x1="52.311" y1="28.971" x2="65.311" y2="28.971"/>
			<polyline fill="none" stroke="#FFCE00" stroke-width="3" stroke-linecap="round" stroke-miterlimit="10" points="61.421,32.894 
				65.505,28.567 65.505,28.567 61.729,24.67 			"/>
		</g>
		<rect x="31.311" y="22.471" fill="#FFCE00" width="13" height="13"/>
	</g>
</g>
</svg>
