<?xml version="1.0" encoding="utf-8"?>
<!-- Generator: Adobe Illustrator 16.0.0, SVG Export Plug-In . SVG Version: 6.00 Build 0)  -->
<!DOCTYPE svg PUBLIC "-//W3C//DTD SVG 1.1//EN" "http://www.w3.org/Graphics/SVG/1.1/DTD/svg11.dtd">
<svg version="1.1" id="Layer_1" xmlns="http://www.w3.org/2000/svg" xmlns:xlink="http://www.w3.org/1999/xlink" x="0px" y="0px"
	 width="223.416px" height="171.521px" viewBox="0 0 223.416 171.521" enable-background="new 0 0 223.416 171.521"
	 xml:space="preserve">
<g>
	<path fill="#FFFFFF" d="M69.696,8.406c-11.615,6.425-20.019,15.567-25.951,27.927h25.703L69.696,8.406z M72.166,0
		c0.495,0,0.743,0,1.235,0c26.939,0,50.17,14.337,63.268,35.837c3.956,6.426,6.674,13.594,8.406,21.254h55.357
		c1.486,0,2.474,0.743,2.474,1.733v77.354c0,0.247,0,0.247,0,0.491l0,0l20.511,29.907c0,1.482-1.232,4.943-2.718,4.943H51.903
		c-1.486,0-2.721-3.461-2.721-4.943l13.594-21.006c-35.342-4.945-62.777-35.593-62.777-72.414
		C0.247,59.563,3.955,46.218,10.628,35.59C23.479,14.337,45.97,0.247,72.166,0z M195.985,129.753V65.002
		c0-0.743-0.986-1.485-2.225-1.485h-47.697h-6.182h-25.701h-6.178H79.087c-1.234,0-2.226,0.742-2.226,1.485v3.952v6.182l0,0v26.195
		l0,0v6.178v22.488c0,0.99,0.991,1.486,2.226,1.486h2.721h8.646h16.063h9.642h1.73h43.496h7.908h24.219
		C194.751,131.73,195.985,130.987,195.985,129.753z M113.687,56.843h25.209c-1.236-5.187-3.213-9.885-5.439-14.332h-23.23
		C111.464,47.206,112.946,51.656,113.687,56.843z M107.756,36.333h21.997c-10.134-15.571-26.447-26.199-45.477-29.412
		C94.657,14.089,102.565,24.47,107.756,36.333z M76.614,56.843h30.646c-0.743-5.187-1.975-9.885-3.955-14.332H76.614V56.843z
		 M76.614,36.333h24.221C95.401,24.965,87.242,15.819,76.614,9.146V36.333z M69.696,42.511H41.522
		c-2.473,6.92-4.203,14.58-4.698,22.738c0,1.235-0.247,2.471-0.247,3.705h33.119V42.511z M69.201,136.426v-0.247v-28.67H44.983
		c5.682,11.371,13.837,21.501,24.218,29.161C69.201,136.426,69.201,136.426,69.201,136.426z M69.201,101.331V74.888H36.577
		c0.494,9.391,2.225,18.041,5.686,26.195h26.938V101.331z M62.528,139.391c-10.625-8.403-18.783-19.523-24.467-31.882h-22.49
		C25.704,124.315,42.757,136.179,62.528,139.391z M37.071,36.333c5.191-11.615,12.852-21.502,22.736-28.917
		c-17.545,3.708-32.869,14.089-42.26,28.917H37.071z M12.605,101.331h23.231c-3.213-8.155-4.943-17.301-5.19-26.195H6.673
		C6.673,84.278,8.653,93.176,12.605,101.331z M34.603,42.511h-21.01c-3.952,7.907-6.426,17.053-6.92,26.199h23.727
		c0-1.238,0-2.721,0.247-4.203C30.894,56.843,32.376,49.431,34.603,42.511z"/>
	<rect x="84.524" y="70.437" fill="#FFCE00" width="102.068" height="14.336"/>
	<polygon fill="#FFCE00" points="182.64,106.767 176.706,109.734 181.157,118.385 177.202,120.359 172.755,111.96 167.069,114.677 
		164.847,91.446 	"/>
	<path fill="#FFCE00" d="M150.511,108.991l-0.248-0.244l0,0C150.511,108.747,150.511,108.991,150.511,108.991z M151.749,91.693
		v32.126H84.772V91.693H151.749z M123.571,108.991C123.571,108.747,123.819,108.747,123.571,108.991L123.571,108.991
		C123.819,108.747,123.571,108.747,123.571,108.991z"/>
</g>
</svg>
