<?xml version="1.0" encoding="utf-8"?>
<!-- Generator: Adobe Illustrator 16.0.0, SVG Export Plug-In . SVG Version: 6.00 Build 0)  -->
<!DOCTYPE svg PUBLIC "-//W3C//DTD SVG 1.1//EN" "http://www.w3.org/Graphics/SVG/1.1/DTD/svg11.dtd">
<svg version="1.1" id="Layer_1" xmlns="http://www.w3.org/2000/svg" xmlns:xlink="http://www.w3.org/1999/xlink" x="0px" y="0px"
	 width="151.713px" height="190.637px" viewBox="0 0 151.713 190.637" enable-background="new 0 0 151.713 190.637"
	 xml:space="preserve">
<g>
	<path fill="#FFCE00" d="M49.986,82.158c-0.338-0.984-0.299-1.789,0.119-2.385c0.559-0.792,1.658-1.129,2.682-0.818
		c0.656,0.199,1.814,0.845,2.203,2.94c0.295,1.569,0.488,2.541,0.611,3.12c0.148,0.691,0.457,2.125,1.627,1.852
		c1.213-0.279,1.004-1.818,0.928-2.399l-0.021-0.112c-0.039-0.211-0.998-4.601,1.754-5.604c0.412-0.152,1.057,0.359,1.307,0.359
		h1.16v-1.071c0-0.023-0.177,0.014,0.241,0.16c2.76,0.965,1.509,5.9,1.468,6.113l-0.199,0.117c-0.078,0.578-0.354,2.117,0.865,2.385
		c1.174,0.256,1.417-1.182,1.56-1.875c0.111-0.582,0.269-1.556,0.536-3.13c0.365-2.103,1.502-2.761,2.15-2.97
		c1.023-0.327,2.117-0.002,2.689,0.775c0.426,0.592,0.475,1.395,0.15,2.386c-3.57,10.833-6.607,39.83-5.914,51.079l3.344,0.039
		c-0.848-11.113,1.84-39.551,5.543-50.77c0.705-2.143,0.475-4.251-0.637-5.779c-1.236-1.711-3.424-2.429-5.436-1.785
		c-1.215,0.385-2.227,1.201-2.965,2.342c-0.609-1.342-1.598-2.457-3.139-2.992c-0.662-0.232-1.248-0.302-1.768-0.287
		c-0.518-0.012-1.102,0.071-1.762,0.311c-1.531,0.562-2.502,1.689-3.09,3.033c-0.756-1.126-1.781-1.923-3-2.296
		c-2.025-0.608-4.197,0.142-5.41,1.868c-1.088,1.541-1.289,3.648-0.553,5.79c3.82,11.048,6.787,39.312,6.176,50.381l3.197,0.036
		C56.896,121.742,53.689,92.877,49.986,82.158z"/>
	<g>
		<path fill="none" stroke="#FFFFFF" stroke-width="6" stroke-miterlimit="10" d="M101.549,104.208
			c10.498-10.498,17.236-26.055,17.236-42.075c0.002-4.596-0.426-9.587-1.439-13.874l-16.988,6.867L85.904,26.089l-7.436,21.614
			L55.553,20.69l3.322-17.556C27.826,4.264,3,29.765,3,61.092c0,16.02,6.258,32.62,16.758,43.118
			c14.66,14.656,19.422,16.9,19.684,31.9h41.701C81.445,121.11,86.885,118.866,101.549,104.208z"/>
		<path fill="#FFFFFF" d="M38.355,133.139c-3,0.439-6.293,3.459-6.293,7.127c0,3.665,3.293,6.685,6.293,7.125c0,0.062,0,1.72,0,1.72
			h2.475c-3.969,0-7.188,2.389-7.188,6.357c0,3.973,3.219,6.777,7.188,6.777c-3.969,0-7.188,4.462-7.188,8.433
			c0,3.973,3.219,8.433,7.188,8.433h3.15c-0.059,0-0.098,0.089-0.098,0.476c0,3.973,3.215,6.524,7.188,6.524h19.891
			c3.969,0,7.188-2.548,7.188-6.524c0-0.387-0.039-0.476-0.102-0.476h3.148c3.973,0,7.188-4.668,7.188-8.639
			c0-3.973-3.215-7.912-7.188-7.912c3.973,0,7.188-2.754,7.188-6.728c0-3.969-3.215-6.722-7.188-6.722h-0.84c0,0,0-1.657,0-1.72
			c4-0.44,6.291-3.46,6.291-7.125c0-3.668-2.291-6.688-6.291-7.127c0-0.021,0-0.041,0-0.062c0-0.409,0.779,0.034,0.787-0.966H39.441
			c0.006,1-1.086,0.557-1.086,0.966C38.355,133.098,38.355,133.117,38.355,133.139z"/>
	</g>
	<path fill="#FFFFFF" d="M124.668,190.637c10.127-0.928,28.768-17.599,26.916-37.754c-0.137-1.497-0.373-2.963-0.682-4.396
		l-11.736-1.125l-16.748,17.095l15.039,3.663l-18.588,11.52L124.668,190.637"/>
	<polygon fill="#FFFFFF" points="110.691,153.209 118.604,168.654 104.461,160.439 	"/>
</g>
</svg>
