<?xml version="1.0" encoding="utf-8"?>
<!-- Generator: Adobe Illustrator 16.0.0, SVG Export Plug-In . SVG Version: 6.00 Build 0)  -->
<!DOCTYPE svg PUBLIC "-//W3C//DTD SVG 1.1//EN" "http://www.w3.org/Graphics/SVG/1.1/DTD/svg11.dtd">
<svg version="1.1" id="Layer_1" xmlns="http://www.w3.org/2000/svg" xmlns:xlink="http://www.w3.org/1999/xlink" x="0px" y="0px"
	 width="174.834px" height="127.73px" viewBox="0 0 174.834 127.73" enable-background="new 0 0 174.834 127.73"
	 xml:space="preserve">
<g>
	<path fill="none" stroke="#FFCE00" stroke-width="5" stroke-miterlimit="10" d="M142.475,32.351
		C135.935,14.913,119.121,2.5,99.398,2.5c-16.424,0-30.827,8.611-38.966,21.562c-1.907-0.242-3.849-0.381-5.821-0.381
		c-25.404,0-45.998,10.594-45.998,35.998c0,10.311,3.395,9.828,9.121,17.5c-3.609,4.084-5.803,9.445-5.803,15.326
		c0,4.256,1.15,8.241,3.154,11.667c-0.639-0.118-1.292-0.188-1.964-0.188C7.256,103.986,2.5,108.74,2.5,114.609
		c0,5.868,4.756,10.621,10.62,10.621c5.866,0,10.622-4.756,10.622-10.621c0-0.692-0.072-1.371-0.199-2.027
		c3.398,1.957,7.337,3.084,11.539,3.084c6.793,0,12.906-2.927,17.143-7.588c7.51,5.338,16.683,8.48,26.595,8.48
		c14.287,0,27.052-6.511,35.488-16.729c3.833,1.036,7.864,1.599,12.026,1.599c25.406,0.002,46-10.592,46-35.998
		C172.334,45.708,159.916,38.889,142.475,32.351z"/>
	<path fill="#FFFFFF" d="M135.173,49.904h5.644l2.166-3.25h-21.21l-2.165,3.25h3.684c3.729,0,7.173,0.29,8.547,3.411h-10.065
		l-2.165,3.25h12.639c0,0,0,0.013,0,0.022c0,2.339-1.944,5.92-8.359,5.92h-3.101l0.005,3.037l12.424,15.531h5.533L125.885,65.01
		c5.299-0.29,10.267-3.246,10.98-8.444h3.951l2.166-3.25h-6.174C136.56,52.062,136.018,50.85,135.173,49.904z"/>
	<g>
		<g>
			<path fill="#FFFFFF" d="M63.101,62.133v-2.691c0-0.545-0.44-0.986-0.985-0.986c-0.542,0-0.984,0.441-0.984,0.986v2.691
				c0,0.545,0.44,0.984,0.984,0.984C62.66,63.117,63.101,62.679,63.101,62.133z M51.216,58.455c-0.544,0-0.984,0.441-0.984,0.986
				v2.691c0,0.545,0.44,0.984,0.984,0.984c0.545,0,0.987-0.438,0.987-0.984v-2.691C52.201,58.896,51.761,58.455,51.216,58.455z
				 M72.548,57.26c-0.518,0-1.007,0.127-1.434,0.351c-2.172-5.877-7.827-10.078-14.447-10.078S44.389,51.733,42.218,57.61
				c-0.428-0.224-0.916-0.351-1.434-0.351c-1.716,0-3.115,1.396-3.115,3.113v5.59c0,1.719,1.399,3.115,3.115,3.115
				c1.719,0,3.116-1.396,3.116-3.115v-5.59c0-0.357-0.062-0.701-0.175-1.02c1.567-5.674,6.773-9.85,12.939-9.85
				c6.163,0,11.367,4.178,12.937,9.85c-0.112,0.318-0.172,0.662-0.172,1.02v5.59c0,0.271,0.036,0.534,0.102,0.785
				c-1.407,4.728-5.357,8.371-10.255,9.342c-0.46-0.979-1.457-1.66-2.609-1.66c-1.593,0-2.884,1.292-2.884,2.885
				c0,1.592,1.291,2.884,2.884,2.884c1.331,0,2.454-0.905,2.784-2.136c5.244-0.964,9.565-4.592,11.505-9.422
				c0.466,0.277,1.011,0.438,1.592,0.438c1.718,0,3.115-1.396,3.115-3.115v-5.59C75.663,58.655,74.266,57.26,72.548,57.26z
				 M56.667,71.056c-1.47,0-2.812-0.517-3.682-1.419c-0.378-0.392-0.365-1.016,0.025-1.393c0.394-0.378,1.017-0.366,1.394,0.025
				c0.486,0.504,1.353,0.818,2.263,0.818c0.907,0,1.773-0.312,2.261-0.818c0.379-0.392,1.002-0.403,1.393-0.025
				c0.392,0.377,0.402,1.001,0.025,1.393C59.477,70.539,58.134,71.056,56.667,71.056z"/>
		</g>
	</g>
	
		<text transform="matrix(1 0 0 1 86.748 76.0049)" fill="#FFCE00" font-family="'NeuzeitGro-Bla'" font-size="39.0913" letter-spacing="7">=</text>
</g>
</svg>
