<?xml version="1.0" encoding="utf-8"?>
<!-- Generator: Adobe Illustrator 16.0.0, SVG Export Plug-In . SVG Version: 6.00 Build 0)  -->
<!DOCTYPE svg PUBLIC "-//W3C//DTD SVG 1.1//EN" "http://www.w3.org/Graphics/SVG/1.1/DTD/svg11.dtd">
<svg version="1.1" id="Layer_1" xmlns="http://www.w3.org/2000/svg" xmlns:xlink="http://www.w3.org/1999/xlink" x="0px" y="0px"
	 width="264px" height="176px" viewBox="0 0 264 176" enable-background="new 0 0 264 176" xml:space="preserve">
<g>
	<path fill="none" stroke="#FFCE00" stroke-width="5" stroke-miterlimit="10" d="M261.508,62.518"/>
	<polyline fill="none" stroke="#FFCE00" stroke-width="5" stroke-miterlimit="10" points="3.133,127.018 12.841,120.227 
		29.508,138.371 134.841,62.518 	"/>
	
		<line fill="none" stroke="#FFCE00" stroke-width="5" stroke-miterlimit="10" stroke-dasharray="5,10" x1="159" y1="60.5" x2="262" y2="60.5"/>
	<polyline fill="none" stroke="#FFFFFF" stroke-width="6" stroke-miterlimit="10" points="3,0 3,173 264,173 	"/>
	<path fill="none" d="M2.508,164.288"/>
	<g>
		<path fill="#FFCE00" d="M153,77.26c0,2.618-2.122,4.74-4.74,4.74h-28.52c-2.618,0-4.74-2.122-4.74-4.74V48.74
			c0-2.618,2.122-4.74,4.74-4.74h28.52c2.618,0,4.74,2.122,4.74,4.74V77.26z"/>
		<path d="M135.279,54.218h3.287l1.261-1.893h-12.349l-1.262,1.893h2.146c2.172,0,4.177,0.169,4.976,1.986h-5.859l-1.262,1.892
			h7.359c0,0,0,0.008,0,0.014c0,1.361-1.132,3.447-4.867,3.447h-1.805l0.002,1.769l7.234,9.043h3.222l-7.489-9.355
			c3.084-0.169,5.977-1.89,6.393-4.917h2.301l1.261-1.892h-3.594C136.088,55.475,135.772,54.768,135.279,54.218z"/>
	</g>
</g>
</svg>
