<?xml version="1.0" encoding="utf-8"?>
<!-- Generator: Adobe Illustrator 16.0.0, SVG Export Plug-In . SVG Version: 6.00 Build 0)  -->
<!DOCTYPE svg PUBLIC "-//W3C//DTD SVG 1.1//EN" "http://www.w3.org/Graphics/SVG/1.1/DTD/svg11.dtd">
<svg version="1.1" id="Layer_1" xmlns="http://www.w3.org/2000/svg" xmlns:xlink="http://www.w3.org/1999/xlink" x="0px" y="0px"
	 width="188.235px" height="133px" viewBox="0 0 188.235 133" enable-background="new 0 0 188.235 133" xml:space="preserve">
<g>
	<g>
		<g>
			<path fill="#FFFFFF" d="M169.133,22.22v-4.094c0-0.828-0.67-1.499-1.498-1.499c-0.824,0-1.497,0.671-1.497,1.499v4.094
				c0,0.827,0.67,1.497,1.497,1.497C168.463,23.717,169.133,23.049,169.133,22.22z M151.062,16.627
				c-0.828,0-1.497,0.671-1.497,1.499v4.094c0,0.827,0.669,1.497,1.497,1.497s1.501-0.668,1.501-1.497v-4.094
				C152.559,17.298,151.89,16.627,151.062,16.627z M183.498,14.809c-0.786,0-1.53,0.193-2.18,0.533
				c-3.303-8.936-11.901-15.324-21.969-15.324c-10.066,0-18.669,6.389-21.971,15.324c-0.65-0.34-1.394-0.533-2.18-0.533
				c-2.609,0-4.737,2.123-4.737,4.735v8.5c0,2.613,2.128,4.736,4.737,4.736c2.613,0,4.738-2.123,4.738-4.736v-8.5
				c0-0.545-0.094-1.067-0.266-1.552c2.383-8.627,10.3-14.977,19.675-14.977c9.372,0,17.285,6.354,19.672,14.977
				c-0.171,0.484-0.262,1.007-0.262,1.552v8.5c0,0.411,0.055,0.812,0.155,1.193c-2.141,7.188-8.146,12.729-15.594,14.204
				c-0.699-1.488-2.216-2.523-3.969-2.523c-2.422,0-4.385,1.965-4.385,4.387c0,2.421,1.963,4.385,4.385,4.385
				c2.025,0,3.732-1.377,4.233-3.248c7.975-1.465,14.546-6.981,17.495-14.326c0.709,0.421,1.536,0.665,2.42,0.665
				c2.612,0,4.737-2.123,4.737-4.736v-8.5C188.235,16.932,186.11,14.809,183.498,14.809z M159.35,35.787
				c-2.234,0-4.275-0.785-5.598-2.158c-0.575-0.595-0.556-1.544,0.039-2.116c0.598-0.575,1.546-0.558,2.118,0.037
				c0.74,0.767,2.057,1.245,3.44,1.245c1.381,0,2.697-0.476,3.438-1.245c0.576-0.595,1.523-0.612,2.119-0.037
				c0.595,0.572,0.611,1.521,0.038,2.116C163.622,35.002,161.581,35.787,159.35,35.787z"/>
		</g>
		<g>
			<g>
				<path fill="#FFCE00" d="M50,43.811C50,47.229,47.229,50,43.811,50H6.189C2.771,50,0,47.229,0,43.811V6.189
					C0,2.771,2.771,0,6.189,0h37.621C47.229,0,50,2.771,50,6.189V43.811z"/>
				<path d="M27.313,13.935h4.292l1.646-2.471H17.127l-1.646,2.471h2.801c2.836,0,5.453,0.22,6.497,2.593h-7.651l-1.646,2.471h9.608
					v0.016c0,1.778-1.478,4.503-6.354,4.503l-2.357-0.001l0.003,2.309l9.446,11.809h4.207l-9.779-12.217
					c4.026-0.218,7.804-2.467,8.347-6.418h3.005l1.646-2.471h-4.692C28.368,15.572,27.957,14.65,27.313,13.935z"/>
			</g>
			<g>
				
					<line fill="none" stroke="#FFCE00" stroke-width="7" stroke-linecap="round" stroke-miterlimit="10" x1="33" y1="22.5" x2="96" y2="22.5"/>
				<polyline fill="none" stroke="#FFCE00" stroke-width="7" stroke-linecap="round" stroke-miterlimit="10" points="84.246,39.591 
					98.883,24.086 98.883,24.086 82.703,7.474 				"/>
			</g>
		</g>
	</g>
	<g>
		<g>
			<path fill-rule="evenodd" clip-rule="evenodd" fill="#FFFFFF" d="M179.31,85.57v2.975h2.976V85.57
				c0-2.975-2.976-2.975-2.976-2.975h-47.597c0,0-2.972,0-2.972,2.975c-0.087,0,0,29.745,0,29.745c0,2.976,2.972,2.976,2.972,2.976
				h2.976v-2.976h-2.976V85.57H179.31z M149.564,109.368c1.643,0,2.975-1.332,2.975-2.976c0-1.643-1.332-2.975-2.975-2.975
				s-2.976,1.332-2.976,2.975C146.589,108.036,147.922,109.368,149.564,109.368z M161.462,109.368c1.643,0,2.972-1.332,2.972-2.976
				c0-1.643-1.329-2.975-2.972-2.975c-1.644,0-2.976,1.332-2.976,2.975C158.486,108.036,159.818,109.368,161.462,109.368z
				 M173.362,109.368c1.644,0,2.972-1.332,2.972-2.976c0-1.643-1.328-2.975-2.972-2.975c-1.643,0-2.976,1.332-2.976,2.975
				C170.387,108.036,171.72,109.368,173.362,109.368z M137.664,91.518v29.748h7.486l8.221,6.238l1.28-6.238h30.608V91.518H137.664z
				 M137.645,88.545c-1.634,0-2.956,1.352-2.956,2.982v29.729c0,1.649,1.319,2.982,2.972,2.982h5.954l11.661,8.029l1.775-8.029
				h28.193c1.652,0,2.991-1.353,2.991-2.982V91.527c0-1.65-1.323-2.982-2.956-2.982H137.645z"/>
		</g>
		<g>
			<g>
				<path fill="#FFCE00" d="M50,126.811c0,3.418-2.771,6.189-6.189,6.189H6.189C2.771,133,0,130.229,0,126.811V89.189
					C0,85.771,2.771,83,6.189,83h37.621C47.229,83,50,85.771,50,89.189V126.811z"/>
				<path d="M27.313,96.51h4.292l1.646-2.471H17.127L15.48,96.51h2.801c2.836,0,5.453,0.221,6.497,2.594h-7.651l-1.646,2.471h9.608
					c0,0.007,0,0.01,0,0.017c0,1.778-1.478,4.501-6.354,4.501h-2.357l0.003,2.31l9.446,11.808h4.207l-9.779-12.215
					c4.026-0.221,7.804-2.468,8.347-6.42h3.005l1.646-2.471h-4.692C28.368,98.15,27.957,97.229,27.313,96.51z"/>
			</g>
			<g>
				
					<line fill="none" stroke="#FFCE00" stroke-width="7" stroke-linecap="round" stroke-miterlimit="10" x1="33" y1="105.5" x2="96" y2="105.5"/>
				<polyline fill="none" stroke="#FFCE00" stroke-width="7" stroke-linecap="round" stroke-miterlimit="10" points="
					84.246,122.168 98.883,106.662 98.883,106.662 82.703,90.049 				"/>
			</g>
		</g>
	</g>
</g>
</svg>
