<?xml version="1.0" encoding="utf-8"?>
<!-- Generator: Adobe Illustrator 16.0.0, SVG Export Plug-In . SVG Version: 6.00 Build 0)  -->
<!DOCTYPE svg PUBLIC "-//W3C//DTD SVG 1.1//EN" "http://www.w3.org/Graphics/SVG/1.1/DTD/svg11.dtd">
<svg version="1.1" id="Layer_1" xmlns="http://www.w3.org/2000/svg" xmlns:xlink="http://www.w3.org/1999/xlink" x="0px" y="0px"
	 width="253px" height="252px" viewBox="0 0 253 252" enable-background="new 0 0 253 252" xml:space="preserve">
<g>
	<path fill-rule="evenodd" clip-rule="evenodd" stroke="#100700" stroke-miterlimit="10" d="M110.172,84.604
		c-4.272,4.272,4.564,20.045,19.742,35.222c15.178,15.178,30.95,24.015,35.223,19.742c3.832-3.833-2.896-16.914-15.27-30.521
		l-7.341,9.277c-1.599,1.599-5.312,0.479-8.293-2.502l-0.012-0.011c-2.981-2.982-4.101-6.696-2.502-8.294l9.294-7.353
		C127.293,87.609,114.034,80.744,110.172,84.604z M107.654,159.858l9.174-10.528l-4.627-9.459L107.654,159.858z M126.305,168.706
		l-6.512-13.303l-11.592,13.303H126.305z M124.362,140.693c-2.52-1.885-4.981-3.992-7.346-6.317l4.621,9.442 M124.608,149.885
		l3.69,7.54l-0.834-10.818L124.608,149.885z M169.517,145.846c-7.819,7.82-21.517,7.712-35.135,1.018l1.679,21.838h33.816
		c2.057,0,3.656,1.536,3.576,3.438c-0.08,1.903-1.811,3.439-3.867,3.439H85.404c-2.056,0-3.655-1.536-3.576-3.439
		c0.081-1.896,1.812-3.438,3.868-3.438h12.897l10.049-44.208c-10.362-14.81-13.487-32.188-6.449-42.042
		c1.131-1.594,1.404-1.914,2.656-3.164c6.455-6.449,24.477,0.959,41.545,16.611l8.088-6.404c-0.999-3.192-0.279-6.809,2.252-9.339
		c3.621-3.622,9.498-3.622,13.12,0c3.621,3.621,3.621,9.5,0,13.121c-2.519,2.519-6.118,3.246-9.305,2.262l-6.421,8.118
		c15.452,16.977,22.729,34.82,16.32,41.23"/>
	<rect x="4.5" y="4.5" fill="none" stroke="#100700" stroke-width="9" stroke-miterlimit="10" width="244" height="243"/>
</g>
</svg>
