<?xml version="1.0" encoding="utf-8"?>
<!-- Generator: Adobe Illustrator 16.0.0, SVG Export Plug-In . SVG Version: 6.00 Build 0)  -->
<!DOCTYPE svg PUBLIC "-//W3C//DTD SVG 1.1//EN" "http://www.w3.org/Graphics/SVG/1.1/DTD/svg11.dtd">
<svg version="1.1" id="Layer_1" xmlns="http://www.w3.org/2000/svg" xmlns:xlink="http://www.w3.org/1999/xlink" x="0px" y="0px"
	 width="253px" height="252px" viewBox="0 0 253 252" enable-background="new 0 0 253 252" xml:space="preserve">
<g>
	<rect x="4.5" y="4.5" fill="none" stroke="#000000" stroke-width="9" stroke-miterlimit="10" width="244" height="243"/>
	<g>
		<path d="M165.977,107.386l16.193-11.135c2.367-1.629,2.969-4.87,1.34-7.24c-1.629-2.368-4.871-2.969-7.242-1.343l-10.705,7.361
			l0.105,12.533C165.771,107.503,165.876,107.452,165.977,107.386z"/>
		<path d="M176.796,81.894c2.276-1.758,2.7-5.028,0.942-7.304c-1.754-2.276-5.025-2.701-7.305-0.942l-5.018,3.87l0.109,13.066
			L176.796,81.894z"/>
		<path d="M176.244,102.043l-10.559,7.801l0.105,12.488c0.555-0.167,1.092-0.424,1.586-0.788l15.055-11.124
			c2.314-1.708,2.805-4.969,1.094-7.281C181.816,100.823,178.557,100.338,176.244,102.043z"/>
		<path d="M166.39,137.282l14.511-10.806c2.307-1.718,2.783-4.979,1.064-7.285c-1.717-2.306-4.977-2.785-7.285-1.066l-8.867,6.604
			l0.108,12.845C166.077,137.481,166.238,137.395,166.39,137.282z"/>
		<path d="M113.27,146.217l-0.283-33.648c-1.773,1.543-4.384,4.174-8.351,8.8l-1.413-10.917c8.57-10.643,8.433-18.773,8.383-19.711
			c-0.111-2.198-1.596-4.089-3.706-4.723c-2.11-0.632-4.389,0.131-5.69,1.907l-11.91,16.223c-0.35,0.481-0.621,1.021-0.793,1.597
			l-4.914,16.524l-0.205,0.566c-2.583,7.069-5.254,14.37-6.2,24.928l-6.398,7.933c-0.481,0.598-0.823,1.289-1.004,2.035
			c-1.864,7.626,7.527,27.79,20.87,31.286c0.447,0.119,0.907,0.174,1.363,0.17c0.517-0.005,1.034-0.087,1.531-0.244l14.904-4.731
			c19.48-0.984,37.629-22.01,45.078-31.833l-35.31,0.298C115.971,152.707,113.299,149.808,113.27,146.217z"/>
		<path d="M159.392,63.059l-40.921,0.344c-1.819,0.016-3.281,1.776-3.262,3.933l0.363,43.336l0.299,35.524
			c0.018,2.159,1.509,3.894,3.328,3.878l37.262-0.313l3.66-0.03c1.818-0.015,3.283-1.776,3.265-3.934l-0.063-7.487l-0.098-11.656
			l-0.035-4.213l-0.09-10.684l-0.029-3.455l-0.097-11.49l-0.037-4.477l-0.108-12.819l-0.105-12.579
			C162.705,64.778,161.213,63.043,159.392,63.059z M136.911,68.021l6.728-0.056c0.718-0.007,1.307,0.569,1.312,1.291
			c0.007,0.72-0.572,1.306-1.291,1.312l-6.727,0.057c-0.719,0.006-1.305-0.57-1.311-1.289
			C135.617,68.615,136.192,68.027,136.911,68.021z M122.355,133.123l-0.179-21.273l-0.298-35.457l34.328-0.288l0.078,9.178
			l0.038,4.611l0.36,42.942l-31.775,0.268L122.355,133.123z M140.716,146.001c-2.562,0.021-4.655-2.035-4.677-4.598
			c-0.006-0.702,0.157-1.362,0.431-1.96c0.725-1.587,2.305-2.701,4.169-2.717c1.873-0.016,3.491,1.091,4.235,2.688
			c0.27,0.582,0.433,1.225,0.438,1.91C145.334,143.888,143.276,145.979,140.716,146.001z"/>
	</g>
</g>
</svg>
