<?xml version="1.0" encoding="utf-8"?>
<!-- Generator: Adobe Illustrator 16.0.0, SVG Export Plug-In . SVG Version: 6.00 Build 0)  -->
<!DOCTYPE svg PUBLIC "-//W3C//DTD SVG 1.1//EN" "http://www.w3.org/Graphics/SVG/1.1/DTD/svg11.dtd">
<svg version="1.1" id="Layer_1" xmlns="http://www.w3.org/2000/svg" xmlns:xlink="http://www.w3.org/1999/xlink" x="0px" y="0px"
	 width="253px" height="252px" viewBox="0 0 253 252" enable-background="new 0 0 253 252" xml:space="preserve">
<g>
	<g>
		<path fill-rule="evenodd" clip-rule="evenodd" d="M54.144,151.627c5.411-5.769,10.948-9.29,16.956-11.951
			c10.334-4.58,20.297-3.962,29.84,2.605c10.531,7.251,22.297,11.796,34.996,12.87c17.414,1.475,32.939-4.104,46.747-14.624
			c4.204-3.203,8.45-6.127,14.152-4.622c0.671,0.177,1.281,0.59,2.749,1.289c-3.036,3.468-5.669,6.738-8.576,9.746
			c-12.841,13.288-28.05,22.858-46.256,26.375c-21.24,4.106-41.771,2.083-60.474-10.207
			C75.439,157.299,66.712,150.982,54.144,151.627z"/>
		<path fill-rule="evenodd" clip-rule="evenodd" d="M196.089,105.938c-6.957,8.567-14.472,15.809-23.866,20.734
			c-14.718,7.717-30.326,10.535-46.705,6.795c-4.404-1.005-8.73-2.769-12.791-4.791c-8.766-4.365-16.162-11.537-26.693-12.263
			c-0.1-0.396-0.195-0.792-0.295-1.188c2.146-1.596,4.186-3.369,6.457-4.76c9.241-5.656,18.344-7.133,28.104-0.463
			c10.07,6.884,21.336,10.383,33.828,9.771c11.425-0.557,21.062-5.116,29.989-11.761
			C189.108,104.295,190.795,103.948,196.089,105.938z"/>
		<path fill-rule="evenodd" clip-rule="evenodd" d="M164.572,90.854c0.072,8.024-6.183,14.451-14.146,14.533
			c-8.077,0.084-14.514-6.075-14.503-14.104c0.013-9.079,6.177-14.042,14.09-14.626C157.656,76.094,164.502,83.147,164.572,90.854z"
			/>
	</g>
	<rect x="4.5" y="4.5" fill="none" stroke="#000000" stroke-width="9" stroke-miterlimit="10" width="244" height="243"/>
</g>
</svg>
