<?xml version="1.0" encoding="utf-8"?>
<!-- Generator: Adobe Illustrator 16.0.0, SVG Export Plug-In . SVG Version: 6.00 Build 0)  -->
<!DOCTYPE svg PUBLIC "-//W3C//DTD SVG 1.1//EN" "http://www.w3.org/Graphics/SVG/1.1/DTD/svg11.dtd">
<svg version="1.1" id="Layer_1" xmlns="http://www.w3.org/2000/svg" xmlns:xlink="http://www.w3.org/1999/xlink" x="0px" y="0px"
	 width="257.992px" height="174.781px" viewBox="0 0 257.992 174.781" enable-background="new 0 0 257.992 174.781"
	 xml:space="preserve">
<g>
	<g>
		<g>
			<rect x="18.992" y="21.826" fill="#FFCE00" width="126" height="16"/>
			<polygon fill="#FFCE00" points="117.826,46.978 120.545,75.381 127.496,72.06 132.932,82.33 137.77,79.917 132.328,69.339 
				139.582,65.71 			"/>
			<path fill="#FFCE00" d="M18.992,86.826h83v-40h-83V86.826z M100.297,68.429l-0.303-0.299
				C100.297,68.13,100.297,68.429,100.297,68.429z M67.359,68.429C67.359,68.13,67.662,68.13,67.359,68.429L67.359,68.429z"/>
			<path fill="#FFFFFF" d="M1.5,4.843v98.172l163.291-0.119l-0.43-0.621c0-0.3,0-0.3,0-0.602V7.089c0-1.211-1.207-2.117-3.023-2.117
				L93.645,4.929 M155.9,93.816c0,1.51-1.512,2.418-3.025,2.114h-29.609h-9.67H60.412h-2.115H46.508H26.867H16.295h-3.328
				c-1.508,0-2.721-0.604-2.721-1.815V66.617v-7.553V27.036v-7.558v-4.834c0-0.908,1.213-1.815,2.721-1.815h35.357h7.553h31.426
				h7.557h58.32c1.514,0,2.721,0.907,2.721,1.815V93.816z"/>
		</g>
	</g>
	<g>
		<g>
			<rect x="193.992" y="138.826" fill="#FFCE00" width="55" height="7"/>
			<polygon fill="#FFCE00" points="237.242,150.022 238.443,162.571 241.516,161.103 243.916,165.641 246.055,164.576 
				243.65,159.902 246.855,158.298 			"/>
			<path fill="#FFCE00" d="M193.992,167.826h36v-18h-36V167.826z M229.498,159.5l-0.135-0.132
				C229.498,159.368,229.498,159.5,229.498,159.5z M214.945,159.5C214.945,159.368,215.078,159.368,214.945,159.5L214.945,159.5z"/>
			<path fill="#FFFFFF" d="M185.848,131.406v43.375l72.145-0.053l-0.189-0.274c0-0.133,0-0.133,0-0.266v-41.79
				c0-0.535-0.533-0.936-1.336-0.936l-29.908-0.019 M254.064,170.716c0,0.667-0.668,1.068-1.336,0.935h-13.082h-4.273h-23.498
				h-0.934h-5.209h-8.678h-4.672h-1.471c-0.666,0-1.201-0.268-1.201-0.803v-12.149v-3.337v-14.15v-3.34v-2.136
				c0-0.401,0.535-0.802,1.201-0.802h15.623h3.336h13.885h3.34h25.766c0.67,0,1.203,0.4,1.203,0.802V170.716z"/>
		</g>
	</g>
	<g>
		<g>
			<rect x="116.992" y="138.826" fill="#FFCE00" width="55" height="7"/>
			<polygon fill="#FFCE00" points="160.242,150.022 161.443,162.571 164.516,161.103 166.916,165.641 169.055,164.576 
				166.65,159.902 169.855,158.298 			"/>
			<path fill="#FFCE00" d="M116.992,167.826h36v-18h-36V167.826z M152.498,159.5l-0.135-0.132
				C152.498,159.368,152.498,159.5,152.498,159.5z M137.945,159.5C137.945,159.368,138.078,159.368,137.945,159.5L137.945,159.5z"/>
			<path fill="#FFFFFF" d="M108.848,131.406v43.375l72.145-0.053l-0.189-0.274c0-0.133,0-0.133,0-0.266v-41.79
				c0-0.535-0.533-0.936-1.336-0.936l-29.908-0.019 M177.064,170.716c0,0.667-0.668,1.068-1.336,0.935h-13.082h-4.273h-23.498
				h-0.934h-5.209h-8.678h-4.672h-1.471c-0.666,0-1.201-0.268-1.201-0.803v-12.149v-3.337v-14.15v-3.34v-2.136
				c0-0.401,0.535-0.802,1.201-0.802h15.623h3.336h13.885h3.34h25.766c0.67,0,1.203,0.4,1.203,0.802V170.716z"/>
		</g>
	</g>
	<g>
		<g>
			<rect x="39.992" y="138.826" fill="#FFCE00" width="55" height="7"/>
			<polygon fill="#FFCE00" points="83.242,150.022 84.443,162.571 87.516,161.103 89.916,165.641 92.055,164.576 89.65,159.902 
				92.855,158.298 			"/>
			<path fill="#FFCE00" d="M39.992,167.826h36v-18h-36V167.826z M75.498,159.5l-0.135-0.132
				C75.498,159.368,75.498,159.5,75.498,159.5z M60.945,159.5C60.945,159.368,61.078,159.368,60.945,159.5L60.945,159.5z"/>
			<path fill="#FFFFFF" d="M31.848,131.406v43.375l72.145-0.053l-0.189-0.274c0-0.133,0-0.133,0-0.266v-41.79
				c0-0.535-0.533-0.936-1.336-0.936l-29.908-0.019 M100.064,170.716c0,0.667-0.668,1.068-1.336,0.935H85.646h-4.273H57.875h-0.934
				h-5.209h-8.678h-4.672h-1.471c-0.666,0-1.201-0.268-1.201-0.803v-12.149v-3.337v-14.15v-3.34v-2.136
				c0-0.401,0.535-0.802,1.201-0.802h15.623h3.336h13.885h3.34h25.766c0.67,0,1.203,0.4,1.203,0.802V170.716z"/>
		</g>
	</g>
	<g>
		
			<line fill="none" stroke="#FFCE00" stroke-width="3" stroke-linecap="round" stroke-miterlimit="10" x1="8.492" y1="131.826" x2="8.492" y2="143.826"/>
		<polyline fill="none" stroke="#FFCE00" stroke-width="3" stroke-linecap="round" stroke-miterlimit="10" points="1.5,139.669 
			7.98,145.787 7.98,145.787 13.82,140.13 		"/>
		<polyline fill="none" stroke="#FFCE00" stroke-width="3" stroke-linecap="round" stroke-miterlimit="10" points="1.5,147.669 
			7.98,153.787 7.98,153.787 13.82,148.13 		"/>
	</g>
	<g>
		
			<line fill="none" stroke="#FFCE00" stroke-width="7" stroke-linecap="round" stroke-miterlimit="10" x1="198.492" y1="30.826" x2="198.492" y2="7.826"/>
		<polyline fill="none" stroke="#FFCE00" stroke-width="7" stroke-linecap="round" stroke-miterlimit="10" points="209.99,16.222 
			197.938,4.843 197.938,4.843 187.078,15.366 		"/>
	</g>
</g>
</svg>
