<?xml version="1.0" encoding="utf-8"?>
<!-- Generator: Adobe Illustrator 16.0.0, SVG Export Plug-In . SVG Version: 6.00 Build 0)  -->
<!DOCTYPE svg PUBLIC "-//W3C//DTD SVG 1.1//EN" "http://www.w3.org/Graphics/SVG/1.1/DTD/svg11.dtd">
<svg version="1.1" id="Layer_1" xmlns="http://www.w3.org/2000/svg" xmlns:xlink="http://www.w3.org/1999/xlink" x="0px" y="0px"
	 width="523.811px" height="518.921px" viewBox="0 0 523.811 518.921" enable-background="new 0 0 523.811 518.921"
	 xml:space="preserve">
<g>
	<g>
		<path d="M110.736,441.739H85.008v-18.094h73.225v18.094h-26.01v77.182h-21.486V441.739z"/>
		<path d="M186.645,425.06c6.926-1.271,17.104-2.119,28.695-2.119c14.135,0,24.031,2.119,30.816,7.633
			c5.795,4.523,8.904,11.166,8.904,19.932c0,12.016-8.623,20.355-16.82,23.324v0.424c6.643,2.686,10.318,8.904,12.721,17.67
			c2.969,10.883,5.797,23.322,7.635,26.998h-22.053c-1.414-2.686-3.816-10.461-6.502-22.193
			c-2.686-12.016-6.785-15.125-15.691-15.266h-6.361v37.459h-21.344V425.06z M207.988,465.913h8.482
			c10.742,0,17.104-5.373,17.104-13.713c0-8.623-5.937-13.146-15.832-13.146c-5.23,0-8.198,0.283-9.754,0.707V465.913z"/>
		<path d="M310.725,494.466l-6.643,24.455h-22.334l29.119-95.275h28.129l29.686,95.275H345.5l-7.352-24.455H310.725z
			 M334.898,478.353l-5.938-20.215c-1.555-5.654-3.252-12.863-4.666-18.377h-0.424c-1.271,5.654-2.826,12.863-4.24,18.377
			l-5.795,20.215H334.898z"/>
		<path d="M419.994,423.646v95.275h-21.486v-95.275H419.994z"/>
	</g>
	<g>
		<path fill-rule="evenodd" clip-rule="evenodd" d="M0,270.119c19.486-20.775,39.433-33.458,61.068-43.042
			c37.22-16.494,73.098-14.27,107.472,9.383c37.924,26.114,80.298,42.482,126.038,46.352
			c62.716,5.311,118.631-14.777,168.361-52.668c15.141-11.534,30.431-22.068,50.969-16.646c2.418,0.636,4.613,2.123,9.902,4.643
			c-10.936,12.488-20.417,24.267-30.891,35.101c-46.245,47.858-101.02,82.324-166.591,94.991
			c-76.497,14.789-150.44,7.503-217.797-36.762C76.697,290.548,45.267,267.798,0,270.119z"/>
		<path fill-rule="evenodd" clip-rule="evenodd" d="M511.221,105.566c-25.057,30.855-52.119,56.936-85.954,74.678
			c-53.007,27.79-109.222,37.939-168.209,24.473c-15.866-3.62-31.444-9.973-46.066-17.257
			c-31.569-15.723-58.212-41.551-96.142-44.165c-0.354-1.427-0.703-2.852-1.058-4.278c7.729-5.75,15.07-12.137,23.253-17.143
			c33.283-20.373,66.067-25.69,101.214-1.668c36.271,24.791,76.845,37.393,121.835,35.189
			c41.146-2.008,75.856-18.427,108.006-42.359C486.082,99.651,492.153,98.403,511.221,105.566z"/>
		<path fill-rule="evenodd" clip-rule="evenodd" d="M397.711,51.246c0.262,28.9-22.264,52.045-50.946,52.342
			c-29.091,0.303-52.273-21.88-52.232-50.799c0.046-32.698,22.245-50.574,50.745-52.675C372.807-1.918,397.46,23.488,397.711,51.246
			z"/>
	</g>
</g>
</svg>
