<?xml version="1.0" encoding="utf-8"?>
<!-- Generator: Adobe Illustrator 16.0.0, SVG Export Plug-In . SVG Version: 6.00 Build 0)  -->
<!DOCTYPE svg PUBLIC "-//W3C//DTD SVG 1.1//EN" "http://www.w3.org/Graphics/SVG/1.1/DTD/svg11.dtd">
<svg version="1.1" id="Layer_1" xmlns="http://www.w3.org/2000/svg" xmlns:xlink="http://www.w3.org/1999/xlink" x="0px" y="0px"
	 width="171.525px" height="171.526px" viewBox="0 0 171.525 171.526" enable-background="new 0 0 171.525 171.526"
	 xml:space="preserve">
<g>
	<path fill="#FFFFFF" d="M85.763,0C38.397,0,0,38.398,0,85.764c0,47.364,38.397,85.763,85.763,85.763s85.763-38.398,85.763-85.763
		C171.525,38.398,133.128,0,85.763,0z M85.763,157.23c-39.471,0-71.468-31.997-71.468-71.467c0-39.471,31.997-71.469,71.468-71.469
		c39.47,0,71.468,31.998,71.468,71.469C157.23,125.233,125.232,157.23,85.763,157.23z"/>
	<g>
		<path fill="#FFCE00" d="M86.027,0.007v14.295c39.348,0.144,71.203,32.08,71.203,71.462c0,39.47-31.998,71.467-71.468,71.467
			c-31.04,0-57.447-19.793-67.316-47.442l-13.484,4.748c11.828,33.21,43.531,56.99,80.801,56.99
			c47.365,0,85.763-38.398,85.763-85.763C171.525,38.487,133.271,0.15,86.027,0.007z"/>
	</g>
	<text transform="matrix(1 0 0 1 56.6074 79.4551)"><tspan x="0" y="0" fill="#FFFFFF" font-family="'TradeGothicNextLTPro-Bd'" font-size="22">2.7 GB </tspan><tspan x="4.059" y="27.165" fill="#FFFFFF" font-family="'TradeGothicNextLTPro-Bd'" font-size="22">USED</tspan></text>
</g>
</svg>
