<?xml version="1.0" encoding="utf-8"?>
<!-- Generator: Adobe Illustrator 16.0.0, SVG Export Plug-In . SVG Version: 6.00 Build 0)  -->
<!DOCTYPE svg PUBLIC "-//W3C//DTD SVG 1.1//EN" "http://www.w3.org/Graphics/SVG/1.1/DTD/svg11.dtd">
<svg version="1.1" id="Layer_1" xmlns="http://www.w3.org/2000/svg" xmlns:xlink="http://www.w3.org/1999/xlink" x="0px" y="0px"
	 width="1644.388px" height="834px" viewBox="0 0 1644.388 834" enable-background="new 0 0 1644.388 834" xml:space="preserve">
<g>
	<rect fill="none" width="1644.388" height="834"/>
	<g>
		<text transform="matrix(1 0 0 1 668.5703 452.502)" font-family="'ChaparralPro-Bold'" font-size="29.4831" letter-spacing="4">WHAT IS GOING ON WITH</text>
		<g>
			<polygon points="642.954,437.753 641.039,437.753 641.039,435.903 627.664,435.903 627.664,433.955 625.781,433.955 
				625.781,435.903 623.833,435.903 623.833,437.818 625.781,437.818 627.664,437.818 641.039,437.818 641.039,441.616 
				642.954,441.616 			"/>
			<polygon points="631.494,451.16 633.378,451.16 633.378,443.532 641.039,443.532 641.039,441.616 629.58,441.616 629.58,443.532 
				631.463,443.532 631.463,447.425 629.58,447.425 629.58,449.341 631.463,449.341 631.463,451.16 629.58,451.16 627.664,451.16 
				627.664,453.076 629.58,453.076 629.58,454.991 631.494,454.991 			"/>
			<rect x="619.939" y="454.991" width="9.641" height="1.915"/>
			<polygon points="616.107,453.012 616.107,451.16 612.278,451.16 612.278,439.685 614.227,439.685 614.227,437.818 
				612.278,437.818 612.278,437.786 610.363,437.786 610.363,451.16 610.363,453.076 616.107,453.076 616.107,454.927 
				619.939,454.927 619.939,453.012 			"/>
			<rect x="614.227" y="435.903" width="1.883" height="1.916"/>
			<rect x="616.107" y="433.987" width="1.916" height="1.916"/>
			<rect x="621.854" y="430.092" width="1.979" height="1.979"/>
			<rect x="618.023" y="432.072" width="3.83" height="1.916"/>
			<rect x="623.833" y="428.178" width="3.831" height="1.915"/>
			<rect x="627.664" y="430.092" width="1.916" height="3.831"/>
			<rect x="618.119" y="441.616" width="5.203" height="1.916"/>
			<rect x="618.119" y="445.415" width="5.203" height="1.916"/>
			<rect x="618.119" y="449.245" width="3.831" height="1.916"/>
		</g>
		<path fill="none" stroke="#000000" stroke-width="6" stroke-miterlimit="10" d="M0,173.221h487c0,0,58-6,58,58"/>
		<path fill="none" stroke="#000000" stroke-width="6" stroke-miterlimit="10" d="M545.074,247.146v140c0,0-6,58,58,58"/>
		<g>
			<g>
				<path d="M712.223,572.93L687.5,529.484h-0.207v43.444H668.57v-74.27h22.551l22.137,40.754h0.207V498.66h18.721v74.27H712.223z"
					/>
				<path d="M738.811,572.93v-74.27h52.134v16.446H758.98v11.896h22.653v15.93H758.98v13.552h32.584v16.446H738.811L738.811,572.93z
					"/>
				<path d="M814.049,572.93v-57.822H795.43V498.66h57.408v16.446h-18.619v57.822L814.049,572.93L814.049,572.93z"/>
				<path d="M923.869,572.93l-24.723-43.444h-0.207v43.444h-18.724v-74.27h22.552l22.135,40.754h0.207V498.66h18.723v74.27H923.869z
					"/>
				<path d="M950.457,572.93v-74.27h52.133v16.446h-31.963v11.896h22.654v15.93h-22.654v13.552h32.584v16.446H950.457
					L950.457,572.93z"/>
				<path d="M1052.449,498.66h20.172v42.928c0,20.791-9.518,32.582-32.377,32.582s-30.824-11.791-30.824-32.582V498.66h20.273
					v46.856c0,7.966,3.621,12.31,10.965,12.31c7.24,0,11.791-4.344,11.791-12.31V498.66z"/>
				<path d="M1097.416,572.93v-57.822h-18.619V498.66h57.408v16.446h-18.619v57.822L1097.416,572.93L1097.416,572.93z"/>
				<path d="M1181.238,572.93l-10.654-26.791h-9.412v26.791H1141v-74.27h28.551c20.17,0,30.308,7.551,30.308,22.445
					c0,9.206-4.447,15.618-11.275,19.239l14.793,32.584L1181.238,572.93L1181.238,572.93z M1169.24,530.416
					c4.137,0,10.24-0.932,10.24-7.758c0-6.726-5.275-7.552-9.312-7.552h-8.998v15.31H1169.24z"/>
				<path d="M1250.545,572.93l-3.932-16.137h-20.066l-3.828,16.137h-20.377l21.31-74.27h26.584l21.309,74.27H1250.545z
					 M1230.375,540.449h12.309l-6-25.239h-0.207L1230.375,540.449z"/>
				<path d="M1276.098,572.93v-74.27h20.17v57.822h29.791v16.446L1276.098,572.93L1276.098,572.93z"/>
				<path d="M1331.646,572.93v-74.27h20.172v74.27H1331.646z"/>
				<path d="M1376.23,572.93v-57.822h-18.619V498.66h57.407v16.446H1396.4v57.822L1376.23,572.93L1376.23,572.93z"/>
				<path d="M1445.055,572.93V545l-23.688-46.34h21.309l12.517,26.688h0.207l13.239-26.688h20.791L1465.328,545v27.93H1445.055z"/>
				<path d="M1043.986,660.929v-74.27h20.17v74.27H1043.986z"/>
				<path d="M1114.566,660.929l-24.724-43.443h-0.207v43.443h-18.723v-74.27h22.551l22.135,40.755h0.207v-40.755h18.724v74.27
					H1114.566L1114.566,660.929z"/>
				<path d="M1159.875,660.929v-74.27h20.172v74.27H1159.875z"/>
				<path d="M1230.318,660.929l-24.724-43.443h-0.207v43.443h-18.723v-74.27h22.551l22.135,40.755h0.207v-40.755h18.724v74.27
					H1230.318L1230.318,660.929z"/>
				<path d="M1261.043,660.929v-74.27h26.48c23.688,0,36.721,11.688,36.721,35.79c0,24.722-13.756,38.479-37.547,38.479
					L1261.043,660.929L1261.043,660.929z M1287.627,643.654c11.379,0,16.447-7.965,16.447-20.584
					c0-12.311-5.068-19.138-15.724-19.138h-7.137v39.722H1287.627z"/>
				<path d="M1331.902,660.929v-74.27h20.17v74.27H1331.902z"/>
				<path d="M1404.826,660.929l-3.93-16.137h-20.066l-3.828,16.137h-20.377l21.309-74.27h26.584l21.31,74.27H1404.826z
					 M1384.656,628.449h12.309l-5.998-25.239h-0.207L1384.656,628.449z"/>
			</g>
			<g>
				<polygon points="1323.953,413.143 1323.953,417.453 1319.787,417.453 1319.787,447.557 1315.402,447.557 1315.402,451.795 
					1319.787,451.795 1319.787,456.18 1324.098,456.18 1324.098,451.795 1324.098,447.557 1324.098,417.453 1332.646,417.453 
					1332.646,413.143 				"/>
				<polygon points="1354.129,438.938 1354.129,434.697 1336.959,434.697 1336.959,417.453 1332.646,417.453 1332.646,443.245 
					1336.959,443.245 1336.959,439.007 1345.723,439.007 1345.723,443.245 1350.031,443.245 1350.031,439.007 1354.129,439.007 
					1354.129,443.245 1354.129,447.557 1358.439,447.557 1358.439,443.245 1362.75,443.245 1362.75,438.938 				"/>
				<rect x="1362.75" y="443.245" width="4.312" height="21.7"/>
				<polygon points="1358.297,473.567 1354.129,473.567 1354.129,482.188 1328.299,482.188 1328.299,477.803 1324.098,477.803 
					1324.098,482.188 1324.025,482.188 1324.025,486.498 1354.129,486.498 1358.439,486.498 1358.439,473.567 1362.605,473.567 
					1362.605,464.944 1358.297,464.944 				"/>
				<rect x="1319.787" y="473.567" width="4.312" height="4.234"/>
				<rect x="1315.475" y="469.257" width="4.312" height="4.312"/>
				<rect x="1306.709" y="456.18" width="4.455" height="4.453"/>
				<rect x="1311.164" y="460.633" width="4.311" height="8.624"/>
				<rect x="1302.4" y="447.557" width="4.309" height="8.623"/>
				<rect x="1306.709" y="443.245" width="8.621" height="4.312"/>
				<rect x="1332.646" y="457.33" width="4.312" height="11.711"/>
				<rect x="1341.195" y="457.33" width="4.312" height="11.711"/>
				<rect x="1349.816" y="460.418" width="4.312" height="8.623"/>
			</g>
		</g>
	</g>
</g>
</svg>
