<?xml version="1.0" encoding="utf-8"?>
<!-- Generator: Adobe Illustrator 16.0.0, SVG Export Plug-In . SVG Version: 6.00 Build 0)  -->
<!DOCTYPE svg PUBLIC "-//W3C//DTD SVG 1.1//EN" "http://www.w3.org/Graphics/SVG/1.1/DTD/svg11.dtd">
<svg version="1.1" id="Layer_1" xmlns="http://www.w3.org/2000/svg" xmlns:xlink="http://www.w3.org/1999/xlink" x="0px" y="0px"
	 width="51px" height="51px" viewBox="0 0 51 51" enable-background="new 0 0 51 51" xml:space="preserve">
<g>
	<path fill="#FF5656" d="M51,42.842C51,47.348,47.348,51,42.842,51H8.158C3.652,51,0,47.348,0,42.842V8.158C0,3.652,3.652,0,8.158,0
		h34.684C47.348,0,51,3.652,51,8.158V42.842z"/>
	<path d="M28.064,16.262h3.738l1.432-2.152H19.197l-1.432,2.152h2.437c2.469,0,4.747,0.191,5.657,2.254h-6.662l-1.432,2.153h8.363
		c0,0.005,0,0.009,0,0.014c0,1.547-1.286,3.919-5.531,3.919L18.545,24.6l0.002,2.011l8.225,10.28h3.662l-8.512-10.635
		c3.503-0.189,6.791-2.148,7.264-5.587h2.617l1.432-2.153h-4.086C28.983,17.688,28.625,16.885,28.064,16.262z"/>
</g>
</svg>
