<?xml version="1.0" encoding="utf-8"?>
<!-- Generator: Adobe Illustrator 16.0.0, SVG Export Plug-In . SVG Version: 6.00 Build 0)  -->
<!DOCTYPE svg PUBLIC "-//W3C//DTD SVG 1.1//EN" "http://www.w3.org/Graphics/SVG/1.1/DTD/svg11.dtd">
<svg version="1.1" xmlns="http://www.w3.org/2000/svg" xmlns:xlink="http://www.w3.org/1999/xlink" x="0px" y="0px"
	 width="290.326px" height="89.094px" viewBox="0 0 290.326 89.094" enable-background="new 0 0 290.326 89.094"
	 xml:space="preserve">
<g id="Layer_1">
	<g>
		<g>
			<path d="M132.355,50.372c-0.717,2.471-1.753,6.696-3.626,8.21c-1.235,0.996-2.511,1.196-4.065,1.196
				c-1.515,0-2.072-0.12-2.83-0.279v-4.145c1.913,0.239,2.989,0,3.707-0.598c0.598-0.558,0.757-1.156,0.837-1.435l-7.214-20.326
				h5.141l4.465,14.866l3.746-14.866h4.902L132.355,50.372z"/>
			<path d="M156.472,50.531c-1.116,1.037-3.786,2.989-7.892,2.989c-1.275,0-4.424-0.159-7.135-2.67
				c-2.271-2.152-3.108-4.902-3.108-8.011c0-1.674,0.239-3.268,0.877-4.783c0.877-1.993,3.348-5.66,9.127-5.66
				c4.464,0,6.815,2.312,7.852,3.826c0.917,1.395,1.833,3.826,1.953,7.692h-14.747c0.08,0.598,0.279,1.833,1.275,3.029
				c0.678,0.837,1.873,1.913,4.345,1.913c2.471,0,3.905-1.156,4.544-1.833c0.159-0.16,0.398-0.479,0.678-0.917l4.064,2.352
				C157.986,48.897,157.428,49.655,156.472,50.531z M152.486,38.774c-0.439-0.957-1.475-2.551-4.066-2.551
				c-1.035,0-1.594,0.199-1.992,0.359c-2.232,0.917-2.75,3.148-2.869,3.826h9.326C152.885,40.408,152.765,39.452,152.486,38.774z"/>
			<path d="M161.178,52.923V24.785h4.863v28.138H161.178z"/>
			<path d="M170.346,52.923V24.785h4.863v28.138H170.346z"/>
			<path d="M198.008,47.343c-0.797,2.033-3.388,6.178-9.326,6.178c-0.838,0-2.551-0.04-4.504-0.917
				c-2.072-0.917-5.859-3.707-5.859-9.725c0-2.152,0.598-3.746,0.877-4.464c0.838-1.993,3.389-6.018,9.326-6.018
				c0.758,0,2.512,0.08,4.385,0.917c2.152,0.917,5.858,3.587,5.898,9.565C198.805,43.597,198.765,45.47,198.008,47.343z
				 M188.442,36.702c-0.438,0-1.634,0.08-2.71,0.757c-1.037,0.677-2.432,2.312-2.432,5.301c0,0.957,0.08,1.793,0.398,2.71
				c0.318,0.957,1.714,3.667,4.982,3.667c3.627,0,5.261-3.188,5.141-6.337C193.743,39.69,191.949,36.702,188.442,36.702z"/>
			<path d="M222.682,52.923h-4.742l-3.588-12.714l-3.785,12.714h-4.744l-5.778-19.928h4.981l3.468,13.63l3.706-13.63h4.266
				l3.666,13.63l3.547-13.63h4.982L222.682,52.923z"/>
			<path d="M249.031,52.923V40.129h-12.076v12.794h-5.301V24.785h5.301v10.602h12.076V24.785h5.301v28.138H249.031z"/>
			<path d="M270.996,52.923l-0.119-1.554c-0.758,0.638-1.436,0.957-1.834,1.116c-1.315,0.598-2.551,0.917-4.025,0.917
				c-0.957,0-4.543-0.12-6.377-3.069c-0.318-0.518-0.916-1.594-0.877-3.188c0-1.116,0.279-3.348,2.711-4.982
				c1.633-1.116,3.188-1.355,5.021-1.714c2.949-0.598,4.025-0.837,5.5-1.355c0-0.518-0.04-1.156-0.279-1.634
				c-0.398-0.757-1.395-1.355-3.148-1.355c-1.834,0-2.989,0.558-3.508,1.236c-0.558,0.677-0.518,1.475-0.518,1.753l-4.862-0.279
				c0.04-0.877,0.199-2.989,2.151-4.583c1.236-1.036,3.109-1.833,6.577-1.833c3.269,0,5.181,0.678,6.417,1.554
				c0.836,0.598,1.275,1.275,1.435,1.595c0.519,1.036,0.519,2.431,0.519,3.547v10.602c0,1.515,0.079,1.953,0.876,3.229H270.996z
				 M270.996,42.999c-0.797,0.399-1.834,0.797-3.787,1.116c-1.075,0.199-2.231,0.239-3.228,0.837
				c-0.678,0.438-1.155,1.116-1.155,1.993c0,1.196,0.876,2.352,3.268,2.352c2.631,0,4.185-1.355,4.623-2.271
				c0.318-0.638,0.279-1.196,0.279-1.833V42.999z"/>
			<path d="M286.225,53.082c-2.631,0-3.986-0.638-4.783-1.594c-0.398-0.479-0.558-0.957-0.598-1.156
				c-0.199-0.638-0.239-2.032-0.239-3.786V36.383h-2.909v-3.388h2.909V25.9h4.782v7.095h4.266v3.388h-4.266v9.047
				c0,0.797-0.119,2.312,0.479,2.95c0.559,0.638,1.714,0.598,1.834,0.598c0.678,0,1.355-0.08,1.953-0.239v4.026
				C289.014,52.843,287.858,53.082,286.225,53.082z"/>
		</g>
		<g>
			<g>
				<circle cx="43.873" cy="44" r="44.547"/>
			</g>
			<g>
				<g>
					<g>
						<path fill="#FFCE00" d="M52.273,50.078V37.457H35.473v12.621h-6.058V20.922h6.058v10.115h16.801V20.922h6.059v29.156H52.273z"
							/>
					</g>
				</g>
				<g>
					<g>
						<path fill="#FFCE00" d="M40.788,64.186c-0.83-1.189-2.016-1.551-5.456-1.551l-9.136,0.051h-0.355
							c-2.669,0-3.618-0.102-4.923-0.361c-0.949-0.207-1.839-0.619-2.551-1.188c-1.542-1.137-2.076-2.531-2.076-5.477v-2.738h4.271
							l-0.06,0.879c-0.059,1.137,0.298,1.859,0.949,2.377c0.416,0.309,0.831,0.516,1.306,0.619c0.89,0.207,1.424,0.207,4.211,0.207
							h8.897c4.864,0,6.524,0.877,8.067,4.236c0.355-1.189,0.593-1.654,1.364-2.428c1.424-1.396,2.966-1.809,6.524-1.809h8.957
							c2.669,0,3.321-0.053,4.152-0.26c1.482-0.309,2.254-1.395,2.254-3.1v-0.723h4.271v2.688c0,3.047-0.534,4.338-2.076,5.527
							c-0.771,0.568-1.661,0.98-2.551,1.188c-1.364,0.26-2.254,0.361-4.982,0.361H61.55l-9.194-0.051c-2.373,0-3.5,0.104-4.33,0.516
							c-1.187,0.568-1.721,1.705-1.957,3.928h-4.449C41.441,65.477,41.322,64.959,40.788,64.186z"/>
					</g>
				</g>
			</g>
		</g>
	</g>
</g>
<g id="Layer_2">
</g>
</svg>
