<?xml version="1.0" encoding="utf-8"?>
<!-- Generator: Adobe Illustrator 16.0.0, SVG Export Plug-In . SVG Version: 6.00 Build 0)  -->
<!DOCTYPE svg PUBLIC "-//W3C//DTD SVG 1.1//EN" "http://www.w3.org/Graphics/SVG/1.1/DTD/svg11.dtd">
<svg version="1.1" xmlns="http://www.w3.org/2000/svg" xmlns:xlink="http://www.w3.org/1999/xlink" x="0px" y="0px"
	 width="290.326px" height="89.094px" viewBox="0 0 290.326 89.094" enable-background="new 0 0 290.326 89.094"
	 xml:space="preserve">
<g id="Layer_1">
	<g>
		<g>
			<path fill="#FFCE00" d="M133.031,50.919c-0.718,2.471-1.754,6.696-3.627,8.211c-1.236,0.997-2.512,1.196-4.065,1.196
				c-1.516,0-2.073-0.12-2.83-0.279v-4.145c1.913,0.239,2.989,0,3.707-0.598c0.598-0.558,0.757-1.156,0.837-1.435l-7.215-20.329
				h5.142l4.465,14.868l3.746-14.868h4.903L133.031,50.919z"/>
			<path fill="#FFCE00" d="M157.147,51.079c-1.116,1.036-3.787,2.989-7.893,2.989c-1.275,0-4.424-0.16-7.135-2.671
				c-2.271-2.152-3.109-4.903-3.109-8.012c0-1.674,0.239-3.269,0.877-4.783c0.877-1.993,3.349-5.66,9.128-5.66
				c4.465,0,6.816,2.312,7.853,3.827c0.917,1.395,1.834,3.827,1.953,7.693h-14.748c0.079,0.598,0.279,1.833,1.275,3.03
				c0.678,0.836,1.873,1.913,4.345,1.913s3.906-1.156,4.544-1.833c0.159-0.16,0.398-0.479,0.678-0.917l4.065,2.352
				C158.662,49.444,158.104,50.201,157.147,51.079z M153.161,39.319c-0.438-0.957-1.475-2.551-4.065-2.551
				c-1.036,0-1.595,0.199-1.993,0.359c-2.232,0.917-2.75,3.149-2.87,3.826h9.328C153.561,40.954,153.44,39.997,153.161,39.319z"/>
			<path fill="#FFCE00" d="M161.852,53.47V25.329h4.863V53.47H161.852z"/>
			<path fill="#FFCE00" d="M171.021,53.47V25.329h4.862V53.47H171.021z"/>
			<path fill="#FFCE00" d="M198.684,47.889c-0.798,2.033-3.389,6.179-9.328,6.179c-0.836,0-2.551-0.04-4.504-0.917
				c-2.072-0.917-5.859-3.707-5.859-9.726c0-2.153,0.599-3.747,0.877-4.464c0.837-1.993,3.389-6.019,9.327-6.019
				c0.758,0,2.512,0.08,4.385,0.917c2.153,0.917,5.859,3.587,5.899,9.566C199.48,44.143,199.44,46.016,198.684,47.889z
				 M189.116,37.247c-0.438,0-1.634,0.079-2.71,0.757c-1.036,0.678-2.432,2.312-2.432,5.302c0,0.956,0.08,1.793,0.398,2.71
				c0.319,0.957,1.715,3.667,4.982,3.667c3.628,0,5.262-3.189,5.143-6.338C194.418,40.236,192.624,37.247,189.116,37.247z"/>
			<path fill="#FFCE00" d="M223.357,53.47h-4.743l-3.588-12.715L211.24,53.47h-4.743l-5.779-19.93h4.982l3.468,13.632l3.707-13.632
				h4.265l3.667,13.632l3.548-13.632h4.982L223.357,53.47z"/>
			<path fill="#FFCE00" d="M249.707,53.47V40.675h-12.078V53.47h-5.301V25.329h5.301v10.602h12.078V25.329h5.301V53.47H249.707z"/>
			<path fill="#FFCE00" d="M271.671,53.47l-0.119-1.555c-0.758,0.638-1.436,0.957-1.834,1.116c-1.315,0.598-2.551,0.917-4.026,0.917
				c-0.956,0-4.544-0.12-6.377-3.069c-0.319-0.518-0.917-1.594-0.877-3.188c0-1.117,0.278-3.349,2.71-4.983
				c1.635-1.116,3.188-1.355,5.022-1.714c2.95-0.598,4.026-0.837,5.501-1.355c0-0.518-0.04-1.156-0.279-1.634
				c-0.398-0.757-1.395-1.355-3.148-1.355c-1.834,0-2.989,0.558-3.508,1.235c-0.559,0.678-0.519,1.475-0.519,1.754l-4.863-0.279
				c0.041-0.877,0.2-2.99,2.153-4.584c1.235-1.036,3.109-1.833,6.576-1.833c3.269,0,5.183,0.678,6.418,1.555
				c0.837,0.598,1.275,1.275,1.435,1.594c0.519,1.037,0.519,2.432,0.519,3.547v10.603c0,1.515,0.08,1.953,0.876,3.229H271.671z
				 M271.671,43.545c-0.798,0.398-1.834,0.797-3.787,1.116c-1.075,0.199-2.232,0.239-3.229,0.837
				c-0.678,0.438-1.155,1.116-1.155,1.993c0,1.195,0.877,2.351,3.268,2.351c2.631,0,4.186-1.355,4.624-2.271
				c0.319-0.638,0.279-1.196,0.279-1.833V43.545z"/>
			<path fill="#FFCE00" d="M286.898,53.629c-2.631,0-3.986-0.638-4.783-1.595c-0.399-0.478-0.559-0.956-0.599-1.156
				c-0.199-0.638-0.239-2.033-0.239-3.787V36.928h-2.909V33.54h2.909v-7.095h4.784v7.095h4.265v3.388h-4.265v9.048
				c0,0.797-0.12,2.312,0.478,2.949c0.559,0.638,1.714,0.598,1.834,0.598c0.678,0,1.354-0.079,1.953-0.239v4.025
				C289.688,53.39,288.532,53.629,286.898,53.629z"/>
		</g>
		<g>
			<g>
				<circle fill="#FFCE00" cx="44.547" cy="44.547" r="44.547"/>
			</g>
			<g>
				<g>
					<g>
						<path d="M52.946,50.626V38.005h-16.8v12.621h-6.058V21.47h6.058v10.116h16.8V21.47h6.06v29.156H52.946z"/>
					</g>
				</g>
				<g>
					<g>
						<path d="M41.461,64.733c-0.829-1.19-2.015-1.551-5.455-1.551l-9.137,0.051h-0.354c-2.669,0-3.618-0.102-4.923-0.361
							c-0.949-0.208-1.839-0.619-2.551-1.188c-1.542-1.137-2.076-2.531-2.076-5.477V53.47h4.271l-0.06,0.879
							c-0.059,1.137,0.298,1.859,0.949,2.377c0.416,0.308,0.831,0.516,1.306,0.619c0.89,0.207,1.424,0.207,4.211,0.207h8.897
							c4.864,0,6.524,0.877,8.067,4.236c0.355-1.19,0.593-1.655,1.364-2.428c1.424-1.397,2.966-1.809,6.524-1.809h8.957
							c2.669,0,3.321-0.053,4.152-0.26c1.482-0.309,2.253-1.395,2.253-3.1V53.47h4.271v2.688c0,3.046-0.534,4.337-2.077,5.527
							c-0.771,0.568-1.66,0.98-2.55,1.188c-1.364,0.26-2.255,0.361-4.982,0.361h-0.296l-9.194-0.051c-2.374,0-3.5,0.104-4.33,0.516
							c-1.187,0.568-1.721,1.705-1.957,3.928h-4.449C42.115,66.024,41.996,65.507,41.461,64.733z"/>
					</g>
				</g>
			</g>
		</g>
	</g>
</g>
<g id="Layer_2">
</g>
</svg>
