<?xml version="1.0" encoding="utf-8"?>
<!-- Generator: Adobe Illustrator 16.0.0, SVG Export Plug-In . SVG Version: 6.00 Build 0)  -->
<!DOCTYPE svg PUBLIC "-//W3C//DTD SVG 1.1//EN" "http://www.w3.org/Graphics/SVG/1.1/DTD/svg11.dtd">
<svg version="1.1" id="Layer_1" xmlns="http://www.w3.org/2000/svg" xmlns:xlink="http://www.w3.org/1999/xlink" x="0px" y="0px"
	 width="47.5px" height="47px" viewBox="0 0 47.5 47" enable-background="new 0 0 47.5 47" xml:space="preserve">
<g>
	<g>
		<path d="M36.5,15h-13c-0.829,0-1.5-0.672-1.5-1.5s0.671-1.5,1.5-1.5h13c0.828,0,1.5,0.672,1.5,1.5S37.328,15,36.5,15z"/>
	</g>
	<g>
		<path d="M36.5,26h-25c-0.829,0-1.5-0.672-1.5-1.5s0.671-1.5,1.5-1.5h25c0.828,0,1.5,0.672,1.5,1.5S37.328,26,36.5,26z"/>
	</g>
	<g>
		<path d="M36.5,36h-25c-0.829,0-1.5-0.672-1.5-1.5s0.671-1.5,1.5-1.5h25c0.828,0,1.5,0.672,1.5,1.5S37.328,36,36.5,36z"/>
	</g>
	<g>
		<g>
			<path d="M14.5,15h-13C0.671,15,0,14.328,0,13.5S0.671,12,1.5,12h13c0.829,0,1.5,0.672,1.5,1.5S15.329,15,14.5,15z"/>
		</g>
		<g>
			<path d="M11.11,19.639c-0.369,0-0.739-0.136-1.029-0.409c-0.602-0.568-0.63-1.518-0.061-2.12l3.455-3.66l-3.106-3.206
				c-0.577-0.595-0.562-1.545,0.033-2.121c0.595-0.577,1.544-0.562,2.121,0.033l5.104,5.267l-5.424,5.746
				C11.906,19.48,11.508,19.639,11.11,19.639z"/>
		</g>
	</g>
	<g>
		<path d="M47.5,47h-47V26c0-0.828,0.671-1.5,1.5-1.5s1.5,0.672,1.5,1.5v18h41V3h-43C0.671,3,0,2.328,0,1.5S0.671,0,1.5,0h46V47z"/>
	</g>
</g>
</svg>
