<?xml version="1.0" encoding="utf-8"?>
<!-- Generator: Adobe Illustrator 16.0.0, SVG Export Plug-In . SVG Version: 6.00 Build 0)  -->
<!DOCTYPE svg PUBLIC "-//W3C//DTD SVG 1.1//EN" "http://www.w3.org/Graphics/SVG/1.1/DTD/svg11.dtd">
<svg version="1.1" id="Layer_1" xmlns="http://www.w3.org/2000/svg" xmlns:xlink="http://www.w3.org/1999/xlink" x="0px" y="0px"
	 width="94.756px" height="94.756px" viewBox="0 0 94.756 94.756" enable-background="new 0 0 94.756 94.756" xml:space="preserve">
<g>
	<g>
		<circle cx="47.378" cy="47.378" r="47.365"/>
	</g>
	<g>
		<path fill="#FFFFFF" d="M28.716,52.827l2.716-1.125l0.664,1.604L29.38,54.43l1.364,3.292l-1.983,0.822l-3.381-8.162l4.698-1.947
			l0.664,1.603l-2.716,1.125L28.716,52.827z"/>
		<path fill="#FFFFFF" d="M37.933,53.768c0.243,0.588-0.02,1.198-0.607,1.441c-0.599,0.248-1.205-0.002-1.453-0.603
			c-0.248-0.599,0.003-1.205,0.615-1.458C37.073,52.905,37.684,53.168,37.933,53.768z"/>
		<path fill="#FFFFFF" d="M43.123,51.215l0.132,1.322l-2.117,0.877l-0.689-9.277l2.521-1.045l6.061,7.052l-2.178,0.902l-0.843-1.028
			L43.123,51.215z M42.64,45.967l0.309,3.442l1.909-0.791L42.64,45.967z"/>
		<path fill="#FFFFFF" d="M53.941,47.134c0.243,0.587-0.019,1.198-0.606,1.441c-0.6,0.249-1.205-0.002-1.453-0.602
			c-0.249-0.599,0.002-1.205,0.614-1.458C53.083,46.271,53.693,46.534,53.941,47.134z"/>
		<path fill="#FFFFFF" d="M64.752,44.304l-1.022-0.565c-0.54,0.567-1.071,0.945-1.78,1.239c-2.374,0.983-5.101-0.094-6.063-2.419
			c-0.513-1.236-0.457-2.692,0.17-3.913c0.49-0.963,1.327-1.711,2.429-2.167c2.411-0.999,5.009,0.046,5.987,2.407
			c0.426,1.028,0.496,2.204,0.184,3.179l1.029,0.477L64.752,44.304z M62.712,41.077c0.01-0.462-0.08-0.955-0.248-1.359
			c-0.537-1.297-1.983-1.917-3.256-1.389c-1.31,0.542-1.882,1.999-1.314,3.369c0.559,1.347,1.992,1.97,3.302,1.428
			c0.257-0.106,0.387-0.174,0.526-0.289l-0.808-0.426l0.933-1.762L62.712,41.077z"/>
	</g>
</g>
</svg>
