<?xml version="1.0" encoding="utf-8"?>
<!-- Generator: Adobe Illustrator 16.0.0, SVG Export Plug-In . SVG Version: 6.00 Build 0)  -->
<!DOCTYPE svg PUBLIC "-//W3C//DTD SVG 1.1//EN" "http://www.w3.org/Graphics/SVG/1.1/DTD/svg11.dtd">
<svg version="1.1" id="Layer_1" xmlns="http://www.w3.org/2000/svg" xmlns:xlink="http://www.w3.org/1999/xlink" x="0px" y="0px"
	 width="270.668px" height="69.459px" viewBox="0 0 270.668 69.459" enable-background="new 0 0 270.668 69.459"
	 xml:space="preserve">
<g>
	<path fill="#FFCE00" d="M120.197,55.266c-4.073-5.836-9.89-7.608-26.771-7.608l-44.825,0.249h-1.744
		c-13.096,0-17.753-0.498-24.155-1.772c-4.657-1.016-9.022-3.038-12.516-5.827C2.621,34.729,0,27.887,0,13.436V0h20.954
		l-0.292,4.312c-0.288,5.577,1.461,9.123,4.657,11.663c2.042,1.514,4.078,2.53,6.407,3.038c4.365,1.016,6.986,1.016,20.661,1.016
		h43.656c23.867,0,32.013,4.303,39.583,20.786c1.744-5.836,2.909-8.117,6.694-11.912c6.986-6.852,14.552-8.874,32.013-8.874h43.948
		c13.096,0,16.296-0.259,20.374-1.274c7.273-1.514,11.059-6.842,11.059-15.208V0h20.954v13.187c0,14.95-2.621,21.284-10.188,27.12
		c-3.785,2.789-8.15,4.812-12.515,5.827c-6.694,1.274-11.06,1.772-24.447,1.772h-1.452l-45.113-0.249
		c-11.643,0-17.173,0.508-21.245,2.53c-5.822,2.788-8.442,8.366-9.603,19.271h-21.831C123.403,61.601,122.818,59.062,120.197,55.266
		z"/>
</g>
</svg>
