<?xml version="1.0" encoding="utf-8"?>
<!-- Generator: Adobe Illustrator 16.0.0, SVG Export Plug-In . SVG Version: 6.00 Build 0)  -->
<!DOCTYPE svg PUBLIC "-//W3C//DTD SVG 1.1//EN" "http://www.w3.org/Graphics/SVG/1.1/DTD/svg11.dtd">
<svg version="1.1" id="Layer_1" xmlns="http://www.w3.org/2000/svg" xmlns:xlink="http://www.w3.org/1999/xlink" x="0px" y="0px"
	 width="1917.518px" height="63.744px" viewBox="0 0 1917.518 63.744" enable-background="new 0 0 1917.518 63.744"
	 xml:space="preserve">
<g id="Layer_1_1_">
	<g>
		<g>
			<defs>
				<rect id="SVGID_1_" y="-6.256" width="1918" height="70"/>
			</defs>
			<clipPath id="SVGID_2_">
				<use xlink:href="#SVGID_1_"  overflow="visible"/>
			</clipPath>
			<g clip-path="url(#SVGID_2_)">
				<g>
					<g>
						<path fill="#FFCE00" d="M129.872,18.235c-5.032,0-10.064,0-15.2,0c0-2.523,0-5.006,0-7.557c-5.097,0-10.09,0-15.187,0
							c0-5.084,0-10.101,0-15.258c-2.559,0-5.017,0-7.474,0l0.026,0.028c0-5.055,0-10.11,0-15.148c2.532,0,4.95,0,7.437,0
							c0,2.533,0,4.993,0,7.466c2.552,0,5.034,0,7.618,0c0-5.08,0-10.097,0-15.092c2.562,0,5.021,0,7.583,0
							c0,5.069,0,10.085,0,15.081c2.585,0,5.067,0,7.527,0c0-7.604,0-15.132,0-22.762c-7.603,0-15.153,0-22.775,0
							c0-2.601,0-5.099,0-7.597c10.124,0,20.248,0,30.475,0c0-2.59,0-5.072,0-7.622c2.563,0,5.022,0,7.584,0c0-2.552,0-5.034,0-7.5
							c5.12,0,10.136,0,15.221,0c0,2.532,0,4.992,0,7.468c2.553,0,5.033,0,7.586,0c0-5.095,0-10.127,0-15.16l-0.026,0.028
							c2.543,0,5.086,0.001,7.629,0.002l-0.027-0.027c0.005,7.107,0.01,14.214,0.017,21.32c0,0.505,0.01,1.011,0.015,1.516
							c-2.517,0-5.034,0-7.558,0c0,2.583,0,5.06,0,7.525c2.542,0,5.019,0,7.531,0c0-2.563,0-5.058,0-7.552c2.498,0,4.996,0,7.596,0
							c0,5.093,0,10.109,0,15.195c5.096,0,10.09,0,15.156,0c0,7.62,0,15.17,0,22.784c-2.465,0-4.946,0-7.497,0
							c0-5.011,0-10.004,0-15.072c-5.085,0-10.101,0-15.181,0c0,2.463,0,4.944,0,7.497c2.475,0,4.935,0,7.468,0
							c0,7.621,0,15.17,0,22.834c-2.502,0-5.023,0-7.544,0l0.026,0.028c0-5.048,0-10.097,0-15.163c-2.599,0-5.077,0-7.653,0
							c0,2.539,0,5.018,0,7.532c-2.594,0-5.089,0-7.584,0l0.027,0.026c0-2.518,0-5.036,0-7.551c-2.611,0-5.089,0-7.631,0
							c0,2.562,0,5.057,0,7.551l0.026-0.026c-2.516,0-5.031,0-7.641,0c0,2.6,0,5.077,0,7.595c-2.585,0-5.074,0-7.563,0
							c0-5.05,0-10.1,0-15.14c-7.692,0-15.218,0-22.777,0c0,2.527,0,5.008,0,7.589c5.071,0,10.086,0,15.203,0
							c0,2.582,0,5.062,0,7.521c2.602,0,5.101,0,7.599,0.001c-0.02,2.558-0.038,5.114-0.057,7.67L129.872,18.235z M152.606-12.211
							c0-7.628,0-15.177,0-22.697c-7.618,0-15.167,0-22.695,0c0,7.604,0,15.13,0,22.697
							C137.489-12.211,145.015-12.211,152.606-12.211z"/>
						<path fill="#FFCE00" d="M69.222,18.045c-2.497,0-4.993,0-7.583,0c0-10.121,0-20.2,0-30.342c-10.173,0-20.252,0-30.472,0
							c0,2.515,0,5.034,0,7.553l0.027-0.027c-2.542,0.01-5.084,0.021-7.626,0.031c0-5.054,0-10.108,0-15.265
							c2.612,0,5.094,0,7.567,0c0-2.562,0-5.02,0-7.509c-5.062,0-10.077,0-15.097,0c0,7.605,0,15.154,0,22.747
							c2.562,0,5.059,0,7.557,0c0,2.498,0,4.996,0,7.555c-5.095,0-10.111,0-15.197,0c0-10.087,0-20.15,0-30.318
							c-2.486,0-4.905,0-7.384,0c0-2.521,0-4.939,0-7.429c2.422,0,4.818,0,7.284,0c0-2.551,0-5.032,0-7.619
							c-2.415,0-4.834,0-7.298,0c0-2.563,0-5.022,0-7.586c2.419,0,4.838,0,7.312,0c0-2.562,0-5.021,0-7.585
							c-2.389,0-4.809,0-7.293,0c0-2.585,0-5.066,0-7.602c12.546,0,25.081,0,37.72,0c0,2.457,0,4.939,0,7.535
							c2.624,0,5.144,0,7.665,0c0.002,2.544,0.003,5.089,0.004,7.633c-2.518,0-5.036,0-7.553,0c0,2.585,0,5.063,0,7.58
							c2.562,0,5.058,0,7.553,0c0,2.543,0,5.087,0,7.63c-2.518,0-5.037,0-7.556,0c0,5.054,0,10.001,0,14.941
							c5.074,0,10.084,0,15.134,0c0-2.562,0-5.058,0-7.553c2.519,0,5.038,0,7.553,0c0-7.591,0-15.073,0-22.596
							c-2.561,0-5.057,0-7.553,0c0-2.521,0-5.042,0-7.608c-2.612,0-5.11,0-7.609,0c0-2.498,0-4.995,0-7.602
							c7.667,0,15.255,0,22.845,0l-0.026-0.028c0,5.056,0,10.11,0,15.211c5.172,0,10.205,0,15.238,0c0,2.52,0,5.04,0,7.66
							c-2.62,0-5.102,0-7.647,0c0,5.031,0,9.959,0,14.99c-2.547,0-5.029,0-7.514,0c0,7.65,0,15.198,0,22.788c2.56,0,5.057,0,7.554,0
							c0,2.521,0,5.042,0,7.665c5.129,0,10.146,0,15.145,0c0,2.563,0,5.021,0,7.583c-7.602,0-15.153,0-22.776,0
							c0,2.6,0,5.098,0,7.596L69.222,18.045z M31.133-35.025c0-7.635,0-15.163,0-22.714c-2.532,0-5.013,0-7.597,0
							c0,5.078,0,10.094,0,15.179c-2.562,0-5.022,0-7.501,0c0,2.552,0,5.033,0,7.535C21.091-35.025,26.084-35.025,31.133-35.025z"/>
						<path fill="#FFCE00" d="M107.028-57.897c0,5.032,0,10.063,0,15.158c5.091,0,10.106,0,15.193,0c0-2.476,0-4.936,0-7.468
							c2.55,0,5.031,0,7.576,0c0,7.536,0,15.085,0,22.688c-2.475,0-4.933,0-7.496,0c0-2.461,0-4.943,0-7.488
							c-2.584,0-5.065,0-7.599,0c0,5.01,0,10.003,0,15.1c2.461,0,4.944,0,7.538,0c0,2.623,0,5.144,0,7.664l0.028-0.026
							c-5.052,0-10.104,0-15.155,0c0,2.61,0,5.09,0,7.632c5.097,0,10.126,0,15.155,0l-0.026-0.027
							c0.009,2.544,0.018,5.089,0.026,7.633c-2.521,0-5.042,0-7.635,0c0,7.616,0,15.119,0,22.622l0.027-0.027
							c-2.521,0-5.041,0-7.663,0c0-2.594,0-5.077,0-7.625c-2.562,0-5.021,0-7.494,0c0-2.488,0-4.906,0-7.426
							c2.545,0,5.027,0,7.488,0c0-2.563,0-5.021,0-7.582c-5.004,0-9.957,0-14.982,0c0-2.6,0-5.097,0-7.595c2.455,0,4.91,0,7.362,0
							c0-2.585,0-5.063,0-7.58c-2.498,0-4.931,0-7.362,0c0-2.518,0-5.036,0-7.551c-2.584,0-5.062,0-7.578,0c0,2.562,0,5.058,0,7.553
							c-2.518,0-5.036,0-7.652,0c0-2.612,0-5.091,0-7.633c-2.594,0-5.089,0-7.584,0l0.026,0.028c-0.01-2.543-0.019-5.087-0.029-7.63
							c2.518,0,5.034,0,7.558,0c0-2.582,0-5.059,0-7.525c-2.541,0-5.019,0-7.53,0c0,2.564,0,5.058,0,7.553c-2.495,0-4.989,0-7.55,0
							c0-5.077,0-10.086,0-15.195c2.464,0,4.942,0,7.553,0c0-2.615,0-5.133,0-7.65l-0.027,0.026c2.543,0,5.087,0,7.631,0
							L76.8-50.295c0,2.521,0,5.041,0,7.632c2.637,0,5.134,0,7.632,0l-0.026-0.027c0,5.052,0,10.104,0,15.156c2.61,0,5.09,0,7.631,0
							c0-5.097,0-10.126,0-15.156l-0.026,0.027c2.455,0,4.909,0,7.361,0c0-2.611,0-5.089,0-7.632c-2.498,0-4.93,0-7.361,0
							l0.028,0.026c0-5.025,0-10.051,0-15.15c2.438,0,4.853,0,7.367,0c0,2.457,0,4.936,0,7.549c2.615,0,5.132,0,7.649,0
							L107.028-57.897z M106.978-19.906c0-5.087,0-10.1,0-15.091c-2.546,0-5.026,0-7.49,0c0,5.066,0,10.057,0,15.091
							C101.994-19.906,104.451-19.906,106.978-19.906z"/>
					</g>
					<g>
						<path fill="#FFCE00" d="M304.102-65.398c2.51,0,5.02,0,7.628,0c0,2.573,0,5.047,0,7.592c2.576,0.023,5.055,0.045,7.535,0.067
							l-0.018-0.021c0.007,2.5,0.015,5.001,0.021,7.502c-2.485,0.013-4.971,0.026-7.441,0.039c-0.164,1.187-0.113,6.945,0.075,7.604
							c2.439,0,4.903,0,7.366,0c0.011,2.485,0.022,4.97,0.033,7.439c1.288,0.171,14.434,0.111,15.104-0.081c0-2.424,0-4.875,0-7.411
							c2.544,0,4.997,0,7.529,0c0-5.066,0-10.044,0-15.052c2.556,0,5.032,0,7.597,0c0,2.51,0,4.961,0,7.399
							c1.377,0.185,14.505,0.119,15.126-0.079c0-1.2-0.002-2.417,0-3.633c0.003-1.234,0.01-2.469,0.016-3.707
							c2.58,0,5.044,0,7.507,0l-0.021-0.019c0.014,2.132,0.028,4.265,0.041,6.396c0.002,0.329,0,0.658,0,1.032
							c0.862,0.188,1.688,0.068,2.503,0.089c0.831,0.022,1.662,0.005,2.494,0.005c0.826,0,1.653,0,2.54,0c0,5.043,0,10.016,0,15.112
							c-1.237,0.059-2.497,0.022-3.756,0.026c-1.274,0.003-2.548-0.01-3.822-0.017c0.006-2.437,0.014-4.873,0.017-7.31
							c0-0.045-0.05-0.091-0.095-0.17c-2.432,0-4.883,0-7.425,0c0.014,2.516-0.025,4.986,0.027,7.458c2.572,0,5.035,0,7.498,0
							c0.007,4.668,0.015,9.337,0.018,14.005c0,0.386-0.025,0.771-0.039,1.157l0.021-0.019c-2.483,0-4.966,0-7.536,0
							c0-2.515,0-4.968,0-7.522c-2.563,0-5.04,0-7.586,0c0-0.929,0-1.756,0-2.583c0-0.832,0-1.663,0-2.495c0-0.832,0-1.663,0-2.495
							c0-0.859,0-1.718,0-2.578c0-0.831,0.005-1.663-0.001-2.494c-0.006-0.817,0.03-1.638-0.022-2.438
							c-2.216-0.146-6.862-0.083-7.462,0.088c0,7.5,0,14.997,0,22.58c2.509,0,4.962,0,7.4,0c0.169,1.195,0.116,6.867-0.067,7.463
							c-0.818,0-1.649,0-2.479,0c-0.804,0-1.608-0.005-2.411,0.001c-0.818,0.006-1.639-0.027-2.453,0.021c0,2.572,0,5.028,0,7.578
							c0.87,0,1.693,0,2.517,0c0.832,0,1.663-0.005,2.495,0.001c0.818,0.007,1.639-0.03,2.484,0.026c0,0.307,0,0.5,0,0.693
							c0,4.601,0,9.201-0.001,13.802c0,0.221-0.026,0.441-0.041,0.662l0.026-0.026c-2.501,0.008-5.002,0.017-7.502,0.025
							c-0.015-2.532-0.03-5.063-0.045-7.592c-2.578,0-5.03,0-7.523,0c0,2.521,0,4.994,0,7.572c2.565,0,5.077,0,7.589,0
							c-0.014,0.082-0.039,0.163-0.039,0.245c0.003,4.972,0.008,9.943,0.013,14.915l0.023-0.021
							c-4.902-0.006-9.804-0.012-14.706-0.017c-0.132,0-0.264,0.023-0.477,0.044c0,2.492,0,4.942,0,7.443c-2.511,0-4.935,0-7.451,0
							c-0.081-0.807-0.026-1.629-0.036-2.447c-0.01-0.803-0.002-1.606-0.002-2.41c0-0.828,0-1.656,0-2.604
							c-0.883-0.058-1.729-0.021-2.573-0.028c-0.831-0.006-1.662-0.004-2.493-0.001c-0.858,0.004-1.717,0.012-2.575,0.019
							l0.022,0.021c0-2.514,0-5.028,0-7.646c5.086,0,10.057,0,15.053,0c0-2.556,0-5.007,0-7.537c-1.709,0-3.367,0-5.025,0
							c-1.663,0-3.326,0.003-4.989,0c-1.651-0.003-3.304,0.016-5.02-0.015c0-0.938,0-1.765,0-2.592c0-0.832,0.01-1.664-0.003-2.495
							c-0.012-0.816,0.06-1.639-0.053-2.497c-0.392,0-0.693,0-0.995,0c-4.38,0-8.76,0.001-13.14-0.002
							c-0.332,0-0.663-0.026-0.995-0.04l0.026,0.026c0.006-0.332,0.017-0.665,0.017-0.997c0.001-4.378,0-8.757,0.002-13.136
							c0-0.318,0.021-0.636,0.036-1.023c2.569,0,5.024,0,7.467,0c0.178-1.163,0.129-6.838-0.075-7.483c-2.431,0-4.887,0-7.429,0
							c0-1.147,0-2.221,0-3.294c0-1.081,0-2.162,0-3.243s0-2.162,0-3.242c0-1.053,0-2.106,0-3.159c0-1.081,0-2.162,0-3.243
							s0.004-2.162,0-3.242c-0.005-1.067,0.021-2.136-0.019-3.236c-0.95,0-1.78,0-2.61,0c-0.804,0-1.606,0.004-2.411-0.001
							c-0.819-0.006-1.64,0.025-2.453-0.021c0-5.089,0-10.065,0-15.128c2.501,0,4.953,0,7.474,0c0-2.601,0-5.115,0-7.629
							L304.102-65.398z M319.333-4.925c7.577,0,15.049,0,22.513,0c0.178-1.44,0.104-21.975-0.065-22.513c-7.479,0-14.95,0-22.448,0
							C319.333-19.908,319.333-12.438,319.333-4.925z"/>
						<path fill="#FFCE00" d="M266.403-65.405c0.133,0.028,0.265,0.081,0.397,0.081c2.346,0,4.691-0.007,7.037-0.013l-0.021-0.025
							c0.015,0.331,0.041,0.663,0.041,0.994c0.003,4.405,0.002,8.81,0.002,13.215c0,0.296,0,0.592,0,0.957c2.611,0,5.125,0,7.639,0
							l-0.021-0.021c-0.005,4.949-0.012,9.898-0.015,14.848c0,0.109,0.028,0.218,0.044,0.328c-0.109-0.016-0.219-0.045-0.328-0.045
							c-4.789-0.002-9.578-0.003-14.368,0.001c-0.154,0-0.308,0.057-0.452,0.085c0,2.508,0,4.969,0,7.43
							c-2.53,0.076-5.065-0.042-7.592,0.065c0,2.556,0,5.009,0,7.503c2.521,0,4.993,0,7.573,0c0-2.565,0-5.077,0-7.589
							c0.192,0.015,0.384,0.042,0.576,0.043c4.645,0.002,9.289,0.002,13.933,0c0.22,0,0.439-0.03,0.659-0.046
							c-0.01,2.464-0.022,4.927-0.027,7.391c0,0.07,0.069,0.14,0.13,0.257c0.319,0,0.648-0.002,0.977,0
							c2.132,0.012,4.264,0.026,6.396,0.039l-0.021-0.021c0.013,0.138,0.037,0.275,0.037,0.413c0.002,4.684,0.002,9.369,0,14.053
							c0,0.188-0.032,0.375-0.048,0.552c-0.877,0.168-14.415,0.14-15.091-0.041c0-0.809,0-1.636,0-2.463
							c0-0.832,0.011-1.664-0.003-2.495c-0.014-0.816,0.067-1.64-0.051-2.436c-1.678-0.157-6.86-0.095-7.438,0.079
							c0,4.977,0,9.954,0,15.016c7.548,0,15.045,0,22.576,0c0,2.561,0,5.036,0,7.6c-2.507,0-4.959,0-7.497,0
							c0,2.541,0,4.993,0,7.406c-0.136,0.061-0.186,0.102-0.235,0.102c-2.465-0.004-4.93-0.011-7.396-0.019l0.026,0.026
							c0-2.482,0-4.964,0-7.529c-2.551,0.013-5.02-0.018-7.51,0.019c0,2.585,0,5.047,0,7.51l0.032-0.031
							c-1.656,0.015-3.312,0.039-4.967,0.043c-0.91,0.002-1.82-0.028-2.729-0.043l0.031,0.031c0-2.482,0-4.965,0-7.527
							c-0.404,0-0.729,0-1.056,0c-5.233,0-10.467-0.002-15.7,0c-1.965,0.001-3.931,0.012-5.896,0.019l0.021,0.021
							c0.07-2.528-0.047-5.061,0.065-7.638c1.34,0,2.583,0.006,3.825-0.001c1.229-0.007,2.459,0.033,3.728-0.031
							c0-0.477-0.002-0.833,0-1.19c0.013-2.101,0.026-4.202,0.04-6.303l-0.021,0.021c2.504-0.007,5.007-0.013,7.511-0.021
							c-0.007,2.437-0.014,4.874-0.017,7.31c0,0.045,0.049,0.091,0.095,0.17c2.433,0,4.883,0,7.426,0
							c-0.014-2.515,0.026-4.986-0.028-7.458c-2.571,0-5.034,0-7.497,0c0-2.514,0-5.029,0-7.64c-0.411,0-0.708,0.001-1.005,0
							c-2.162-0.013-4.323-0.026-6.484-0.039l0.021,0.021c0-2.502,0-5.004,0-7.506l-0.021,0.021c0.304-0.013,0.607-0.037,0.91-0.038
							c1.883-0.003,3.766,0,5.648-0.003c0.291-0.001,0.582-0.027,0.859-0.041c0-2.561,0-5.014,0-7.558c-0.348,0-0.645,0.001-0.942,0
							c-2.158-0.012-4.317-0.025-6.476-0.039l0.022,0.019c0.002-2.5,0.003-5,0.005-7.5l-0.021,0.02
							c0.303-0.014,0.606-0.039,0.91-0.039c4.347-0.002,8.694-0.001,13.042-0.001c0.302,0,0.604,0,1.024,0
							c0.058-0.883,0.022-1.73,0.029-2.574c0.006-0.83,0.004-1.661,0-2.492c-0.003-0.858-0.014-1.716-0.021-2.574l-0.022,0.022
							c2.514,0,5.028,0,7.642,0c0-0.39,0-0.714,0-1.037c0-6.871-0.001-13.741,0.004-20.611c0-0.354,0.064-0.709,0.097-1.063
							L266.403-65.405z"/>
						<path fill="#FFCE00" d="M311.763-20.125c-0.007,1.467-0.02,2.935-0.02,4.402c-0.002,5.759,0,11.518,0,17.277
							c0,0.327,0,0.654,0,1.082c-2.546,0-5.021,0-7.572,0c-0.023,2.582-0.046,5.063-0.069,7.545l0.023-0.021
							c-2.483,0-4.966,0-7.535,0c0-2.513,0-4.965,0-7.485c-2.601,0-5.114,0-7.628,0l0.021,0.021
							c0.006-1.461,0.021-2.922,0.017-4.382c-0.003-1.102-0.03-2.203-0.047-3.304c2.465,0.01,4.93,0.021,7.395,0.025
							c0.07,0,0.139-0.07,0.194-0.1c0-4.997,0-9.971,0-15.005c-2.531-0.05-5.009,0.024-7.54-0.042c0-0.382,0-0.655,0-0.928
							c0-1.913,0.005-3.825-0.004-5.737c-0.001-0.299-0.064-0.598-0.098-0.896c0.217,0.034,0.434,0.096,0.649,0.097
							c2.133,0.007,4.267,0.005,6.4,0.002c0.187,0,0.375-0.032,0.604-0.054c0-2.487,0-4.937,0-7.437c-2.515,0-4.99,0-7.513,0
							c-0.015,0.318-0.037,0.588-0.037,0.859c-0.003,1.912,0.002,3.823-0.006,5.735c-0.001,0.271-0.054,0.542-0.083,0.812
							c-0.077,0.026-0.155,0.074-0.232,0.074c-2.402-0.006-4.803-0.017-7.205-0.026l0.021,0.021
							c-0.013-0.192-0.038-0.385-0.038-0.577c-0.002-4.643-0.002-9.286,0-13.929c0-0.22,0.027-0.44,0.041-0.66l-0.025,0.025
							c2.481,0,4.964,0,7.527,0c-0.009-2.55,0.017-5.02-0.017-7.509c-2.586,0-5.048,0-7.51,0l0.03,0.032
							c-0.016-0.22-0.045-0.44-0.045-0.662c-0.003-4.602-0.002-9.205-0.002-13.807c0-0.193,0-0.386,0-0.567
							c0.595-0.185,13.845-0.247,15.118-0.069c0,2.438,0,4.892,0,7.435c2.538,0,4.989,0,7.563,0c0.008,2.599,0.002,5.109,0.004,7.62
							c0,2.495,0,4.991,0,7.486c0,2.523,0,5.046,0,7.569c0,2.495,0,4.991,0,7.486c0,2.515,0,5.03,0,7.615c2.61,0,5.126,0,7.641,0
							L311.763-20.125z"/>
					</g>
				</g>
				<g>
					<g>
						<path fill="#FFCE00" d="M629.665,38.263c-0.019-2.556-0.038-5.111-0.058-7.67c2.498-0.001,4.998-0.001,7.6-0.001
							c0-2.458,0-4.939,0-7.521c5.117,0,10.132,0,15.203,0c0-2.581,0-5.062,0-7.589c-7.561,0-15.085,0-22.777,0
							c0,5.04,0,10.089,0,15.14c-2.488,0-4.978,0-7.562,0c0-2.518,0-4.995,0-7.595c-2.61,0-5.125,0-7.642,0l0.026,0.026
							c0-2.495,0-4.99,0-7.551c-2.542,0-5.021,0-7.631,0c0,2.516,0,5.034,0,7.551l0.027-0.026c-2.496,0-4.99,0-7.584,0
							c0-2.514,0-4.993,0-7.532c-2.576,0-5.055,0-7.653,0c0,5.066,0,10.115,0,15.163l0.025-0.028c-2.521,0-5.042,0-7.544,0
							c0-7.664,0-15.213,0-22.834c2.533,0,4.993,0,7.469,0c0-2.552,0-5.033,0-7.497c-5.08,0-10.097,0-15.182,0
							c0,5.067,0,10.061,0,15.072c-2.551,0-5.031,0-7.497,0c0-7.614,0-15.164,0-22.784c5.066,0,10.061,0,15.156,0
							c0-5.085,0-10.102,0-15.195c2.601,0,5.099,0,7.596,0c0,2.495,0,4.989,0,7.552c2.513,0,4.989,0,7.531,0
							c0-2.466,0-4.943,0-7.525c-2.522,0-5.041,0-7.558,0c0.005-0.505,0.015-1.01,0.015-1.516c0.006-7.106,0.013-14.213,0.017-21.32
							l-0.026,0.027c2.543-0.001,5.086-0.001,7.629-0.002l-0.026-0.028c0,5.033,0,10.065,0,15.16c2.554,0,5.033,0,7.586,0
							c0-2.476,0-4.936,0-7.468c5.086,0,10.102,0,15.222,0c0,2.466,0,4.948,0,7.5c2.562,0,5.021,0,7.584,0c0,2.55,0,5.032,0,7.622
							c10.228,0,20.352,0,30.475,0c0,2.498,0,4.996,0,7.597c-7.622,0-15.172,0-22.774,0c0,7.63,0,15.158,0,22.762
							c2.46,0,4.94,0,7.526,0c0-4.995,0-10.012,0-15.081c2.562,0,5.021,0,7.583,0c0,4.996,0,10.012,0,15.092
							c2.584,0,5.065,0,7.618,0c0-2.473,0-4.933,0-7.466c2.487,0,4.905,0,7.437,0c0,5.038,0,10.093,0,15.148l0.026-0.028
							c-2.457,0-4.915,0-7.474,0c0,5.158,0,10.174,0,15.258c-5.096,0-10.09,0-15.188,0c0,2.552,0,5.033,0,7.558
							c-5.136,0-10.168,0-15.199,0L629.665,38.263z M629.6,7.789c0-7.567,0-15.094,0-22.697c-7.527,0-15.076,0-22.694,0
							c0,7.52,0,15.069,0,22.697C614.496,7.789,622.021,7.789,629.6,7.789z"/>
						<path fill="#FFCE00" d="M690.314,38.073c0-2.498,0-4.996,0-7.596c-7.622,0-15.174,0-22.775,0c0-2.561,0-5.02,0-7.583
							c5,0,10.016,0,15.145,0c0-2.623,0-5.144,0-7.665c2.497,0,4.994,0,7.555,0c0-7.59,0-15.138,0-22.788c-2.485,0-4.967,0-7.514,0
							c0-5.03,0-9.958,0-14.99c-2.546,0-5.027,0-7.647,0c0-2.621,0-5.141,0-7.66c5.033,0,10.065,0,15.238,0
							c0-5.101,0-10.155,0-15.211l-0.026,0.028c7.589,0,15.178,0,22.845,0c0,2.606,0,5.104,0,7.602c-2.499,0-4.997,0-7.608,0
							c0,2.566,0,5.087,0,7.608c-2.496,0-4.992,0-7.554,0c0,7.523,0,15.005,0,22.596c2.516,0,5.034,0,7.554,0
							c0,2.496,0,4.991,0,7.553c5.049,0,10.06,0,15.134,0c0-4.939,0-9.887,0-14.941c-2.521,0-5.038,0-7.556,0
							c0-2.543,0-5.087,0-7.63c2.494,0,4.99,0,7.553,0c0-2.516,0-4.995,0-7.58c-2.518,0-5.035,0-7.553,0
							c0-2.544,0.002-5.089,0.004-7.633c2.521,0,5.041,0,7.664,0c0-2.596,0-5.079,0-7.535c12.64,0,25.175,0,37.721,0
							c0,2.536,0,5.017,0,7.602c-2.484,0-4.904,0-7.293,0c0,2.564,0,5.023,0,7.585c2.474,0,4.893,0,7.312,0c0,2.564,0,5.023,0,7.586
							c-2.464,0-4.883,0-7.298,0c0,2.587,0,5.068,0,7.619c2.466,0,4.862,0,7.284,0c0,2.489,0,4.907,0,7.429
							c-2.479,0-4.898,0-7.384,0c0,10.168,0,20.231,0,30.318c-5.086,0-10.104,0-15.197,0c0-2.559,0-5.057,0-7.555
							c2.498,0,4.995,0,7.557,0c0-7.593,0-15.142,0-22.747c-5.021,0-10.035,0-15.097,0c0,2.489,0,4.947,0,7.509
							c2.474,0,4.956,0,7.567,0c0,5.156,0,10.21,0,15.265c-2.542-0.011-5.084-0.021-7.626-0.032l0.026,0.027
							c0-2.519,0-5.038,0-7.553c-10.22,0-20.299,0-30.472,0c0,10.143,0,20.222,0,30.342c-2.59,0-5.086,0-7.583,0L690.314,38.073z
							 M743.475-15.025c0-2.501,0-4.982,0-7.535c-2.479,0-4.938,0-7.501,0c0-5.085,0-10.102,0-15.179c-2.584,0-5.064,0-7.597,0
							c0,7.551,0,15.079,0,22.714C733.426-15.025,738.419-15.025,743.475-15.025z"/>
						<path fill="#FFCE00" d="M652.456-37.871c2.518,0,5.034,0,7.649,0c0-2.613,0-5.092,0-7.549c2.515,0,4.93,0,7.366,0
							c0,5.099,0,10.125,0,15.15l0.028-0.026c-2.432,0-4.863,0-7.361,0c0,2.542,0,5.021,0,7.632c2.453,0,4.907,0,7.361,0
							l-0.026-0.027c0,5.029,0,10.059,0,15.156c2.542,0,5.021,0,7.632,0c0-5.052,0-10.104,0-15.156l-0.026,0.027
							c2.498,0,4.995,0,7.632,0c0-2.591,0-5.111,0-7.632l-0.027,0.026c2.545,0,5.088,0,7.631,0l-0.026-0.026c0,2.517,0,5.035,0,7.65
							c2.61,0,5.089,0,7.553,0c0,5.109,0,10.118,0,15.195c-2.561,0-5.055,0-7.55,0c0-2.495,0-4.989,0-7.553c-2.512,0-4.989,0-7.53,0
							c0,2.466,0,4.943,0,7.525c2.523,0,5.04,0,7.559,0c-0.011,2.543-0.02,5.087-0.029,7.63l0.026-0.028c-2.495,0-4.99,0-7.584,0
							c0,2.542,0,5.021,0,7.633c-2.616,0-5.135,0-7.652,0c0-2.495,0-4.99,0-7.553c-2.516,0-4.994,0-7.578,0c0,2.515,0,5.033,0,7.551
							c-2.432,0-4.864,0-7.362,0c0,2.516,0,4.995,0,7.58c2.453,0,4.907,0,7.362,0c0,2.498,0,4.995,0,7.595
							c-5.025,0-9.979,0-14.982,0c0,2.561,0,5.019,0,7.582c2.461,0,4.943,0,7.488,0c0,2.521,0,4.938,0,7.426
							c-2.473,0-4.932,0-7.494,0c0,2.549,0,5.031,0,7.625c-2.622,0-5.143,0-7.663,0l0.027,0.027c0-7.503,0-15.006,0-22.622
							c-2.593,0-5.114,0-7.635,0c0.009-2.544,0.018-5.088,0.025-7.633l-0.025,0.027c5.028,0,10.059,0,15.155,0
							c0-2.542,0-5.021,0-7.632c-5.053,0-10.104,0-15.155,0l0.028,0.026c0-2.521,0-5.041,0-7.664c2.594,0,5.076,0,7.537,0
							c0-5.097,0-10.09,0-15.1c-2.533,0-5.015,0-7.599,0c0,2.545,0,5.027,0,7.488c-2.563,0-5.021,0-7.496,0
							c0-7.603,0-15.152,0-22.688c2.545,0,5.025,0,7.576,0c0,2.533,0,4.992,0,7.468c5.086,0,10.102,0,15.192,0
							c0-5.094,0-10.126,0-15.158L652.456-37.871z M660.023,0.094c0-5.034,0-10.024,0-15.091c-2.465,0-4.944,0-7.49,0
							c0,4.991,0,10.004,0,15.091C655.061,0.094,657.518,0.094,660.023,0.094z"/>
						<path fill="#FFCE00" d="M568.886,7.509c0-17.692,0-35.318,0-52.929c17.742,0,35.408,0,53.118,0c0,17.653,0,35.256,0,52.929
							C604.241,7.509,586.552,7.509,568.886,7.509z M614.398-38.004c-12.639,0-25.235,0-37.906,0c0,12.604,0,25.223,0,37.909
							c12.595,0,25.214,0,37.906,0C614.398-12.762,614.398-25.358,614.398-38.004z"/>
						<path fill="#FFCE00" d="M758.48-45.419c0,17.758,0,35.447,0,53.115c-17.681,0-35.283,0-52.928,0c0-17.718,0-35.385,0-53.115
							C723.258-45.419,740.884-45.419,758.48-45.419z M751.091,0.101c0-12.638,0-25.235,0-37.907c-12.601,0-25.22,0-37.905,0
							c0,12.593,0,25.211,0,37.907C725.848,0.101,738.444,0.101,751.091,0.101z"/>
						<path fill="#FFCE00" d="M591.615-7.624c0-2.435,0-4.869,0-7.406c-5.061,0-10.076,0-15.146,0c0-2.56,0-5.019,0-7.581
							c2.457,0,4.939,0,7.486,0c0-7.653,0-15.202,0-22.808c-2.488,0-4.968,0-7.519,0c0,5.031,0,10.024,0,15.12
							c-2.548,0-5.03,0-7.568,0c0,7.589,0,15.075,0,22.631c2.488,0,4.947,0,7.476,0c0,2.55,0,5.031,0,7.616
							c-2.474,0-4.956,0-7.484,0c0,5.096,0,10.089,0,15.154c2.471,0,4.952,0,7.538,0c0-2.47,0-4.952,0-7.502c2.561,0,5.02,0,7.582,0
							c0-5.084,0-10.1,0-15.25c2.621,0,5.143,0,7.662,0L591.615-7.624z"/>
					</g>
					<g>
						<path fill="#FFCE00" d="M455.385-45.419c0,2.514,0,5.028,0,7.629c2.521,0,4.974,0,7.475,0c0,5.063,0,10.039,0,15.128
							c-0.813,0.046-1.635,0.015-2.453,0.021c-0.803,0.005-1.607,0.001-2.411,0.001c-0.83,0-1.66,0-2.61,0
							c-0.04,1.1-0.013,2.169-0.019,3.236c-0.004,1.081,0,2.162,0,3.242c0,1.081,0,2.162,0,3.243c0,1.053,0,2.106,0,3.159
							c0,1.081,0,2.162,0,3.242c0,1.081,0,2.162,0,3.243c0,1.073,0,2.147,0,3.294c-2.542,0-4.998,0-7.429,0
							c-0.204,0.646-0.254,6.321-0.075,7.483c2.441,0,4.896,0,7.467,0c0.015,0.388,0.036,0.706,0.036,1.023
							c0.002,4.379,0.001,8.757,0.002,13.136c0,0.333,0.011,0.665,0.017,0.997l0.026-0.026c-0.332,0.014-0.663,0.04-0.995,0.04
							c-4.38,0.003-8.759,0.002-13.14,0.002c-0.303,0-0.604,0-0.995,0c-0.112,0.857-0.041,1.68-0.054,2.497
							c-0.013,0.832-0.003,1.663-0.003,2.495c0,0.827,0,1.654,0,2.592c-1.716,0.03-3.367,0.011-5.02,0.015
							c-1.663,0.003-3.326,0-4.989,0c-1.658,0-3.314,0-5.024,0c0,2.53,0,4.981,0,7.537c4.995,0,9.966,0,15.053,0
							c0,2.618,0,5.133,0,7.646l0.022-0.021c-0.857-0.007-1.717-0.015-2.574-0.019c-0.831-0.003-1.662-0.005-2.493,0.001
							c-0.845,0.006-1.69-0.029-2.573,0.027c0,0.949,0,1.777,0,2.604c0,0.804,0.008,1.606-0.002,2.41
							c-0.01,0.817,0.045,1.642-0.036,2.447c-2.516,0-4.94,0-7.451,0c0-2.501,0-4.952,0-7.443c-0.213-0.021-0.345-0.044-0.477-0.044
							c-4.902,0.004-9.804,0.01-14.706,0.018l0.023,0.021c0.005-4.972,0.01-9.942,0.013-14.915c0-0.082-0.025-0.163-0.039-0.245
							c2.512,0,5.023,0,7.589,0c0-2.579,0-5.051,0-7.572c-2.494,0-4.946,0-7.523,0c-0.015,2.529-0.029,5.061-0.045,7.592
							c-2.5-0.008-5.001-0.017-7.502-0.025l0.026,0.026c-0.015-0.221-0.041-0.441-0.041-0.662
							c-0.002-4.602-0.001-9.202-0.001-13.802c0-0.193,0-0.386,0-0.693c0.846-0.056,1.667-0.019,2.484-0.026
							c0.832-0.007,1.662-0.001,2.494-0.001c0.824,0,1.647,0,2.518,0c0-2.549,0-5.006,0-7.578c-0.814-0.049-1.635-0.016-2.453-0.021
							c-0.803-0.006-1.607-0.001-2.411-0.001c-0.83,0-1.661,0-2.479,0c-0.184-0.596-0.236-6.268-0.066-7.463c2.438,0,4.891,0,7.4,0
							c0-7.583,0-15.08,0-22.58c-0.601-0.171-5.246-0.234-7.463-0.088c-0.053,0.8-0.017,1.621-0.022,2.438
							c-0.007,0.831-0.001,1.663-0.001,2.494c0,0.859,0,1.719,0,2.578c0,0.832,0,1.663,0,2.495s0,1.663,0,2.495
							c0,0.827,0,1.653,0,2.583c-2.546,0-5.023,0-7.586,0c0,2.554,0,5.007,0,7.522c-2.57,0-5.053,0-7.536,0l0.022,0.019
							c-0.014-0.386-0.04-0.771-0.039-1.157c0.003-4.668,0.011-9.336,0.018-14.005c2.462,0,4.925,0,7.498,0
							c0.053-2.472,0.014-4.943,0.027-7.458c-2.542,0-4.993,0-7.425,0c-0.045,0.079-0.095,0.125-0.095,0.17
							c0.003,2.437,0.01,4.874,0.017,7.31c-1.274,0.006-2.548,0.021-3.822,0.017c-1.259-0.004-2.52,0.032-3.756-0.026
							c0-5.097,0-10.069,0-15.112c0.887,0,1.713,0,2.54,0c0.832,0,1.663,0.017,2.494-0.005c0.816-0.021,1.642,0.099,2.503-0.089
							c0-0.374-0.001-0.703,0-1.032c0.013-2.132,0.027-4.264,0.041-6.396l-0.022,0.019c2.463,0,4.927,0,7.507,0
							c0.006,1.237,0.013,2.472,0.016,3.707c0.003,1.217,0,2.434,0,3.633c0.622,0.198,13.75,0.264,15.125,0.079
							c0-2.438,0-4.889,0-7.399c2.565,0,5.041,0,7.598,0c0,5.008,0,9.986,0,15.052c2.532,0,4.984,0,7.529,0c0,2.536,0,4.987,0,7.411
							c0.67,0.192,13.815,0.252,15.104,0.081c0.011-2.47,0.021-4.955,0.033-7.439c2.463,0,4.927,0,7.366,0
							c0.188-0.66,0.238-6.418,0.074-7.605c-2.471-0.013-4.956-0.025-7.44-0.039c0.007-2.501,0.015-5.001,0.021-7.502l-0.018,0.022
							c2.479-0.022,4.958-0.044,7.535-0.067c0-2.545,0-5.02,0-7.592c2.607,0,5.118,0,7.628,0L455.385-45.419z M440.178-7.438
							c-7.498,0-14.969,0-22.447,0c-0.17,0.538-0.243,21.072-0.065,22.513c7.464,0,14.936,0,22.513,0
							C440.178,7.562,440.178,0.092,440.178-7.438z"/>
						<path fill="#FFCE00" d="M493.108-45.405c-0.134,0.028-0.266,0.081-0.397,0.081c-2.346,0-4.691-0.007-7.037-0.013l0.021-0.025
							c-0.016,0.331-0.041,0.663-0.041,0.994c-0.003,4.405-0.002,8.81-0.002,13.215c0,0.296,0,0.592,0,0.957
							c-2.611,0-5.125,0-7.64,0l0.021-0.021c0.005,4.949,0.012,9.898,0.015,14.848c0,0.109-0.027,0.218-0.044,0.328
							c0.109-0.016,0.219-0.045,0.328-0.045c4.789-0.002,9.578-0.003,14.368,0.001c0.154,0,0.308,0.057,0.452,0.085
							c0,2.508,0,4.969,0,7.43c2.529,0.076,5.064-0.042,7.592,0.065c0,2.556,0,5.009,0,7.503c-2.521,0-4.993,0-7.573,0
							c0-2.565,0-5.077,0-7.589c-0.191,0.015-0.384,0.042-0.576,0.043c-4.645,0.002-9.289,0.002-13.933,0
							c-0.22,0-0.439-0.03-0.659-0.046c0.01,2.464,0.022,4.927,0.027,7.391c0,0.07-0.069,0.14-0.13,0.257
							c-0.319,0-0.648-0.002-0.978,0c-2.132,0.012-4.264,0.026-6.396,0.039l0.021-0.021c-0.013,0.138-0.037,0.275-0.037,0.413
							c-0.002,4.684-0.002,9.369,0,14.053c0,0.188,0.032,0.375,0.049,0.552c0.877,0.168,14.414,0.14,15.091-0.041
							c0-0.809,0-1.636,0-2.463c0-0.832-0.011-1.664,0.003-2.495c0.014-0.816-0.067-1.64,0.051-2.436
							c1.678-0.157,6.86-0.095,7.438,0.079c0,4.977,0,9.954,0,15.016c-7.548,0-15.045,0-22.575,0c0,2.561,0,5.036,0,7.6
							c2.507,0,4.959,0,7.497,0c0,2.542,0,4.993,0,7.406c0.136,0.062,0.186,0.103,0.234,0.103c2.465-0.004,4.93-0.012,7.396-0.02
							l-0.026,0.026c0-2.482,0-4.964,0-7.529c2.551,0.013,5.021-0.018,7.51,0.019c0,2.585,0,5.046,0,7.51l-0.032-0.031
							c1.656,0.015,3.312,0.039,4.968,0.043c0.91,0.002,1.819-0.028,2.729-0.043l-0.03,0.031c0-2.482,0-4.966,0-7.527
							c0.403,0,0.729,0,1.056,0c5.233,0,10.467-0.002,15.7,0c1.965,0.001,3.931,0.012,5.896,0.019l-0.021,0.021
							c-0.07-2.528,0.047-5.061-0.065-7.638c-1.34,0-2.583,0.006-3.825-0.001c-1.229-0.007-2.459,0.033-3.728-0.031
							c0-0.477,0.002-0.833,0-1.19c-0.013-2.101-0.026-4.202-0.04-6.303l0.021,0.021c-2.504-0.007-5.007-0.013-7.511-0.021
							c0.007,2.437,0.014,4.874,0.018,7.31c0,0.045-0.05,0.091-0.096,0.17c-2.433,0-4.883,0-7.426,0
							c0.014-2.515-0.026-4.986,0.028-7.458c2.571,0,5.034,0,7.497,0c0-2.514,0-5.029,0-7.64c0.41,0,0.708,0.001,1.005,0
							c2.162-0.013,4.323-0.026,6.483-0.039l-0.021,0.021c0-2.502,0-5.004,0-7.506l0.021,0.021c-0.304-0.013-0.606-0.037-0.91-0.038
							c-1.883-0.003-3.766,0-5.647-0.003c-0.291-0.001-0.582-0.027-0.859-0.041c0-2.561,0-5.014,0-7.558
							c0.349,0,0.646,0.001,0.942,0c2.158-0.012,4.316-0.025,6.476-0.039l-0.021,0.019c-0.002-2.5-0.003-5-0.005-7.5l0.021,0.02
							c-0.303-0.014-0.605-0.039-0.909-0.039c-4.348-0.002-8.694-0.001-13.043-0.001c-0.302,0-0.604,0-1.023,0
							c-0.059-0.883-0.022-1.73-0.029-2.574c-0.006-0.83-0.004-1.661,0-2.492c0.003-0.858,0.014-1.716,0.021-2.574l0.021,0.022
							c-2.514,0-5.027,0-7.642,0c0-0.39,0-0.714,0-1.037c0-6.871,0.001-13.741-0.004-20.611c0-0.354-0.064-0.709-0.098-1.063
							L493.108-45.405z"/>
						<path fill="#FFCE00" d="M568.789,7.443c-1.411,0.171-52.32,0.1-52.905-0.066c0-17.59,0-35.18,0-52.796
							c17.657,0,35.254,0,52.905,0C568.789-27.729,568.789-10.139,568.789,7.443z M523.456-0.086c12.577,0,25.121,0,37.663,0
							c0.161-0.593,0.221-36.515,0.058-37.769c-12.536,0-25.079,0-37.72,0C523.456-25.246,523.456-12.695,523.456-0.086z"/>
						<path fill="#FFCE00" d="M568.805-45.419c0,17.62,0,35.187,0,52.806c-17.658,0-35.275,0-52.937,0c0-17.617,0-35.185,0-52.806
							C533.567-45.419,551.164-45.419,568.805-45.419z M561.217-37.929c-12.575,0-25.119,0-37.661,0
							c-0.163,0.59-0.227,36.466-0.061,37.769c12.536,0,25.079,0,37.721,0C561.217-12.768,561.217-25.319,561.217-37.929z"/>
						<path fill="#FFCE00" d="M432.572-45.419c0,17.65,0,35.244,0,52.831c-1.415,0.189-52.243,0.115-52.816-0.072
							c0-17.57,0-35.141,0-52.758C397.386-45.419,414.973-45.419,432.572-45.419z M387.344-0.109c12.574,0,25.117,0,37.66,0
							c0.164-0.588,0.229-36.441,0.062-37.768c-12.536,0-25.079,0-37.723,0C387.344-25.27,387.344-12.718,387.344-0.109z"/>
						<path fill="#FFCE00" d="M447.748-0.125c0.007,1.467,0.02,2.935,0.02,4.402c0.002,5.759,0,11.518,0,17.277
							c0,0.327,0,0.654,0,1.082c2.547,0,5.021,0,7.572,0c0.023,2.582,0.046,5.063,0.069,7.545l-0.023-0.021c2.483,0,4.966,0,7.535,0
							c0-2.513,0-4.965,0-7.485c2.601,0,5.114,0,7.628,0l-0.021,0.021c-0.007-1.461-0.021-2.922-0.018-4.382
							c0.003-1.102,0.03-2.203,0.047-3.304c-2.465,0.01-4.93,0.021-7.395,0.025c-0.07,0-0.14-0.07-0.194-0.1
							c0-4.997,0-9.971,0-15.005c2.531-0.05,5.01,0.024,7.54-0.042c0-0.382,0-0.655,0-0.928c0-1.913-0.005-3.825,0.004-5.737
							c0.001-0.299,0.064-0.598,0.099-0.896c-0.218,0.034-0.435,0.096-0.649,0.097c-2.133,0.007-4.267,0.005-6.399,0.002
							c-0.188,0-0.375-0.032-0.604-0.054c0-2.487,0-4.937,0-7.437c2.515,0,4.99,0,7.513,0c0.016,0.318,0.037,0.588,0.037,0.859
							c0.003,1.912-0.002,3.823,0.006,5.735c0.001,0.271,0.055,0.542,0.083,0.812c0.077,0.026,0.155,0.074,0.232,0.074
							c2.401-0.006,4.803-0.017,7.205-0.026l-0.021,0.021c0.014-0.192,0.038-0.385,0.038-0.577c0.002-4.643,0.002-9.286,0-13.929
							c0-0.22-0.027-0.44-0.041-0.66l0.025,0.025c-2.481,0-4.964,0-7.527,0c0.009-2.55-0.017-5.02,0.018-7.509
							c2.586,0,5.048,0,7.51,0l-0.03,0.032c0.017-0.22,0.045-0.44,0.045-0.662c0.003-4.602,0.002-9.205,0.002-13.807
							c0-0.193,0-0.386,0-0.567c-0.595-0.185-13.845-0.247-15.118-0.069c0,2.438,0,4.892,0,7.435c-2.537,0-4.988,0-7.562,0
							c-0.008,2.599-0.002,5.109-0.004,7.62c0,2.495,0,4.991,0,7.486c0,2.523,0,5.046,0,7.569c0,2.495,0,4.991,0,7.486
							c0,2.515,0,5.03,0,7.615c-2.61,0-5.126,0-7.642,0L447.748-0.125z"/>
						<path fill="#FFCE00" d="M387.358-45.419c-0.016,1.883-0.033,3.766-0.046,5.649c-0.004,0.631-0.001,1.262-0.001,1.995
							c-2.559,0-5.036,0-7.554,0c0,12.643,0,25.182,0,37.775c2.511,0,4.985,0,7.548,0c0-2.49,0-4.942,0-7.385
							c0.158-0.048,0.233-0.093,0.31-0.093c4.959,0.001,9.919,0.005,14.88,0.009l-0.023,0.021c0-5.055-0.001-10.11-0.002-15.165
							l0.026,0.026c-0.304-0.014-0.607-0.04-0.911-0.041c-1.938-0.003-3.877,0-5.815-0.003c-0.291-0.001-0.583-0.027-0.837-0.04
							c-0.037-0.131-0.047-0.157-0.051-0.184c-0.009-0.054-0.021-0.109-0.021-0.164c-0.003-7.228-0.004-14.456-0.006-21.683
							c0-0.083-0.001-0.166-0.003-0.25c0-0.027,0-0.056-0.005-0.083c-0.009-0.054-0.02-0.108-0.034-0.162
							c-0.007-0.024-0.021-0.049-0.038-0.069c-0.018-0.021-0.042-0.035-0.153-0.124c-2.372,0-4.833,0-7.293,0L387.358-45.419z"/>
					</g>
				</g>
				<g>
					<g>
						<path fill="#FFCE00" d="M887.383,18.235c-5.031,0-10.063,0-15.2,0c0-2.523,0-5.006,0-7.557c-5.097,0-10.091,0-15.187,0
							c0-5.084,0-10.101,0-15.258c-2.561,0-5.018,0-7.475,0l0.025,0.028c0-5.055,0-10.11,0-15.148c2.532,0,4.95,0,7.438,0
							c0,2.533,0,4.993,0,7.466c2.553,0,5.033,0,7.617,0c0-5.08,0-10.097,0-15.092c2.562,0,5.021,0,7.584,0
							c0,5.069,0,10.085,0,15.081c2.584,0,5.065,0,7.525,0c0-7.604,0-15.132,0-22.762c-7.604,0-15.153,0-22.773,0
							c0-2.601,0-5.099,0-7.597c10.123,0,20.246,0,30.475,0c0-2.59,0-5.072,0-7.622c2.562,0,5.021,0,7.585,0c0-2.552,0-5.034,0-7.5
							c5.12,0,10.136,0,15.221,0c0,2.532,0,4.992,0,7.468c2.554,0,5.033,0,7.586,0c0-5.095,0-10.127,0-15.16l-0.025,0.028
							c2.543,0,5.086,0.001,7.629,0.002l-0.026-0.027c0.005,7.107,0.01,14.214,0.018,21.32c0,0.505,0.01,1.011,0.015,1.516
							c-2.519,0-5.034,0-7.558,0c0,2.583,0,5.06,0,7.525c2.542,0,5.019,0,7.529,0c0-2.563,0-5.058,0-7.552c2.498,0,4.996,0,7.598,0
							c0,5.093,0,10.109,0,15.195c5.096,0,10.09,0,15.156,0c0,7.62,0,15.17,0,22.784c-2.466,0-4.946,0-7.498,0
							c0-5.011,0-10.004,0-15.072c-5.084,0-10.101,0-15.181,0c0,2.463,0,4.944,0,7.497c2.476,0,4.935,0,7.468,0
							c0,7.621,0,15.17,0,22.834c-2.503,0-5.022,0-7.544,0l0.025,0.028c0-5.048,0-10.097,0-15.163c-2.599,0-5.076,0-7.652,0
							c0,2.539,0,5.018,0,7.532c-2.595,0-5.089,0-7.584,0l0.026,0.026c0-2.518,0-5.036,0-7.551c-2.61,0-5.089,0-7.631,0
							c0,2.562,0,5.057,0,7.551l0.025-0.026c-2.516,0-5.03,0-7.641,0c0,2.6,0,5.077,0,7.595c-2.586,0-5.074,0-7.562,0
							c0-5.05,0-10.1,0-15.14c-7.692,0-15.219,0-22.777,0c0,2.527,0,5.008,0,7.589c5.071,0,10.086,0,15.203,0
							c0,2.582,0,5.062,0,7.521c2.602,0,5.101,0,7.599,0.001c-0.02,2.558-0.038,5.114-0.058,7.67L887.383,18.235z M910.117-12.211
							c0-7.628,0-15.177,0-22.697c-7.618,0-15.167,0-22.695,0c0,7.604,0,15.13,0,22.697C895-12.211,902.526-12.211,910.117-12.211z"
							/>
						<path fill="#FFCE00" d="M826.732,18.045c-2.496,0-4.992,0-7.582,0c0-10.121,0-20.2,0-30.342c-10.174,0-20.252,0-30.474,0
							c0,2.515,0,5.034,0,7.553l0.027-0.027c-2.542,0.011-5.084,0.021-7.626,0.032c0-5.054,0-10.108,0-15.265
							c2.611,0,5.094,0,7.566,0c0-2.562,0-5.02,0-7.509c-5.062,0-10.076,0-15.098,0c0,7.605,0,15.154,0,22.747
							c2.562,0,5.061,0,7.559,0c0,2.498,0,4.996,0,7.555c-5.096,0-10.111,0-15.197,0c0-10.087,0-20.15,0-30.318
							c-2.486,0-4.905,0-7.385,0c0-2.522,0-4.94,0-7.429c2.423,0,4.817,0,7.283,0c0-2.551,0-5.032,0-7.619c-2.414,0-4.834,0-7.298,0
							c0-2.563,0-5.022,0-7.586c2.419,0,4.838,0,7.312,0c0-2.562,0-5.021,0-7.585c-2.391,0-4.81,0-7.293,0c0-2.585,0-5.066,0-7.602
							c12.546,0,25.081,0,37.72,0c0,2.457,0,4.939,0,7.535c2.624,0,5.145,0,7.665,0c0.002,2.544,0.003,5.089,0.004,7.633
							c-2.518,0-5.036,0-7.553,0c0,2.585,0,5.063,0,7.58c2.562,0,5.058,0,7.553,0c0,2.543,0,5.087,0,7.63c-2.518,0-5.036,0-7.556,0
							c0,5.054,0,10.001,0,14.941c5.072,0,10.084,0,15.134,0c0-2.562,0-5.058,0-7.553c2.519,0,5.038,0,7.553,0
							c0-7.591,0-15.073,0-22.596c-2.561,0-5.057,0-7.553,0c0-2.521,0-5.042,0-7.608c-2.612,0-5.11,0-7.609,0
							c0-2.498,0-4.995,0-7.602c7.667,0,15.256,0,22.845,0l-0.024-0.028c0,5.056,0,10.11,0,15.211c5.172,0,10.205,0,15.237,0
							c0,2.52,0,5.04,0,7.66c-2.62,0-5.103,0-7.646,0c0,5.031,0,9.959,0,14.99c-2.547,0-5.029,0-7.515,0c0,7.65,0,15.198,0,22.788
							c2.561,0,5.058,0,7.555,0c0,2.521,0,5.042,0,7.665c5.129,0,10.146,0,15.146,0c0,2.563,0,5.021,0,7.583
							c-7.603,0-15.152,0-22.775,0c0,2.6,0,5.098,0,7.596L826.732,18.045z M788.645-35.025c0-7.635,0-15.163,0-22.714
							c-2.531,0-5.013,0-7.597,0c0,5.078,0,10.094,0,15.179c-2.562,0-5.021,0-7.501,0c0,2.552,0,5.033,0,7.535
							C778.604-35.025,783.596-35.025,788.645-35.025z"/>
						<path fill="#FFCE00" d="M864.539-57.897c0,5.032,0,10.063,0,15.158c5.091,0,10.105,0,15.191,0c0-2.476,0-4.936,0-7.468
							c2.552,0,5.031,0,7.576,0c0,7.536,0,15.085,0,22.688c-2.475,0-4.934,0-7.496,0c0-2.461,0-4.943,0-7.488
							c-2.584,0-5.064,0-7.6,0c0,5.01,0,10.003,0,15.1c2.462,0,4.944,0,7.538,0c0,2.623,0,5.144,0,7.664l0.028-0.026
							c-5.053,0-10.104,0-15.155,0c0,2.61,0,5.09,0,7.632c5.097,0,10.126,0,15.155,0l-0.026-0.027
							c0.009,2.544,0.019,5.089,0.026,7.633c-2.521,0-5.042,0-7.635,0c0,7.616,0,15.119,0,22.622l0.026-0.027
							c-2.521,0-5.041,0-7.663,0c0-2.594,0-5.077,0-7.625c-2.562,0-5.021,0-7.494,0c0-2.488,0-4.906,0-7.426
							c2.547,0,5.027,0,7.488,0c0-2.563,0-5.021,0-7.582c-5.004,0-9.956,0-14.98,0c0-2.6,0-5.097,0-7.595c2.454,0,4.908,0,7.361,0
							c0-2.585,0-5.063,0-7.58c-2.498,0-4.931,0-7.361,0c0-2.518,0-5.036,0-7.551c-2.584,0-5.062,0-7.578,0c0,2.562,0,5.058,0,7.553
							c-2.519,0-5.035,0-7.651,0c0-2.612,0-5.091,0-7.633c-2.595,0-5.09,0-7.584,0l0.024,0.028c-0.01-2.543-0.019-5.087-0.027-7.63
							c2.518,0,5.034,0,7.558,0c0-2.582,0-5.059,0-7.525c-2.541,0-5.019,0-7.53,0c0,2.564,0,5.058,0,7.553c-2.494,0-4.988,0-7.55,0
							c0-5.077,0-10.086,0-15.195c2.464,0,4.942,0,7.554,0c0-2.615,0-5.133,0-7.65l-0.027,0.026c2.543,0,5.087,0,7.631,0
							l-0.025-0.026c0,2.521,0,5.041,0,7.632c2.637,0,5.134,0,7.632,0l-0.026-0.027c0,5.052,0,10.104,0,15.156
							c2.61,0,5.09,0,7.631,0c0-5.097,0-10.126,0-15.156l-0.025,0.027c2.455,0,4.908,0,7.36,0c0-2.611,0-5.089,0-7.632
							c-2.498,0-4.93,0-7.36,0l0.027,0.026c0-5.025,0-10.051,0-15.15c2.438,0,4.854,0,7.367,0c0,2.457,0,4.936,0,7.549
							c2.615,0,5.132,0,7.648,0L864.539-57.897z M864.489-19.906c0-5.087,0-10.1,0-15.091c-2.547,0-5.026,0-7.49,0
							c0,5.066,0,10.057,0,15.091C859.505-19.906,861.962-19.906,864.489-19.906z"/>
					</g>
					<g>
						<path fill="#FFCE00" d="M1061.613-65.398c2.51,0,5.02,0,7.628,0c0,2.573,0,5.047,0,7.592c2.576,0.023,5.055,0.045,7.534,0.067
							l-0.019-0.021c0.007,2.5,0.016,5.001,0.021,7.502c-2.485,0.013-4.971,0.026-7.441,0.039c-0.164,1.187-0.112,6.945,0.075,7.604
							c2.439,0,4.902,0,7.366,0c0.011,2.485,0.021,4.97,0.032,7.439c1.287,0.171,14.435,0.111,15.104-0.081c0-2.424,0-4.875,0-7.411
							c2.544,0,4.997,0,7.528,0c0-5.066,0-10.044,0-15.052c2.557,0,5.031,0,7.598,0c0,2.51,0,4.961,0,7.399
							c1.377,0.185,14.505,0.119,15.126-0.079c0-1.2-0.002-2.417,0.001-3.633c0.003-1.234,0.01-2.469,0.016-3.707
							c2.58,0,5.044,0,7.509,0l-0.022-0.019c0.014,2.132,0.027,4.265,0.041,6.396c0.002,0.329,0,0.658,0,1.032
							c0.862,0.188,1.688,0.068,2.504,0.089c0.831,0.022,1.662,0.005,2.493,0.005c0.826,0,1.653,0,2.54,0c0,5.043,0,10.016,0,15.112
							c-1.237,0.059-2.497,0.022-3.756,0.026c-1.274,0.003-2.549-0.01-3.822-0.017c0.006-2.437,0.015-4.873,0.018-7.31
							c0-0.045-0.051-0.091-0.097-0.17c-2.432,0-4.883,0-7.425,0c0.014,2.516-0.025,4.986,0.027,7.458c2.572,0,5.035,0,7.497,0
							c0.007,4.668,0.015,9.337,0.019,14.005c0,0.386-0.025,0.771-0.039,1.157l0.022-0.019c-2.483,0-4.966,0-7.536,0
							c0-2.515,0-4.968,0-7.522c-2.563,0-5.04,0-7.587,0c0-0.929,0-1.756,0-2.583c0-0.832,0-1.663,0-2.495c0-0.832,0-1.663,0-2.495
							c0-0.859,0-1.718,0-2.578c0-0.831,0.006-1.663-0.001-2.494c-0.007-0.817,0.029-1.638-0.023-2.438
							c-2.216-0.146-6.86-0.083-7.462,0.088c0,7.5,0,14.997,0,22.58c2.51,0,4.963,0,7.4,0c0.169,1.195,0.116,6.867-0.067,7.463
							c-0.818,0-1.648,0-2.479,0c-0.805,0-1.607-0.005-2.411,0.001c-0.817,0.006-1.64-0.027-2.453,0.021c0,2.572,0,5.028,0,7.578
							c0.87,0,1.692,0,2.518,0c0.831,0,1.663-0.005,2.494,0.001c0.818,0.007,1.64-0.03,2.484,0.026c0,0.307,0,0.5,0,0.693
							c0,4.601,0.001,9.201-0.001,13.802c0,0.221-0.026,0.441-0.041,0.662l0.025-0.026c-2.501,0.008-5.002,0.017-7.503,0.025
							c-0.015-2.532-0.028-5.063-0.045-7.592c-2.577,0-5.029,0-7.522,0c0,2.521,0,4.994,0,7.572c2.564,0,5.076,0,7.589,0
							c-0.015,0.082-0.038,0.163-0.038,0.245c0.003,4.972,0.008,9.943,0.013,14.915l0.023-0.021
							c-4.902-0.006-9.806-0.012-14.706-0.017c-0.133,0-0.265,0.023-0.478,0.044c0,2.492,0,4.942,0,7.443c-2.511,0-4.936,0-7.451,0
							c-0.081-0.807-0.025-1.629-0.036-2.447c-0.01-0.803-0.002-1.606-0.002-2.41c0-0.828,0-1.656,0-2.604
							c-0.883-0.058-1.729-0.021-2.572-0.028c-0.831-0.006-1.662-0.004-2.493-0.001c-0.857,0.004-1.718,0.012-2.574,0.019
							l0.022,0.021c0-2.514,0-5.028,0-7.646c5.087,0,10.058,0,15.053,0c0-2.556,0-5.007,0-7.537c-1.709,0-3.366,0-5.024,0
							c-1.663,0-3.326,0.003-4.989,0c-1.65-0.003-3.304,0.016-5.02-0.015c0-0.938,0-1.765,0-2.592c0-0.832,0.01-1.664-0.003-2.495
							c-0.013-0.816,0.06-1.639-0.054-2.497c-0.392,0-0.692,0-0.994,0c-4.381,0-8.761,0.001-13.141-0.002
							c-0.332,0-0.663-0.026-0.995-0.04l0.026,0.026c0.006-0.332,0.017-0.665,0.017-0.997c0.001-4.378,0-8.757,0.002-13.136
							c0-0.318,0.021-0.636,0.036-1.023c2.569,0,5.024,0,7.467,0c0.179-1.163,0.13-6.838-0.074-7.483c-2.433,0-4.887,0-7.431,0
							c0-1.147,0-2.221,0-3.294c0-1.081,0-2.162,0-3.243s0-2.162,0-3.242c0-1.053,0-2.106,0-3.159c0-1.081,0-2.162,0-3.243
							s0.005-2.162,0-3.242c-0.006-1.067,0.021-2.136-0.019-3.236c-0.95,0-1.78,0-2.61,0c-0.804,0-1.606,0.004-2.41-0.001
							c-0.818-0.006-1.641,0.025-2.452-0.021c0-5.089,0-10.065,0-15.128c2.5,0,4.952,0,7.474,0c0-2.601,0-5.115,0-7.629
							L1061.613-65.398z M1076.844-4.925c7.577,0,15.049,0,22.514,0c0.178-1.44,0.104-21.975-0.065-22.513
							c-7.479,0-14.949,0-22.447,0C1076.844-19.908,1076.844-12.438,1076.844-4.925z"/>
						<path fill="#FFCE00" d="M1023.914-65.405c0.133,0.028,0.265,0.081,0.396,0.081c2.347,0,4.691-0.007,7.037-0.013l-0.021-0.025
							c0.015,0.331,0.041,0.663,0.041,0.994c0.003,4.405,0.002,8.81,0.002,13.215c0,0.296,0,0.592,0,0.957c2.61,0,5.125,0,7.639,0
							l-0.021-0.021c-0.005,4.949-0.012,9.898-0.016,14.848c0,0.109,0.028,0.218,0.044,0.328c-0.108-0.016-0.219-0.045-0.327-0.045
							c-4.789-0.002-9.578-0.003-14.368,0.001c-0.153,0-0.309,0.057-0.451,0.085c0,2.508,0,4.969,0,7.43
							c-2.53,0.076-5.065-0.042-7.593,0.065c0,2.556,0,5.009,0,7.503c2.521,0,4.992,0,7.572,0c0-2.565,0-5.077,0-7.589
							c0.191,0.015,0.385,0.042,0.576,0.043c4.646,0.002,9.288,0.002,13.934,0c0.22,0,0.438-0.03,0.658-0.046
							c-0.011,2.464-0.021,4.927-0.026,7.391c0,0.07,0.068,0.14,0.13,0.257c0.318,0,0.647-0.002,0.978,0
							c2.132,0.012,4.265,0.026,6.396,0.039l-0.021-0.021c0.014,0.138,0.037,0.275,0.037,0.413c0.002,4.684,0.002,9.369,0,14.053
							c-0.001,0.188-0.032,0.375-0.048,0.552c-0.878,0.168-14.415,0.14-15.092-0.041c0-0.809,0-1.636,0-2.463
							c0-0.832,0.012-1.664-0.003-2.495c-0.015-0.816,0.066-1.64-0.052-2.436c-1.678-0.157-6.859-0.095-7.438,0.079
							c0,4.977,0,9.954,0,15.016c7.549,0,15.046,0,22.576,0c0,2.561,0,5.036,0,7.6c-2.507,0-4.959,0-7.497,0
							c0,2.541,0,4.993,0,7.406c-0.136,0.061-0.187,0.102-0.234,0.102c-2.465-0.004-4.93-0.011-7.396-0.019l0.025,0.026
							c0-2.482,0-4.964,0-7.529c-2.551,0.013-5.02-0.018-7.51,0.019c0,2.585,0,5.047,0,7.51l0.032-0.031
							c-1.656,0.015-3.312,0.039-4.967,0.043c-0.91,0.002-1.82-0.028-2.729-0.043l0.031,0.031c0-2.482,0-4.965,0-7.527
							c-0.404,0-0.729,0-1.056,0c-5.233,0-10.468-0.002-15.7,0c-1.966,0.001-3.932,0.012-5.896,0.019l0.021,0.021
							c0.07-2.528-0.047-5.061,0.064-7.638c1.341,0,2.582,0.006,3.824-0.001c1.229-0.007,2.46,0.033,3.729-0.031
							c0-0.477-0.002-0.833,0-1.19c0.013-2.101,0.025-4.202,0.039-6.303l-0.021,0.021c2.504-0.007,5.007-0.013,7.511-0.021
							c-0.007,2.437-0.014,4.874-0.017,7.31c0,0.045,0.049,0.091,0.095,0.17c2.434,0,4.883,0,7.426,0
							c-0.014-2.515,0.026-4.986-0.027-7.458c-2.571,0-5.034,0-7.497,0c0-2.514,0-5.029,0-7.64c-0.411,0-0.708,0.001-1.005,0
							c-2.162-0.013-4.323-0.026-6.484-0.039l0.021,0.021c0-2.502,0-5.004,0-7.506l-0.021,0.021c0.304-0.013,0.606-0.037,0.91-0.038
							c1.883-0.003,3.766,0,5.648-0.003c0.291-0.001,0.58-0.027,0.857-0.041c0-2.561,0-5.014,0-7.558c-0.348,0-0.645,0.001-0.941,0
							c-2.157-0.012-4.316-0.025-6.476-0.039l0.022,0.019c0.002-2.5,0.002-5,0.005-7.5l-0.021,0.02
							c0.303-0.014,0.606-0.039,0.91-0.039c4.347-0.002,8.694-0.001,13.042-0.001c0.302,0,0.604,0,1.023,0
							c0.059-0.883,0.021-1.73,0.028-2.574c0.006-0.83,0.004-1.661,0-2.492c-0.003-0.858-0.014-1.716-0.021-2.574l-0.022,0.022
							c2.515,0,5.028,0,7.644,0c0-0.39,0-0.714,0-1.037c0-6.871-0.002-13.741,0.004-20.611c0.001-0.354,0.063-0.709,0.098-1.063
							L1023.914-65.405z"/>
						<path fill="#FFCE00" d="M1069.274-20.125c-0.007,1.467-0.021,2.935-0.021,4.402c-0.002,5.759,0,11.518,0,17.277
							c0,0.327,0,0.654,0,1.082c-2.547,0-5.021,0-7.572,0c-0.022,2.582-0.046,5.063-0.067,7.545l0.022-0.021
							c-2.482,0-4.966,0-7.535,0c0-2.513,0-4.965,0-7.485c-2.601,0-5.113,0-7.628,0l0.021,0.021
							c0.007-1.461,0.021-2.922,0.017-4.382c-0.003-1.102-0.03-2.203-0.047-3.304c2.465,0.01,4.93,0.021,7.396,0.025
							c0.069,0,0.14-0.07,0.193-0.1c0-4.997,0-9.971,0-15.005c-2.531-0.05-5.009,0.024-7.539-0.042c0-0.382,0-0.655,0-0.928
							c0-1.913,0.005-3.825-0.005-5.737c-0.001-0.299-0.063-0.598-0.098-0.896c0.217,0.034,0.434,0.096,0.648,0.097
							c2.134,0.007,4.268,0.005,6.399,0.002c0.188,0,0.375-0.032,0.604-0.054c0-2.487,0-4.937,0-7.437c-2.515,0-4.988,0-7.513,0
							c-0.015,0.318-0.037,0.588-0.037,0.859c-0.003,1.912,0.002,3.823-0.006,5.735c-0.001,0.271-0.055,0.542-0.083,0.812
							c-0.077,0.026-0.154,0.074-0.231,0.074c-2.401-0.006-4.804-0.017-7.205-0.026l0.021,0.021
							c-0.013-0.192-0.038-0.385-0.038-0.577c-0.002-4.643-0.002-9.286,0-13.929c0-0.22,0.027-0.44,0.041-0.66l-0.024,0.025
							c2.48,0,4.964,0,7.526,0c-0.009-2.55,0.018-5.02-0.018-7.509c-2.586,0-5.048,0-7.51,0l0.03,0.032
							c-0.017-0.22-0.046-0.44-0.046-0.662c-0.003-4.602-0.002-9.205-0.002-13.807c0-0.193,0-0.386,0-0.567
							c0.596-0.185,13.846-0.247,15.117-0.069c0,2.438,0,4.892,0,7.435c2.538,0,4.989,0,7.563,0c0.008,2.599,0.002,5.109,0.004,7.62
							c0,2.495,0,4.991,0,7.486c0,2.523,0,5.046,0,7.569c0,2.495,0,4.991,0,7.486c0,2.515,0,5.03,0,7.615c2.609,0,5.126,0,7.641,0
							L1069.274-20.125z"/>
					</g>
				</g>
				<g>
					<g>
						<path fill="#FFCE00" d="M1387.176,38.263c-0.02-2.556-0.037-5.111-0.057-7.67c2.498-0.001,4.996-0.001,7.598-0.001
							c0-2.458,0-4.939,0-7.521c5.117,0,10.133,0,15.203,0c0-2.581,0-5.062,0-7.589c-7.559,0-15.084,0-22.775,0
							c0,5.04,0,10.089,0,15.14c-2.49,0-4.98,0-7.564,0c0-2.518,0-4.995,0-7.595c-2.609,0-5.125,0-7.641,0l0.025,0.026
							c0-2.495,0-4.99,0-7.551c-2.541,0-5.02,0-7.631,0c0,2.516,0,5.034,0,7.551l0.027-0.026c-2.496,0-4.99,0-7.584,0
							c0-2.514,0-4.993,0-7.532c-2.576,0-5.057,0-7.654,0c0,5.066,0,10.115,0,15.163l0.027-0.028c-2.521,0-5.043,0-7.545,0
							c0-7.664,0-15.213,0-22.834c2.533,0,4.992,0,7.469,0c0-2.552,0-5.033,0-7.497c-5.08,0-10.096,0-15.182,0
							c0,5.067,0,10.061,0,15.072c-2.553,0-5.031,0-7.496,0c0-7.614,0-15.164,0-22.784c5.064,0,10.059,0,15.156,0
							c0-5.085,0-10.102,0-15.195c2.6,0,5.098,0,7.596,0c0,2.495,0,4.989,0,7.552c2.512,0,4.988,0,7.531,0c0-2.466,0-4.943,0-7.525
							c-2.523,0-5.041,0-7.559,0c0.004-0.505,0.016-1.01,0.016-1.516c0.006-7.106,0.012-14.213,0.016-21.32l-0.027,0.027
							c2.543-0.001,5.086-0.001,7.631-0.002l-0.025-0.028c0,5.033,0,10.065,0,15.16c2.553,0,5.033,0,7.586,0
							c0-2.476,0-4.936,0-7.468c5.084,0,10.1,0,15.221,0c0,2.466,0,4.948,0,7.5c2.562,0,5.021,0,7.584,0c0,2.55,0,5.032,0,7.622
							c10.229,0,20.352,0,30.477,0c0,2.498,0,4.996,0,7.597c-7.623,0-15.174,0-22.775,0c0,7.63,0,15.158,0,22.762
							c2.459,0,4.941,0,7.527,0c0-4.995,0-10.012,0-15.081c2.561,0,5.02,0,7.582,0c0,4.996,0,10.012,0,15.092
							c2.584,0,5.064,0,7.617,0c0-2.473,0-4.933,0-7.466c2.486,0,4.904,0,7.438,0c0,5.038,0,10.093,0,15.148l0.025-0.028
							c-2.457,0-4.916,0-7.475,0c0,5.158,0,10.174,0,15.258c-5.096,0-10.09,0-15.186,0c0,2.552,0,5.033,0,7.558
							c-5.137,0-10.168,0-15.201,0L1387.176,38.263z M1387.112,7.789c0-7.567,0-15.094,0-22.697c-7.529,0-15.078,0-22.695,0
							c0,7.52,0,15.069,0,22.697C1372.006,7.789,1379.534,7.789,1387.112,7.789z"/>
						<path fill="#FFCE00" d="M1447.827,38.073c0-2.498,0-4.996,0-7.596c-7.623,0-15.174,0-22.777,0c0-2.561,0-5.02,0-7.583
							c5,0,10.018,0,15.146,0c0-2.623,0-5.144,0-7.665c2.498,0,4.994,0,7.555,0c0-7.59,0-15.138,0-22.788c-2.484,0-4.967,0-7.514,0
							c0-5.03,0-9.958,0-14.99c-2.545,0-5.027,0-7.648,0c0-2.621,0-5.141,0-7.66c5.033,0,10.066,0,15.238,0
							c0-5.101,0-10.155,0-15.211l-0.025,0.028c7.59,0,15.18,0,22.846,0c0,2.606,0,5.104,0,7.602c-2.498,0-4.996,0-7.609,0
							c0,2.566,0,5.087,0,7.608c-2.496,0-4.992,0-7.553,0c0,7.523,0,15.005,0,22.596c2.516,0,5.033,0,7.553,0
							c0,2.496,0,4.991,0,7.553c5.049,0,10.061,0,15.135,0c0-4.939,0-9.887,0-14.941c-2.52,0-5.039,0-7.557,0
							c0-2.543,0-5.087,0-7.63c2.494,0,4.99,0,7.553,0c0-2.516,0-4.995,0-7.58c-2.518,0-5.035,0-7.553,0
							c0.002-2.544,0.002-5.089,0.004-7.633c2.521,0,5.041,0,7.664,0c0-2.596,0-5.079,0-7.535c12.641,0,25.176,0,37.721,0
							c0,2.536,0,5.017,0,7.602c-2.482,0-4.904,0-7.293,0c0,2.564,0,5.023,0,7.585c2.475,0,4.895,0,7.312,0c0,2.564,0,5.023,0,7.586
							c-2.463,0-4.883,0-7.297,0c0,2.587,0,5.068,0,7.619c2.465,0,4.861,0,7.283,0c0,2.489,0,4.907,0,7.429
							c-2.479,0-4.898,0-7.385,0c0,10.168,0,20.231,0,30.318c-5.086,0-10.102,0-15.197,0c0-2.559,0-5.057,0-7.555
							c2.498,0,4.996,0,7.559,0c0-7.593,0-15.142,0-22.747c-5.021,0-10.035,0-15.098,0c0,2.489,0,4.947,0,7.509
							c2.475,0,4.955,0,7.566,0c0,5.156,0,10.21,0,15.265c-2.541-0.011-5.084-0.021-7.625-0.032l0.025,0.027
							c0-2.519,0-5.038,0-7.553c-10.221,0-20.299,0-30.473,0c0,10.143,0,20.222,0,30.342c-2.59,0-5.086,0-7.582,0L1447.827,38.073z
							 M1500.987-15.025c0-2.501,0-4.982,0-7.535c-2.48,0-4.939,0-7.502,0c0-5.085,0-10.102,0-15.179c-2.584,0-5.064,0-7.598,0
							c0,7.551,0,15.079,0,22.714C1490.938-15.025,1495.932-15.025,1500.987-15.025z"/>
						<path fill="#FFCE00" d="M1409.967-37.871c2.518,0,5.033,0,7.648,0c0-2.613,0-5.092,0-7.549c2.516,0,4.93,0,7.367,0
							c0,5.099,0,10.125,0,15.15l0.027-0.026c-2.432,0-4.863,0-7.361,0c0,2.542,0,5.021,0,7.632c2.453,0,4.906,0,7.361,0
							l-0.025-0.027c0,5.029,0,10.059,0,15.156c2.541,0,5.02,0,7.631,0c0-5.052,0-10.104,0-15.156l-0.025,0.027
							c2.496,0,4.994,0,7.631,0c0-2.591,0-5.111,0-7.632l-0.025,0.026c2.543,0,5.088,0,7.631,0l-0.027-0.026c0,2.517,0,5.035,0,7.65
							c2.611,0,5.09,0,7.553,0c0,5.109,0,10.118,0,15.195c-2.561,0-5.055,0-7.549,0c0-2.495,0-4.989,0-7.553
							c-2.512,0-4.99,0-7.531,0c0,2.466,0,4.943,0,7.525c2.523,0,5.041,0,7.559,0c-0.01,2.543-0.02,5.087-0.029,7.63l0.027-0.028
							c-2.496,0-4.99,0-7.584,0c0,2.542,0,5.021,0,7.633c-2.617,0-5.137,0-7.652,0c0-2.495,0-4.99,0-7.553c-2.516,0-4.994,0-7.578,0
							c0,2.515,0,5.033,0,7.551c-2.432,0-4.863,0-7.361,0c0,2.516,0,4.995,0,7.58c2.451,0,4.906,0,7.361,0c0,2.498,0,4.995,0,7.595
							c-5.023,0-9.977,0-14.98,0c0,2.561,0,5.019,0,7.582c2.461,0,4.941,0,7.486,0c0,2.521,0,4.938,0,7.426
							c-2.473,0-4.932,0-7.492,0c0,2.549,0,5.031,0,7.625c-2.621,0-5.143,0-7.662,0l0.025,0.027c0-7.503,0-15.006,0-22.622
							c-2.594,0-5.113,0-7.635,0c0.01-2.544,0.018-5.088,0.027-7.633l-0.027,0.027c5.029,0,10.059,0,15.156,0
							c0-2.542,0-5.021,0-7.632c-5.053,0-10.105,0-15.156,0l0.027,0.026c0-2.521,0-5.041,0-7.664c2.596,0,5.076,0,7.537,0
							c0-5.097,0-10.09,0-15.1c-2.531,0-5.014,0-7.598,0c0,2.545,0,5.027,0,7.488c-2.562,0-5.021,0-7.496,0
							c0-7.603,0-15.152,0-22.688c2.545,0,5.025,0,7.574,0c0,2.533,0,4.992,0,7.468c5.088,0,10.102,0,15.193,0
							c0-5.094,0-10.126,0-15.158L1409.967-37.871z M1417.534,0.094c0-5.034,0-10.024,0-15.091c-2.463,0-4.943,0-7.49,0
							c0,4.991,0,10.004,0,15.091C1412.571,0.094,1415.028,0.094,1417.534,0.094z"/>
						<path fill="#FFCE00" d="M1326.397,7.509c0-17.692,0-35.318,0-52.929c17.742,0,35.408,0,53.117,0c0,17.653,0,35.256,0,52.929
							C1361.752,7.509,1344.063,7.509,1326.397,7.509z M1371.911-38.004c-12.641,0-25.236,0-37.908,0c0,12.604,0,25.223,0,37.909
							c12.596,0,25.215,0,37.908,0C1371.911-12.762,1371.911-25.358,1371.911-38.004z"/>
						<path fill="#FFCE00" d="M1515.991-45.419c0,17.758,0,35.447,0,53.115c-17.68,0-35.283,0-52.928,0c0-17.718,0-35.385,0-53.115
							C1480.77-45.419,1498.397-45.419,1515.991-45.419z M1508.604,0.101c0-12.638,0-25.235,0-37.907c-12.602,0-25.221,0-37.906,0
							c0,12.593,0,25.211,0,37.907C1483.36,0.101,1495.956,0.101,1508.604,0.101z"/>
						<path fill="#FFCE00" d="M1349.125-7.624c0-2.435,0-4.869,0-7.406c-5.059,0-10.074,0-15.145,0c0-2.56,0-5.019,0-7.581
							c2.457,0,4.939,0,7.484,0c0-7.653,0-15.202,0-22.808c-2.486,0-4.967,0-7.518,0c0,5.031,0,10.024,0,15.12
							c-2.549,0-5.031,0-7.568,0c0,7.589,0,15.075,0,22.631c2.488,0,4.947,0,7.477,0c0,2.55,0,5.031,0,7.616
							c-2.475,0-4.955,0-7.484,0c0,5.096,0,10.089,0,15.154c2.471,0,4.951,0,7.537,0c0-2.47,0-4.952,0-7.502c2.561,0,5.02,0,7.582,0
							c0-5.084,0-10.1,0-15.25c2.621,0,5.143,0,7.662,0L1349.125-7.624z"/>
					</g>
					<g>
						<path fill="#FFCE00" d="M1212.897-45.419c0,2.514,0,5.028,0,7.629c2.52,0,4.973,0,7.473,0c0,5.063,0,10.039,0,15.128
							c-0.812,0.046-1.633,0.015-2.453,0.021c-0.803,0.005-1.607,0.001-2.41,0.001c-0.83,0-1.66,0-2.609,0
							c-0.039,1.1-0.014,2.169-0.02,3.236c-0.004,1.081,0,2.162,0,3.242c0,1.081,0,2.162,0,3.243c0,1.053,0,2.106,0,3.159
							c0,1.081,0,2.162,0,3.242c0,1.081,0,2.162,0,3.243c0,1.073,0,2.147,0,3.294c-2.543,0-4.998,0-7.43,0
							c-0.203,0.646-0.252,6.321-0.074,7.483c2.441,0,4.896,0,7.467,0c0.016,0.388,0.035,0.706,0.035,1.023
							c0.002,4.379,0.002,8.757,0.002,13.136c0,0.333,0.012,0.665,0.018,0.997l0.025-0.026c-0.332,0.014-0.662,0.04-0.994,0.04
							c-4.381,0.003-8.76,0.002-13.141,0.002c-0.301,0-0.604,0-0.994,0c-0.113,0.857-0.041,1.68-0.053,2.497
							c-0.014,0.832-0.004,1.663-0.004,2.495c0,0.827,0,1.654,0,2.592c-1.715,0.03-3.367,0.011-5.02,0.015
							c-1.664,0.003-3.326,0-4.99,0c-1.656,0-3.314,0-5.023,0c0,2.53,0,4.981,0,7.537c4.996,0,9.967,0,15.053,0
							c0,2.618,0,5.133,0,7.646l0.023-0.021c-0.859-0.007-1.719-0.015-2.576-0.019c-0.83-0.003-1.66-0.005-2.492,0.001
							c-0.844,0.006-1.689-0.029-2.572,0.027c0,0.949,0,1.777,0,2.604c0,0.804,0.008,1.606-0.002,2.41
							c-0.01,0.817,0.045,1.642-0.037,2.447c-2.516,0-4.939,0-7.449,0c0-2.501,0-4.952,0-7.443
							c-0.215-0.021-0.346-0.044-0.479-0.044c-4.902,0.004-9.803,0.01-14.705,0.018l0.023,0.021
							c0.004-4.972,0.01-9.942,0.012-14.915c0-0.082-0.025-0.163-0.039-0.245c2.514,0,5.025,0,7.59,0c0-2.579,0-5.051,0-7.572
							c-2.494,0-4.945,0-7.523,0c-0.016,2.529-0.029,5.061-0.045,7.592c-2.5-0.008-5.002-0.017-7.502-0.025l0.025,0.026
							c-0.014-0.221-0.041-0.441-0.041-0.662c-0.002-4.602-0.002-9.202-0.002-13.802c0-0.193,0-0.386,0-0.693
							c0.846-0.056,1.668-0.019,2.484-0.026c0.832-0.007,1.664-0.001,2.496-0.001c0.822,0,1.646,0,2.516,0c0-2.549,0-5.006,0-7.578
							c-0.812-0.049-1.635-0.016-2.453-0.021c-0.803-0.006-1.607-0.001-2.41-0.001c-0.83,0-1.66,0-2.479,0
							c-0.186-0.596-0.238-6.268-0.068-7.463c2.439,0,4.891,0,7.4,0c0-7.583,0-15.08,0-22.58c-0.602-0.171-5.246-0.234-7.463-0.088
							c-0.053,0.8-0.018,1.621-0.021,2.438c-0.008,0.831-0.002,1.663-0.002,2.494c0,0.859,0,1.719,0,2.578c0,0.832,0,1.663,0,2.495
							s0,1.663,0,2.495c0,0.827,0,1.653,0,2.583c-2.547,0-5.023,0-7.586,0c0,2.554,0,5.007,0,7.522c-2.57,0-5.055,0-7.537,0
							l0.023,0.019c-0.016-0.386-0.041-0.771-0.039-1.157c0.002-4.668,0.01-9.336,0.018-14.005c2.463,0,4.926,0,7.498,0
							c0.053-2.472,0.014-4.943,0.027-7.458c-2.543,0-4.994,0-7.428,0c-0.045,0.079-0.094,0.125-0.094,0.17
							c0.002,2.437,0.01,4.874,0.018,7.31c-1.275,0.006-2.549,0.021-3.822,0.017c-1.26-0.004-2.521,0.032-3.756-0.026
							c0-5.097,0-10.069,0-15.112c0.887,0,1.713,0,2.539,0c0.832,0,1.662,0.017,2.492-0.005c0.816-0.021,1.643,0.099,2.504-0.089
							c0-0.374,0-0.703,0.002-1.032c0.012-2.132,0.025-4.264,0.041-6.396l-0.023,0.019c2.463,0,4.928,0,7.508,0
							c0.006,1.237,0.014,2.472,0.018,3.707c0.002,1.217,0,2.434,0,3.633c0.621,0.198,13.75,0.264,15.127,0.079
							c0-2.438,0-4.889,0-7.399c2.564,0,5.041,0,7.596,0c0,5.008,0,9.986,0,15.052c2.533,0,4.986,0,7.529,0c0,2.536,0,4.987,0,7.411
							c0.67,0.192,13.814,0.252,15.104,0.081c0.012-2.47,0.021-4.955,0.033-7.439c2.463,0,4.928,0,7.367,0
							c0.188-0.66,0.236-6.418,0.074-7.605c-2.471-0.013-4.957-0.025-7.441-0.039c0.008-2.501,0.016-5.001,0.021-7.502l-0.02,0.022
							c2.479-0.022,4.959-0.044,7.535-0.067c0-2.545,0-5.02,0-7.592c2.607,0,5.117,0,7.629,0L1212.897-45.419z M1197.69-7.438
							c-7.498,0-14.971,0-22.449,0c-0.168,0.538-0.242,21.072-0.064,22.513c7.465,0,14.938,0,22.514,0
							C1197.69,7.562,1197.69,0.092,1197.69-7.438z"/>
						<path fill="#FFCE00" d="M1250.62-45.405c-0.133,0.028-0.266,0.081-0.398,0.081c-2.346,0-4.689-0.007-7.035-0.013l0.02-0.025
							c-0.014,0.331-0.041,0.663-0.041,0.994c-0.002,4.405-0.002,8.81-0.002,13.215c0,0.296,0,0.592,0,0.957
							c-2.611,0-5.125,0-7.639,0l0.021-0.021c0.006,4.949,0.012,9.898,0.016,14.848c0,0.109-0.027,0.218-0.043,0.328
							c0.107-0.016,0.219-0.045,0.326-0.045c4.789-0.002,9.578-0.003,14.367,0.001c0.154,0,0.311,0.057,0.453,0.085
							c0,2.508,0,4.969,0,7.43c2.529,0.076,5.064-0.042,7.592,0.065c0,2.556,0,5.009,0,7.503c-2.521,0-4.992,0-7.572,0
							c0-2.565,0-5.077,0-7.589c-0.191,0.015-0.385,0.042-0.576,0.043c-4.645,0.002-9.289,0.002-13.934,0
							c-0.219,0-0.438-0.03-0.658-0.046c0.01,2.464,0.021,4.927,0.027,7.391c0,0.07-0.07,0.14-0.131,0.257
							c-0.32,0-0.648-0.002-0.979,0c-2.131,0.012-4.264,0.026-6.395,0.039l0.02-0.021c-0.012,0.138-0.035,0.275-0.035,0.413
							c-0.002,4.684-0.002,9.369,0,14.053c0,0.188,0.029,0.375,0.047,0.552c0.877,0.168,14.416,0.14,15.092-0.041
							c0-0.809,0-1.636,0-2.463c0-0.832-0.012-1.664,0.002-2.495c0.016-0.816-0.066-1.64,0.053-2.436
							c1.678-0.157,6.859-0.095,7.438,0.079c0,4.977,0,9.954,0,15.016c-7.549,0-15.045,0-22.576,0c0,2.561,0,5.036,0,7.6
							c2.508,0,4.959,0,7.496,0c0,2.542,0,4.993,0,7.406c0.137,0.062,0.186,0.103,0.234,0.103c2.467-0.004,4.932-0.012,7.396-0.02
							l-0.025,0.026c0-2.482,0-4.964,0-7.529c2.551,0.013,5.02-0.018,7.51,0.019c0,2.585,0,5.046,0,7.51l-0.031-0.031
							c1.654,0.015,3.311,0.039,4.967,0.043c0.91,0.002,1.818-0.028,2.729-0.043l-0.031,0.031c0-2.482,0-4.966,0-7.527
							c0.402,0,0.729,0,1.057,0c5.232,0,10.467-0.002,15.699,0c1.965,0.001,3.932,0.012,5.896,0.019l-0.021,0.021
							c-0.07-2.528,0.047-5.061-0.064-7.638c-1.34,0-2.584,0.006-3.824-0.001c-1.23-0.007-2.459,0.033-3.729-0.031
							c0-0.477,0.002-0.833,0-1.19c-0.014-2.101-0.025-4.202-0.041-6.303l0.021,0.021c-2.504-0.007-5.008-0.013-7.512-0.021
							c0.008,2.437,0.016,4.874,0.018,7.31c0,0.045-0.049,0.091-0.094,0.17c-2.434,0-4.885,0-7.428,0
							c0.016-2.515-0.025-4.986,0.029-7.458c2.57,0,5.033,0,7.496,0c0-2.514,0-5.029,0-7.64c0.412,0,0.709,0.001,1.006,0
							c2.16-0.013,4.322-0.026,6.484-0.039l-0.021,0.021c0-2.502,0-5.004,0-7.506l0.021,0.021c-0.305-0.013-0.607-0.037-0.91-0.038
							c-1.885-0.003-3.768,0-5.648-0.003c-0.291-0.001-0.582-0.027-0.859-0.041c0-2.561,0-5.014,0-7.558
							c0.348,0,0.646,0.001,0.941,0c2.158-0.012,4.318-0.025,6.477-0.039l-0.021,0.019c-0.002-2.5-0.004-5-0.006-7.5l0.021,0.02
							c-0.305-0.014-0.605-0.039-0.91-0.039c-4.348-0.002-8.693-0.001-13.041-0.001c-0.303,0-0.605,0-1.025,0
							c-0.057-0.883-0.021-1.73-0.027-2.574c-0.006-0.83-0.004-1.661-0.002-2.492c0.004-0.858,0.016-1.716,0.021-2.574l0.021,0.022
							c-2.514,0-5.027,0-7.643,0c0-0.39,0-0.714,0-1.037c0-6.871,0.002-13.741-0.004-20.611c0-0.354-0.064-0.709-0.098-1.063
							L1250.62-45.405z"/>
						<path fill="#FFCE00" d="M1326.299,7.443c-1.41,0.171-52.318,0.1-52.902-0.066c0-17.59,0-35.18,0-52.796
							c17.654,0,35.254,0,52.902,0C1326.299-27.729,1326.299-10.139,1326.299,7.443z M1280.967-0.086c12.576,0,25.121,0,37.662,0
							c0.16-0.593,0.223-36.515,0.059-37.769c-12.535,0-25.08,0-37.721,0C1280.967-25.246,1280.967-12.695,1280.967-0.086z"/>
						<path fill="#FFCE00" d="M1326.315-45.419c0,17.62,0,35.187,0,52.806c-17.658,0-35.275,0-52.938,0c0-17.617,0-35.185,0-52.806
							C1291.079-45.419,1308.674-45.419,1326.315-45.419z M1318.729-37.929c-12.574,0-25.119,0-37.66,0
							c-0.164,0.59-0.229,36.466-0.062,37.769c12.535,0,25.08,0,37.721,0C1318.729-12.768,1318.729-25.319,1318.729-37.929z"/>
						<path fill="#FFCE00" d="M1190.083-45.419c0,17.65,0,35.244,0,52.831c-1.414,0.189-52.242,0.115-52.816-0.072
							c0-17.57,0-35.141,0-52.758C1154.897-45.419,1172.485-45.419,1190.083-45.419z M1144.856-0.109c12.572,0,25.115,0,37.658,0
							c0.164-0.588,0.229-36.441,0.062-37.768c-12.537,0-25.08,0-37.723,0C1144.856-25.27,1144.856-12.718,1144.856-0.109z"/>
						<path fill="#FFCE00" d="M1205.258-0.125c0.008,1.467,0.021,2.935,0.021,4.402c0.002,5.759,0,11.518,0,17.277
							c0,0.327,0,0.654,0,1.082c2.547,0,5.021,0,7.572,0c0.021,2.582,0.047,5.063,0.068,7.545l-0.023-0.021c2.482,0,4.967,0,7.535,0
							c0-2.513,0-4.965,0-7.485c2.602,0,5.113,0,7.629,0l-0.021,0.021c-0.006-1.461-0.021-2.922-0.018-4.382
							c0.004-1.102,0.031-2.203,0.047-3.304c-2.465,0.01-4.93,0.021-7.395,0.025c-0.068,0-0.139-0.07-0.193-0.1
							c0-4.997,0-9.971,0-15.005c2.531-0.05,5.008,0.024,7.539-0.042c0-0.382,0-0.655,0-0.928c0-1.913-0.004-3.825,0.004-5.737
							c0.002-0.299,0.064-0.598,0.1-0.896c-0.219,0.034-0.434,0.096-0.648,0.097c-2.135,0.007-4.268,0.005-6.4,0.002
							c-0.188,0-0.375-0.032-0.604-0.054c0-2.487,0-4.937,0-7.437c2.516,0,4.988,0,7.514,0c0.014,0.318,0.035,0.588,0.037,0.859
							c0.002,1.912-0.002,3.823,0.006,5.735c0,0.271,0.053,0.542,0.082,0.812c0.078,0.026,0.154,0.074,0.23,0.074
							c2.402-0.006,4.805-0.017,7.205-0.026l-0.02,0.021c0.012-0.192,0.037-0.385,0.037-0.577c0.002-4.643,0.002-9.286,0-13.929
							c0-0.22-0.027-0.44-0.041-0.66l0.025,0.025c-2.48,0-4.965,0-7.527,0c0.01-2.55-0.018-5.02,0.018-7.509c2.586,0,5.049,0,7.51,0
							l-0.029,0.032c0.016-0.22,0.045-0.44,0.045-0.662c0.004-4.602,0.002-9.205,0.002-13.807c0-0.193,0-0.386,0-0.567
							c-0.596-0.185-13.846-0.247-15.117-0.069c0,2.438,0,4.892,0,7.435c-2.537,0-4.99,0-7.562,0
							c-0.008,2.599-0.004,5.109-0.004,7.62c-0.002,2.495,0,4.991,0,7.486c0,2.523,0,5.046,0,7.569c0,2.495,0,4.991,0,7.486
							c0,2.515,0,5.03,0,7.615c-2.609,0-5.127,0-7.641,0L1205.258-0.125z"/>
						<path fill="#FFCE00" d="M1144.87-45.419c-0.016,1.883-0.033,3.766-0.047,5.649c-0.004,0.631-0.002,1.262-0.002,1.995
							c-2.559,0-5.035,0-7.553,0c0,12.643,0,25.182,0,37.775c2.51,0,4.984,0,7.549,0c0-2.49,0-4.942,0-7.385
							c0.156-0.048,0.232-0.093,0.309-0.093c4.959,0.001,9.92,0.005,14.881,0.009l-0.023,0.021c0-5.055,0-10.11-0.002-15.165
							l0.025,0.026c-0.303-0.014-0.605-0.04-0.91-0.041c-1.938-0.003-3.877,0-5.814-0.003c-0.291-0.001-0.582-0.027-0.838-0.04
							c-0.037-0.131-0.047-0.157-0.051-0.184c-0.01-0.054-0.021-0.109-0.021-0.164c-0.004-7.228-0.004-14.456-0.006-21.683
							c0-0.083-0.002-0.166-0.004-0.25c0-0.027,0-0.056-0.004-0.083c-0.01-0.054-0.021-0.108-0.035-0.162
							c-0.006-0.024-0.021-0.049-0.037-0.069c-0.018-0.021-0.043-0.035-0.152-0.124c-2.371,0-4.834,0-7.293,0L1144.87-45.419z"/>
					</g>
				</g>
				<g>
					<g>
						<path fill="#FFCE00" d="M1644.895,18.235c-5.033,0-10.064,0-15.201,0c0-2.523,0-5.006,0-7.557c-5.096,0-10.09,0-15.188,0
							c0-5.084,0-10.101,0-15.258c-2.559,0-5.016,0-7.473,0l0.025,0.028c0-5.055,0-10.11,0-15.148c2.531,0,4.949,0,7.436,0
							c0,2.533,0,4.993,0,7.466c2.553,0,5.035,0,7.619,0c0-5.08,0-10.097,0-15.092c2.562,0,5.021,0,7.582,0
							c0,5.069,0,10.085,0,15.081c2.586,0,5.066,0,7.527,0c0-7.604,0-15.132,0-22.762c-7.604,0-15.154,0-22.775,0
							c0-2.601,0-5.099,0-7.597c10.123,0,20.248,0,30.475,0c0-2.59,0-5.072,0-7.622c2.564,0,5.023,0,7.586,0c0-2.552,0-5.034,0-7.5
							c5.119,0,10.137,0,15.221,0c0,2.532,0,4.992,0,7.468c2.553,0,5.033,0,7.586,0c0-5.095,0-10.127,0-15.16l-0.025,0.028
							c2.543,0,5.086,0.001,7.629,0.002l-0.025-0.027c0.004,7.107,0.01,14.214,0.016,21.32c0,0.505,0.01,1.011,0.016,1.516
							c-2.518,0-5.033,0-7.559,0c0,2.583,0,5.06,0,7.525c2.543,0,5.02,0,7.531,0c0-2.563,0-5.058,0-7.552c2.498,0,4.996,0,7.596,0
							c0,5.093,0,10.109,0,15.195c5.096,0,10.09,0,15.156,0c0,7.62,0,15.17,0,22.784c-2.465,0-4.945,0-7.496,0
							c0-5.011,0-10.004,0-15.072c-5.086,0-10.102,0-15.182,0c0,2.463,0,4.944,0,7.497c2.475,0,4.936,0,7.469,0
							c0,7.621,0,15.17,0,22.834c-2.504,0-5.023,0-7.545,0l0.025,0.028c0-5.048,0-10.097,0-15.163c-2.6,0-5.076,0-7.652,0
							c0,2.539,0,5.018,0,7.532c-2.594,0-5.088,0-7.584,0l0.027,0.026c0-2.518,0-5.036,0-7.551c-2.611,0-5.09,0-7.633,0
							c0,2.562,0,5.057,0,7.551l0.027-0.026c-2.516,0-5.031,0-7.641,0c0,2.6,0,5.077,0,7.595c-2.586,0-5.074,0-7.564,0
							c0-5.05,0-10.1,0-15.14c-7.691,0-15.217,0-22.775,0c0,2.527,0,5.008,0,7.589c5.07,0,10.086,0,15.201,0
							c0,2.582,0,5.062,0,7.521c2.604,0,5.102,0,7.6,0.001c-0.02,2.558-0.037,5.114-0.059,7.67L1644.895,18.235z M1667.627-12.211
							c0-7.628,0-15.177,0-22.697c-7.617,0-15.166,0-22.693,0c0,7.604,0,15.13,0,22.697
							C1652.51-12.211,1660.038-12.211,1667.627-12.211z"/>
						<path fill="#FFCE00" d="M1584.243,18.045c-2.496,0-4.992,0-7.582,0c0-10.121,0-20.2,0-30.342c-10.172,0-20.252,0-30.473,0
							c0,2.515,0,5.034,0,7.553l0.027-0.027c-2.543,0.011-5.084,0.021-7.627,0.032c0-5.054,0-10.108,0-15.265
							c2.611,0,5.096,0,7.568,0c0-2.562,0-5.02,0-7.509c-5.062,0-10.078,0-15.098,0c0,7.605,0,15.154,0,22.747
							c2.561,0,5.059,0,7.557,0c0,2.498,0,4.996,0,7.555c-5.094,0-10.111,0-15.197,0c0-10.087,0-20.15,0-30.318
							c-2.484,0-4.904,0-7.383,0c0-2.522,0-4.94,0-7.429c2.422,0,4.816,0,7.283,0c0-2.551,0-5.032,0-7.619c-2.414,0-4.834,0-7.299,0
							c0-2.563,0-5.022,0-7.586c2.42,0,4.838,0,7.312,0c0-2.562,0-5.021,0-7.585c-2.391,0-4.809,0-7.293,0c0-2.585,0-5.066,0-7.602
							c12.545,0,25.08,0,37.719,0c0,2.457,0,4.939,0,7.535c2.625,0,5.146,0,7.666,0c0.002,2.544,0.002,5.089,0.004,7.633
							c-2.518,0-5.035,0-7.553,0c0,2.585,0,5.063,0,7.58c2.562,0,5.059,0,7.553,0c0,2.543,0,5.087,0,7.63c-2.518,0-5.035,0-7.557,0
							c0,5.054,0,10.001,0,14.941c5.074,0,10.084,0,15.135,0c0-2.562,0-5.058,0-7.553c2.52,0,5.037,0,7.553,0
							c0-7.591,0-15.073,0-22.596c-2.561,0-5.057,0-7.553,0c0-2.521,0-5.042,0-7.608c-2.611,0-5.109,0-7.609,0
							c0-2.498,0-4.995,0-7.602c7.668,0,15.256,0,22.846,0l-0.025-0.028c0,5.056,0,10.11,0,15.211c5.172,0,10.205,0,15.236,0
							c0,2.52,0,5.04,0,7.66c-2.619,0-5.102,0-7.645,0c0,5.031,0,9.959,0,14.99c-2.549,0-5.029,0-7.516,0c0,7.65,0,15.198,0,22.788
							c2.561,0,5.059,0,7.555,0c0,2.521,0,5.042,0,7.665c5.129,0,10.146,0,15.145,0c0,2.563,0,5.021,0,7.583
							c-7.602,0-15.152,0-22.775,0c0,2.6,0,5.098,0,7.596L1584.243,18.045z M1546.155-35.025c0-7.635,0-15.163,0-22.714
							c-2.531,0-5.012,0-7.596,0c0,5.078,0,10.094,0,15.179c-2.562,0-5.023,0-7.502,0c0,2.552,0,5.033,0,7.535
							C1536.114-35.025,1541.106-35.025,1546.155-35.025z"/>
						<path fill="#FFCE00" d="M1622.049-57.897c0,5.032,0,10.063,0,15.158c5.092,0,10.107,0,15.193,0c0-2.476,0-4.936,0-7.468
							c2.551,0,5.031,0,7.576,0c0,7.536,0,15.085,0,22.688c-2.475,0-4.934,0-7.496,0c0-2.461,0-4.943,0-7.488
							c-2.586,0-5.064,0-7.6,0c0,5.01,0,10.003,0,15.1c2.461,0,4.943,0,7.537,0c0,2.623,0,5.144,0,7.664l0.027-0.026
							c-5.051,0-10.104,0-15.154,0c0,2.61,0,5.09,0,7.632c5.098,0,10.125,0,15.154,0l-0.025-0.027
							c0.01,2.544,0.018,5.089,0.025,7.633c-2.52,0-5.041,0-7.635,0c0,7.616,0,15.119,0,22.622l0.027-0.027
							c-2.521,0-5.041,0-7.662,0c0-2.594,0-5.077,0-7.625c-2.562,0-5.021,0-7.494,0c0-2.488,0-4.906,0-7.426
							c2.545,0,5.025,0,7.488,0c0-2.563,0-5.021,0-7.582c-5.006,0-9.957,0-14.982,0c0-2.6,0-5.097,0-7.595c2.455,0,4.91,0,7.363,0
							c0-2.585,0-5.063,0-7.58c-2.498,0-4.932,0-7.363,0c0-2.518,0-5.036,0-7.551c-2.584,0-5.061,0-7.578,0c0,2.562,0,5.058,0,7.553
							c-2.518,0-5.035,0-7.65,0c0-2.612,0-5.091,0-7.633c-2.596,0-5.09,0-7.584,0l0.025,0.028c-0.01-2.543-0.02-5.087-0.027-7.63
							c2.518,0,5.033,0,7.557,0c0-2.582,0-5.059,0-7.525c-2.541,0-5.02,0-7.529,0c0,2.564,0,5.058,0,7.553c-2.496,0-4.99,0-7.551,0
							c0-5.077,0-10.086,0-15.195c2.465,0,4.943,0,7.553,0c0-2.615,0-5.133,0-7.65l-0.025,0.026c2.543,0,5.086,0,7.631,0
							l-0.027-0.026c0,2.521,0,5.041,0,7.632c2.637,0,5.135,0,7.633,0l-0.025-0.027c0,5.052,0,10.104,0,15.156
							c2.609,0,5.09,0,7.631,0c0-5.097,0-10.126,0-15.156l-0.027,0.027c2.455,0,4.91,0,7.361,0c0-2.611,0-5.089,0-7.632
							c-2.498,0-4.93,0-7.361,0l0.029,0.026c0-5.025,0-10.051,0-15.15c2.438,0,4.852,0,7.365,0c0,2.457,0,4.936,0,7.549
							c2.615,0,5.133,0,7.65,0L1622.049-57.897z M1622-19.906c0-5.087,0-10.1,0-15.091c-2.547,0-5.025,0-7.49,0
							c0,5.066,0,10.057,0,15.091C1617.016-19.906,1619.473-19.906,1622-19.906z"/>
					</g>
					<g>
						<path fill="#FFCE00" d="M1819.124-65.398c2.51,0,5.021,0,7.629,0c0,2.573,0,5.047,0,7.592
							c2.576,0.023,5.055,0.045,7.533,0.067l-0.018-0.021c0.008,2.5,0.016,5.001,0.021,7.502c-2.484,0.013-4.971,0.026-7.441,0.039
							c-0.164,1.187-0.113,6.945,0.074,7.604c2.439,0,4.902,0,7.367,0c0.01,2.485,0.021,4.97,0.033,7.439
							c1.287,0.171,14.434,0.111,15.104-0.081c0-2.424,0-4.875,0-7.411c2.543,0,4.996,0,7.527,0c0-5.066,0-10.044,0-15.052
							c2.557,0,5.033,0,7.598,0c0,2.51,0,4.961,0,7.399c1.377,0.185,14.506,0.119,15.127-0.079c0-1.2-0.002-2.417,0-3.633
							c0.004-1.234,0.012-2.469,0.018-3.707c2.58,0,5.043,0,7.508,0l-0.021-0.019c0.014,2.132,0.025,4.265,0.041,6.396
							c0.002,0.329,0,0.658,0,1.032c0.861,0.188,1.688,0.068,2.504,0.089c0.83,0.022,1.662,0.005,2.492,0.005
							c0.826,0,1.652,0,2.541,0c0,5.043,0,10.016,0,15.112c-1.238,0.059-2.498,0.022-3.758,0.026
							c-1.273,0.003-2.549-0.01-3.82-0.017c0.006-2.437,0.014-4.873,0.016-7.31c0-0.045-0.049-0.091-0.096-0.17
							c-2.432,0-4.883,0-7.424,0c0.014,2.516-0.025,4.986,0.025,7.458c2.572,0,5.035,0,7.498,0c0.006,4.668,0.014,9.337,0.02,14.005
							c0,0.386-0.025,0.771-0.039,1.157l0.021-0.019c-2.482,0-4.967,0-7.537,0c0-2.515,0-4.968,0-7.522c-2.562,0-5.039,0-7.586,0
							c0-0.929,0-1.756,0-2.583c0-0.832,0-1.663,0-2.495c0-0.832,0-1.663,0-2.495c0-0.859,0-1.718,0-2.578
							c0-0.831,0.006-1.663-0.002-2.494c-0.006-0.817,0.031-1.638-0.021-2.438c-2.217-0.146-6.861-0.083-7.463,0.088
							c0,7.5,0,14.997,0,22.58c2.51,0,4.963,0,7.4,0c0.168,1.195,0.115,6.867-0.066,7.463c-0.818,0-1.65,0-2.48,0
							c-0.803,0-1.607-0.005-2.41,0.001c-0.816,0.006-1.639-0.027-2.453,0.021c0,2.572,0,5.028,0,7.578c0.869,0,1.693,0,2.518,0
							c0.832,0,1.664-0.005,2.494,0.001c0.818,0.007,1.639-0.03,2.484,0.026c0,0.307,0,0.5,0,0.693c0,4.601,0,9.201-0.002,13.802
							c0,0.221-0.025,0.441-0.041,0.662l0.027-0.026c-2.502,0.008-5.002,0.017-7.504,0.025c-0.016-2.532-0.029-5.063-0.045-7.592
							c-2.576,0-5.029,0-7.523,0c0,2.521,0,4.994,0,7.572c2.566,0,5.078,0,7.59,0c-0.014,0.082-0.039,0.163-0.039,0.245
							c0.004,4.972,0.01,9.943,0.014,14.915l0.023-0.021c-4.902-0.006-9.805-0.012-14.707-0.017c-0.131,0-0.264,0.023-0.477,0.044
							c0,2.492,0,4.942,0,7.443c-2.512,0-4.936,0-7.451,0c-0.08-0.807-0.025-1.629-0.035-2.447c-0.01-0.803-0.002-1.606-0.002-2.41
							c0-0.828,0-1.656,0-2.604c-0.883-0.058-1.73-0.021-2.574-0.028c-0.83-0.006-1.662-0.004-2.492-0.001
							c-0.857,0.004-1.717,0.012-2.574,0.019l0.021,0.021c0-2.514,0-5.028,0-7.646c5.088,0,10.059,0,15.053,0
							c0-2.556,0-5.007,0-7.537c-1.709,0-3.365,0-5.023,0c-1.662,0-3.326,0.003-4.988,0c-1.652-0.003-3.305,0.016-5.021-0.015
							c0-0.938,0-1.765,0-2.592c0-0.832,0.012-1.664-0.002-2.495c-0.014-0.816,0.061-1.639-0.053-2.497c-0.393,0-0.693,0-0.996,0
							c-4.381,0-8.76,0.001-13.139-0.002c-0.332,0-0.664-0.026-0.996-0.04l0.025,0.026c0.008-0.332,0.018-0.665,0.018-0.997
							c0.002-4.378,0-8.757,0.002-13.136c0-0.318,0.021-0.636,0.037-1.023c2.568,0,5.023,0,7.467,0
							c0.178-1.163,0.129-6.838-0.076-7.483c-2.432,0-4.887,0-7.43,0c0-1.147,0-2.221,0-3.294c0-1.081,0-2.162,0-3.243
							s0-2.162,0-3.242c0-1.053,0-2.106,0-3.159c0-1.081,0-2.162,0-3.243s0.004-2.162,0-3.242c-0.006-1.067,0.021-2.136-0.02-3.236
							c-0.949,0-1.779,0-2.609,0c-0.805,0-1.607,0.004-2.41-0.001c-0.818-0.006-1.641,0.025-2.453-0.021c0-5.089,0-10.065,0-15.128
							c2.502,0,4.953,0,7.475,0c0-2.601,0-5.115,0-7.629L1819.124-65.398z M1834.354-4.925c7.578,0,15.049,0,22.514,0
							c0.178-1.44,0.104-21.975-0.066-22.513c-7.479,0-14.947,0-22.445,0C1834.354-19.908,1834.354-12.438,1834.354-4.925z"/>
						<path fill="#FFCE00" d="M1781.424-65.405c0.135,0.028,0.266,0.081,0.398,0.081c2.346,0,4.691-0.007,7.037-0.013l-0.021-0.025
							c0.016,0.331,0.041,0.663,0.041,0.994c0.002,4.405,0.002,8.81,0.002,13.215c0,0.296,0,0.592,0,0.957c2.611,0,5.125,0,7.639,0
							l-0.021-0.021c-0.004,4.949-0.012,9.898-0.014,14.848c0,0.109,0.027,0.218,0.043,0.328c-0.109-0.016-0.219-0.045-0.328-0.045
							c-4.789-0.002-9.578-0.003-14.367,0.001c-0.154,0-0.309,0.057-0.451,0.085c0,2.508,0,4.969,0,7.43
							c-2.531,0.076-5.064-0.042-7.594,0.065c0,2.556,0,5.009,0,7.503c2.521,0,4.994,0,7.574,0c0-2.565,0-5.077,0-7.589
							c0.189,0.015,0.383,0.042,0.576,0.043c4.645,0.002,9.287,0.002,13.932,0c0.221,0,0.439-0.03,0.66-0.046
							c-0.012,2.464-0.023,4.927-0.027,7.391c0,0.07,0.068,0.14,0.129,0.257c0.32,0,0.648-0.002,0.979,0
							c2.133,0.012,4.264,0.026,6.396,0.039l-0.021-0.021c0.014,0.138,0.037,0.275,0.037,0.413c0.002,4.684,0.002,9.369,0,14.053
							c0,0.188-0.031,0.375-0.047,0.552c-0.879,0.168-14.416,0.14-15.094-0.041c0-0.809,0-1.636,0-2.463
							c0-0.832,0.014-1.664-0.002-2.495c-0.014-0.816,0.066-1.64-0.051-2.436c-1.678-0.157-6.861-0.095-7.439,0.079
							c0,4.977,0,9.954,0,15.016c7.551,0,15.047,0,22.576,0c0,2.561,0,5.036,0,7.6c-2.506,0-4.959,0-7.496,0
							c0,2.541,0,4.993,0,7.406c-0.137,0.061-0.186,0.102-0.234,0.102c-2.465-0.004-4.93-0.011-7.396-0.019l0.027,0.026
							c0-2.482,0-4.964,0-7.529c-2.551,0.013-5.021-0.018-7.51,0.019c0,2.585,0,5.047,0,7.51l0.031-0.031
							c-1.656,0.015-3.312,0.039-4.967,0.043c-0.91,0.002-1.82-0.028-2.729-0.043l0.029,0.031c0-2.482,0-4.965,0-7.527
							c-0.402,0-0.729,0-1.055,0c-5.234,0-10.467-0.002-15.701,0c-1.965,0.001-3.932,0.012-5.895,0.019l0.02,0.021
							c0.07-2.528-0.047-5.061,0.066-7.638c1.34,0,2.582,0.006,3.824-0.001c1.229-0.007,2.459,0.033,3.729-0.031
							c0-0.477-0.002-0.833,0-1.19c0.012-2.101,0.025-4.202,0.039-6.303l-0.021,0.021c2.504-0.007,5.008-0.013,7.512-0.021
							c-0.008,2.437-0.016,4.874-0.018,7.31c0,0.045,0.049,0.091,0.096,0.17c2.432,0,4.883,0,7.426,0
							c-0.016-2.515,0.025-4.986-0.029-7.458c-2.57,0-5.033,0-7.496,0c0-2.514,0-5.029,0-7.64c-0.412,0-0.709,0.001-1.006,0
							c-2.162-0.013-4.322-0.026-6.482-0.039l0.02,0.021c0-2.502,0-5.004,0-7.506l-0.02,0.021c0.303-0.013,0.605-0.037,0.908-0.038
							c1.885-0.003,3.768,0,5.648-0.003c0.291-0.001,0.582-0.027,0.859-0.041c0-2.561,0-5.014,0-7.558c-0.35,0-0.646,0.001-0.941,0
							c-2.158-0.012-4.318-0.025-6.477-0.039l0.021,0.019c0.002-2.5,0.004-5,0.006-7.5l-0.021,0.02
							c0.303-0.014,0.605-0.039,0.91-0.039c4.348-0.002,8.693-0.001,13.043-0.001c0.301,0,0.604,0,1.021,0
							c0.059-0.883,0.023-1.73,0.029-2.574c0.006-0.83,0.004-1.661,0-2.492c-0.002-0.858-0.014-1.716-0.021-2.574l-0.021,0.022
							c2.516,0,5.027,0,7.643,0c0-0.39,0-0.714,0-1.037c0-6.871-0.002-13.741,0.004-20.611c0.002-0.354,0.064-0.709,0.1-1.063
							L1781.424-65.405z"/>
						<path fill="#FFCE00" d="M1826.786-20.125c-0.008,1.467-0.02,2.935-0.021,4.402c-0.002,5.759,0,11.518,0,17.277
							c0,0.327,0,0.654,0,1.082c-2.547,0-5.021,0-7.572,0c-0.023,2.582-0.045,5.063-0.068,7.545l0.023-0.021
							c-2.482,0-4.965,0-7.535,0c0-2.513,0-4.965,0-7.485c-2.602,0-5.113,0-7.627,0l0.02,0.021c0.008-1.461,0.021-2.922,0.018-4.382
							c-0.004-1.102-0.029-2.203-0.047-3.304c2.465,0.01,4.93,0.021,7.395,0.025c0.07,0,0.141-0.07,0.195-0.1
							c0-4.997,0-9.971,0-15.005c-2.531-0.05-5.01,0.024-7.539-0.042c0-0.382,0-0.655,0-0.928c0-1.913,0.004-3.825-0.006-5.737
							c0-0.299-0.064-0.598-0.098-0.896c0.217,0.034,0.434,0.096,0.648,0.097c2.133,0.007,4.268,0.005,6.398,0.002
							c0.189,0,0.375-0.032,0.605-0.054c0-2.487,0-4.937,0-7.437c-2.516,0-4.99,0-7.514,0c-0.016,0.318-0.037,0.588-0.037,0.859
							c-0.002,1.912,0.002,3.823-0.006,5.735c0,0.271-0.055,0.542-0.082,0.812c-0.078,0.026-0.156,0.074-0.232,0.074
							c-2.402-0.006-4.803-0.017-7.205-0.026l0.021,0.021c-0.014-0.192-0.039-0.385-0.039-0.577c-0.002-4.643-0.002-9.286,0-13.929
							c0-0.22,0.027-0.44,0.041-0.66l-0.025,0.025c2.482,0,4.965,0,7.527,0c-0.008-2.55,0.018-5.02-0.018-7.509
							c-2.586,0-5.049,0-7.51,0l0.029,0.032c-0.016-0.22-0.045-0.44-0.045-0.662c-0.002-4.602-0.002-9.205-0.002-13.807
							c0-0.193,0-0.386,0-0.567c0.596-0.185,13.846-0.247,15.117-0.069c0,2.438,0,4.892,0,7.435c2.537,0,4.988,0,7.562,0
							c0.008,2.599,0.002,5.109,0.004,7.62c0,2.495,0,4.991,0,7.486c0,2.523,0,5.046,0,7.569c0,2.495,0,4.991,0,7.486
							c0,2.515,0,5.03,0,7.615c2.611,0,5.127,0,7.643,0L1826.786-20.125z"/>
					</g>
				</g>
				<g>
					<g>
						<path fill="#FFCE00" d="M2144.688,38.263c-0.02-2.556-0.037-5.111-0.059-7.67c2.498-0.001,4.998-0.001,7.6-0.001
							c0-2.458,0-4.939,0-7.521c5.117,0,10.133,0,15.203,0c0-2.581,0-5.062,0-7.589c-7.561,0-15.084,0-22.777,0
							c0,5.04,0,10.089,0,15.14c-2.488,0-4.979,0-7.562,0c0-2.518,0-4.995,0-7.595c-2.609,0-5.125,0-7.641,0l0.025,0.026
							c0-2.495,0-4.99,0-7.551c-2.543,0-5.021,0-7.633,0c0,2.516,0,5.034,0,7.551l0.027-0.026c-2.494,0-4.99,0-7.584,0
							c0-2.514,0-4.993,0-7.532c-2.576,0-5.055,0-7.652,0c0,5.066,0,10.115,0,15.163l0.025-0.028c-2.521,0-5.041,0-7.543,0
							c0-7.664,0-15.213,0-22.834c2.531,0,4.99,0,7.467,0c0-2.552,0-5.033,0-7.497c-5.08,0-10.096,0-15.18,0
							c0,5.067,0,10.061,0,15.072c-2.553,0-5.033,0-7.498,0c0-7.614,0-15.164,0-22.784c5.066,0,10.061,0,15.156,0
							c0-5.085,0-10.102,0-15.195c2.602,0,5.1,0,7.596,0c0,2.495,0,4.989,0,7.552c2.512,0,4.988,0,7.531,0c0-2.466,0-4.943,0-7.525
							c-2.523,0-5.041,0-7.559,0c0.006-0.505,0.016-1.01,0.016-1.516c0.006-7.106,0.012-14.213,0.018-21.32l-0.027,0.027
							c2.543-0.001,5.086-0.001,7.629-0.002l-0.025-0.028c0,5.033,0,10.065,0,15.16c2.553,0,5.033,0,7.586,0
							c0-2.476,0-4.936,0-7.468c5.084,0,10.102,0,15.221,0c0,2.466,0,4.948,0,7.5c2.562,0,5.021,0,7.584,0c0,2.55,0,5.032,0,7.622
							c10.229,0,20.352,0,30.477,0c0,2.498,0,4.996,0,7.597c-7.623,0-15.174,0-22.775,0c0,7.63,0,15.158,0,22.762
							c2.461,0,4.941,0,7.527,0c0-4.995,0-10.012,0-15.081c2.562,0,5.021,0,7.582,0c0,4.996,0,10.012,0,15.092
							c2.584,0,5.066,0,7.617,0c0-2.473,0-4.933,0-7.466c2.488,0,4.906,0,7.438,0c0,5.038,0,10.093,0,15.148l0.025-0.028
							c-2.457,0-4.914,0-7.473,0c0,5.158,0,10.174,0,15.258c-5.098,0-10.092,0-15.188,0c0,2.552,0,5.033,0,7.558
							c-5.137,0-10.168,0-15.201,0L2144.688,38.263z M2144.622,7.789c0-7.567,0-15.094,0-22.697c-7.527,0-15.076,0-22.695,0
							c0,7.52,0,15.069,0,22.697C2129.518,7.789,2137.043,7.789,2144.622,7.789z"/>
						<path fill="#FFCE00" d="M2205.336,38.073c0-2.498,0-4.996,0-7.596c-7.623,0-15.174,0-22.775,0c0-2.561,0-5.02,0-7.583
							c5,0,10.016,0,15.146,0c0-2.623,0-5.144,0-7.665c2.496,0,4.994,0,7.553,0c0-7.59,0-15.138,0-22.788c-2.482,0-4.967,0-7.514,0
							c0-5.03,0-9.958,0-14.99c-2.545,0-5.027,0-7.646,0c0-2.621,0-5.141,0-7.66c5.033,0,10.064,0,15.238,0
							c0-5.101,0-10.155,0-15.211l-0.025,0.028c7.59,0,15.178,0,22.844,0c0,2.606,0,5.104,0,7.602c-2.498,0-4.996,0-7.607,0
							c0,2.566,0,5.087,0,7.608c-2.496,0-4.992,0-7.555,0c0,7.523,0,15.005,0,22.596c2.518,0,5.035,0,7.555,0
							c0,2.496,0,4.991,0,7.553c5.049,0,10.061,0,15.135,0c0-4.939,0-9.887,0-14.941c-2.521,0-5.039,0-7.557,0
							c0-2.543,0-5.087,0-7.63c2.494,0,4.99,0,7.553,0c0-2.516,0-4.995,0-7.58c-2.518,0-5.035,0-7.553,0
							c0.002-2.544,0.002-5.089,0.004-7.633c2.521,0,5.041,0,7.664,0c0-2.596,0-5.079,0-7.535c12.641,0,25.176,0,37.721,0
							c0,2.536,0,5.017,0,7.602c-2.484,0-4.904,0-7.293,0c0,2.564,0,5.023,0,7.585c2.475,0,4.893,0,7.312,0c0,2.564,0,5.023,0,7.586
							c-2.465,0-4.883,0-7.299,0c0,2.587,0,5.068,0,7.619c2.467,0,4.863,0,7.285,0c0,2.489,0,4.907,0,7.429c-2.48,0-4.898,0-7.385,0
							c0,10.168,0,20.231,0,30.318c-5.086,0-10.104,0-15.197,0c0-2.559,0-5.057,0-7.555c2.498,0,4.996,0,7.557,0
							c0-7.593,0-15.142,0-22.747c-5.02,0-10.033,0-15.096,0c0,2.489,0,4.947,0,7.509c2.473,0,4.955,0,7.566,0
							c0,5.156,0,10.21,0,15.265c-2.543-0.011-5.084-0.021-7.627-0.032l0.027,0.027c0-2.519,0-5.038,0-7.553
							c-10.221,0-20.299,0-30.473,0c0,10.143,0,20.222,0,30.342c-2.59,0-5.086,0-7.582,0L2205.336,38.073z M2258.497-15.025
							c0-2.501,0-4.982,0-7.535c-2.479,0-4.938,0-7.5,0c0-5.085,0-10.102,0-15.179c-2.584,0-5.064,0-7.598,0
							c0,7.551,0,15.079,0,22.714C2248.448-15.025,2253.442-15.025,2258.497-15.025z"/>
						<path fill="#FFCE00" d="M2167.479-37.871c2.518,0,5.033,0,7.648,0c0-2.613,0-5.092,0-7.549c2.514,0,4.93,0,7.367,0
							c0,5.099,0,10.125,0,15.15l0.027-0.026c-2.434,0-4.863,0-7.361,0c0,2.542,0,5.021,0,7.632c2.453,0,4.906,0,7.361,0
							l-0.027-0.027c0,5.029,0,10.059,0,15.156c2.543,0,5.021,0,7.633,0c0-5.052,0-10.104,0-15.156l-0.025,0.027
							c2.496,0,4.994,0,7.631,0c0-2.591,0-5.111,0-7.632l-0.027,0.026c2.545,0,5.088,0,7.633,0l-0.027-0.026c0,2.517,0,5.035,0,7.65
							c2.611,0,5.09,0,7.553,0c0,5.109,0,10.118,0,15.195c-2.561,0-5.055,0-7.549,0c0-2.495,0-4.989,0-7.553
							c-2.512,0-4.99,0-7.531,0c0,2.466,0,4.943,0,7.525c2.523,0,5.041,0,7.559,0c-0.01,2.543-0.02,5.087-0.029,7.63l0.025-0.028
							c-2.494,0-4.988,0-7.584,0c0,2.542,0,5.021,0,7.633c-2.615,0-5.135,0-7.65,0c0-2.495,0-4.99,0-7.553c-2.518,0-4.994,0-7.578,0
							c0,2.515,0,5.033,0,7.551c-2.432,0-4.863,0-7.361,0c0,2.516,0,4.995,0,7.58c2.451,0,4.906,0,7.361,0c0,2.498,0,4.995,0,7.595
							c-5.025,0-9.979,0-14.982,0c0,2.561,0,5.019,0,7.582c2.461,0,4.943,0,7.488,0c0,2.521,0,4.938,0,7.426
							c-2.473,0-4.932,0-7.492,0c0,2.549,0,5.031,0,7.625c-2.623,0-5.143,0-7.664,0l0.027,0.027c0-7.503,0-15.006,0-22.622
							c-2.594,0-5.113,0-7.635,0c0.01-2.544,0.018-5.088,0.025-7.633l-0.025,0.027c5.029,0,10.059,0,15.156,0
							c0-2.542,0-5.021,0-7.632c-5.053,0-10.105,0-15.156,0l0.027,0.026c0-2.521,0-5.041,0-7.664c2.596,0,5.076,0,7.539,0
							c0-5.097,0-10.09,0-15.1c-2.533,0-5.016,0-7.6,0c0,2.545,0,5.027,0,7.488c-2.562,0-5.021,0-7.496,0c0-7.603,0-15.152,0-22.688
							c2.545,0,5.025,0,7.574,0c0,2.533,0,4.992,0,7.468c5.088,0,10.102,0,15.193,0c0-5.094,0-10.126,0-15.158L2167.479-37.871z
							 M2175.045,0.094c0-5.034,0-10.024,0-15.091c-2.465,0-4.945,0-7.49,0c0,4.991,0,10.004,0,15.091
							C2170.083,0.094,2172.54,0.094,2175.045,0.094z"/>
						<path fill="#FFCE00" d="M2083.909,7.509c0-17.692,0-35.318,0-52.929c17.742,0,35.408,0,53.117,0c0,17.653,0,35.256,0,52.929
							C2119.262,7.509,2101.575,7.509,2083.909,7.509z M2129.42-38.004c-12.639,0-25.236,0-37.906,0c0,12.604,0,25.223,0,37.909
							c12.596,0,25.215,0,37.906,0C2129.42-12.762,2129.42-25.358,2129.42-38.004z"/>
						<path fill="#FFCE00" d="M2273.502-45.419c0,17.758,0,35.447,0,53.115c-17.682,0-35.283,0-52.928,0c0-17.718,0-35.385,0-53.115
							C2238.28-45.419,2255.907-45.419,2273.502-45.419z M2266.114,0.101c0-12.638,0-25.235,0-37.907c-12.602,0-25.221,0-37.906,0
							c0,12.593,0,25.211,0,37.907C2240.87,0.101,2253.465,0.101,2266.114,0.101z"/>
						<path fill="#FFCE00" d="M2106.637-7.624c0-2.435,0-4.869,0-7.406c-5.061,0-10.074,0-15.145,0c0-2.56,0-5.019,0-7.581
							c2.457,0,4.938,0,7.484,0c0-7.653,0-15.202,0-22.808c-2.486,0-4.969,0-7.518,0c0,5.031,0,10.024,0,15.12
							c-2.549,0-5.031,0-7.57,0c0,7.589,0,15.075,0,22.631c2.488,0,4.947,0,7.479,0c0,2.55,0,5.031,0,7.616
							c-2.475,0-4.957,0-7.486,0c0,5.096,0,10.089,0,15.154c2.471,0,4.953,0,7.537,0c0-2.47,0-4.952,0-7.502
							c2.562,0,5.021,0,7.582,0c0-5.084,0-10.1,0-15.25c2.621,0,5.145,0,7.664,0L2106.637-7.624z"/>
					</g>
					<g>
						<path fill="#FFCE00" d="M1970.407-45.419c0,2.514,0,5.028,0,7.629c2.521,0,4.973,0,7.475,0c0,5.063,0,10.039,0,15.128
							c-0.812,0.046-1.635,0.015-2.453,0.021c-0.805,0.005-1.607,0.001-2.41,0.001c-0.83,0-1.66,0-2.609,0
							c-0.041,1.1-0.014,2.169-0.02,3.236c-0.006,1.081-0.002,2.162-0.002,3.242c0,1.081,0,2.162,0,3.243c0,1.053,0,2.106,0,3.159
							c0,1.081,0,2.162,0,3.242c0,1.081,0,2.162,0,3.243c0,1.073,0,2.147,0,3.294c-2.541,0-4.998,0-7.428,0
							c-0.205,0.646-0.254,6.321-0.076,7.483c2.443,0,4.898,0,7.469,0c0.014,0.388,0.035,0.706,0.035,1.023
							c0.002,4.379,0.002,8.757,0.002,13.136c0,0.333,0.012,0.665,0.018,0.997l0.025-0.026c-0.332,0.014-0.662,0.04-0.994,0.04
							c-4.381,0.003-8.762,0.002-13.141,0.002c-0.303,0-0.604,0-0.996,0c-0.111,0.857-0.041,1.68-0.053,2.497
							c-0.012,0.832-0.002,1.663-0.002,2.495c0,0.827,0,1.654,0,2.592c-1.717,0.03-3.369,0.011-5.02,0.015
							c-1.664,0.003-3.326,0-4.99,0c-1.658,0-3.314,0-5.025,0c0,2.53,0,4.981,0,7.537c4.996,0,9.967,0,15.053,0
							c0,2.618,0,5.133,0,7.646l0.023-0.021c-0.857-0.007-1.717-0.015-2.574-0.019c-0.83-0.003-1.662-0.005-2.492,0.001
							c-0.844,0.006-1.689-0.029-2.572,0.027c0,0.949,0,1.777,0,2.604c0,0.804,0.008,1.606-0.002,2.41
							c-0.012,0.817,0.045,1.642-0.037,2.447c-2.518,0-4.939,0-7.451,0c0-2.501,0-4.952,0-7.443
							c-0.213-0.021-0.344-0.044-0.477-0.044c-4.902,0.004-9.805,0.01-14.707,0.018l0.023,0.021
							c0.006-4.972,0.01-9.942,0.014-14.915c0-0.082-0.025-0.163-0.039-0.245c2.514,0,5.023,0,7.588,0c0-2.579,0-5.051,0-7.572
							c-2.492,0-4.943,0-7.521,0c-0.016,2.529-0.029,5.061-0.045,7.592c-2.5-0.008-5.002-0.017-7.502-0.025l0.025,0.026
							c-0.016-0.221-0.041-0.441-0.041-0.662c-0.002-4.602-0.002-9.202-0.002-13.802c0-0.193,0-0.386,0-0.693
							c0.846-0.056,1.666-0.019,2.484-0.026c0.832-0.007,1.662-0.001,2.494-0.001c0.824,0,1.646,0,2.518,0c0-2.549,0-5.006,0-7.578
							c-0.812-0.049-1.635-0.016-2.453-0.021c-0.803-0.006-1.607-0.001-2.41-0.001c-0.83,0-1.66,0-2.48,0
							c-0.184-0.596-0.236-6.268-0.066-7.463c2.438,0,4.891,0,7.398,0c0-7.583,0-15.08,0-22.58c-0.6-0.171-5.244-0.234-7.461-0.088
							c-0.053,0.8-0.018,1.621-0.023,2.438c-0.006,0.831-0.002,1.663-0.002,2.494c0,0.859,0,1.719,0,2.578c0,0.832,0,1.663,0,2.495
							s0,1.663,0,2.495c0,0.827,0,1.653,0,2.583c-2.545,0-5.021,0-7.586,0c0,2.554,0,5.007,0,7.522c-2.568,0-5.053,0-7.535,0
							l0.021,0.019c-0.014-0.386-0.039-0.771-0.039-1.157c0.004-4.668,0.012-9.336,0.018-14.005c2.465,0,4.928,0,7.498,0
							c0.055-2.472,0.016-4.943,0.027-7.458c-2.543,0-4.992,0-7.426,0c-0.045,0.079-0.094,0.125-0.094,0.17
							c0.002,2.437,0.01,4.874,0.016,7.31c-1.273,0.006-2.547,0.021-3.822,0.017c-1.258-0.004-2.52,0.032-3.756-0.026
							c0-5.097,0-10.069,0-15.112c0.887,0,1.713,0,2.539,0c0.832,0,1.664,0.017,2.494-0.005c0.814-0.021,1.643,0.099,2.504-0.089
							c0-0.374-0.002-0.703,0-1.032c0.014-2.132,0.027-4.264,0.041-6.396l-0.021,0.019c2.463,0,4.928,0,7.508,0
							c0.006,1.237,0.014,2.472,0.016,3.707c0.004,1.217,0,2.434,0,3.633c0.623,0.198,13.75,0.264,15.127,0.079
							c0-2.438,0-4.889,0-7.399c2.564,0,5.041,0,7.598,0c0,5.008,0,9.986,0,15.052c2.531,0,4.984,0,7.529,0c0,2.536,0,4.987,0,7.411
							c0.67,0.192,13.814,0.252,15.104,0.081c0.012-2.47,0.021-4.955,0.033-7.439c2.463,0,4.928,0,7.365,0
							c0.189-0.66,0.238-6.418,0.076-7.605c-2.471-0.013-4.957-0.025-7.441-0.039c0.006-2.501,0.016-5.001,0.021-7.502l-0.02,0.022
							c2.479-0.022,4.959-0.044,7.535-0.067c0-2.545,0-5.02,0-7.592c2.607,0,5.117,0,7.627,0L1970.407-45.419z M1955.2-7.438
							c-7.498,0-14.969,0-22.447,0c-0.17,0.538-0.242,21.072-0.064,22.513c7.465,0,14.936,0,22.514,0
							C1955.2,7.562,1955.2,0.092,1955.2-7.438z"/>
						<path fill="#FFCE00" d="M2008.129-45.405c-0.133,0.028-0.266,0.081-0.396,0.081c-2.346,0-4.691-0.007-7.037-0.013l0.021-0.025
							c-0.016,0.331-0.041,0.663-0.041,0.994c-0.004,4.405-0.002,8.81-0.002,13.215c0,0.296,0,0.592,0,0.957
							c-2.611,0-5.125,0-7.639,0l0.021-0.021c0.006,4.949,0.012,9.898,0.016,14.848c0,0.109-0.029,0.218-0.045,0.328
							c0.109-0.016,0.219-0.045,0.328-0.045c4.789-0.002,9.578-0.003,14.367,0.001c0.154,0,0.309,0.057,0.451,0.085
							c0,2.508,0,4.969,0,7.43c2.531,0.076,5.064-0.042,7.594,0.065c0,2.556,0,5.009,0,7.503c-2.521,0-4.992,0-7.572,0
							c0-2.565,0-5.077,0-7.589c-0.193,0.015-0.385,0.042-0.576,0.043c-4.645,0.002-9.289,0.002-13.934,0
							c-0.221,0-0.439-0.03-0.658-0.046c0.01,2.464,0.02,4.927,0.025,7.391c0,0.07-0.068,0.14-0.131,0.257
							c-0.318,0-0.646-0.002-0.977,0c-2.131,0.012-4.264,0.026-6.396,0.039l0.021-0.021c-0.012,0.138-0.037,0.275-0.037,0.413
							c-0.002,4.684-0.002,9.369,0,14.053c0,0.188,0.031,0.375,0.049,0.552c0.877,0.168,14.414,0.14,15.09-0.041
							c0-0.809,0-1.636,0-2.463c0-0.832-0.01-1.664,0.004-2.495c0.016-0.816-0.066-1.64,0.053-2.436
							c1.678-0.157,6.859-0.095,7.438,0.079c-0.002,4.977-0.002,9.954-0.002,15.016c-7.547,0-15.045,0-22.574,0
							c0,2.561,0,5.036,0,7.6c2.506,0,4.959,0,7.496,0c0,2.542,0,4.993,0,7.406c0.137,0.062,0.186,0.103,0.234,0.103
							c2.465-0.004,4.93-0.012,7.396-0.02l-0.025,0.026c0-2.482,0-4.964,0-7.529c2.551,0.013,5.02-0.018,7.51,0.019
							c0,2.585,0,5.046,0,7.51l-0.033-0.031c1.656,0.015,3.312,0.039,4.967,0.043c0.91,0.002,1.82-0.028,2.73-0.043l-0.031,0.031
							c0-2.482,0-4.966,0-7.527c0.402,0,0.729,0,1.057,0c5.232,0,10.467-0.002,15.699,0c1.965,0.001,3.932,0.012,5.896,0.019
							l-0.021,0.021c-0.07-2.528,0.047-5.061-0.064-7.638c-1.34,0-2.584,0.006-3.826-0.001c-1.229-0.007-2.459,0.033-3.727-0.031
							c0-0.477,0.002-0.833,0-1.19c-0.014-2.101-0.027-4.202-0.041-6.303l0.021,0.021c-2.504-0.007-5.008-0.013-7.512-0.021
							c0.008,2.437,0.014,4.874,0.018,7.31c0,0.045-0.051,0.091-0.096,0.17c-2.432,0-4.883,0-7.426,0
							c0.014-2.515-0.025-4.986,0.027-7.458c2.572,0,5.035,0,7.498,0c0-2.514,0-5.029,0-7.64c0.41,0,0.707,0.001,1.004,0
							c2.162-0.013,4.324-0.026,6.484-0.039l-0.021,0.021c0-2.502,0-5.004,0-7.506l0.021,0.021c-0.303-0.013-0.607-0.037-0.91-0.038
							c-1.883-0.003-3.766,0-5.646-0.003c-0.291-0.001-0.582-0.027-0.859-0.041c0-2.561,0-5.014,0-7.558
							c0.348,0,0.645,0.001,0.941,0c2.158-0.012,4.316-0.025,6.477-0.039l-0.023,0.019c-0.002-2.5-0.002-5-0.004-7.5l0.021,0.02
							c-0.305-0.014-0.607-0.039-0.91-0.039c-4.348-0.002-8.695-0.001-13.043-0.001c-0.301,0-0.604,0-1.023,0
							c-0.059-0.883-0.021-1.73-0.027-2.574c-0.006-0.83-0.004-1.661-0.002-2.492c0.004-0.858,0.016-1.716,0.021-2.574l0.021,0.022
							c-2.516,0-5.027,0-7.643,0c0-0.39,0-0.714,0-1.037c0-6.871,0-13.741-0.006-20.611c0-0.354-0.062-0.709-0.096-1.063
							L2008.129-45.405z"/>
						<path fill="#FFCE00" d="M2083.811,7.443c-1.41,0.171-52.32,0.1-52.904-0.066c0-17.59,0-35.18,0-52.796
							c17.656,0,35.254,0,52.904,0C2083.811-27.729,2083.811-10.139,2083.811,7.443z M2038.479-0.086c12.576,0,25.121,0,37.662,0
							c0.16-0.593,0.221-36.515,0.057-37.769c-12.535,0-25.078,0-37.719,0C2038.479-25.246,2038.479-12.695,2038.479-0.086z"/>
						<path fill="#FFCE00" d="M2083.827-45.419c0,17.62,0,35.187,0,52.806c-17.658,0-35.275,0-52.938,0c0-17.617,0-35.185,0-52.806
							C2048.588-45.419,2066.186-45.419,2083.827-45.419z M2076.239-37.929c-12.574,0-25.119,0-37.66,0
							c-0.164,0.59-0.227,36.466-0.061,37.769c12.533,0,25.078,0,37.721,0C2076.239-12.768,2076.239-25.319,2076.239-37.929z"/>
						<path fill="#FFCE00" d="M1947.594-45.419c0,17.65,0,35.244,0,52.831c-1.416,0.189-52.242,0.115-52.816-0.072
							c0-17.57,0-35.141,0-52.758C1912.409-45.419,1929.995-45.419,1947.594-45.419z M1902.366-0.109c12.574,0,25.117,0,37.66,0
							c0.164-0.588,0.229-36.441,0.061-37.768c-12.535,0-25.078,0-37.721,0C1902.366-25.27,1902.366-12.718,1902.366-0.109z"/>
						<path fill="#FFCE00" d="M1962.77-0.125c0.008,1.467,0.02,2.935,0.02,4.402c0.004,5.759,0.002,11.518,0.002,17.277
							c0,0.327,0,0.654,0,1.082c2.545,0,5.021,0,7.57,0c0.023,2.582,0.047,5.063,0.07,7.545l-0.023-0.021c2.482,0,4.965,0,7.535,0
							c0-2.513,0-4.965,0-7.485c2.6,0,5.113,0,7.627,0l-0.02,0.021c-0.008-1.461-0.021-2.922-0.018-4.382
							c0.004-1.102,0.029-2.203,0.047-3.304c-2.465,0.01-4.93,0.021-7.395,0.025c-0.07,0-0.141-0.07-0.195-0.1
							c0-4.997,0-9.971,0-15.005c2.531-0.05,5.01,0.024,7.541-0.042c0-0.382,0-0.655,0-0.928c0-1.913-0.006-3.825,0.004-5.737
							c0.002-0.299,0.064-0.598,0.1-0.896c-0.219,0.034-0.436,0.096-0.65,0.097c-2.133,0.007-4.266,0.005-6.4,0.002
							c-0.186,0-0.373-0.032-0.604-0.054c0-2.487,0-4.937,0-7.437c2.516,0,4.99,0,7.514,0c0.016,0.318,0.037,0.588,0.037,0.859
							c0.004,1.912-0.002,3.823,0.006,5.735c0.002,0.271,0.055,0.542,0.084,0.812c0.076,0.026,0.154,0.074,0.23,0.074
							c2.402-0.006,4.805-0.017,7.205-0.026l-0.021,0.021c0.014-0.192,0.037-0.385,0.037-0.577c0.004-4.643,0.004-9.286,0-13.929
							c0-0.22-0.025-0.44-0.039-0.66l0.025,0.025c-2.482,0-4.965,0-7.527,0c0.008-2.55-0.018-5.02,0.016-7.509
							c2.588,0,5.051,0,7.512,0l-0.029,0.032c0.016-0.22,0.045-0.44,0.045-0.662c0.002-4.602,0.002-9.205,0.002-13.807
							c0-0.193,0-0.386,0-0.567c-0.596-0.185-13.846-0.247-15.119-0.069c0,2.438,0,4.892,0,7.435c-2.537,0-4.988,0-7.561,0
							c-0.01,2.599-0.004,5.109-0.004,7.62c-0.002,2.495,0,4.991,0,7.486c0,2.523,0,5.046,0,7.569c0,2.495,0,4.991,0,7.486
							c0,2.515,0,5.03,0,7.615c-2.611,0-5.127,0-7.643,0L1962.77-0.125z"/>
						<path fill="#FFCE00" d="M1902.379-45.419c-0.016,1.883-0.031,3.766-0.047,5.649c-0.004,0.631,0,1.262,0,1.995
							c-2.559,0-5.035,0-7.555,0c0,12.643,0,25.182,0,37.775c2.512,0,4.986,0,7.549,0c0-2.49,0-4.942,0-7.385
							c0.158-0.048,0.234-0.093,0.311-0.093c4.959,0.001,9.92,0.005,14.881,0.009l-0.023,0.021
							c-0.002-5.055-0.002-10.11-0.002-15.165l0.025,0.026c-0.303-0.014-0.607-0.04-0.91-0.041c-1.939-0.003-3.877,0-5.816-0.003
							c-0.291-0.001-0.582-0.027-0.836-0.04c-0.037-0.131-0.047-0.157-0.053-0.184c-0.008-0.054-0.02-0.109-0.02-0.164
							c-0.004-7.228-0.006-14.456-0.008-21.683c0-0.083-0.002-0.166-0.002-0.25c-0.002-0.027-0.002-0.056-0.006-0.083
							c-0.01-0.054-0.02-0.108-0.033-0.162c-0.008-0.024-0.021-0.049-0.039-0.069c-0.018-0.021-0.041-0.035-0.15-0.124
							c-2.373,0-4.834,0-7.293,0L1902.379-45.419z"/>
					</g>
				</g>
			</g>
		</g>
	</g>
</g>
<g id="Layer_2">
</g>
</svg>
