<?xml version="1.0" encoding="utf-8"?>
<!-- Generator: Adobe Illustrator 16.0.0, SVG Export Plug-In . SVG Version: 6.00 Build 0)  -->
<!DOCTYPE svg PUBLIC "-//W3C//DTD SVG 1.1//EN" "http://www.w3.org/Graphics/SVG/1.1/DTD/svg11.dtd">
<svg version="1.1" id="Layer_1" xmlns="http://www.w3.org/2000/svg" xmlns:xlink="http://www.w3.org/1999/xlink" x="0px" y="0px"
	 width="47px" height="45.022px" viewBox="0 0 47 45.022" enable-background="new 0 0 47 45.022" xml:space="preserve">
<g>
	<g>
		<g>
			<path d="M1.64,19.235c-0.884,0-1.64-0.716-1.64-1.6v-7.613h9.3c0.884,0,1.6,0.617,1.6,1.5c0,0.884-0.716,1.5-1.6,1.5H3v4.613
				C3,18.52,2.523,19.235,1.64,19.235z"/>
		</g>
		<g>
			<path d="M9.659,20.32c-0.409,0-0.819-0.156-1.131-0.469l-6.85-6.851c-0.625-0.625-0.625-1.637,0-2.262
				c0.624-0.625,1.638-0.625,2.262,0l6.85,6.85c0.625,0.625,0.625,1.638,0,2.263C10.478,20.164,10.069,20.32,9.659,20.32z"/>
		</g>
	</g>
	<g>
		<g>
			<path d="M45.5,19.235c-0.883,0-1.5-0.716-1.5-1.6v-4.613h-5.709c-0.884,0-1.6-0.616-1.6-1.5c0-0.883,0.716-1.5,1.6-1.5H47v7.613
				C47,18.52,46.384,19.235,45.5,19.235z"/>
		</g>
		<g>
			<path d="M37.976,20.896c-0.409,0-0.819-0.156-1.132-0.469c-0.625-0.625-0.625-1.638,0-2.263l7.426-7.425
				c0.624-0.625,1.638-0.625,2.262,0c0.625,0.625,0.625,1.637,0,2.262l-7.425,7.426C38.794,20.739,38.385,20.896,37.976,20.896z"/>
		</g>
	</g>
	<g>
		<g>
			<path d="M18.401,8.953c-0.41,0-0.819-0.156-1.131-0.469c-0.625-0.625-0.625-1.638,0-2.263L23.492,0l5.656,5.656
				c0.625,0.625,0.625,1.638,0,2.263c-0.624,0.625-1.638,0.625-2.263,0l-3.394-3.395l-3.96,3.96
				C19.22,8.797,18.81,8.953,18.401,8.953z"/>
		</g>
		<g>
			<path d="M23.5,30.636c-0.884,0-1.5-0.717-1.5-1.6V3.235c0-0.883,0.616-1.6,1.5-1.6s1.5,0.717,1.5,1.6v25.801
				C25,29.919,24.384,30.636,23.5,30.636z"/>
		</g>
	</g>
	<g>
		<path d="M47,45.022H0v-21c0-0.828,0.671-1.5,1.5-1.5s1.5,0.672,1.5,1.5v18h41v-17c0-0.828,0.672-1.5,1.5-1.5s1.5,0.672,1.5,1.5
			V45.022z"/>
	</g>
</g>
</svg>
