<?xml version="1.0" encoding="utf-8"?>
<!-- Generator: Adobe Illustrator 16.0.0, SVG Export Plug-In . SVG Version: 6.00 Build 0)  -->
<!DOCTYPE svg PUBLIC "-//W3C//DTD SVG 1.1//EN" "http://www.w3.org/Graphics/SVG/1.1/DTD/svg11.dtd">
<svg version="1.1" xmlns="http://www.w3.org/2000/svg" xmlns:xlink="http://www.w3.org/1999/xlink" x="0px" y="0px" width="619px"
	 height="765px" viewBox="0 0 619 765" enable-background="new 0 0 619 765" xml:space="preserve">

<g id="phone">
	<path d="M216,765V608.453c0-3.365,2.743-6.453,6.114-6.453h176.356c3.372,0,6.529,3.088,6.529,6.453V765h11V573.086
		C416,555.652,402.949,542,386.1,542H234.456C217.605,542,204,556.237,204,573.086V765H216z M293.429,571h33.7
		c1.698,0,2.807,1.301,2.807,3c0,1.693-1.108,3-2.807,3h-33.7c-1.7,0-2.808-1.307-2.808-3C291.176,572.301,292.32,571,293.429,571z"
		/>
</g>
<g id="phoneTotsp">
	
		<line fill="none" stroke="#000000" stroke-width="4" stroke-linecap="round" stroke-linejoin="round" stroke-miterlimit="10" x1="310" y1="543" x2="310" y2="500"/>
</g>

<g id="tspToweb">
	
		<line fill="none" stroke="#000000" stroke-width="4" stroke-linecap="round" stroke-linejoin="round" stroke-miterlimit="10" x1="310" y1="450" x2="310" y2="385"/>
</g>
<g id="internet">
<g id="servChannel">
	<polyline fill="none" stroke="#000000" stroke-width="4" stroke-linecap="round" stroke-miterlimit="10" points="72,253 2,253 
		2,137 149,137 149,252 	"/>
</g>
<g id="servIcon">
	<g id="Layer_1">
	<rect x="87.544" y="226.752" width="12.123" height="0.675"/>
	<rect x="87.544" y="228.772" width="6.735" height="0.675"/>
	<rect x="87.544" y="230.794" width="12.123" height="0.675"/>
	<rect x="103.705" y="226.752" width="12.795" height="0.675"/>
	<rect x="103.705" y="228.772" width="7.408" height="0.675"/>
	<rect x="103.705" y="230.794" width="12.795" height="0.675"/>
	</g>
	<path d="M117.848,248.973h-13.636l-1.853-1.597v-21.968h15.488V248.973z M86.199,225.408h14.814v22.033l-1.601,1.535H86.199
		V225.408z M118.521,224.06H85.526c-0.372,0-0.673,0.302-0.673,0.675v24.912c0,0.373,0.301,0.674,0.673,0.674h15.487v1.348
		c0,0.37,0.301,0.672,0.674,0.672s0.674-0.304,0.674-0.672v-1.348h16.161c0.372,0,0.671-0.303,0.671-0.674v-24.912
		C119.192,224.361,118.891,224.06,118.521,224.06z"/>
</g>
<g id="socialChannel">
	<polyline fill="none" stroke="#000000" stroke-width="4" stroke-linecap="round" stroke-miterlimit="10" points="175,117 104,117 
		104,2 250,2 250,117 	"/>
</g>
<g id="socialIcon">
	<path d="M538.229,221.691c-2.816,0-5.33,2.086-5.978,4.827L532.159,227h-8.224l-0.091-0.481c-0.647-2.741-3.161-4.778-5.978-4.778
		c-3.369,0-6.11,2.738-6.11,6.135c0,3.369,2.741,6.098,6.11,6.098c0.543,0,1.129-0.097,1.743-0.275l0.376-0.112l4.156,7.196
		l-0.287,0.271c-1.237,1.173-1.919,2.738-1.919,4.411c0,3.37,2.742,6.111,6.111,6.111c3.369,0,6.11-2.741,6.11-6.111
		c0-1.715-0.681-3.3-1.917-4.461l-0.29-0.272l4.162-7.146l0.375,0.108c0.614,0.179,1.199,0.27,1.741,0.27
		c3.37,0,6.111-2.741,6.111-6.11C544.34,224.454,541.598,221.691,538.229,221.691z M517.866,231.873
		c-2.218,0-4.022-1.805-4.022-4.022c0-2.245,1.805-4.071,4.022-4.071c2.244,0,4.07,1.826,4.07,4.071
		C521.937,230.068,520.11,231.873,517.866,231.873z M532.07,245.463c0,2.218-1.805,4.021-4.022,4.021s-4.022-1.804-4.022-4.021
		s1.805-4.021,4.022-4.021S532.07,243.245,532.07,245.463z M530.166,239.684l-0.376-0.11c-0.499-0.146-1.085-0.22-1.742-0.22
		c-0.686,0-1.238,0.069-1.739,0.22l-0.379,0.113l-4.107-7.148l0.282-0.271c0.808-0.775,1.41-1.785,1.695-2.941l0.094-0.326h8.309
		l0.094,0.326c0.282,1.145,0.884,2.151,1.742,2.966l0.287,0.259L530.166,239.684z M538.229,231.873
		c-2.218,0-4.022-1.805-4.022-4.022c0-2.245,1.805-4.071,4.022-4.071c2.219,0,4.023,1.826,4.023,4.071
		C542.252,230.068,540.447,231.873,538.229,231.873z"/>
</g>
<g id="voipChannel">
	<polyline fill="none" stroke="#000000" stroke-width="4" stroke-linecap="round" stroke-miterlimit="10" points="443,117 510,117 
		510,2 363,2 363,117 	"/>
</g>
<g id="voipIcon">
	<path d="M431.881,95.686c-0.487,0-0.948,0.121-1.354,0.333c-2.054-5.554-7.397-9.527-13.657-9.527
		c-6.259,0-11.608,3.974-13.659,9.527c-0.404-0.212-0.869-0.333-1.356-0.333c-1.622,0-2.944,1.32-2.944,2.945v5.283
		c0,1.627,1.322,2.946,2.944,2.946c1.625,0,2.946-1.319,2.946-2.946v-5.283c0-0.34-0.06-0.663-0.166-0.966
		c1.482-5.362,6.404-9.311,12.233-9.311c5.825,0,10.746,3.95,12.228,9.311c-0.105,0.303-0.159,0.626-0.159,0.966v5.283
		c0,0.258,0.032,0.507,0.093,0.744c-1.33,4.469-5.062,7.913-9.692,8.83c-0.434-0.925-1.376-1.568-2.467-1.568
		c-1.505,0-2.728,1.222-2.728,2.727s1.223,2.727,2.728,2.727c1.26,0,2.319-0.856,2.632-2.02c4.958-0.91,9.042-4.34,10.879-8.906
		c0.439,0.262,0.953,0.413,1.5,0.413c1.627,0,2.946-1.319,2.946-2.946v-5.283C434.827,97.006,433.508,95.686,431.881,95.686z"/>
</g>
<g id="msgChannel">
	<polyline fill="none" stroke="#000000" stroke-width="4" stroke-linecap="round" stroke-miterlimit="10" points="549,252 617,252 
		617,137 470,137 470,263 	"/>
</g>
<g id="msgIcon">
	<path fill-rule="evenodd" clip-rule="evenodd" d="M215.516,88.881v1.815h1.821v-1.815c0-1.815-1.821-1.815-1.821-1.815h-29.148
		c0,0-1.82,0-1.82,1.815c-0.054,0,0,18.151,0,18.151c0,1.814,1.82,1.814,1.82,1.814h1.821v-1.814h-1.821V88.881H215.516z
		 M197.301,103.4c1.002,0,1.819-0.812,1.819-1.814s-0.817-1.815-1.819-1.815c-1.009,0-1.825,0.813-1.825,1.815
		S196.292,103.4,197.301,103.4z M204.585,103.4c1.007,0,1.821-0.812,1.821-1.814s-0.814-1.815-1.821-1.815
		c-1.005,0-1.821,0.813-1.821,1.815S203.58,103.4,204.585,103.4z M211.873,103.4c1.006,0,1.818-0.812,1.818-1.814
		s-0.812-1.815-1.818-1.815c-1.007,0-1.823,0.813-1.823,1.815S210.866,103.4,211.873,103.4z M190.011,92.51v18.152h4.584
		l5.036,3.806l0.784-3.806h18.745V92.51H190.011z M189.999,90.696c-1.001,0-1.811,0.826-1.811,1.821v18.139
		c0,1.006,0.809,1.818,1.82,1.818h3.645l7.146,4.898l1.086-4.898h17.265c1.013,0,1.829-0.824,1.829-1.818V92.518
		c0-1.007-0.809-1.821-1.809-1.821H189.999z"/>
</g>
<g id="wwwIcon">
	
		<circle fill-rule="evenodd" clip-rule="evenodd" fill="none" stroke="#000000" stroke-width="8" stroke-linecap="round" stroke-linejoin="round" stroke-miterlimit="10" cx="310" cy="340.454" r="24.274"/>
	<text transform="matrix(1 0 0 1 295 343.8545)" font-family="'CircularStd-Black'" font-size="10.7234">www</text>
</g>
<g id="msgBlock1">
	
		<line fill="none" stroke="#000000" stroke-width="4" stroke-linecap="round" stroke-miterlimit="10" x1="250" y1="267" x2="250" y2="385"/>
</g>
<g id="msgBlock2">
	
		<line fill="none" stroke="#000000" stroke-width="4" stroke-linecap="round" stroke-miterlimit="10" x1="250" y1="113" x2="250" y2="270"/>
</g>
<g id="voipBlock2">
	
		<line fill="none" stroke="#000000" stroke-width="4" stroke-linecap="round" stroke-miterlimit="10" x1="363" y1="113" x2="363" y2="270"/>
</g>
<g id="voipBlock1">
	
		<line fill="none" stroke="#000000" stroke-width="4" stroke-linecap="round" stroke-miterlimit="10" x1="363" y1="385" x2="363" y2="263"/>
</g>
<g id="voipToll">
	<g>
		<path fill="#FFFFFF" stroke="#FF5752" stroke-width="4" stroke-miterlimit="10" d="M382,277.826c0,3.41-2.764,6.174-6.174,6.174
			h-26.652c-3.41,0-6.174-2.764-6.174-6.174v-26.652c0-3.41,2.764-6.174,6.174-6.174h26.652c3.41,0,6.174,2.764,6.174,6.174V277.826
			z" class='voipFill'/>
		<path d="M365.94,256.509h2.829l1.084-1.628H359.23l-1.083,1.628h1.844c1.868,0,3.592,0.146,4.28,1.706h-5.041l-1.083,1.629h6.329
			c0,0.004,0,0.007,0,0.011c0,1.171-0.974,2.966-4.187,2.966l-1.553-0.002l0.001,1.521l6.224,7.779h2.771l-6.44-8.047
			c2.65-0.144,5.139-1.626,5.496-4.229h1.98l1.084-1.629h-3.093C366.636,257.588,366.365,256.98,365.94,256.509z"/>
	</g>
</g>
<g id="msgToll">
	<g>
		<path fill="#FFFFFF" stroke="#28BE7E" stroke-width="4" stroke-miterlimit="10" d="M269,277.826c0,3.41-2.764,6.174-6.174,6.174
			h-26.652c-3.41,0-6.174-2.764-6.174-6.174v-26.652c0-3.41,2.764-6.174,6.174-6.174h26.652c3.41,0,6.174,2.764,6.174,6.174V277.826
			z" class='msgFill' />
		<path d="M252.44,256.509h2.829l1.084-1.628H245.73l-1.083,1.628h1.844c1.868,0,3.592,0.146,4.28,1.706h-5.041l-1.083,1.629h6.329
			c0,0.004,0,0.007,0,0.011c0,1.171-0.974,2.966-4.187,2.966l-1.553-0.002l0.001,1.521l6.224,7.779h2.771l-6.44-8.047
			c2.65-0.144,5.139-1.626,5.496-4.229h1.98l1.084-1.629h-3.093C253.136,257.588,252.865,256.98,252.44,256.509z"/>
	</g>
</g>

<g id="webArtery">
	<path fill="none" stroke="#000000" stroke-width="4" stroke-linecap="round" stroke-linejoin="round" stroke-miterlimit="10" d="
		M470,253v87.988v27.684c0,8.822-6.361,16.328-15.185,16.328H164.65c-8.82,0-15.65-7.506-15.65-16.328v-32.139V252"/>
</g>

</g>
<g id="tsp">
	
		<circle fill-rule="evenodd" clip-rule="evenodd" fill="none" stroke="#000000" stroke-width="8" stroke-linecap="round" stroke-linejoin="round" stroke-miterlimit="10" cx="310" cy="475.154" r="24.274"/>
	<path fill-rule="evenodd" clip-rule="evenodd" d="M305.819,467.695c-0.905,0.904,0.966,4.246,4.181,7.459
		c3.215,3.215,6.555,5.087,7.46,4.183c0.812-0.812-0.614-3.584-3.235-6.466l-1.554,1.966c-0.339,0.34-1.124,0.103-1.757-0.528
		l-0.002-0.004c-0.631-0.63-0.869-1.418-0.529-1.756l1.969-1.557C309.445,468.332,306.637,466.877,305.819,467.695z
		 M305.284,483.633l1.943-2.228l-0.979-2.005L305.284,483.633z M309.234,485.508l-1.379-2.817l-2.454,2.817H309.234z
		 M308.824,479.574c-0.533-0.399-1.056-0.846-1.556-1.338l0.979,2.002 M308.876,481.521l0.782,1.598l-0.178-2.292L308.876,481.521z
		 M318.388,480.666c-1.656,1.656-4.559,1.633-7.441,0.216l0.356,4.623h7.16c0.437,0,0.776,0.327,0.76,0.729
		c-0.019,0.403-0.385,0.729-0.82,0.729h-17.83c-0.434,0-0.773-0.325-0.758-0.729c0.018-0.399,0.385-0.729,0.821-0.729h2.731
		l2.127-9.362c-2.193-3.136-2.857-6.816-1.366-8.902c0.24-0.338,0.298-0.408,0.562-0.671c1.368-1.366,5.185,0.203,8.8,3.519
		l1.713-1.357c-0.212-0.677-0.061-1.441,0.476-1.978c0.768-0.766,2.013-0.766,2.78,0c0.766,0.767,0.766,2.013,0,2.78
		c-0.533,0.532-1.295,0.685-1.971,0.479l-1.358,1.717c3.271,3.597,4.812,7.376,3.456,8.733"/>
</g>
</svg>
