<?xml version="1.0" encoding="utf-8"?>
<!-- Generator: Adobe Illustrator 16.0.0, SVG Export Plug-In . SVG Version: 6.00 Build 0)  -->
<!DOCTYPE svg PUBLIC "-//W3C//DTD SVG 1.1//EN" "http://www.w3.org/Graphics/SVG/1.1/DTD/svg11.dtd">
<svg version="1.1" id="Layer_1" xmlns="http://www.w3.org/2000/svg" xmlns:xlink="http://www.w3.org/1999/xlink" x="0px" y="0px"
	 width="30px" height="30px" viewBox="0 0 30 30" enable-background="new 0 0 30 30" xml:space="preserve">
<path d="M29.475,24.648c0,2.664-2.16,4.824-4.824,4.824H5.351c-2.665,0-4.825-2.16-4.825-4.824V5.351
	c0-2.665,2.16-4.825,4.825-4.825h19.297c2.664,0,4.824,2.16,4.824,4.825v19.297H29.475z"/>
<g>
	<path fill="#FFCE00" d="M8.815,5.952v5.269H3.089v9.011c0,1.993,1.684,3.818,3.679,3.818h16.691c1.993,0,3.452-1.825,3.452-3.818
		V5.952H8.815z M8.815,13.969H5.838v1.374h2.978v1.375H5.838v1.375h2.978v2.138c0,1.244-0.931,2.256-2.177,2.256
		c-1.245,0-2.175-1.01-2.175-2.256v-7.637h4.352V13.969z M25.538,20.231c0,1.244-0.833,2.442-2.079,2.442H9.583
		c0.496-0.688,0.607-1.589,0.607-2.442V7.327h15.348V20.231z"/>
	<polygon fill="#FFCE00" points="24.162,13.854 24.162,11.221 11.564,11.221 11.564,13.854 11.564,15.343 24.162,15.343 	"/>
	<rect x="11.564" y="16.719" fill="#FFCE00" width="6.413" height="1.375"/>
	<rect x="11.564" y="8.7" fill="#FFCE00" width="12.598" height="1.375"/>
</g>
</svg>
