<?xml version="1.0" encoding="utf-8"?>
<!-- Generator: Adobe Illustrator 16.0.0, SVG Export Plug-In . SVG Version: 6.00 Build 0)  -->
<!DOCTYPE svg PUBLIC "-//W3C//DTD SVG 1.1//EN" "http://www.w3.org/Graphics/SVG/1.1/DTD/svg11.dtd">
<svg version="1.1" id="Layer_1" xmlns="http://www.w3.org/2000/svg" xmlns:xlink="http://www.w3.org/1999/xlink" x="0px" y="0px"
	 width="30px" height="30px" viewBox="0 0 30 30" enable-background="new 0 0 30 30" xml:space="preserve">
<path d="M29.475,24.648c0,2.664-2.16,4.824-4.824,4.824H5.351c-2.665,0-4.825-2.16-4.825-4.824V5.351
	c0-2.665,2.16-4.825,4.825-4.825h19.297c2.664,0,4.824,2.16,4.824,4.825v19.297H29.475z"/>
<path fill="#FFCE00" stroke="#FFCE00" stroke-miterlimit="10" d="M26.912,14.8c0-1.294-1.049-2.341-2.342-2.341
	c-0.736,0-1.396,0.341-1.822,0.874c-1.779-1.261-4.266-2.088-7.049-2.216l1.498-4.667l3.668,0.865
	c0.041,0.982,0.85,1.768,1.844,1.768c1.02,0,1.846-0.826,1.846-1.844c0-1.02-0.826-1.845-1.846-1.845
	c-0.629,0-1.186,0.315-1.518,0.794l-4.777-1.124l-1.94,6.042c-2.861,0.083-5.426,0.905-7.26,2.182
	c-0.428-0.508-1.069-0.829-1.787-0.829c-1.291,0-2.338,1.047-2.338,2.341c0,0.953,0.571,1.773,1.389,2.14
	c-0.084,0.35-0.129,0.711-0.129,1.078c0,3.819,4.744,6.916,10.598,6.916c5.854,0,10.6-3.097,10.6-6.916
	c0-0.354-0.041-0.701-0.119-1.043C26.295,16.634,26.912,15.788,26.912,14.8z M15,23.828c-4.933,0-9.291-2.609-9.291-5.829
	c0-3.22,4.358-5.829,9.291-5.829c4.932,0,9.292,2.609,9.292,5.829C24.292,21.219,19.932,23.828,15,23.828z"/>
</svg>
