<?xml version="1.0" encoding="utf-8"?>
<!-- Generator: Adobe Illustrator 16.0.0, SVG Export Plug-In . SVG Version: 6.00 Build 0)  -->
<!DOCTYPE svg PUBLIC "-//W3C//DTD SVG 1.1//EN" "http://www.w3.org/Graphics/SVG/1.1/DTD/svg11.dtd">
<svg version="1.1" id="Layer_1" xmlns="http://www.w3.org/2000/svg" xmlns:xlink="http://www.w3.org/1999/xlink" x="0px" y="0px"
	 width="367.187px" height="116.889px" viewBox="0 0 367.187 116.889" enable-background="new 0 0 367.187 116.889"
	 xml:space="preserve">
<path fill="#FFCE00" d="M196.753,11.042h19.18L223.28,0h-72.026l-7.347,11.042h12.504c12.668,0,24.354,0.979,29.029,11.566h-34.187
	l-7.347,11.047h42.912c0,0.024,0,0.046,0,0.07c0,7.938-6.6,20.111-28.379,20.111l-10.533-0.011l0.01,10.315l42.203,52.746h18.789
	l-43.678-54.565c17.979-0.972,34.846-11.021,37.271-28.667h13.43l7.348-11.047h-20.963
	C201.466,18.355,199.628,14.238,196.753,11.042z"/>
</svg>
