<?xml version="1.0" encoding="utf-8"?>
<!-- Generator: Adobe Illustrator 16.0.0, SVG Export Plug-In . SVG Version: 6.00 Build 0)  -->
<!DOCTYPE svg PUBLIC "-//W3C//DTD SVG 1.1//EN" "http://www.w3.org/Graphics/SVG/1.1/DTD/svg11.dtd">
<svg version="1.1" id="Layer_1" xmlns="http://www.w3.org/2000/svg" xmlns:xlink="http://www.w3.org/1999/xlink" x="0px" y="0px"
	 width="79.373px" height="116.889px" viewBox="0 0 79.373 116.889" enable-background="new 0 0 79.373 116.889"
	 xml:space="preserve">
<path fill="#FFCE00" d="M52.846,11.042h19.181L79.373,0H7.347L0,11.042h12.504c12.668,0,24.354,0.979,29.029,11.567H7.347L0,33.655
	h42.912c0,0.025,0,0.046,0,0.071c0,7.937-6.599,20.111-28.378,20.111L4,53.826l0.011,10.316l42.202,52.746h18.79L21.325,62.322
	c17.978-0.971,34.845-11.021,37.272-28.667h13.429l7.347-11.046H58.41C57.56,18.355,55.722,14.238,52.846,11.042z"/>
</svg>
