<?xml version="1.0" encoding="utf-8"?>
<!-- Generator: Adobe Illustrator 16.0.0, SVG Export Plug-In . SVG Version: 6.00 Build 0)  -->
<!DOCTYPE svg PUBLIC "-//W3C//DTD SVG 1.1//EN" "http://www.w3.org/Graphics/SVG/1.1/DTD/svg11.dtd">
<svg version="1.1" id="Layer_1" xmlns="http://www.w3.org/2000/svg" xmlns:xlink="http://www.w3.org/1999/xlink" x="0px" y="0px"
	 width="1922px" height="834px" viewBox="0 0 1922 834" enable-background="new 0 0 1922 834" xml:space="preserve">
<rect fill="none" width="1922" height="834"/>
<text transform="matrix(1 0 0 1 668.5078 452.4307)" font-family="'ChaparralPro-Bold'" font-size="29.4831" letter-spacing="5">WHAT IS GOING ON WITH</text>
<g>
	<polygon points="642.892,437.682 640.977,437.682 640.977,435.832 627.602,435.832 627.602,433.883 625.719,433.883 
		625.719,435.832 623.771,435.832 623.771,437.747 625.719,437.747 627.602,437.747 640.977,437.747 640.977,441.545 
		642.892,441.545 	"/>
	<polygon points="631.432,451.089 633.315,451.089 633.315,443.46 640.977,443.46 640.977,441.545 629.518,441.545 629.518,443.46 
		631.4,443.46 631.4,447.354 629.518,447.354 629.518,449.27 631.4,449.27 631.4,451.089 629.518,451.089 627.602,451.089 
		627.602,453.004 629.518,453.004 629.518,454.92 631.432,454.92 	"/>
	<rect x="619.877" y="454.92" width="9.641" height="1.915"/>
	<polygon points="616.046,452.941 616.046,451.089 612.216,451.089 612.216,439.613 614.164,439.613 614.164,437.747 
		612.216,437.747 612.216,437.714 610.301,437.714 610.301,451.089 610.301,453.004 616.046,453.004 616.046,454.855 
		619.877,454.855 619.877,452.941 	"/>
	<rect x="614.164" y="435.832" width="1.882" height="1.916"/>
	<rect x="616.046" y="433.916" width="1.915" height="1.916"/>
	<rect x="621.792" y="430.021" width="1.979" height="1.979"/>
	<rect x="617.961" y="432" width="3.831" height="1.916"/>
	<rect x="623.771" y="428.106" width="3.831" height="1.915"/>
	<rect x="627.602" y="430.021" width="1.916" height="3.831"/>
	<rect x="618.057" y="441.545" width="5.203" height="1.916"/>
	<rect x="618.057" y="445.344" width="5.203" height="1.916"/>
	<rect x="618.057" y="449.173" width="3.831" height="1.916"/>
</g>
<path fill="none" stroke="#000000" stroke-width="6" stroke-miterlimit="10" d="M-0.062,173.149h487c0,0,58-6,58,58"/>
<path fill="none" stroke="#000000" stroke-width="6" stroke-miterlimit="10" d="M545.012,247.075v140c0,0-6,58,58,58"/>
<g>
	<path d="M712.16,572.858l-24.723-43.445h-0.207v43.445h-18.723v-74.27h22.551l22.137,40.754h0.207v-40.754h18.721v74.27H712.16z"/>
	<path d="M738.748,572.858v-74.27h52.133v16.446h-31.963v11.896h22.654v15.93h-22.654v13.551h32.584v16.447H738.748z"/>
	<path d="M813.986,572.858v-57.823h-18.619v-16.446h57.408v16.446h-18.619v57.823H813.986z"/>
	<path d="M923.807,572.858l-24.723-43.445h-0.207v43.445h-18.723v-74.27h22.551l22.135,40.754h0.207v-40.754h18.723v74.27H923.807z"
		/>
	<path d="M950.395,572.858v-74.27h52.133v16.446h-31.963v11.896h22.654v15.93h-22.654v13.551h32.584v16.447H950.395z"/>
	<path d="M1052.387,498.589h20.172v42.928c0,20.791-9.518,32.582-32.377,32.582s-30.824-11.791-30.824-32.582v-42.928h20.273v46.857
		c0,7.965,3.621,12.309,10.965,12.309c7.24,0,11.791-4.344,11.791-12.309V498.589z"/>
	<path d="M1097.354,572.858v-57.823h-18.619v-16.446h57.408v16.446h-18.619v57.823H1097.354z"/>
	<path d="M1181.176,572.858l-10.654-26.791h-9.412v26.791h-20.172v-74.27h28.551c20.17,0,30.307,7.551,30.307,22.445
		c0,9.207-4.447,15.619-11.275,19.24l14.793,32.584H1181.176z M1169.178,530.345c4.137,0,10.24-0.932,10.24-7.758
		c0-6.725-5.275-7.552-9.311-7.552h-8.998v15.31H1169.178z"/>
	<path d="M1250.482,572.858l-3.932-16.137h-20.066l-3.828,16.137h-20.377l21.309-74.27h26.584l21.309,74.27H1250.482z
		 M1230.312,540.378h12.309l-6-25.239h-0.207L1230.312,540.378z"/>
	<path d="M1276.035,572.858v-74.27h20.17v57.822h29.791v16.447H1276.035z"/>
	<path d="M1331.584,572.858v-74.27h20.172v74.27H1331.584z"/>
	<path d="M1376.168,572.858v-57.823h-18.619v-16.446h57.408v16.446h-18.619v57.823H1376.168z"/>
	<path d="M1444.992,572.858v-27.93l-23.688-46.34h21.309l12.516,26.688h0.207l13.24-26.688h20.791l-24.102,46.34v27.93H1444.992z"/>
	<path d="M1043.924,660.857v-74.27h20.17v74.27H1043.924z"/>
	<path d="M1114.504,660.857l-24.723-43.444h-0.207v43.444h-18.723v-74.27h22.551l22.135,40.755h0.207v-40.755h18.723v74.27H1114.504
		z"/>
	<path d="M1159.812,660.857v-74.27h20.172v74.27H1159.812z"/>
	<path d="M1230.256,660.857l-24.723-43.444h-0.207v43.444h-18.723v-74.27h22.551l22.135,40.755h0.207v-40.755h18.723v74.27H1230.256
		z"/>
	<path d="M1260.98,660.857v-74.27h26.48c23.688,0,36.721,11.688,36.721,35.79c0,24.722-13.756,38.479-37.547,38.479H1260.98z
		 M1287.564,643.583c11.379,0,16.447-7.965,16.447-20.584c0-12.31-5.068-19.137-15.723-19.137h-7.137v39.721H1287.564z"/>
	<path d="M1331.84,660.857v-74.27h20.17v74.27H1331.84z"/>
	<path d="M1404.764,660.857l-3.93-16.137h-20.066l-3.828,16.137h-20.377l21.309-74.27h26.584l21.309,74.27H1404.764z
		 M1384.594,628.378h12.309l-5.998-25.239h-0.207L1384.594,628.378z"/>
</g>
<g>
	<polygon points="1323.891,413.071 1323.891,417.381 1319.725,417.381 1319.725,447.486 1315.34,447.486 1315.34,451.724 
		1319.725,451.724 1319.725,456.109 1324.035,456.109 1324.035,451.724 1324.035,447.486 1324.035,417.381 1332.584,417.381 
		1332.584,413.071 	"/>
	<polygon points="1354.066,438.865 1354.066,434.625 1336.896,434.625 1336.896,417.381 1332.584,417.381 1332.584,443.173 
		1336.896,443.173 1336.896,438.936 1345.66,438.936 1345.66,443.173 1349.969,443.173 1349.969,438.936 1354.066,438.936 
		1354.066,443.173 1354.066,447.486 1358.377,447.486 1358.377,443.173 1362.688,443.173 1362.688,438.865 	"/>
	<rect x="1362.688" y="443.173" width="4.312" height="21.7"/>
	<polygon points="1358.234,473.496 1354.066,473.496 1354.066,482.116 1328.236,482.116 1328.236,477.731 1324.035,477.731 
		1324.035,482.116 1323.963,482.116 1323.963,486.427 1354.066,486.427 1358.377,486.427 1358.377,473.496 1362.543,473.496 
		1362.543,464.873 1358.234,464.873 	"/>
	<rect x="1319.725" y="473.496" width="4.312" height="4.235"/>
	<rect x="1315.412" y="469.186" width="4.312" height="4.311"/>
	<rect x="1306.646" y="456.109" width="4.455" height="4.453"/>
	<rect x="1311.102" y="460.562" width="4.311" height="8.624"/>
	<rect x="1302.338" y="447.486" width="4.309" height="8.623"/>
	<rect x="1306.646" y="443.173" width="8.621" height="4.312"/>
	<rect x="1332.584" y="457.258" width="4.312" height="11.711"/>
	<rect x="1341.133" y="457.258" width="4.312" height="11.711"/>
	<rect x="1349.754" y="460.347" width="4.312" height="8.623"/>
</g>
</svg>
