<?xml version="1.0" encoding="utf-8"?>
<!-- Generator: Adobe Illustrator 16.0.0, SVG Export Plug-In . SVG Version: 6.00 Build 0)  -->
<!DOCTYPE svg PUBLIC "-//W3C//DTD SVG 1.1//EN" "http://www.w3.org/Graphics/SVG/1.1/DTD/svg11.dtd">
<svg version="1.1" id="Layer_1" xmlns="http://www.w3.org/2000/svg" xmlns:xlink="http://www.w3.org/1999/xlink" x="0px" y="0px"
	 width="256.506px" height="171.827px" viewBox="0 0 256.506 171.827" enable-background="new 0 0 256.506 171.827"
	 xml:space="preserve">
<g>
	<g>
		<rect x="11.492" y="12" fill="#FFCE00" width="83" height="11"/>
		<polygon fill="#FFCE00" points="76.811,28.884 78.604,47.639 83.194,45.445 86.785,52.227 89.979,50.634 86.385,43.649 
			91.176,41.253 		"/>
		<path fill="#FFCE00" d="M11.492,55h55V29h-55V55z M65.236,43.048l-0.201-0.197C65.236,42.851,65.236,43.048,65.236,43.048z
			 M43.486,43.048C43.486,42.851,43.686,42.851,43.486,43.048L43.486,43.048z"/>
		<path fill="#FFFFFF" d="M0,1.062v64.822l107.82-0.078l-0.283-0.41c0-0.198,0-0.198,0-0.397V2.546c0-0.8-0.797-1.398-1.996-1.398
			L60.842,1.119 M101.95,59.811c0,0.997-0.997,1.597-1.997,1.396H80.401h-6.385H38.899h-1.397h-7.783H16.75H9.769H7.572
			c-0.997,0-1.797-0.399-1.797-1.199V41.852v-4.987V15.716v-4.99V7.534c0-0.6,0.8-1.199,1.797-1.199h23.346h4.987h20.751h4.989
			h38.508c1,0,1.797,0.6,1.797,1.199V59.811z"/>
	</g>
	<g>
		<rect x="11.492" y="118" fill="#FFCE00" width="83" height="12"/>
		<polygon fill="#FFCE00" points="76.65,134.904 78.439,153.619 83.02,151.432 86.604,158.198 89.79,156.607 86.204,149.638 
			90.984,147.247 		"/>
		<path fill="#FFCE00" d="M11.492,161h54v-26h-54V161z M65.1,149.038l-0.199-0.196C65.1,148.842,65.1,149.038,65.1,149.038z
			 M43.395,149.038C43.395,148.842,43.595,148.842,43.395,149.038L43.395,149.038z"/>
		<path fill="#FFFFFF" d="M0,107.141v64.687l107.594-0.078l-0.281-0.41c0-0.196,0-0.196,0-0.396v-62.321
			c0-0.797-0.795-1.396-1.994-1.396l-44.604-0.028 M101.736,165.765c0,0.996-0.995,1.595-1.992,1.396H80.232h-6.371H38.818h-1.395
			h-7.768H16.715H9.748H7.557c-0.995,0-1.793-0.399-1.793-1.198v-18.116v-4.979v-21.104v-4.979v-3.186
			c0-0.599,0.798-1.196,1.793-1.196h23.297h4.977h20.707h4.979h38.428c0.998,0,1.793,0.598,1.793,1.196V165.765z"/>
	</g>
	<g>
		<rect x="162.492" y="11" fill="#FFCE00" width="83" height="11"/>
		<polygon fill="#FFCE00" points="179.695,27.821 177.902,46.576 173.312,44.384 169.721,51.164 166.526,49.571 170.12,42.588 
			165.33,40.19 		"/>
		<path fill="#FFCE00" d="M245.492,28h-55v26h55V28z M191.47,41.789l-0.2,0.197C191.27,41.986,191.27,41.789,191.47,41.789z
			 M213.02,41.986C212.82,41.789,213.02,41.789,213.02,41.986L213.02,41.986z"/>
		<path fill="#FFFFFF" d="M195.664,0.057l-44.698,0.028c-1.2,0-1.997,0.6-1.997,1.399v62.453c0,0.198,0,0.198,0,0.396l-0.283,0.411
			l107.82,0.077V0 M154.556,6.472c0-0.6,0.797-1.198,1.797-1.198h38.508h4.99h20.75h4.987h23.347c0.995,0,1.796,0.599,1.796,1.198
			v3.191v4.991v21.148v4.987v18.155c0,0.801-0.801,1.2-1.796,1.2h-2.197h-6.981h-12.969h-7.784h-1.396h-35.117h-6.385h-19.552
			c-0.999,0.2-1.997-0.399-1.997-1.397V6.472z"/>
	</g>
	<g>
		<rect x="162.492" y="117" fill="#FFCE00" width="83" height="12"/>
		<polygon fill="#FFCE00" points="179.856,133.842 178.066,152.557 173.486,150.369 169.902,157.136 166.716,155.545 
			170.302,148.575 165.521,146.185 		"/>
		<path fill="#FFCE00" d="M245.492,134h-54v26h54V134z M191.605,147.78l-0.198,0.195C191.407,147.976,191.407,147.78,191.605,147.78
			z M213.111,147.976C212.911,147.78,213.111,147.78,213.111,147.976L213.111,147.976z"/>
		<path fill="#FFFFFF" d="M195.791,106.136l-44.604,0.027c-1.199,0-1.993,0.599-1.993,1.396v62.321c0,0.2,0,0.2,0,0.396
			l-0.282,0.411l107.594,0.078v-64.688 M154.77,112.537c0-0.599,0.796-1.197,1.792-1.197h38.429h4.979h20.707h4.977h23.298
			c0.994,0,1.793,0.599,1.793,1.197v3.185v4.979v21.104v4.979V164.9c0,0.799-0.799,1.197-1.793,1.197h-2.192h-6.967H226.85h-7.768
			h-1.394h-35.044h-6.372h-19.511c-0.996,0.199-1.992-0.398-1.992-1.395V112.537z"/>
	</g>
	<g>
		
			<line fill="none" stroke="#FFCE00" stroke-width="6" stroke-linecap="round" stroke-miterlimit="10" x1="121.043" y1="75.056" x2="139.278" y2="93.29"/>
		
			<line fill="none" stroke="#FFCE00" stroke-width="6" stroke-linecap="round" stroke-miterlimit="10" x1="121.043" y1="93.29" x2="139.278" y2="75.056"/>
	</g>
</g>
</svg>
