<?xml version="1.0" encoding="utf-8"?>
<!-- Generator: Adobe Illustrator 16.0.0, SVG Export Plug-In . SVG Version: 6.00 Build 0)  -->
<!DOCTYPE svg PUBLIC "-//W3C//DTD SVG 1.1//EN" "http://www.w3.org/Graphics/SVG/1.1/DTD/svg11.dtd">
<svg version="1.1" id="Layer_1" xmlns="http://www.w3.org/2000/svg" xmlns:xlink="http://www.w3.org/1999/xlink" x="0px" y="0px"
	 width="1920px" height="7807.629px" viewBox="0 0 1920 7807.629" enable-background="new 0 0 1920 7807.629" xml:space="preserve">
<rect y="6165" width="1920" height="1864"/>
<rect x="360" y="7630" width="1202" height="878"/>
<g>
	<rect x="360" y="5167" fill="#FFFFFF" width="106" height="367"/>
	<rect x="360" y="5167" fill="#FFFFFF" width="1200" height="65"/>
	<rect x="466" y="5232" fill="#FFFFFF" width="1094" height="106"/>
	<rect x="360" y="5167" fill="#FFFFFF" width="1200" height="367"/>
	<line fill="none" stroke="#FFCE00" stroke-width="7" stroke-miterlimit="10" x1="412.5" y1="5167" x2="412.5" y2="5534"/>
	<rect x="360" y="5232" fill="none" width="106" height="106"/>
	<circle fill="#FFCE00" cx="413" cy="5284.999" r="12.968"/>
	<text transform="matrix(1 0 0 1 466 5294.1816)" font-family="'TisaOT-MediIta'" font-size="29.3933">TRAI publishes a 117 page consultation paper.</text>
	<rect x="466" y="5362" fill="#FFFFFF" width="547" height="172"/>
	<g>
		<text transform="matrix(1 0 0 1 465.9995 5247.5156)" font-family="'TradeGothicNextLTPro-Rg'" font-size="18.063">March 27, 2015</text>
	</g>
	<g>
		<rect x="466" y="5362.35" fill="none" width="471.591" height="172.141"/>
		<text transform="matrix(1 0 0 1 466 5376.9697)"><tspan x="0" y="0" font-family="'TisaOT'" font-size="20">TRAI published the 117-page document known as </tspan><tspan x="0" y="28" font-family="'TisaOT'" font-size="20">‘Consultation Paper on Regulatory Framework for </tspan><tspan x="0" y="56" font-family="'TisaOT'" font-size="20">Over-the-top (OTT) services’. This consultation paper </tspan><tspan x="0" y="84" font-family="'TisaOT'" font-size="20">talks about net neutrality in India and how it changes </tspan><tspan x="0" y="112" font-family="'TisaOT'" font-size="20">the way we consume data. TRAI is seeking public views </tspan><tspan x="0" y="140" font-family="'TisaOT'" font-size="20">on it and the deadline for comments is April 24.</tspan></text>
	</g>
	<rect x="1013" y="5362" fill="#FFFFFF" width="547" height="172"/>
	<rect x="1013" y="5394" fill="#FFFFFF" width="547" height="140"/>
	<rect x="1013" y="5394" fill="#FFFFFF" width="273" height="140"/>
	<rect x="1286" y="5394" fill="#FFFFFF" width="274" height="140"/>
	<g>
		<g>
			<rect x="1013" y="5362" fill="#FFFFFF" width="273" height="41"/>
			<path fill="#FFCE00" d="M1013,5387c0,2.762,2.238,5,5,5h20c2.762,0,5-2.238,5-5v-20c0-2.762-2.238-5-5-5h-20
				c-2.762,0-5,2.238-5,5V5387z"/>
			<text transform="matrix(1 0 0 1 1059 5380.3047)" font-family="'TradeGothicNextLTPro-Rg'" font-size="10">Original Consultation Paper</text>
		</g>
		<g>
			<rect x="1013" y="5403" fill="#FFFFFF" width="273" height="41"/>
			<path fill="#FFCE00" d="M1013,5428c0,2.762,2.238,5,5,5h20c2.762,0,5-2.238,5-5v-20c0-2.762-2.238-5-5-5h-20
				c-2.762,0-5,2.238-5,5V5428z"/>
			<text transform="matrix(1 0 0 1 1059 5421.3047)" font-family="'TradeGothicNextLTPro-Rg'" font-size="10">Abridged Paper</text>
		</g>
		<g>
			<rect x="1013" y="5444" fill="#FFFFFF" width="273" height="41"/>
			<path fill="#FFCE00" d="M1013,5469c0,2.762,2.238,5,5,5h20c2.762,0,5-2.238,5-5v-20c0-2.762-2.238-5-5-5h-20
				c-2.762,0-5,2.238-5,5V5469z"/>
			<text transform="matrix(1 0 0 1 1059 5462.3047)" font-family="'TradeGothicNextLTPro-Rg'" font-size="10">Over The Top Services — Wikipedia</text>
		</g>
	</g>
</g>
<g>
	<rect y="4993" fill="none" width="1920" height="174"/>
	<text transform="matrix(1 0 0 1 480.8501 5102.0596)" font-family="'TradeGothicNextLTPro-Hv'" font-size="39.4848">THE TIMELINE</text>
	<g>
		<circle fill="#FFCE00" cx="403.378" cy="5081.7" r="47.365"/>
		
			<text transform="matrix(0.9238 -0.3828 0.3828 0.9238 383.9902 5093.1846)" font-family="'NeuzeitGro-Bla'" font-size="13.2386" letter-spacing="2">F.A.Q</text>
	</g>
	<line fill="none" stroke="#000000" stroke-width="2" stroke-miterlimit="10" x1="356" y1="5167" x2="1559" y2="5167"/>
</g>
<rect y="5167" fill="none" width="1920" height="998"/>
<rect y="1" fill="#FFCE00" width="1922" height="834"/>
<rect y="3807" fill="#FFCE00" width="1920" height="1186"/>
<rect y="3008" fill="#FFCE00" width="1920" height="799"/>
<rect x="359" y="1" fill="#FFCE00" width="1200" height="834"/>
<rect y="835" width="1920" height="1148"/>
<rect y="1983" width="1920" height="1025"/>
<text transform="matrix(1 0 0 1 668.5708 408.2808)" font-family="'ChaparralPro-Bold'" font-size="29.4831" letter-spacing="5">WHAT IS GOING ON WITH</text>
<g>
	<polygon points="642.954,393.533 641.039,393.533 641.039,391.682 627.664,391.682 627.664,389.734 625.781,389.734 
		625.781,391.682 623.833,391.682 623.833,393.597 625.781,393.597 627.664,393.597 641.039,393.597 641.039,397.396 
		642.954,397.396 	"/>
	<polygon points="631.494,406.939 633.378,406.939 633.378,399.311 641.039,399.311 641.039,397.396 629.58,397.396 629.58,399.311 
		631.462,399.311 631.462,403.205 629.58,403.205 629.58,405.12 631.462,405.12 631.462,406.939 629.58,406.939 627.664,406.939 
		627.664,408.855 629.58,408.855 629.58,410.771 631.494,410.771 	"/>
	<rect x="619.939" y="410.771" width="9.641" height="1.915"/>
	<polygon points="616.108,408.792 616.108,406.939 612.278,406.939 612.278,395.464 614.226,395.464 614.226,393.597 
		612.278,393.597 612.278,393.565 610.363,393.565 610.363,406.939 610.363,408.855 616.108,408.855 616.108,410.706 
		619.939,410.706 619.939,408.792 	"/>
	<rect x="614.226" y="391.682" width="1.882" height="1.916"/>
	<rect x="616.108" y="389.767" width="1.915" height="1.916"/>
	<rect x="621.854" y="385.872" width="1.979" height="1.979"/>
	<rect x="618.023" y="387.851" width="3.831" height="1.916"/>
	<rect x="623.833" y="383.957" width="3.831" height="1.915"/>
	<rect x="627.664" y="385.872" width="1.916" height="3.831"/>
	<rect x="618.12" y="397.396" width="5.203" height="1.916"/>
	<rect x="618.12" y="401.194" width="5.203" height="1.916"/>
	<rect x="618.12" y="405.024" width="3.831" height="1.916"/>
</g>
<path fill="none" stroke="#000000" stroke-width="6" stroke-miterlimit="10" d="M0,129h487c0,0,58-6,58,58"/>
<path fill="none" stroke="#000000" stroke-width="6" stroke-miterlimit="10" d="M545.075,202.925v140c0,0-6,58,58,58"/>
<g>
	<g>
		<path d="M712.223,528.709L687.5,485.264h-0.207v43.445h-18.723v-74.27h22.551l22.136,40.754h0.207v-40.754h18.722v74.27H712.223z"
			/>
		<path d="M738.811,528.709v-74.27h52.133v16.447h-31.963v11.896h22.654v15.93h-22.654v13.551h32.584v16.447H738.811z"/>
		<path d="M814.048,528.709v-57.823h-18.619v-16.447h57.409v16.447h-18.619v57.823H814.048z"/>
		<path d="M923.869,528.709l-24.722-43.445h-0.207v43.445h-18.723v-74.27h22.55l22.136,40.754h0.207v-40.754h18.723v74.27H923.869z"
			/>
		<path d="M950.457,528.709v-74.27h52.133v16.447h-31.963v11.896h22.654v15.93h-22.654v13.551h32.584v16.447H950.457z"/>
		<path d="M1052.449,454.439h20.172v42.928c0,20.791-9.518,32.582-32.377,32.582s-30.824-11.791-30.824-32.582v-42.928h20.273
			v46.858c0,7.965,3.621,12.309,10.965,12.309c7.24,0,11.791-4.344,11.791-12.309V454.439z"/>
		<path d="M1097.416,528.709v-57.823h-18.619v-16.447h57.408v16.447h-18.619v57.823H1097.416z"/>
		<path d="M1181.238,528.709l-10.654-26.791h-9.412v26.791H1141v-74.27h28.551c20.17,0,30.307,7.551,30.307,22.446
			c0,9.207-4.447,15.619-11.275,19.24l14.793,32.584H1181.238z M1169.24,486.195c4.137,0,10.24-0.932,10.24-7.758
			c0-6.725-5.275-7.552-9.311-7.552h-8.998v15.31H1169.24z"/>
		<path d="M1250.545,528.709l-3.932-16.137h-20.066l-3.828,16.137h-20.377l21.309-74.27h26.584l21.309,74.27H1250.545z
			 M1230.375,496.229h12.309l-6-25.239h-0.207L1230.375,496.229z"/>
		<path d="M1276.098,528.709v-74.27h20.17v57.823h29.791v16.447H1276.098z"/>
		<path d="M1331.646,528.709v-74.27h20.172v74.27H1331.646z"/>
		<path d="M1376.23,528.709v-57.823h-18.619v-16.447h57.408v16.447H1396.4v57.823H1376.23z"/>
		<path d="M1445.055,528.709v-27.93l-23.688-46.34h21.309l12.516,26.688h0.207l13.24-26.688h20.791l-24.102,46.34v27.93H1445.055z"
			/>
		<path d="M1043.986,616.708v-74.27h20.17v74.27H1043.986z"/>
		<path d="M1114.566,616.708l-24.723-43.444h-0.207v43.444h-18.723v-74.27h22.551l22.135,40.755h0.207v-40.755h18.723v74.27
			H1114.566z"/>
		<path d="M1159.875,616.708v-74.27h20.172v74.27H1159.875z"/>
		<path d="M1230.318,616.708l-24.723-43.444h-0.207v43.444h-18.723v-74.27h22.551l22.135,40.755h0.207v-40.755h18.723v74.27
			H1230.318z"/>
		<path d="M1261.043,616.708v-74.27h26.48c23.688,0,36.721,11.688,36.721,35.79c0,24.722-13.756,38.479-37.547,38.479H1261.043z
			 M1287.627,599.434c11.379,0,16.447-7.965,16.447-20.584c0-12.31-5.068-19.137-15.723-19.137h-7.137v39.721H1287.627z"/>
		<path d="M1331.902,616.708v-74.27h20.17v74.27H1331.902z"/>
		<path d="M1404.826,616.708l-3.93-16.137h-20.066l-3.828,16.137h-20.377l21.309-74.27h26.584l21.309,74.27H1404.826z
			 M1384.656,584.229h12.309l-5.998-25.239h-0.207L1384.656,584.229z"/>
	</g>
	<g>
		<polygon points="1323.953,368.922 1323.953,373.232 1319.787,373.232 1319.787,403.336 1315.402,403.336 1315.402,407.574 
			1319.787,407.574 1319.787,411.959 1324.098,411.959 1324.098,407.574 1324.098,403.336 1324.098,373.232 1332.646,373.232 
			1332.646,368.922 		"/>
		<polygon points="1354.129,394.716 1354.129,390.476 1336.959,390.476 1336.959,373.232 1332.646,373.232 1332.646,399.024 
			1336.959,399.024 1336.959,394.786 1345.723,394.786 1345.723,399.024 1350.031,399.024 1350.031,394.786 1354.129,394.786 
			1354.129,399.024 1354.129,403.336 1358.439,403.336 1358.439,399.024 1362.75,399.024 1362.75,394.716 		"/>
		<rect x="1362.75" y="399.024" width="4.312" height="21.699"/>
		<polygon points="1358.297,429.346 1354.129,429.346 1354.129,437.967 1328.299,437.967 1328.299,433.582 1324.098,433.582 
			1324.098,437.967 1324.025,437.967 1324.025,442.277 1354.129,442.277 1358.439,442.277 1358.439,429.346 1362.605,429.346 
			1362.605,420.723 1358.297,420.723 		"/>
		<rect x="1319.787" y="429.346" width="4.312" height="4.235"/>
		<rect x="1315.475" y="425.036" width="4.312" height="4.311"/>
		<rect x="1306.709" y="411.959" width="4.455" height="4.453"/>
		<rect x="1311.164" y="416.413" width="4.311" height="8.623"/>
		<rect x="1302.4" y="403.336" width="4.309" height="8.623"/>
		<rect x="1306.709" y="399.024" width="8.621" height="4.312"/>
		<rect x="1332.646" y="413.109" width="4.312" height="11.711"/>
		<rect x="1341.195" y="413.109" width="4.312" height="11.711"/>
		<rect x="1349.816" y="416.197" width="4.312" height="8.623"/>
	</g>
</g>
<g>
	<text transform="matrix(1 0 0 1 480.8501 949.0596)" fill="#FFFFFF" font-family="'TradeGothicNextLTPro-Hv'" font-size="39.4848">THE BASICS</text>
	<g>
		<circle fill="#FFCE00" cx="403.378" cy="928.7" r="47.365"/>
		
			<text transform="matrix(0.9238 -0.3828 0.3828 0.9238 383.9902 940.1846)" font-family="'NeuzeitGro-Bla'" font-size="13.2386" letter-spacing="2">F.A.Q</text>
	</g>
</g>
<line fill="none" stroke="#FFFFFF" stroke-width="2" stroke-miterlimit="10" x1="356" y1="1014" x2="1559" y2="1014"/>
<g>
	<text transform="matrix(1 0 0 1 480.8501 3122.0596)" font-family="'TradeGothicNextLTPro-Hv'" font-size="39.4848">THE PLAYERS</text>
	<g>
		<circle cx="403.378" cy="3101.7" r="47.365"/>
		<g>
			
				<text transform="matrix(0.9238 -0.3828 0.3828 0.9238 383.9902 3113.1846)" fill="#FFFFFF" font-family="'NeuzeitGro-Bla'" font-size="13.2386" letter-spacing="2">F.A.Q</text>
		</g>
	</g>
</g>
<line fill="none" stroke="#000000" stroke-width="2" stroke-miterlimit="10" x1="356" y1="3187" x2="1559" y2="3187"/>
<text transform="matrix(1 0 0 1 686.0381 1150.7871)" fill="#FFFFFF" font-family="'TradeGothicNextLTPro-Rg'" font-size="58.3654" letter-spacing="-1">What is Net Neutrality?</text>
<rect x="745.596" y="1412.392" fill="none" width="428.808" height="67.659"/>
<text transform="matrix(1 0 0 1 780.0791 1430.666)"><tspan x="0" y="0" fill="#FFFFFF" font-family="'TisaOT'" font-size="25">Once you pay for the internet, you </tspan><tspan x="87.136" y="35" fill="#FFFFFF" font-family="'TisaOT'" font-size="25">should be able to:</tspan></text>
<path fill="#FFCE00" d="M973.159,1243.153h19.181l7.347-11.042H927.66l-7.347,11.042h12.504c12.668,0,24.354,0.979,29.029,11.567
	H927.66l-7.347,11.046h42.912c0,0.025,0,0.046,0,0.071c0,7.937-6.599,20.111-28.378,20.111l-10.534-0.012l0.011,10.316L966.526,1349
	h18.79l-43.678-54.566c17.978-0.971,34.845-11.021,37.272-28.667h13.429l7.347-11.046h-20.963
	C977.873,1250.467,976.035,1246.35,973.159,1243.153z"/>
<g>
	<rect x="1160" y="1529" width="400" height="454"/>
	<text transform="matrix(1 0 0 1 1236.4629 1603.9248)"><tspan x="0" y="0" fill="#FFFFFF" font-family="'TradeGothicNextLTPro-Rg'" font-size="33.5616">Pay for how much </tspan><tspan x="70.562" y="40" fill="#FFFFFF" font-family="'TradeGothicNextLTPro-Rg'" font-size="33.5616">you use</tspan></text>
	<path fill="#FFFFFF" d="M1365.735,1704.008c-47.365,0-85.763,38.398-85.763,85.764c0,47.364,38.397,85.763,85.763,85.763
		s85.763-38.398,85.763-85.763C1451.498,1742.406,1413.101,1704.008,1365.735,1704.008z M1365.735,1861.238
		c-39.471,0-71.468-31.997-71.468-71.467c0-39.471,31.997-71.469,71.468-71.469c39.47,0,71.468,31.998,71.468,71.469
		C1437.203,1829.241,1405.205,1861.238,1365.735,1861.238z"/>
	<g>
		<path fill="#FFCE00" d="M1366,1704.015v14.295c39.348,0.144,71.203,32.08,71.203,71.462c0,39.47-31.998,71.467-71.468,71.467
			c-31.04,0-57.447-19.793-67.316-47.442l-13.484,4.748c11.828,33.21,43.531,56.99,80.801,56.99
			c47.365,0,85.763-38.398,85.763-85.763C1451.498,1742.495,1413.243,1704.158,1366,1704.015z"/>
	</g>
	<text transform="matrix(1 0 0 1 1336.5801 1783.4629)"><tspan x="0" y="0" fill="#FFFFFF" font-family="'TradeGothicNextLTPro-Bd'" font-size="22">2.7 GB </tspan><tspan x="4.059" y="27.165" fill="#FFFFFF" font-family="'TradeGothicNextLTPro-Bd'" font-size="22">USED</tspan></text>
</g>
<g>
	<rect x="360" y="1529" width="400" height="454"/>
	<text transform="matrix(1 0 0 1 400.6211 1603.9248)"><tspan x="0" y="0" fill="#FFFFFF" font-family="'TradeGothicNextLTPro-Rg'" font-size="33.5616">Access any website </tspan><tspan x="33.36" y="40" fill="#FFFFFF" font-family="'TradeGothicNextLTPro-Rg'" font-size="33.5616">on the internet</tspan></text>
	<g>
		<path fill="#FFFFFF" d="M517.988,1712.421c-11.616,6.425-20.019,15.567-25.952,27.927h25.704L517.988,1712.421z M520.458,1704.015
			c0.496,0,0.743,0,1.235,0c26.939,0,50.17,14.337,63.269,35.837c3.956,6.426,6.673,13.594,8.406,21.254h55.357
			c1.486,0,2.473,0.743,2.473,1.733v77.354c0,0.247,0,0.247,0,0.491l0,0l20.51,29.907c0,1.482-1.231,4.943-2.717,4.943H500.195
			c-1.486,0-2.721-3.461-2.721-4.943l13.593-21.006c-35.342-4.945-62.776-35.593-62.776-72.414
			c0.248-13.594,3.956-26.939,10.628-37.567C471.771,1718.352,494.262,1704.262,520.458,1704.015z M644.278,1833.768v-64.751
			c0-0.743-0.987-1.485-2.226-1.485h-47.697h-6.181h-25.701h-6.178h-28.917c-1.234,0-2.225,0.742-2.225,1.485v3.952v6.182l0,0
			v26.195l0,0v6.178v22.488c0,0.99,0.991,1.486,2.225,1.486h2.721h8.647h16.063h9.641h1.73h43.497h7.908h24.218
			C643.042,1835.745,644.278,1835.002,644.278,1833.768z M561.978,1760.857h25.209c-1.235-5.187-3.213-9.885-5.438-14.332h-23.231
			C559.756,1751.221,561.238,1755.671,561.978,1760.857z M556.048,1740.348h21.997c-10.133-15.571-26.447-26.199-45.476-29.412
			C542.95,1718.104,550.857,1728.484,556.048,1740.348z M524.906,1760.857h30.647c-0.743-5.187-1.975-9.885-3.956-14.332h-26.691
			V1760.857z M524.906,1740.348h24.222c-5.435-11.368-13.593-20.514-24.222-27.188V1740.348z M517.988,1746.525h-28.174
			c-2.473,6.92-4.203,14.58-4.698,22.738c0,1.235-0.248,2.471-0.248,3.705h33.12V1746.525z M517.493,1840.44v-0.247v-28.67h-24.218
			c5.682,11.371,13.837,21.501,24.218,29.161C517.493,1840.44,517.493,1840.44,517.493,1840.44z M517.493,1805.346v-26.443h-32.625
			c0.495,9.391,2.225,18.041,5.686,26.195h26.939V1805.346z M510.82,1843.405c-10.625-8.403-18.784-19.523-24.466-31.882h-22.491
			C473.996,1828.33,491.049,1840.193,510.82,1843.405z M485.364,1740.348c5.19-11.615,12.851-21.502,22.736-28.917
			c-17.545,3.708-32.869,14.089-42.259,28.917H485.364z M460.897,1805.346h23.231c-3.212-8.155-4.943-17.301-5.19-26.195h-23.974
			C454.964,1788.293,456.945,1797.19,460.897,1805.346z M482.894,1746.525h-21.009c-3.952,7.907-6.425,17.053-6.92,26.199h23.727
			c0-1.238,0-2.721,0.248-4.203C479.186,1760.857,480.668,1753.445,482.894,1746.525z"/>
		<rect x="532.817" y="1774.451" fill="#FFCE00" width="102.067" height="14.336"/>
		<polygon fill="#FFCE00" points="630.932,1810.781 624.999,1813.749 629.449,1822.399 625.494,1824.374 621.046,1815.975 
			615.361,1818.691 613.139,1795.461 		"/>
		<path fill="#FFCE00" d="M598.802,1813.006l-0.248-0.244l0,0C598.802,1812.762,598.802,1813.006,598.802,1813.006z
			 M600.041,1795.708v32.126h-66.977v-32.126H600.041z M571.863,1813.006C571.863,1812.762,572.111,1812.762,571.863,1813.006
			L571.863,1813.006C572.111,1812.762,571.863,1812.762,571.863,1813.006z"/>
	</g>
</g>
<g>
	<rect x="760" y="1529" width="400" height="454"/>
	<text transform="matrix(1 0 0 1 863.7305 1603.9248)"><tspan x="0" y="0" fill="#FFFFFF" font-family="'TradeGothicNextLTPro-Rg'" font-size="33.5616">Experience all </tspan><tspan x="-16.831" y="40" fill="#FFFFFF" font-family="'TradeGothicNextLTPro-Rg'" font-size="33.5616">websites equally</tspan></text>
	<g>
		<g>
			<rect x="836" y="1715" fill="#FFCE00" width="83" height="11"/>
			<polygon fill="#FFCE00" points="901.318,1731.884 903.112,1750.639 907.702,1748.445 911.292,1755.227 914.486,1753.634 
				910.893,1746.649 915.683,1744.253 			"/>
			<path fill="#FFCE00" d="M836,1758h55v-26h-55V1758z M889.744,1746.048l-0.2-0.197
				C889.744,1745.851,889.744,1746.048,889.744,1746.048z M867.994,1746.048C867.994,1745.851,868.194,1745.851,867.994,1746.048
				L867.994,1746.048z"/>
			<path fill="#FFFFFF" d="M824.508,1704.062v64.822l107.82-0.078l-0.283-0.41c0-0.198,0-0.198,0-0.397v-62.453
				c0-0.8-0.797-1.398-1.997-1.398l-44.698-0.028 M926.458,1762.811c0,0.997-0.998,1.597-1.997,1.396h-19.552h-6.385h-35.117h-1.397
				h-7.784h-12.968h-6.982h-2.197c-0.997,0-1.796-0.399-1.796-1.199v-18.156v-4.987v-21.148v-4.99v-3.191
				c0-0.6,0.8-1.199,1.796-1.199h23.346h4.987h20.75h4.99h38.508c1,0,1.797,0.6,1.797,1.199V1762.811z"/>
		</g>
		<g>
			<rect x="836" y="1821" fill="#FFCE00" width="83" height="12"/>
			<polygon fill="#FFCE00" points="901.158,1837.904 902.948,1856.619 907.528,1854.432 911.111,1861.198 914.298,1859.607 
				910.712,1852.638 915.492,1850.247 			"/>
			<path fill="#FFCE00" d="M836,1864h54v-26h-54V1864z M889.607,1852.038l-0.199-0.196
				C889.607,1851.842,889.607,1852.038,889.607,1852.038z M867.903,1852.038C867.903,1851.842,868.103,1851.842,867.903,1852.038
				L867.903,1852.038z"/>
			<path fill="#FFFFFF" d="M824.508,1810.141v64.687l107.594-0.078l-0.282-0.41c0-0.196,0-0.196,0-0.396v-62.321
				c0-0.797-0.795-1.396-1.993-1.396l-44.604-0.028 M926.245,1868.765c0,0.996-0.996,1.595-1.993,1.396h-19.511h-6.372h-35.043
				h-1.394h-7.768h-12.941h-6.967h-2.192c-0.995,0-1.793-0.399-1.793-1.198v-18.116v-4.979v-21.104v-4.979v-3.186
				c0-0.599,0.798-1.196,1.793-1.196h23.297h4.977h20.707h4.979h38.428c0.998,0,1.793,0.598,1.793,1.196V1868.765z"/>
		</g>
		<g>
			<rect x="987" y="1714" fill="#FFCE00" width="83" height="11"/>
			<polygon fill="#FFCE00" points="1004.203,1730.821 1002.41,1749.576 997.819,1747.384 994.229,1754.164 991.034,1752.571 
				994.628,1745.588 989.838,1743.19 			"/>
			<path fill="#FFCE00" d="M1070,1731h-55v26h55V1731z M1015.978,1744.789l-0.2,0.197
				C1015.777,1744.986,1015.777,1744.789,1015.978,1744.789z M1037.527,1744.986
				C1037.328,1744.789,1037.527,1744.789,1037.527,1744.986L1037.527,1744.986z"/>
			<path fill="#FFFFFF" d="M1020.172,1703.057l-44.698,0.028c-1.2,0-1.997,0.6-1.997,1.399v62.453c0,0.198,0,0.198,0,0.396
				l-0.283,0.411l107.82,0.077V1703 M979.063,1709.472c0-0.6,0.797-1.198,1.797-1.198h38.508h4.99h20.75h4.987h23.347
				c0.995,0,1.796,0.599,1.796,1.198v3.191v4.991v21.148v4.987v18.155c0,0.801-0.801,1.2-1.796,1.2h-2.197h-6.981h-12.969h-7.784
				h-1.396h-35.117h-6.385h-19.552c-0.999,0.2-1.997-0.399-1.997-1.397V1709.472z"/>
		</g>
		<g>
			<rect x="987" y="1820" fill="#FFCE00" width="83" height="12"/>
			<polygon fill="#FFCE00" points="1004.364,1836.842 1002.574,1855.557 997.994,1853.369 994.41,1860.136 991.224,1858.545 
				994.81,1851.575 990.029,1849.185 			"/>
			<path fill="#FFCE00" d="M1070,1837h-54v26h54V1837z M1016.113,1850.78l-0.198,0.195
				C1015.915,1850.976,1015.915,1850.78,1016.113,1850.78z M1037.619,1850.976C1037.419,1850.78,1037.619,1850.78,1037.619,1850.976
				L1037.619,1850.976z"/>
			<path fill="#FFFFFF" d="M1020.299,1809.136l-44.604,0.027c-1.199,0-1.993,0.599-1.993,1.396v62.321c0,0.2,0,0.2,0,0.396
				l-0.282,0.411l107.594,0.078v-64.688 M979.277,1815.537c0-0.599,0.796-1.197,1.792-1.197h38.429h4.979h20.707h4.977h23.298
				c0.994,0,1.793,0.599,1.793,1.197v3.185v4.979v21.104v4.979v18.117c0,0.799-0.799,1.197-1.793,1.197h-2.192h-6.967h-12.941
				h-7.768h-1.394h-35.044h-6.372H981.27c-0.996,0.199-1.992-0.398-1.992-1.395V1815.537z"/>
		</g>
		<g>
			
				<line fill="none" stroke="#FFCE00" stroke-width="6" stroke-linecap="round" stroke-miterlimit="10" x1="945.55" y1="1778.056" x2="963.786" y2="1796.29"/>
			
				<line fill="none" stroke="#FFCE00" stroke-width="6" stroke-linecap="round" stroke-miterlimit="10" x1="945.55" y1="1796.29" x2="963.786" y2="1778.056"/>
		</g>
	</g>
</g>
<text transform="matrix(1 0 0 1 661.2329 2120.7871)" fill="#FFFFFF" font-family="'TradeGothicNextLTPro-Rg'" font-size="58.3654" letter-spacing="-1">How does this affect me?</text>
<g>
	<path fill="#FFCE00" d="M934,2304.244c0,4.836-3.92,8.756-8.756,8.756H592.756c-4.836,0-8.756-3.92-8.756-8.756v-63.488
		c0-4.836,3.92-8.756,8.756-8.756h332.487c4.836,0,8.756,3.92,8.756,8.756V2304.244z"/>
	<text transform="matrix(1 0 0 1 635.9414 2280.7969)" font-family="'NeuzeitGro-Bla'" font-size="18.7213" letter-spacing="3">AS AN INTERNET USER</text>
</g>
<g>
	<g>
		
			<text transform="matrix(1 0 0 1 1016.1143 2280.7969)" fill="#FFFFFF" font-family="'NeuzeitGro-Bla'" font-size="18.7213" letter-spacing="3">AS AN INTERNET STARTUP</text>
	</g>
	<path fill="none" stroke="#FFFFFF" stroke-width="2" stroke-miterlimit="10" d="M1335,2304.244c0,4.836-3.92,8.756-8.756,8.756
		H993.756c-4.836,0-8.756-3.92-8.756-8.756v-63.488c0-4.836,3.92-8.756,8.756-8.756h332.488c4.836,0,8.756,3.92,8.756,8.756
		V2304.244z"/>
</g>
<rect x="1160" y="2509" width="400" height="499"/>
<text transform="matrix(1 0 0 1 1242.3516 2583.9248)"><tspan x="0" y="0" fill="#FFFFFF" font-family="'TradeGothicNextLTPro-Rg'" font-size="33.5616">Instead of paying </tspan><tspan x="-9.262" y="40" fill="#FFFFFF" font-family="'TradeGothicNextLTPro-Rg'" font-size="33.5616">for how much, you </tspan><tspan x="-27.436" y="80" fill="#FFFFFF" font-family="'TradeGothicNextLTPro-Rg'" font-size="33.5616">pay for what you use.</tspan></text>
<g>
	<g>
		<g>
			<path fill="#FFFFFF" d="M1435.133,2748.22v-4.094c0-0.828-0.67-1.499-1.498-1.499c-0.824,0-1.497,0.671-1.497,1.499v4.094
				c0,0.827,0.67,1.497,1.497,1.497C1434.463,2749.717,1435.133,2749.049,1435.133,2748.22z M1417.062,2742.627
				c-0.828,0-1.497,0.671-1.497,1.499v4.094c0,0.827,0.669,1.497,1.497,1.497s1.501-0.668,1.501-1.497v-4.094
				C1418.559,2743.298,1417.89,2742.627,1417.062,2742.627z M1449.498,2740.809c-0.786,0-1.53,0.193-2.18,0.533
				c-3.303-8.936-11.901-15.324-21.969-15.324c-10.066,0-18.669,6.389-21.971,15.324c-0.65-0.34-1.394-0.533-2.18-0.533
				c-2.609,0-4.737,2.123-4.737,4.735v8.5c0,2.613,2.128,4.736,4.737,4.736c2.613,0,4.738-2.123,4.738-4.736v-8.5
				c0-0.545-0.094-1.067-0.266-1.552c2.383-8.627,10.3-14.977,19.675-14.977c9.372,0,17.285,6.354,19.672,14.977
				c-0.171,0.484-0.262,1.007-0.262,1.552v8.5c0,0.411,0.055,0.812,0.155,1.193c-2.141,7.188-8.146,12.729-15.594,14.204
				c-0.699-1.488-2.216-2.523-3.969-2.523c-2.422,0-4.385,1.965-4.385,4.387c0,2.421,1.963,4.385,4.385,4.385
				c2.025,0,3.732-1.377,4.233-3.248c7.975-1.465,14.546-6.981,17.495-14.326c0.709,0.421,1.536,0.665,2.42,0.665
				c2.612,0,4.737-2.123,4.737-4.736v-8.5C1454.235,2742.932,1452.11,2740.809,1449.498,2740.809z M1425.35,2761.787
				c-2.234,0-4.275-0.785-5.598-2.158c-0.575-0.595-0.556-1.544,0.039-2.116c0.598-0.575,1.546-0.558,2.118,0.037
				c0.74,0.767,2.057,1.245,3.44,1.245c1.381,0,2.697-0.476,3.438-1.245c0.576-0.595,1.523-0.612,2.119-0.037
				c0.595,0.572,0.611,1.521,0.038,2.116C1429.622,2761.002,1427.581,2761.787,1425.35,2761.787z"/>
		</g>
		<g>
			<g>
				<path fill="#FFCE00" d="M1316,2769.811c0,3.418-2.771,6.189-6.189,6.189h-37.621c-3.418,0-6.189-2.771-6.189-6.189v-37.621
					c0-3.418,2.771-6.189,6.189-6.189h37.621c3.418,0,6.189,2.771,6.189,6.189V2769.811z"/>
				<path d="M1293.313,2739.935h4.292l1.646-2.471h-16.124l-1.646,2.471h2.801c2.836,0,5.453,0.22,6.497,2.593h-7.651l-1.646,2.471
					h9.608v0.016c0,1.778-1.478,4.503-6.354,4.503l-2.357-0.001l0.003,2.309l9.446,11.809h4.207l-9.779-12.217
					c4.026-0.218,7.804-2.467,8.347-6.418h3.005l1.646-2.471h-4.692C1294.368,2741.572,1293.957,2740.65,1293.313,2739.935z"/>
			</g>
			<g>
				
					<line fill="none" stroke="#FFCE00" stroke-width="7" stroke-linecap="round" stroke-miterlimit="10" x1="1299" y1="2748.5" x2="1362" y2="2748.5"/>
				<polyline fill="none" stroke="#FFCE00" stroke-width="7" stroke-linecap="round" stroke-miterlimit="10" points="
					1350.246,2765.591 1364.883,2750.086 1364.883,2750.086 1348.703,2733.474 				"/>
			</g>
		</g>
	</g>
	<g>
		<g>
			<path fill-rule="evenodd" clip-rule="evenodd" fill="#FFFFFF" d="M1445.31,2811.57v2.975h2.976v-2.975
				c0-2.975-2.976-2.975-2.976-2.975h-47.597c0,0-2.972,0-2.972,2.975c-0.087,0,0,29.745,0,29.745c0,2.976,2.972,2.976,2.972,2.976
				h2.976v-2.976h-2.976v-29.745H1445.31z M1415.564,2835.368c1.643,0,2.975-1.332,2.975-2.976c0-1.643-1.332-2.975-2.975-2.975
				s-2.976,1.332-2.976,2.975C1412.589,2834.036,1413.922,2835.368,1415.564,2835.368z M1427.462,2835.368
				c1.643,0,2.972-1.332,2.972-2.976c0-1.643-1.329-2.975-2.972-2.975c-1.644,0-2.976,1.332-2.976,2.975
				C1424.486,2834.036,1425.818,2835.368,1427.462,2835.368z M1439.362,2835.368c1.644,0,2.972-1.332,2.972-2.976
				c0-1.643-1.328-2.975-2.972-2.975c-1.643,0-2.976,1.332-2.976,2.975C1436.387,2834.036,1437.72,2835.368,1439.362,2835.368z
				 M1403.664,2817.518v29.748h7.486l8.221,6.238l1.28-6.238h30.608v-29.748H1403.664z M1403.645,2814.545
				c-1.634,0-2.956,1.352-2.956,2.982v29.729c0,1.649,1.319,2.982,2.972,2.982h5.954l11.661,8.029l1.775-8.029h28.193
				c1.652,0,2.991-1.353,2.991-2.982v-29.729c0-1.65-1.323-2.982-2.956-2.982H1403.645z"/>
		</g>
		<g>
			<g>
				<path fill="#FFCE00" d="M1316,2852.811c0,3.418-2.771,6.189-6.189,6.189h-37.621c-3.418,0-6.189-2.771-6.189-6.189v-37.621
					c0-3.418,2.771-6.189,6.189-6.189h37.621c3.418,0,6.189,2.771,6.189,6.189V2852.811z"/>
				<path d="M1293.313,2822.51h4.292l1.646-2.471h-16.124l-1.646,2.471h2.801c2.836,0,5.453,0.221,6.497,2.594h-7.651l-1.646,2.471
					h9.608c0,0.007,0,0.01,0,0.017c0,1.778-1.478,4.501-6.354,4.501h-2.357l0.003,2.31l9.446,11.808h4.207l-9.779-12.215
					c4.026-0.221,7.804-2.468,8.347-6.42h3.005l1.646-2.471h-4.692C1294.368,2824.15,1293.957,2823.229,1293.313,2822.51z"/>
			</g>
			<g>
				
					<line fill="none" stroke="#FFCE00" stroke-width="7" stroke-linecap="round" stroke-miterlimit="10" x1="1299" y1="2831.5" x2="1362" y2="2831.5"/>
				<polyline fill="none" stroke="#FFCE00" stroke-width="7" stroke-linecap="round" stroke-miterlimit="10" points="
					1350.246,2848.168 1364.883,2832.662 1364.883,2832.662 1348.703,2816.049 				"/>
			</g>
		</g>
	</g>
</g>
<rect x="360" y="2509" width="400" height="499"/>
<text transform="matrix(1 0 0 1 421.3101 2583.9248)"><tspan x="0" y="0" fill="#FFFFFF" font-family="'TradeGothicNextLTPro-Rg'" font-size="33.5616">You can only access </tspan><tspan x="16.562" y="40" fill="#FFFFFF" font-family="'TradeGothicNextLTPro-Rg'" font-size="33.5616">websites selected </tspan><tspan x="52.17" y="80" fill="#FFFFFF" font-family="'TradeGothicNextLTPro-Rg'" font-size="33.5616">by your TSP.</tspan></text>
<g>
	<g>
		<path fill="#FFFFFF" d="M493.431,2810.965h-0.093l-0.402,51.84v15.385v0.248c0,0,0,0,0,0.244
			c-0.042-0.031-0.081-0.062-0.123-0.094l-0.002,0.326l-17.816,26.463l-2.078,3.211c0,1.482,1.235,4.943,2.721,4.943h168.796
			c1.416,0,2.598-3.137,2.707-4.717l-20.5-29.9l-0.195-78.793c-0.356-0.611-1.179-1.02-2.278-1.02h-55.357
			c-0.008-0.035-0.018-0.07-0.026-0.105h-75.354V2810.965z M500.596,2849.52v-6.178v-26.195v-6.182v-3.951
			c0-0.744,0.991-1.486,2.225-1.486h28.917h6.178h25.701h6.181h47.697c1.238,0,2.226,0.742,2.226,1.486v64.75
			c0,1.234-1.235,1.979-2.473,1.73h-24.218h-7.908h-43.497h-1.73h-9.641h-16.063h-8.647h-2.721c-1.234,0-2.225-0.496-2.225-1.486
			V2849.52z"/>
		<rect x="508" y="2812" fill="#FFCE00" width="102" height="15"/>
		<polygon fill="#FFCE00" points="588.582,2833.457 590.804,2856.688 596.489,2853.971 600.937,2862.371 604.892,2860.396 
			600.441,2851.746 606.375,2848.777 		"/>
		<path fill="#FFCE00" d="M508,2866h67v-32h-67V2866z M574.245,2851.002l-0.248-0.244
			C574.245,2850.758,574.245,2851.002,574.245,2851.002z M547.306,2851.002C547.306,2850.758,547.554,2850.758,547.306,2851.002
			L547.306,2851.002z"/>
	</g>
	<g>
		<path fill="none" stroke="#FFCE00" stroke-width="6" stroke-miterlimit="10" d="M567.461,2771.902h-53.514
			c0,0-35.89,3.713-35.89-35.889"/>
		<circle fill="#FFCE00" cx="478" cy="2736.015" r="9.997"/>
		<circle fill="#FFCE00" cx="525" cy="2736.015" r="9.997"/>
		<circle fill="#FFCE00" cx="593" cy="2736.015" r="9.997"/>
	</g>
	<g>
		<path fill="none" stroke="#FFCE00" stroke-width="6" stroke-miterlimit="10" d="M552.597,2771.902h53.514
			c0,0,35.89,3.713,35.89-35.889"/>
		<circle fill="#FFCE00" cx="642" cy="2736.015" r="9.997"/>
	</g>
	<line fill="none" stroke="#FFCE00" stroke-width="6" stroke-miterlimit="10" x1="560" y1="2799" x2="560" y2="2772"/>
	<line fill="none" stroke="#FFCE00" stroke-width="6" stroke-miterlimit="10" x1="525" y1="2772" x2="525" y2="2745"/>
	<line fill="none" stroke="#FFCE00" stroke-width="6" stroke-miterlimit="10" x1="593" y1="2772" x2="593" y2="2745"/>
</g>
<rect x="760" y="2509" width="400" height="499"/>
<text transform="matrix(1 0 0 1 836.1436 2583.9248)"><tspan x="0" y="0" fill="#FFFFFF" font-family="'TradeGothicNextLTPro-Rg'" font-size="33.5616">All other Websites </tspan><tspan x="48.378" y="40" fill="#FFFFFF" font-family="'TradeGothicNextLTPro-Rg'" font-size="33.5616">run slower.</tspan></text>
<g>
	<g>
		<g>
			<rect x="842" y="2743" fill="#FFCE00" width="126" height="16"/>
			<polygon fill="#FFCE00" points="940.834,2768.152 943.552,2796.556 950.503,2793.234 955.94,2803.504 960.778,2801.092 
				955.335,2790.514 962.59,2786.885 			"/>
			<path fill="#FFCE00" d="M842,2808h83v-40h-83V2808z M923.305,2789.604l-0.303-0.299
				C923.305,2789.305,923.305,2789.604,923.305,2789.604z M890.367,2789.604C890.367,2789.305,890.669,2789.305,890.367,2789.604
				L890.367,2789.604z"/>
			<path fill="#FFFFFF" d="M824.508,2726.018v98.172l163.291-0.119l-0.43-0.621c0-0.3,0-0.3,0-0.602v-94.584
				c0-1.211-1.207-2.117-3.023-2.117l-67.694-0.043 M978.908,2814.99c0,1.51-1.512,2.418-3.025,2.114h-29.609h-9.67H883.42h-2.116
				h-11.789h-19.64h-10.573h-3.327c-1.509,0-2.721-0.604-2.721-1.815v-27.498v-7.553v-32.028v-7.558v-4.834
				c0-0.908,1.212-1.815,2.721-1.815h35.357h7.553h31.426h7.557h58.32c1.514,0,2.721,0.907,2.721,1.815V2814.99z"/>
		</g>
	</g>
	<g>
		<g>
			<rect x="1017" y="2860" fill="#FFCE00" width="55" height="7"/>
			<polygon fill="#FFCE00" points="1060.25,2871.196 1061.451,2883.745 1064.523,2882.277 1066.924,2886.815 1069.062,2885.75 
				1066.658,2881.076 1069.863,2879.473 			"/>
			<path fill="#FFCE00" d="M1017,2889h36v-18h-36V2889z M1052.506,2880.674l-0.135-0.132
				C1052.506,2880.542,1052.506,2880.674,1052.506,2880.674z M1037.953,2880.674
				C1037.953,2880.542,1038.086,2880.542,1037.953,2880.674L1037.953,2880.674z"/>
			<path fill="#FFFFFF" d="M1008.855,2852.58v43.375l72.145-0.053l-0.189-0.274c0-0.133,0-0.133,0-0.266v-41.79
				c0-0.535-0.533-0.936-1.336-0.936l-29.908-0.019 M1077.072,2891.891c0,0.667-0.668,1.068-1.336,0.935h-13.082h-4.273h-23.498
				h-0.934h-5.209h-8.678h-4.672h-1.471c-0.666,0-1.201-0.268-1.201-0.803v-12.149v-3.337v-14.15v-3.34v-2.136
				c0-0.401,0.535-0.802,1.201-0.802h15.623h3.336h13.885h3.34h25.766c0.67,0,1.203,0.4,1.203,0.802V2891.891z"/>
		</g>
	</g>
	<g>
		<g>
			<rect x="940" y="2860" fill="#FFCE00" width="55" height="7"/>
			<polygon fill="#FFCE00" points="983.25,2871.196 984.451,2883.745 987.523,2882.277 989.924,2886.815 992.062,2885.75 
				989.658,2881.076 992.863,2879.473 			"/>
			<path fill="#FFCE00" d="M940,2889h36v-18h-36V2889z M975.506,2880.674l-0.135-0.132
				C975.506,2880.542,975.506,2880.674,975.506,2880.674z M960.953,2880.674C960.953,2880.542,961.086,2880.542,960.953,2880.674
				L960.953,2880.674z"/>
			<path fill="#FFFFFF" d="M931.855,2852.58v43.375l72.145-0.053l-0.189-0.274c0-0.133,0-0.133,0-0.266v-41.79
				c0-0.535-0.533-0.936-1.336-0.936l-29.908-0.019 M1000.072,2891.891c0,0.667-0.668,1.068-1.336,0.935h-13.082h-4.273h-23.498
				h-0.935h-5.209h-8.677h-4.672h-1.471c-0.666,0-1.201-0.268-1.201-0.803v-12.149v-3.337v-14.15v-3.34v-2.136
				c0-0.401,0.535-0.802,1.201-0.802h15.623h3.336h13.884h3.34h25.766c0.67,0,1.203,0.4,1.203,0.802V2891.891z"/>
		</g>
	</g>
	<g>
		<g>
			<rect x="863" y="2860" fill="#FFCE00" width="55" height="7"/>
			<polygon fill="#FFCE00" points="906.25,2871.196 907.452,2883.745 910.523,2882.277 912.924,2886.815 915.062,2885.75 
				912.658,2881.076 915.863,2879.473 			"/>
			<path fill="#FFCE00" d="M863,2889h36v-18h-36V2889z M898.506,2880.674l-0.135-0.132
				C898.506,2880.542,898.506,2880.674,898.506,2880.674z M883.953,2880.674C883.953,2880.542,884.086,2880.542,883.953,2880.674
				L883.953,2880.674z"/>
			<path fill="#FFFFFF" d="M854.855,2852.58v43.375l72.146-0.053l-0.189-0.274c0-0.133,0-0.133,0-0.266v-41.79
				c0-0.535-0.533-0.936-1.336-0.936l-29.909-0.019 M923.073,2891.891c0,0.667-0.668,1.068-1.336,0.935h-13.083h-4.272h-23.498
				h-0.935h-5.209h-8.677h-4.672h-1.471c-0.666,0-1.201-0.268-1.201-0.803v-12.149v-3.337v-14.15v-3.34v-2.136
				c0-0.401,0.535-0.802,1.201-0.802h15.623h3.336h13.885h3.34h25.766c0.67,0,1.203,0.4,1.203,0.802V2891.891z"/>
		</g>
	</g>
	<g>
		
			<line fill="none" stroke="#FFCE00" stroke-width="3" stroke-linecap="round" stroke-miterlimit="10" x1="831.5" y1="2853" x2="831.5" y2="2865"/>
		<polyline fill="none" stroke="#FFCE00" stroke-width="3" stroke-linecap="round" stroke-miterlimit="10" points="
			824.508,2860.844 830.989,2866.961 830.989,2866.961 836.829,2861.305 		"/>
		<polyline fill="none" stroke="#FFCE00" stroke-width="3" stroke-linecap="round" stroke-miterlimit="10" points="
			824.508,2868.844 830.989,2874.961 830.989,2874.961 836.829,2869.305 		"/>
	</g>
	<g>
		
			<line fill="none" stroke="#FFCE00" stroke-width="7" stroke-linecap="round" stroke-miterlimit="10" x1="1021.5" y1="2752" x2="1021.5" y2="2729"/>
		<polyline fill="none" stroke="#FFCE00" stroke-width="7" stroke-linecap="round" stroke-miterlimit="10" points="
			1032.998,2737.396 1020.945,2726.018 1020.945,2726.018 1010.086,2736.54 		"/>
	</g>
</g>
<rect x="745.596" y="2424.17" fill="none" width="428.808" height="67.66"/>
<text transform="matrix(1 0 0 1 826.3154 2442.4453)" fill="#FFFFFF" font-family="'TisaOT'" font-size="25">Without Net Neutrality...</text>
<g>
	<rect x="355.5" y="3250.5" fill="none" stroke="#000000" stroke-width="9" stroke-miterlimit="10" width="244" height="243"/>
	<g>
		<path d="M516.977,3353.386l16.194-11.135c2.367-1.629,2.968-4.87,1.339-7.24c-1.629-2.368-4.87-2.969-7.242-1.343l-10.705,7.361
			l0.105,12.533C516.771,3353.503,516.876,3353.452,516.977,3353.386z"/>
		<path d="M527.796,3327.894c2.276-1.758,2.7-5.028,0.942-7.304c-1.753-2.276-5.025-2.701-7.305-0.942l-5.018,3.87l0.109,13.066
			L527.796,3327.894z"/>
		<path d="M527.244,3348.043l-10.559,7.801l0.105,12.488c0.555-0.167,1.093-0.424,1.586-0.788l15.054-11.124
			c2.314-1.708,2.805-4.969,1.094-7.281C532.816,3346.823,529.557,3346.338,527.244,3348.043z"/>
		<path d="M517.39,3383.282l14.511-10.806c2.306-1.718,2.783-4.979,1.064-7.285c-1.718-2.306-4.978-2.785-7.285-1.066l-8.867,6.604
			l0.108,12.845C517.077,3383.481,517.238,3383.395,517.39,3383.282z"/>
		<path d="M464.269,3392.217l-0.283-33.648c-1.773,1.543-4.384,4.174-8.351,8.8l-1.413-10.917
			c8.571-10.643,8.433-18.773,8.383-19.711c-0.111-2.198-1.596-4.089-3.706-4.723c-2.111-0.632-4.389,0.131-5.69,1.907
			l-11.91,16.223c-0.35,0.481-0.622,1.021-0.794,1.597l-4.913,16.524l-0.206,0.566c-2.583,7.069-5.254,14.37-6.2,24.928
			l-6.398,7.933c-0.481,0.598-0.823,1.289-1.004,2.035c-1.864,7.626,7.527,27.79,20.87,31.286c0.447,0.119,0.907,0.174,1.363,0.17
			c0.517-0.005,1.035-0.087,1.532-0.244l14.904-4.731c19.481-0.984,37.629-22.01,45.078-31.833l-35.31,0.298
			C466.97,3398.707,464.299,3395.808,464.269,3392.217z"/>
		<path d="M510.392,3309.059l-40.92,0.344c-1.82,0.016-3.282,1.776-3.263,3.933l0.363,43.336l0.299,35.524
			c0.018,2.159,1.509,3.894,3.329,3.878l37.261-0.313l3.66-0.03c1.819-0.015,3.283-1.776,3.265-3.934l-0.063-7.487l-0.098-11.656
			l-0.035-4.213l-0.09-10.684l-0.029-3.455l-0.097-11.49l-0.037-4.477l-0.108-12.819l-0.106-12.579
			C513.705,3310.778,512.213,3309.043,510.392,3309.059z M487.911,3314.021l6.728-0.056c0.718-0.007,1.307,0.569,1.312,1.291
			c0.007,0.72-0.572,1.306-1.291,1.312l-6.727,0.057c-0.718,0.006-1.305-0.57-1.31-1.289
			C486.617,3314.615,487.192,3314.027,487.911,3314.021z M473.355,3379.123l-0.179-21.273l-0.298-35.457l34.329-0.288l0.077,9.178
			l0.039,4.611l0.361,42.942l-31.775,0.268L473.355,3379.123z M491.716,3392.001c-2.562,0.021-4.655-2.035-4.676-4.598
			c-0.006-0.702,0.157-1.362,0.43-1.96c0.725-1.587,2.305-2.701,4.168-2.717c1.874-0.016,3.492,1.091,4.236,2.688
			c0.27,0.582,0.433,1.225,0.438,1.91C496.334,3389.888,494.276,3391.979,491.716,3392.001z"/>
	</g>
</g>
<g>
	<g>
		<path fill-rule="evenodd" clip-rule="evenodd" d="M887.144,3397.627c5.411-5.769,10.949-9.29,16.956-11.951
			c10.334-4.58,20.296-3.962,29.84,2.605c10.53,7.251,22.296,11.796,34.996,12.87c17.414,1.475,32.939-4.104,46.747-14.624
			c4.204-3.203,8.45-6.127,14.152-4.622c0.671,0.177,1.281,0.59,2.749,1.289c-3.036,3.468-5.669,6.738-8.576,9.746
			c-12.841,13.288-28.05,22.858-46.256,26.375c-21.24,4.106-41.771,2.083-60.474-10.207
			C908.439,3403.299,899.712,3396.982,887.144,3397.627z"/>
		<path fill-rule="evenodd" clip-rule="evenodd" d="M1029.089,3351.938c-6.957,8.567-14.472,15.809-23.866,20.734
			c-14.718,7.717-30.326,10.535-46.705,6.795c-4.405-1.005-8.731-2.769-12.791-4.791c-8.766-4.365-16.163-11.537-26.694-12.263
			c-0.099-0.396-0.195-0.792-0.294-1.188c2.146-1.596,4.185-3.369,6.457-4.76c9.241-5.656,18.344-7.133,28.103-0.463
			c10.071,6.884,21.336,10.383,33.829,9.771c11.425-0.557,21.062-5.116,29.989-11.761
			C1022.108,3350.295,1023.795,3349.948,1029.089,3351.938z"/>
		<path fill-rule="evenodd" clip-rule="evenodd" d="M997.572,3336.854c0.072,8.024-6.183,14.451-14.146,14.533
			c-8.077,0.084-14.514-6.075-14.503-14.104c0.013-9.079,6.177-14.042,14.09-14.626
			C990.656,3322.094,997.502,3329.147,997.572,3336.854z"/>
	</g>
	<rect x="837.5" y="3250.5" fill="none" stroke="#000000" stroke-width="9" stroke-miterlimit="10" width="244" height="243"/>
</g>
<g>
	<path fill-rule="evenodd" clip-rule="evenodd" stroke="#100700" stroke-miterlimit="10" d="M1420.172,3330.604
		c-4.272,4.272,4.564,20.045,19.742,35.222c15.178,15.178,30.95,24.015,35.223,19.742c3.832-3.833-2.896-16.914-15.27-30.521
		l-7.341,9.277c-1.599,1.599-5.312,0.479-8.293-2.502l-0.012-0.011c-2.981-2.982-4.101-6.696-2.502-8.294l9.294-7.353
		C1437.293,3333.609,1424.034,3326.744,1420.172,3330.604z M1417.654,3405.858l9.174-10.528l-4.627-9.459L1417.654,3405.858z
		 M1436.305,3414.706l-6.512-13.303l-11.592,13.303H1436.305z M1434.362,3386.693c-2.52-1.885-4.981-3.992-7.346-6.317l4.621,9.442
		 M1434.608,3395.885l3.69,7.54l-0.834-10.818L1434.608,3395.885z M1479.517,3391.846c-7.819,7.82-21.517,7.712-35.135,1.018
		l1.679,21.838h33.816c2.057,0,3.656,1.536,3.576,3.438c-0.08,1.903-1.811,3.439-3.867,3.439h-84.182
		c-2.056,0-3.655-1.536-3.576-3.439c0.081-1.896,1.812-3.438,3.868-3.438h12.897l10.049-44.208
		c-10.362-14.81-13.487-32.188-6.449-42.042c1.131-1.594,1.404-1.914,2.656-3.164c6.455-6.449,24.477,0.959,41.545,16.611
		l8.088-6.404c-0.999-3.192-0.279-6.809,2.252-9.339c3.621-3.622,9.498-3.622,13.12,0c3.621,3.621,3.621,9.5,0,13.121
		c-2.519,2.519-6.118,3.246-9.305,2.262l-6.421,8.118c15.452,16.977,22.729,34.82,16.32,41.23"/>
	<rect x="1314.5" y="3250.5" fill="none" stroke="#100700" stroke-width="9" stroke-miterlimit="10" width="244" height="243"/>
</g>
<text transform="matrix(1 0 0 1 445.9189 3584.9248)" font-family="'TradeGothicNextLTPro-Bd'" font-size="33.5616">You.</text>
<text transform="matrix(1 0 0 1 911.2222 3584.9248)" font-family="'TradeGothicNextLTPro-Bd'" font-size="33.5616">T.R.A.I</text>
<text transform="matrix(1 0 0 1 1294.0166 3584.9248)" font-family="'TradeGothicNextLTPro-Bd'" font-size="33.5616">Telecom Companies</text>
<line fill="none" stroke="#000000" stroke-width="2" stroke-miterlimit="10" x1="356" y1="3808" x2="1559" y2="3808"/>
<line fill="none" stroke="#FFFFFF" stroke-width="3" stroke-miterlimit="10" x1="356" y1="1983.5" x2="1559" y2="1983.5"/>
<text transform="matrix(1 0 0 1 765.8511 3927.1357)" font-family="'TradeGothicNextLTPro-Rg'" font-size="58.3654" letter-spacing="-1">What is T.R.A.I ?</text>
<text transform="matrix(1 0 0 1 781.8613 4574.3242)" font-family="'Myriad-Bold'" font-size="141.3592" letter-spacing="16">TRAI</text>
<g>
	<path fill-rule="evenodd" clip-rule="evenodd" d="M698.351,4325.522c19.487-20.775,39.433-33.458,61.069-43.042
		c37.22-16.494,73.098-14.27,107.472,9.383c37.924,26.114,80.298,42.482,126.038,46.352c62.716,5.311,118.631-14.777,168.361-52.668
		c15.141-11.534,30.431-22.068,50.969-16.646c2.418,0.636,4.613,2.123,9.902,4.643c-10.936,12.488-20.417,24.267-30.891,35.101
		c-46.245,47.858-101.02,82.324-166.591,94.991c-76.497,14.789-150.44,7.503-217.797-36.762
		C775.049,4345.951,743.618,4323.201,698.351,4325.522z"/>
	<path fill-rule="evenodd" clip-rule="evenodd" d="M1209.572,4160.97c-25.057,30.855-52.119,56.936-85.954,74.678
		c-53.007,27.79-109.222,37.939-168.209,24.473c-15.866-3.62-31.444-9.973-46.066-17.257
		c-31.569-15.723-58.212-41.551-96.141-44.165c-0.354-1.427-0.704-2.852-1.058-4.278c7.729-5.75,15.07-12.137,23.253-17.143
		c33.283-20.373,66.067-25.69,101.213-1.668c36.271,24.791,76.845,37.393,121.835,35.189c41.146-2.008,75.856-18.427,108.006-42.359
		C1184.434,4155.055,1190.505,4153.807,1209.572,4160.97z"/>
	<path fill-rule="evenodd" clip-rule="evenodd" d="M1096.062,4106.649c0.262,28.9-22.264,52.045-50.946,52.342
		c-29.091,0.303-52.273-21.88-52.232-50.799c0.046-32.698,22.245-50.574,50.745-52.675
		C1071.158,4053.485,1095.812,4078.892,1096.062,4106.649z"/>
</g>
<rect x="415.655" y="4689.238" fill="none" width="1088.69" height="213.018"/>
<text transform="matrix(1 0 0 1 504.4336 4725.7881)"><tspan x="0" y="0" font-family="'TisaOT'" font-size="50" letter-spacing="-1">The Telecom Regulatory Authority of India </tspan><tspan x="-6.149" y="70" font-family="'TisaOT'" font-size="50" letter-spacing="-1">(T.R.A.I) is the independent regulator of the </tspan><tspan x="44.6" y="140" font-family="'TisaOT'" font-size="50" letter-spacing="-1">telecommunications business in India.</tspan></text>
<g>
	<rect x="360" y="5534" fill="#FFFFFF" width="106" height="367"/>
	<rect x="360" y="5534" fill="#FFFFFF" width="1200" height="65"/>
	<rect x="466" y="5599" fill="#FFFFFF" width="1094" height="106"/>
	<rect x="360" y="5534" fill="#FFFFFF" width="1200" height="367"/>
	<line fill="none" stroke="#FFCE00" stroke-width="7" stroke-miterlimit="10" x1="412.5" y1="5534" x2="412.5" y2="5901"/>
	<rect x="360" y="5599" fill="none" width="106" height="106"/>
	<circle fill="#FFCE00" cx="413" cy="5651.999" r="12.968"/>
	<text transform="matrix(1 0 0 1 466 5661.1816)" font-family="'TisaOT-MediIta'" font-size="29.3933">Airtel Zero is launched</text>
	<rect x="466" y="5729" fill="#FFFFFF" width="547" height="172"/>
	<g>
		<text transform="matrix(1 0 0 1 465.9995 5614.5156)" font-family="'TradeGothicNextLTPro-Rg'" font-size="18.063">April 6, 2015</text>
	</g>
	<g>
		<rect x="466" y="5729.35" fill="none" width="471.592" height="172.141"/>
		<text transform="matrix(1 0 0 1 466 5743.9697)"><tspan x="0" y="0" font-family="'TisaOT'" font-size="20">Airtel launched a new marketing platform, Airtel Zero, </tspan><tspan x="0" y="28" font-family="'TisaOT'" font-size="20">allowing customers to access apps of participating app </tspan><tspan x="0" y="56" font-family="'TisaOT'" font-size="20">developers at zero data charges. It instantly faced </tspan><tspan x="0" y="84" font-family="'TisaOT'" font-size="20">criticism from netizens for violating net neutrality.</tspan></text>
	</g>
	<rect x="1013" y="5729" fill="#FFFFFF" width="547" height="172"/>
	<rect x="1013" y="5761" fill="#FFFFFF" width="547" height="140"/>
	<rect x="1013" y="5761" fill="#FFFFFF" width="273" height="140"/>
	<rect x="1286" y="5761" fill="#FFFFFF" width="274" height="140"/>
	<g>
		<g>
			<rect x="1013" y="5729" fill="#FFFFFF" width="273" height="41"/>
			<path fill="#FFCE00" d="M1013,5754c0,2.762,2.238,5,5,5h20c2.762,0,5-2.238,5-5v-20c0-2.762-2.238-5-5-5h-20
				c-2.762,0-5,2.238-5,5V5754z"/>
			<text transform="matrix(1 0 0 1 1059 5747.3047)" font-family="'TradeGothicNextLTPro-Rg'" font-size="10">Airtel Zero</text>
		</g>
		<g>
			<rect x="1013" y="5770" fill="#FFFFFF" width="273" height="41"/>
			<path fill="#FFCE00" d="M1013,5795c0,2.762,2.238,5,5,5h20c2.762,0,5-2.238,5-5v-20c0-2.762-2.238-5-5-5h-20
				c-2.762,0-5,2.238-5,5V5795z"/>
			<text transform="matrix(1 0 0 1 1059 5788.3047)" font-family="'TradeGothicNextLTPro-Rg'" font-size="10">Another Related Article</text>
		</g>
		<g>
			<rect x="1013" y="5811" fill="#FFFFFF" width="273" height="41"/>
			<path fill="#FFCE00" d="M1013,5836c0,2.762,2.238,5,5,5h20c2.762,0,5-2.238,5-5v-20c0-2.762-2.238-5-5-5h-20
				c-2.762,0-5,2.238-5,5V5836z"/>
			<text transform="matrix(1 0 0 1 1059 5829.3047)" font-family="'TradeGothicNextLTPro-Rg'" font-size="10">Another Related Article</text>
		</g>
	</g>
</g>
<g>
	<rect y="6165" fill="none" width="1920" height="174"/>
	
		<text transform="matrix(1 0 0 1 480.8501 6274.0596)" fill="#FFFFFF" font-family="'TradeGothicNextLTPro-Hv'" font-size="39.4848">THE DEBATE</text>
	<g>
		<circle fill="#FFCE00" cx="403.378" cy="6253.7" r="47.365"/>
		
			<text transform="matrix(0.9238 -0.3828 0.3828 0.9238 383.9902 6265.1846)" font-family="'NeuzeitGro-Bla'" font-size="13.2386" letter-spacing="2">F.A.Q</text>
	</g>
	<line fill="none" stroke="#FFCE00" stroke-width="2" stroke-miterlimit="10" x1="356" y1="6339" x2="1559" y2="6339"/>
</g>
<rect x="357" y="6339" width="1202" height="1202"/>
<rect x="958" y="6339" fill="#FFFFFF" width="601" height="813"/>
<rect x="357" y="6339" fill="#FFCE00" width="601" height="1202"/>
<text transform="matrix(1 0 0 1 497.8066 6432.917)" font-family="'TradeGothicNextLTPro-Hv'" font-size="39.4848">PRO NEUTRALITY</text>
<text transform="matrix(1 0 0 1 1126.2871 6432.917)" font-family="'TradeGothicNextLTPro-Hv'" font-size="39.4848">PRO TELECOM</text>
<g>
	<rect x="403.378" y="6515.238" fill="none" width="513.622" height="636.762"/>
	<text transform="matrix(1 0 0 1 403.3779 6544.4775)"><tspan x="0" y="0" font-family="'TisaOT'" font-size="40">&quot;Net neutrality creates an </tspan><tspan x="0" y="60" font-family="'TisaOT'" font-size="40">open and level playing field </tspan><tspan x="0" y="120" font-family="'TisaOT'" font-size="40">that facilitates innovation, </tspan><tspan x="0" y="180" font-family="'TisaOT'" font-size="40">adoption and inclusion. The </tspan><tspan x="0" y="240" font-family="'TisaOT'" font-size="40">other key priority is the </tspan><tspan x="0" y="300" font-family="'TisaOT'" font-size="40">proliferation of an affordable </tspan><tspan x="0" y="360" font-family="'TisaOT'" font-size="40">telecom infrastructure. These </tspan><tspan x="0" y="420" font-family="'TisaOT'" font-size="40">essential building blocks of </tspan><tspan x="0" y="480" font-family="'TisaOT'" font-size="40">the digital revolution are not </tspan><tspan x="0" y="540" font-family="'TisaOT'" font-size="40">contradictory and can and </tspan><tspan x="0" y="600" font-family="'TisaOT'" font-size="40">need to be synergised,&quot;</tspan></text>
</g>
<g>
	<text transform="matrix(1 0 0 1 403.3779 7205.4814)"><tspan x="0" y="0" font-family="'TisaOT-Bold'" font-size="15">Rentala Chandrashekhar </tspan><tspan x="0" y="15" font-family="'TradeGothicNextLTPro-Rg'" font-size="10">Nasscom President </tspan></text>
</g>
<rect x="360" y="7702" width="400" height="499"/>
<rect x="760" y="7702" width="400" height="499"/>
<text transform="matrix(1 0 0 1 360 7647.1797)" fill="#FFFFFF" font-family="'TradeGothicNextLTPro-Hv'" font-size="20">TOP DISCUSSIONS</text>
<g>
	<rect x="360" y="7702" width="400" height="61"/>
	<path fill="#FFCE00" d="M360,7727c0,2.762,2.238,5,5,5h20c2.762,0,5-2.238,5-5v-20c0-2.762-2.238-5-5-5h-20c-2.762,0-5,2.238-5,5
		V7727z"/>
	<text transform="matrix(1 0 0 1 406 7717.4609)" fill="#FFCE00" font-family="'TradeGothicNextLTPro-Rg'" font-size="18">How to explain net neutrality to a layman?</text>
	
		<text transform="matrix(1 0 0 1 406 7740)" fill="#FFCE00" font-family="'TradeGothicNextLTPro-Bd'" font-size="10" letter-spacing="1">Reddit India</text>
</g>
<g>
	<rect x="760" y="7702" width="400" height="61"/>
	<path fill="#FFCE00" d="M760,7727c0,2.762,2.238,5,5,5h20c2.762,0,5-2.238,5-5v-20c0-2.762-2.238-5-5-5h-20c-2.762,0-5,2.238-5,5
		V7727z"/>
	<text transform="matrix(1 0 0 1 806 7717.4609)" fill="#FFCE00" font-family="'TradeGothicNextLTPro-Rg'" font-size="18">How to explain net neutrality to a layman?</text>
	
		<text transform="matrix(1 0 0 1 806 7740)" fill="#FFCE00" font-family="'TradeGothicNextLTPro-Bd'" font-size="10" letter-spacing="1">Reddit India</text>
</g>
<g>
	<rect x="1162" y="7702" width="400" height="61"/>
	<path fill="#FFCE00" d="M1162,7727c0,2.762,2.238,5,5,5h20c2.762,0,5-2.238,5-5v-20c0-2.762-2.238-5-5-5h-20c-2.762,0-5,2.238-5,5
		V7727z"/>
	<text transform="matrix(1 0 0 1 1208 7717.4609)" fill="#FFCE00" font-family="'TradeGothicNextLTPro-Rg'" font-size="18">How to explain net neutrality to a layman?</text>
	
		<text transform="matrix(1 0 0 1 1208 7740)" fill="#FFCE00" font-family="'TradeGothicNextLTPro-Bd'" font-size="10" letter-spacing="1">Reddit India</text>
</g>
<g>
	<rect x="360" y="7772" width="400" height="61"/>
	<path fill="#FFCE00" d="M360,7797c0,2.762,2.238,5,5,5h20c2.762,0,5-2.238,5-5v-20c0-2.762-2.238-5-5-5h-20c-2.762,0-5,2.238-5,5
		V7797z"/>
	<text transform="matrix(1 0 0 1 406 7787.4609)" fill="#FFCE00" font-family="'TradeGothicNextLTPro-Rg'" font-size="18">How to explain net neutrality to a layman?</text>
	
		<text transform="matrix(1 0 0 1 406 7810)" fill="#FFCE00" font-family="'TradeGothicNextLTPro-Bd'" font-size="10" letter-spacing="1">Reddit India</text>
</g>
<g>
	<rect x="760" y="7772" width="400" height="61"/>
	<path fill="#FFCE00" d="M760,7797c0,2.762,2.238,5,5,5h20c2.762,0,5-2.238,5-5v-20c0-2.762-2.238-5-5-5h-20c-2.762,0-5,2.238-5,5
		V7797z"/>
	<text transform="matrix(1 0 0 1 806 7787.4609)" fill="#FFCE00" font-family="'TradeGothicNextLTPro-Rg'" font-size="18">How to explain net neutrality to a layman?</text>
	
		<text transform="matrix(1 0 0 1 806 7810)" fill="#FFCE00" font-family="'TradeGothicNextLTPro-Bd'" font-size="10" letter-spacing="1">Reddit India</text>
</g>
<g>
	<rect x="1162" y="7772" width="400" height="61"/>
	<path fill="#FFCE00" d="M1162,7797c0,2.762,2.238,5,5,5h20c2.762,0,5-2.238,5-5v-20c0-2.762-2.238-5-5-5h-20c-2.762,0-5,2.238-5,5
		V7797z"/>
	<text transform="matrix(1 0 0 1 1208 7787.4609)" fill="#FFCE00" font-family="'TradeGothicNextLTPro-Rg'" font-size="18">How to explain net neutrality to a layman?</text>
	
		<text transform="matrix(1 0 0 1 1208 7810)" fill="#FFCE00" font-family="'TradeGothicNextLTPro-Bd'" font-size="10" letter-spacing="1">Reddit India</text>
</g>
</svg>
