<?xml version="1.0" encoding="utf-8"?>
<!-- Generator: Adobe Illustrator 16.0.0, SVG Export Plug-In . SVG Version: 6.00 Build 0)  -->
<!DOCTYPE svg PUBLIC "-//W3C//DTD SVG 1.1//EN" "http://www.w3.org/Graphics/SVG/1.1/DTD/svg11.dtd">
<svg version="1.1" xmlns="http://www.w3.org/2000/svg" xmlns:xlink="http://www.w3.org/1999/xlink" x="0px" y="0px" width="574px"
	 height="543px" viewBox="0 0 574 543" enable-background="new 0 0 574 543" xml:space="preserve">
<g id="Layer_1">
	<g>
		<rect fill="#FFFFFF" width="574" height="543"/>
		<g>
			<path d="M404.49,165H392v-8.834c0-3.754-2.25-6.792-6-6.792c-3.752,0-6,3.038-6,6.792V165H193v-8.834
				c0-3.754-2.252-6.792-6-6.792c-3.754,0-6,3.038-6,6.792V165h-13.009c-6.239,0-11.991,5.291-11.991,11.531v205.944
				c0,6.239,5.752,10.524,11.991,10.524H404.49c6.238,0,12.51-4.285,12.51-10.524V176.531C417,170.291,410.729,165,404.49,165z
				 M400,381H169V212h231V381z"/>
			<rect x="170.756" y="179.076" fill="#FFCE00" width="231.972" height="20.369"/>
			<g>
				<path d="M186.106,258.666h21.73c2.226,0,4.03-1.809,4.03-4.035V232.9c0-2.227-1.805-4.033-4.033-4.033h-21.73
					c-2.225,0-4.034,1.807-4.034,4.039v21.727C182.069,256.857,183.879,258.666,186.106,258.666z"/>
				<path d="M186.106,302.217h21.73c2.226,0,4.03-1.807,4.03-4.033v-21.725c0-2.229-1.805-4.037-4.033-4.037h-21.73
					c-2.225,0-4.034,1.809-4.034,4.037v21.725C182.069,300.41,183.879,302.217,186.106,302.217z"/>
				<path d="M229.661,302.217h21.729c2.228,0,4.03-1.807,4.03-4.033v-21.725c0-2.229-1.803-4.037-4.034-4.037h-21.727
					c-2.229,0-4.034,1.809-4.034,4.037v21.725C225.625,300.41,227.431,302.217,229.661,302.217z"/>
				<path d="M273.215,258.666h21.729c2.223,0,4.03-1.809,4.03-4.035V232.9c0-2.227-1.808-4.033-4.037-4.033h-21.729
					c-2.223,0-4.03,1.807-4.03,4.039v21.727C269.178,256.857,270.985,258.666,273.215,258.666z"/>
				<path d="M229.661,258.666h21.729c2.228,0,4.03-1.809,4.03-4.035V232.9c0-2.227-1.803-4.033-4.034-4.033h-21.727
					c-2.229,0-4.034,1.807-4.034,4.039v21.727C225.625,256.857,227.431,258.666,229.661,258.666z"/>
				<path d="M273.216,302.217h21.729c2.229,0,4.03-1.807,4.03-4.033v-21.725c0-2.229-1.801-4.037-4.034-4.037h-21.726
					c-2.229,0-4.035,1.809-4.035,4.037v21.725C269.18,300.41,270.985,302.217,273.216,302.217z"/>
				<path d="M186.106,344.99h21.73c2.226,0,4.03-1.807,4.03-4.033v-21.725c0-2.229-1.805-4.037-4.033-4.037h-21.73
					c-2.225,0-4.034,1.809-4.034,4.037v21.725C182.069,343.184,183.879,344.99,186.106,344.99z"/>
				<path d="M229.661,344.99h21.729c2.228,0,4.03-1.807,4.03-4.033v-21.725c0-2.229-1.803-4.037-4.034-4.037h-21.727
					c-2.229,0-4.034,1.809-4.034,4.037v21.725C225.625,343.184,227.431,344.99,229.661,344.99z"/>
				<path d="M273.216,344.99h21.729c2.229,0,4.03-1.807,4.03-4.033v-21.725c0-2.229-1.801-4.037-4.034-4.037h-21.726
					c-2.229,0-4.035,1.809-4.035,4.037v21.725C269.18,343.184,270.985,344.99,273.216,344.99z"/>
				<path d="M318.266,344.99h21.725c2.23,0,4.032-1.807,4.032-4.033v-21.725c0-2.229-1.802-4.037-4.034-4.037h-21.727
					c-2.229,0-4.033,1.809-4.033,4.037v21.725C314.229,343.184,316.032,344.99,318.266,344.99z"/>
				<path d="M364.092,302.217h21.729c2.229,0,4.03-1.807,4.03-4.033v-21.725c0-2.229-1.802-4.037-4.034-4.037H364.09
					c-2.229,0-4.034,1.809-4.034,4.037v21.725C360.056,300.41,361.861,302.217,364.092,302.217z"/>
				<path d="M364.092,258.666h21.729c2.229,0,4.03-1.809,4.03-4.035V232.9c0-2.227-1.802-4.033-4.034-4.033H364.09
					c-2.229,0-4.034,1.807-4.034,4.039v21.727C360.056,256.857,361.861,258.666,364.092,258.666z"/>
				<g>
					<path fill="#FFCE00" d="M329.122,285.729c4.977,0,8.824,2.912,8.824,8.447c0,4.693-3.191,8.445-8.824,8.445
						c-5.628,0-8.82-3.752-8.82-8.445C320.302,288.641,324.151,285.729,329.122,285.729z M321.711,228.867h14.828l-1.129,51.139
						h-12.572L321.711,228.867z"/>
				</g>
			</g>
		</g>
	</g>
</g>
<g id="Layer_2">
</g>
</svg>
