<?xml version="1.0" encoding="utf-8"?>
<!-- Generator: Adobe Illustrator 16.0.0, SVG Export Plug-In . SVG Version: 6.00 Build 0)  -->
<!DOCTYPE svg PUBLIC "-//W3C//DTD SVG 1.1//EN" "http://www.w3.org/Graphics/SVG/1.1/DTD/svg11.dtd">
<svg version="1.1" xmlns="http://www.w3.org/2000/svg" xmlns:xlink="http://www.w3.org/1999/xlink" x="0px" y="0px" width="574px"
	 height="543px" viewBox="0 0 574 543" enable-background="new 0 0 574 543" xml:space="preserve">
<g id="Layer_1">
	<g>
		<g>
			<rect fill="#FFFFFF" width="574" height="543"/>
		</g>
		<g>
			<g>
				<g>
					<g>
						<polygon fill="#FFCE00" points="366,380 206,380 206,222.029 234.879,194.205 264.139,166 366,166 						"/>
						<path d="M366,386H206l-6-6V222.029l1.837-4.32l58.138-56.028l4.164-1.681H366l6,6v214L366,386z M212,374h148V172h-93.44
							L212,224.58V374z"/>
					</g>
					<g>
						<polygon points="264,164.876 264,222 206.987,222 						"/>
					</g>
				</g>
				<g>
					<path d="M292.263,325.08l-3.652-13.274h-16.295l-3.652,13.274H258.9l15.171-50.43h13.135l15.241,50.43H292.263z
						 M274.563,303.729h11.8l-5.83-21.071h-0.141L274.563,303.729z"/>
					<path d="M306.378,282.728v-8.568h8.99v8.568H306.378z M306.589,325.08v-36.522h8.498v36.522H306.589z"/>
				</g>
			</g>
			<g>
				<g>
					<circle fill="#FFFFFF" cx="367" cy="379" r="45.5"/>
				</g>
				<g>
					<g>
						<g>
							<path d="M367,414.311c-4.766,0-9.391-0.934-13.746-2.775c-4.205-1.779-7.98-4.324-11.223-7.566s-5.787-7.018-7.566-11.223
								c-1.842-4.355-2.775-8.98-2.775-13.746s0.934-9.39,2.775-13.746c1.779-4.205,4.324-7.98,7.566-11.223
								c3.242-3.241,7.018-5.787,11.223-7.566c4.355-1.842,8.98-2.775,13.746-2.775s9.391,0.934,13.746,2.775
								c4.205,1.779,7.98,4.325,11.223,7.566c3.241,3.242,5.787,7.018,7.566,11.223c1.842,4.356,2.775,8.98,2.775,13.746
								s-0.934,9.391-2.775,13.746c-1.779,4.205-4.325,7.98-7.566,11.223c-3.242,3.242-7.018,5.787-11.223,7.566
								C376.391,413.377,371.766,414.311,367,414.311z M367,350.291c-3.877,0-7.637,0.758-11.174,2.254
								c-3.418,1.446-6.489,3.518-9.127,6.154c-2.637,2.638-4.709,5.709-6.154,9.127c-1.496,3.537-2.254,7.297-2.254,11.174
								s0.758,7.637,2.254,11.174c1.445,3.418,3.518,6.489,6.154,9.127c2.638,2.638,5.709,4.709,9.127,6.154
								c3.537,1.496,7.297,2.255,11.174,2.255s7.637-0.759,11.174-2.255c3.418-1.445,6.489-3.517,9.127-6.154
								c2.637-2.638,4.708-5.709,6.154-9.127c1.496-3.537,2.254-7.297,2.254-11.174s-0.758-7.637-2.254-11.174
								c-1.446-3.418-3.518-6.489-6.154-9.127c-2.638-2.637-5.709-4.708-9.127-6.154C374.637,351.049,370.877,350.291,367,350.291z"
								/>
						</g>
					</g>
					<g>
						<g>
							<path d="M366.709,358.994c-9.457,0-17.387,6.62-19.424,15.495h9.529c1.746-3.782,5.529-6.401,9.895-6.401
								c6.038,0,10.912,4.874,10.912,10.912s-4.874,10.913-10.912,10.913c-4.365,0-8.148-2.619-9.895-6.329h-9.529
								c2.037,8.803,9.967,15.422,19.424,15.422c11.059,0,20.006-8.947,20.006-20.006S377.768,358.994,366.709,358.994z"/>
						</g>
					</g>
				</g>
			</g>
		</g>
	</g>
</g>
<g id="Layer_2">
</g>
</svg>
