<?xml version="1.0" encoding="utf-8"?>
<!-- Generator: Adobe Illustrator 16.0.0, SVG Export Plug-In . SVG Version: 6.00 Build 0)  -->
<!DOCTYPE svg PUBLIC "-//W3C//DTD SVG 1.1//EN" "http://www.w3.org/Graphics/SVG/1.1/DTD/svg11.dtd">
<svg version="1.1" id="Layer_1" xmlns="http://www.w3.org/2000/svg" xmlns:xlink="http://www.w3.org/1999/xlink" x="0px" y="0px"
	 width="1919.119px" height="1208.361px" viewBox="0 0 1919.119 1208.361" enable-background="new 0 0 1919.119 1208.361"
	 xml:space="preserve">
<g>
	<g>
		<defs>
			<rect id="SVGID_1_" width="1919" height="1578"/>
		</defs>
		<clipPath id="SVGID_2_">
			<use xlink:href="#SVGID_1_"  overflow="visible"/>
		</clipPath>
		<g clip-path="url(#SVGID_2_)">
			<g>
				<g>
					<g>
						<path fill="#FFCE00" d="M332.881,373.609c19.714-25.947,42.92-49.129,68.873-68.862l-420.859-420.86
							c-19.013-19.036-49.867-19.036-68.88,0c-19.024,19-19.024,49.844,0,68.862L332.881,373.609z"/>
						<path fill="#FFCE00" d="M607.432,231.805c16.365,0,45.568,1.112,57.568,3.241v-434.892c0-26.908-31.1-48.705-58-48.705
							s-58,21.796-58,48.705v434.987C579,232.947,590.734,231.805,607.432,231.805z"/>
						<path fill="#FFCE00" d="M904.464,373.699l196.062-196.061c19-19.031,19-49.861,0-68.892c-19.021-19.012-49.88-19.012-68.88,0
							L835.596,304.808C861.544,324.551,884.714,347.727,904.464,373.699z"/>
						<path fill="#FFCE00" d="M259.831,590.564c0-15.658,1.021-15.564,2.965-46.564h-753.061c-26.907,0-48.703,22.074-48.703,49
							c0,26.914,21.796,49,48.703,49h753.743C261.093,624,259.831,607.938,259.831,590.564z"/>
						<path fill="#FFCE00" d="M1091.616,544H974.484c1.94,31,2.962,30.906,2.962,46.564c0,17.374-1.253,33.436-3.647,51.436h117.817
							c26.926,0,48.716-22.086,48.716-49C1140.332,566.074,1118.542,544,1091.616,544z"/>
						<path fill="#FFCE00" d="M332.852,807.528l-636.144,636.161c-19.014,19-19.014,49.832,0,68.86
							c9.51,9.517,21.981,14.285,34.442,14.285s24.915-4.771,34.448-14.285l636.13-636.144
							C375.765,856.693,352.571,833.524,332.852,807.528z"/>
					</g>
				</g>
			</g>
			<g>
				<path d="M386.299,590.602c0,128.999,104.565,233.569,233.57,233.569c128.999,0,233.568-104.57,233.568-233.569
					c0-129-104.569-233.568-233.568-233.568C490.864,357.032,386.299,461.601,386.299,590.602z"/>
				<g>
					<path fill="#FFFFFF" d="M647.881,489.696h40.825l15.636-23.5H551.031l-15.635,23.5h26.603c26.979,0,51.859,2.102,61.781,24.623
						h-72.749l-15.635,23.517h91.342c0,0.057,0,0.091,0,0.157c0,16.888-14.045,42.812-60.407,42.812l-22.427-0.029l0.029,21.957
						l89.83,112.279h39.992l-92.979-116.16c38.264-2.052,74.177-23.446,79.336-61.016h28.593l15.636-23.517h-44.637
						C657.917,505.271,654,496.507,647.881,489.696z"/>
				</g>
			</g>
		</g>
	</g>
</g>
</svg>
