<?xml version="1.0" encoding="utf-8"?>
<!-- Generator: Adobe Illustrator 16.0.0, SVG Export Plug-In . SVG Version: 6.00 Build 0)  -->
<!DOCTYPE svg PUBLIC "-//W3C//DTD SVG 1.1//EN" "http://www.w3.org/Graphics/SVG/1.1/DTD/svg11.dtd">
<svg version="1.1" id="Layer_1" xmlns="http://www.w3.org/2000/svg" xmlns:xlink="http://www.w3.org/1999/xlink" x="0px" y="0px"
	 width="1920px" height="1578px" viewBox="0 0 1920 1578" enable-background="new 0 0 1920 1578" xml:space="preserve">
<g>
	<rect x="1" fill="#FFCE00" width="1919" height="1578"/>
	<g>
		<g>
			<defs>
				<rect id="SVGID_1_" width="1919" height="1578"/>
			</defs>
			<clipPath id="SVGID_2_">
				<use xlink:href="#SVGID_1_"  overflow="visible"/>
			</clipPath>
			<g clip-path="url(#SVGID_2_)">
				<g>
					<g>
						<polygon points="296.607,1299.191 360.37,1299.191 360.37,1267.333 264.753,1267.333 264.753,1362.906 296.607,1362.906 
							296.607,1331.053 						"/>
						<path d="M303.59,1369.888h-45.818v-109.536h109.58v45.82H303.59V1369.888z M271.736,1355.924h17.894v-63.714h63.76v-17.896
							h-81.653L271.736,1355.924L271.736,1355.924z"/>
					</g>
					<g>
						<rect x="296.607" y="1362.906" width="31.852" height="31.854"/>
						<path d="M335.439,1401.743h-45.81v-45.819h45.81V1401.743z M303.59,1387.779h17.889v-17.892H303.59V1387.779z"/>
					</g>
					<g>
						<polygon points="360.37,1394.759 328.459,1394.759 328.459,1458.509 360.37,1458.509 360.37,1426.658 						"/>
						<path d="M367.352,1465.49h-45.873v-77.711h45.873V1465.49z M335.439,1451.527h17.95v-49.785h-17.95V1451.527z"/>
					</g>
					<g>
						<polygon points="392.215,1458.509 360.37,1458.509 360.37,1521.456 392.215,1521.456 392.215,1490.367 						"/>
						<path d="M399.197,1528.436H353.39v-76.908h45.808L399.197,1528.436L399.197,1528.436z M367.352,1514.474h17.881v-48.982
							h-17.881V1514.474z"/>
					</g>
					<g>
						<polygon points="424.071,1521.456 392.215,1521.456 392.215,1585.162 424.071,1585.162 424.071,1553.304 						"/>
						<path d="M431.053,1592.143h-45.82v-77.669h45.82V1592.143z M399.197,1578.182h17.895v-49.746h-17.895V1578.182z"/>
					</g>
					<g>
						<polygon points="741.938,1521.456 741.938,1585.162 773.794,1585.162 773.794,1490.367 741.938,1490.367 						"/>
						<path d="M780.775,1592.143h-45.821v-108.757h45.821V1592.143z M748.918,1578.182h17.896v-80.833h-17.896V1578.182z"/>
					</g>
					<g>
						<rect x="773.794" y="1267.333" width="31.086" height="223.033"/>
						<path d="M811.86,1497.349h-45.048v-236.995h45.048V1497.349z M780.775,1483.386h17.126v-209.071h-17.126V1483.386z"/>
					</g>
					<g>
						<rect x="741.938" y="1235.444" width="31.856" height="31.842"/>
						<path d="M780.775,1274.268h-45.821v-45.805h45.821V1274.268z M748.918,1260.306h17.896v-17.882h-17.896V1260.306z"/>
					</g>
					<g>
						<polygon points="678.177,1267.333 678.177,1331.053 710.093,1331.053 710.093,1235.444 741.938,1235.444 741.938,1203.587 
							678.177,1203.587 678.177,1235.444 						"/>
						<path d="M717.075,1338.035h-45.88v-141.432h77.723v45.819h-31.843V1338.035z M685.159,1324.072h17.953v-95.609h31.842v-17.896
							h-49.795V1324.072z"/>
					</g>
					<g>
						<polygon points="582.621,1235.444 582.621,1299.191 614.479,1299.191 614.479,1203.587 678.177,1203.587 678.177,1171.736 
							582.621,1171.736 582.621,1203.587 						"/>
						<path d="M621.457,1306.172H575.64v-141.419H685.16v45.812h-63.702L621.457,1306.172L621.457,1306.172z M589.6,1292.21h17.897
							v-95.604h63.698v-17.889H589.6V1292.21z"/>
					</g>
					<g>
						<polygon points="487.01,1076.938 487.01,1299.191 518.868,1299.191 518.868,1171.736 582.621,1171.736 582.621,1140.646 
							518.868,1140.646 518.868,1013.188 487.01,1013.188 487.01,1045.038 						"/>
						<path d="M525.848,1306.172H480.03v-299.965h45.817v127.459H589.6v45.05h-63.752V1306.172L525.848,1306.172z M493.991,1292.21
							h17.896v-127.457h63.752v-17.125h-63.752v-127.461h-17.896V1292.21z"/>
					</g>
					<g>
						<polygon points="487.01,1013.188 487.01,981.33 424.071,981.33 424.071,1013.188 455.16,1013.188 						"/>
						<path d="M493.991,1020.167h-76.899V974.35h76.899V1020.167z M431.053,1006.208h48.978V988.31h-48.978V1006.208z"/>
					</g>
					<g>
						<polygon points="392.215,1331.053 424.071,1331.053 424.071,1013.188 392.215,1013.188 392.215,1299.191 360.37,1299.191 
							360.37,1331.053 						"/>
						<path d="M431.053,1338.035H353.39v-45.825h31.843v-286.002h45.82V1338.035z M367.352,1324.072h49.74v-303.905h-17.895v286.005
							h-31.846L367.352,1324.072L367.352,1324.072z"/>
					</g>
				</g>
				<path d="M762.52-98.554c0.629-28.211-9.75-54.942-29.262-75.325c-19.491-20.375-45.765-31.967-73.954-32.57l-2.378-0.037
					c-56.938,0-104.271,46.314-105.526,103.255c-0.641,28.207,9.752,54.977,29.255,75.357
					c12.972,13.561,29.098,22.778,46.623,27.895l-0.368,525.516c0,88.405-71.938,160.373-160.378,160.373
					s-160.37-71.953-160.37-160.373c0-11.775,1.284-23.381,3.789-34.66l61.412-0.333L319.708,361.07
					c-46.83,41.823-73.655,101.764-73.655,164.485c0,121.531,98.912,220.453,220.479,220.453
					c121.575,0,220.485-98.922,220.485-220.453l-0.39-525.667C729.387-12.953,761.47-51.955,762.52-98.554z M656.977-54.649
					l-1.067-0.016c-12.347-0.275-23.879-5.341-32.393-14.261c-8.512-8.904-13.077-20.636-12.786-32.979
					c0.537-24.95,21.246-45.217,47.245-45.217l0,0c12.347,0.276,23.854,5.335,32.39,14.263c8.51,8.933,13.104,20.654,12.802,33.016
					C702.623-74.938,681.893-54.649,656.977-54.649z"/>
			</g>
		</g>
	</g>
</g>
<g>
	<g>
		<defs>
			<rect id="SVGID_3_" y="1766" width="1919" height="1578"/>
		</defs>
		<clipPath id="SVGID_4_">
			<use xlink:href="#SVGID_3_"  overflow="visible"/>
		</clipPath>
		<g clip-path="url(#SVGID_4_)">
			<g>
				<g>
					<g>
						<path fill="#FFCE00" d="M607.432,1997.805c16.365,0,45.568,1.112,57.568,3.241v-434.892c0-26.908-31.1-48.705-58-48.705
							s-58,21.796-58,48.705v434.986C579,1998.947,590.734,1997.805,607.432,1997.805z"/>
					</g>
				</g>
			</g>
		</g>
	</g>
</g>
</svg>
