<?xml version="1.0" encoding="utf-8"?>
<!-- Generator: Adobe Illustrator 16.0.0, SVG Export Plug-In . SVG Version: 6.00 Build 0)  -->
<!DOCTYPE svg PUBLIC "-//W3C//DTD SVG 1.1//EN" "http://www.w3.org/Graphics/SVG/1.1/DTD/svg11.dtd">
<svg version="1.1" id="Layer_1" xmlns="http://www.w3.org/2000/svg" xmlns:xlink="http://www.w3.org/1999/xlink" x="0px" y="0px"
	 width="1920px" height="1578px" viewBox="0 0 1920 1578" enable-background="new 0 0 1920 1578" xml:space="preserve">
<g>
	<rect fill-rule="evenodd" clip-rule="evenodd" width="1920" height="1578"/>
	<g>
		<g>
			<path fill="#FFFFFF" d="M291.828,1014.208c0,2.517,1.072,3.592,3.588,3.592h131.151c5.746,0,8.261,2.874,8.261,8.268v21.201
				c0,5.746-2.515,8.621-8.261,8.621h-168.87c-5.755,0-8.629-2.875-8.629-8.621v-82.644c0-13.655,3.595-22.64,14.373-33.415
				l5.389-5.392c11.859-11.856,20.841-15.81,35.932-15.81h67.909c5.39,0,8.983-1.434,13.293-5.751l0.721-0.717
				c4.312-4.309,5.39-7.904,5.39-13.292V877.31c0-7.904-1.436-11.854-6.469-16.883l-11.502-11.501
				c-4.31-4.668-8.613-6.468-15.445-6.468h-95.574c-5.757,0-8.268-2.872-8.268-8.264v-21.2c0-5.748,2.511-8.624,8.268-8.624h102.041
				c17.244,0,26.229,4.313,37.727,15.812l17.247,17.247c11.142,11.134,14.729,20.485,14.729,36.647v19.761
				c0,13.654-3.588,22.638-14.373,33.419l-5.388,5.388c-11.858,11.859-20.842,15.809-35.93,15.809h-67.911
				c-5.391,0-8.982,1.443-13.293,5.752l-0.717,0.716c-4.316,4.316-5.389,7.904-5.389,13.302V1014.208z"/>
			<path fill="#FFFFFF" d="M494.828,884.078v-21.197c0-5.392,2.515-8.268,8.264-8.268h40.603c2.518,0,3.592-1.08,3.592-3.592
				V682.865c0-2.516-1.074-3.597-3.592-3.597h-40.603c-5.749,0-8.264-2.868-8.264-8.26v-21.205c0-5.741,2.515-8.62,8.264-8.62
				h78.691c5.743,0,8.623,2.879,8.623,8.62v201.218c0,2.512,1.079,3.592,3.588,3.592h37.373c5.392,0,8.262,2.876,8.262,8.268v21.197
				c0,5.75-2.87,8.625-8.262,8.625H503.092C497.343,892.703,494.828,889.828,494.828,884.078z"/>
			<path fill="#FFFFFF" d="M839.752,961.392c0-5.389-1.075-8.984-5.384-13.298l-0.716-0.717c-4.317-4.312-7.905-5.749-13.302-5.749
				H707.889c-5.75,0-8.625-2.871-8.625-8.621V812.994c0-5.748,2.875-8.624,8.625-8.624h159.899c5.745,0,8.617,2.876,8.617,8.624
				v21.2c0,5.392-2.872,8.264-8.617,8.264H742.742c-2.518,0-3.588,1.079-3.588,3.596v53.536c0,2.513,1.07,3.593,3.588,3.593h84.078
				c15.095,0,24.076,3.955,35.934,15.809l5.388,5.389c10.781,10.78,14.376,19.764,14.376,33.415v28.385
				c0,16.172-3.595,25.511-14.729,36.653l-17.256,17.242c-11.493,11.502-20.477,15.814-37.718,15.814H707.889
				c-5.75,0-8.625-2.875-8.625-8.621v-21.201c0-5.394,2.875-8.268,8.625-8.268h98.456c6.821,0,10.776-1.796,15.448-6.468
				l11.498-11.492c5.026-5.033,6.461-8.984,6.461-16.889V961.392z"/>
		</g>
		<g>
			<g>
				<path fill="#FFCE00" d="M560.107,429.052c-193.397,0-402.143,69.198-402.143,180.963v45.975
					c0,23.328,19.439,42.292,43.332,42.292h106.305c21.439,0,51.44-16.082,51.44-42.292v-26.234
					c0-52.855,103.982-84.825,201.065-84.825c97.051,0,201.077,31.97,201.077,84.825v26.273c0,26.205,29.988,42.292,51.431,42.292
					h106.311c23.895,0,43.324-18.972,43.324-42.292v-45.982C962.25,498.285,753.504,429.052,560.107,429.052z"/>
			</g>
		</g>
		<g>
			<g>
				<g>
					<g>
						<path fill="#FFCE00" d="M564.35,984.791c10.186,0,18.431,8.255,18.431,18.437c0,10.18-8.245,18.438-18.431,18.438
							c-10.188,0-18.437-8.258-18.437-18.438C545.913,993.046,554.162,984.791,564.35,984.791z"/>
					</g>
				</g>
				<g>
					<path fill="#FFCE00" d="M564.35,950.823c-36.664,0-67.686,21.149-81.787,52.171c14.102,31.021,45.123,53.586,81.787,53.586
						c36.662,0,67.683-21.149,81.781-53.586C632.032,971.973,601.012,950.823,564.35,950.823z M564.35,1039.651
						c-19.744,0-36.664-16.916-36.664-36.657c0-19.738,16.92-36.662,36.664-36.662c19.739,0,36.662,16.924,36.662,36.662
						C601.012,1022.735,584.089,1039.651,564.35,1039.651z"/>
				</g>
			</g>
		</g>
	</g>
</g>
<g>
	<g>
		<defs>
			<rect id="SVGID_15_" y="1747" width="1919" height="1578"/>
		</defs>
		<clipPath id="SVGID_2_">
			<use xlink:href="#SVGID_15_"  overflow="visible"/>
		</clipPath>
		<g clip-path="url(#SVGID_2_)">
			<path d="M762.52,1660.446c0.628-28.211-9.751-54.942-29.262-75.325c-19.491-20.375-45.765-31.967-73.954-32.57l-2.378-0.037
				c-56.938,0-104.271,46.314-105.527,103.255c-0.64,28.207,9.752,54.977,29.255,75.357c12.972,13.561,29.098,22.778,46.623,27.895
				l-0.368,525.516c0,88.405-71.938,160.373-160.378,160.373c-88.439,0-160.37-71.953-160.37-160.373
				c0-11.775,1.284-23.381,3.789-34.66l61.412-0.333l-51.654-129.474c-46.83,41.824-73.655,101.764-73.655,164.486
				c0,121.531,98.912,220.453,220.479,220.453c121.575,0,220.486-98.922,220.486-220.453l-0.39-525.667
				C729.387,1746.047,761.47,1707.045,762.52,1660.446z M656.976,1704.351l-1.067-0.016c-12.346-0.275-23.879-5.341-32.392-14.261
				c-8.512-8.904-13.077-20.636-12.787-32.979c0.538-24.95,21.247-45.217,47.246-45.217l0,0
				c12.346,0.276,23.854,5.335,32.389,14.263c8.51,8.933,13.104,20.654,12.802,33.016
				C702.623,1684.062,681.892,1704.351,656.976,1704.351z"/>
		</g>
	</g>
</g>
</svg>
