<?xml version="1.0" encoding="utf-8"?>
<!-- Generator: Adobe Illustrator 16.0.0, SVG Export Plug-In . SVG Version: 6.00 Build 0)  -->
<!DOCTYPE svg PUBLIC "-//W3C//DTD SVG 1.1//EN" "http://www.w3.org/Graphics/SVG/1.1/DTD/svg11.dtd">
<svg version="1.1" xmlns="http://www.w3.org/2000/svg" xmlns:xlink="http://www.w3.org/1999/xlink" x="0px" y="0px" width="574px"
	 height="543px" viewBox="0 0 574 543" enable-background="new 0 0 574 543" xml:space="preserve">
<g id="Layer_1">
	<g>
		<rect fill="#FFFFFF" width="574" height="543"/>
		<g>
			<rect x="30" y="29" fill="#FFFFFF" width="514" height="483"/>
			<g>
				
					<line fill="none" stroke="#FFCE00" stroke-width="3" stroke-linecap="round" stroke-miterlimit="10" stroke-dasharray="8,20" x1="90" y1="273.5" x2="484" y2="273.5"/>
				
					<line fill="none" stroke="#FFCE00" stroke-width="3" stroke-linecap="round" stroke-miterlimit="10" stroke-dasharray="8,20" x1="283.5" y1="448" x2="283.5" y2="83"/>
				
					<line fill="none" stroke="#FFCE00" stroke-width="3" stroke-linecap="round" stroke-miterlimit="10" stroke-dasharray="8,20" x1="94.639" y1="77.666" x2="479.363" y2="462.389"/>
				
					<line fill="none" stroke="#FFCE00" stroke-width="3" stroke-linecap="round" stroke-miterlimit="10" stroke-dasharray="8,20" x1="479.361" y1="77.663" x2="94.639" y2="462.389"/>
			</g>
			<g>
				<circle cx="89.563" cy="87.654" r="59.192"/>
				<g>
					<g>
						<g>
							<polygon fill="none" points="116.262,91.891 116.262,91.891 116.256,91.891 							"/>
						</g>
						<g>
							<path fill="#FFFFFF" d="M116.112,91.736L116.112,91.736 M62.773,91.897c-1.006-0.185-2.143,0.087-2.941,0.692
								c-0.9,0.684-1.444,1.77-1.739,3.078c-0.265,1.159-0.294,2.521-0.156,3.921c0.365,3.749,2.091,7.96,4.462,9.54
								c0.291,0.197,0.567,0.287,0.824,0.311c0.933,6.164,3.832,12.344,8,17.163c4.781,5.536,11.244,9.313,18.354,9.313
								c7.084,0,13.544-3.794,18.329-9.34c4.17-4.828,7.08-11.006,8.021-17.145c0.259-0.023,0.529-0.113,0.824-0.31
								c2.371-1.582,4.093-5.788,4.454-9.544c0.135-1.396,0.055-2.758-0.209-3.918c-0.295-1.309-0.906-2.395-1.811-3.078
								c-0.797-0.6-2.067-0.947-3.073-0.768L62.773,91.897z"/>
						</g>
					</g>
					<g>
						<g>
							<circle fill="#4D4C4D" cx="102.248" cy="102.596" r="3.07"/>
						</g>
						<g>
							<circle fill="#4D4C4D" cx="76.879" cy="102.596" r="3.07"/>
						</g>
					</g>
					<g>
						<g>
							<path fill="#FFCE00" d="M86.621,94.944c-0.834-1.197-2.028-1.562-5.49-1.562l-9.195,0.053h-0.357
								c-2.686,0-3.641-0.104-4.954-0.363c-0.955-0.209-1.851-0.625-2.567-1.195c-1.552-1.145-2.088-2.548-2.088-5.513v-2.755h4.297
								l-0.061,0.883c-0.059,1.143,0.3,1.872,0.956,2.393c0.419,0.312,0.836,0.52,1.313,0.625c0.896,0.207,1.434,0.207,4.238,0.207
								h8.954c4.896,0,6.566,0.884,8.118,4.263c0.358-1.196,0.598-1.665,1.373-2.442c1.434-1.405,2.985-1.82,6.566-1.82h9.014
								c2.687,0,3.344-0.053,4.18-0.26c1.492-0.313,2.269-1.404,2.269-3.12v-0.728h4.298v2.703c0,3.067-0.537,4.367-2.09,5.564
								c-0.775,0.57-1.672,0.986-2.566,1.195c-1.374,0.259-2.269,0.363-5.015,0.363h-0.298l-9.253-0.053
								c-2.389,0-3.522,0.105-4.357,0.521c-1.194,0.569-1.732,1.715-1.97,3.949h-4.478C87.279,96.244,87.158,95.723,86.621,94.944z"
								/>
						</g>
					</g>
					<g>
						<g>
							<path fill="#FFCE00" d="M86.898,81.223c0-1.547,1.265-2.846,2.81-2.846c1.546,0,2.846,1.299,2.846,2.846
								c0,1.508-1.3,2.809-2.846,2.809C88.163,84.031,86.898,82.73,86.898,81.223z M87.742,76.059l-0.738-15.805h5.373
								l-0.702,15.805H87.742z"/>
						</g>
					</g>
					<g>
						<g>
							<path fill="#FFCE00" d="M64,71.205c-1.111,0-3-0.902-3-2.013V60h11.951c1.111,0,2.014-0.112,2.014,1c0,1.11-0.902,1-2.014,1
								H67v7.192C67,70.303,65.111,71.205,64,71.205z"/>
						</g>
						<g>
							<path fill="#FFCE00" d="M73.404,72.174c-0.516,0-1.031-0.193-1.424-0.587l-8.617-8.62c-0.786-0.785-0.786-2.059,0-2.845
								c0.785-0.785,2.061-0.785,2.846,0l8.618,8.617c0.786,0.786,0.786,2.062,0,2.848C74.434,71.98,73.919,72.174,73.404,72.174z"
								/>
						</g>
					</g>
					<g>
						<g>
							<path fill="#FFCE00" d="M115,71.205c-1.111,0-3-0.902-3-2.013V62h-5.838c-1.111,0-2.013,0.11-2.013-1
								c0-1.112,0.901-1,2.013-1H118v9.192C118,70.303,116.111,71.205,115,71.205z"/>
						</g>
						<g>
							<path fill="#FFCE00" d="M105.765,72.898c-0.515,0-1.028-0.196-1.423-0.59c-0.785-0.787-0.785-2.061,0-2.846l9.341-9.341
								c0.786-0.785,2.062-0.785,2.846,0c0.786,0.786,0.786,2.06,0,2.845l-9.34,9.342C106.795,72.702,106.28,72.898,105.765,72.898z
								"/>
						</g>
					</g>
					<g>
						<g>
							<path fill="#FFCE00" d="M83.394,46.805c-0.515,0-1.03-0.197-1.424-0.589c-0.784-0.786-0.784-2.062,0.001-2.847l7.828-7.826
								l7.115,7.115c0.786,0.785,0.786,2.059,0,2.846c-0.785,0.787-2.061,0.787-2.846,0l-4.27-4.27l-4.982,4.981
								C84.424,46.607,83.908,46.805,83.394,46.805z"/>
						</g>
						<g>
							<path fill="#FFCE00" d="M89,53.091c-1.111,0-2-0.901-2-2.014V40.008c0-1.112,0.889-2.014,2-2.014s2,0.901,2,2.014v11.069
								C91,52.189,90.111,53.091,89,53.091z"/>
						</g>
					</g>
				</g>
			</g>
			<g>
				<circle cx="484.437" cy="87.654" r="59.192"/>
				<g>
					<g>
						<g>
							<polygon fill="none" points="511.135,84.256 511.135,84.256 511.13,84.256 							"/>
						</g>
						<g>
							<path fill="#FFFFFF" d="M510.986,84.102L510.986,84.102 M457.648,84.264c-1.008-0.186-2.145,0.087-2.942,0.691
								c-0.9,0.684-1.444,1.77-1.739,3.078c-0.266,1.161-0.293,2.521-0.157,3.919c0.367,3.751,2.094,7.962,4.464,9.544
								c0.289,0.195,0.565,0.285,0.824,0.309c0.931,6.164,3.831,12.346,7.999,17.164c4.78,5.535,11.245,9.314,18.355,9.314
								c7.084,0,13.544-3.795,18.328-9.342c4.17-4.828,7.08-11.004,8.02-17.145c0.26-0.023,0.531-0.115,0.825-0.312
								c2.371-1.579,4.092-5.786,4.454-9.54c0.135-1.399,0.054-2.758-0.209-3.92c-0.295-1.309-0.906-2.395-1.81-3.077
								c-0.798-0.601-2.067-0.946-3.074-0.769L457.648,84.264z"/>
						</g>
					</g>
					<g>
						<g>
							<path fill="#4D4C4D" d="M497.122,91.893c-1.696,0-3.068,1.373-3.068,3.068c0,1.698,1.372,3.07,3.068,3.07
								s3.07-1.372,3.07-3.07C500.192,93.266,498.818,91.893,497.122,91.893z"/>
						</g>
						<g>
							<path fill="#4D4C4D" d="M471.753,91.893c-1.696,0-3.071,1.373-3.071,3.068c0,1.698,1.375,3.07,3.071,3.07
								c1.693,0,3.07-1.372,3.07-3.07C474.823,93.266,473.446,91.893,471.753,91.893z"/>
						</g>
					</g>
					<g>
						<g>
							<path fill="#FFCE00" d="M481.496,87.309c-0.835-1.195-2.029-1.559-5.491-1.559l-9.194,0.052h-0.357
								c-2.686,0-3.643-0.104-4.954-0.363c-0.957-0.21-1.851-0.624-2.567-1.196c-1.552-1.144-2.09-2.547-2.09-5.512v-2.756h4.298
								l-0.059,0.885c-0.06,1.143,0.299,1.871,0.954,2.391c0.418,0.312,0.837,0.521,1.314,0.625
								c0.895,0.209,1.432,0.209,4.236,0.209h8.956c4.895,0,6.564,0.882,8.119,4.262c0.357-1.195,0.596-1.664,1.372-2.443
								c1.433-1.404,2.983-1.818,6.565-1.818h9.014c2.688,0,3.345-0.055,4.181-0.262c1.491-0.312,2.268-1.405,2.268-3.119v-0.729
								h4.297v2.705c0,3.066-0.536,4.365-2.088,5.562c-0.777,0.572-1.671,0.986-2.567,1.196c-1.373,0.259-2.269,0.363-5.015,0.363
								h-0.297l-9.254-0.052c-2.389,0-3.522,0.104-4.357,0.519c-1.193,0.571-1.731,1.716-1.971,3.951h-4.478
								C482.153,88.609,482.032,88.09,481.496,87.309z"/>
						</g>
					</g>
					<g>
						<g>
							<path fill="#FFCE00" d="M457.5,70.223c-1.111,0-1.5-0.902-1.5-2.014V58h11.826c1.111,0,2.013,0.887,2.013,2
								c0,1.109-0.901,2-2.013,2H459v6.209C459,69.32,458.612,70.223,457.5,70.223z"/>
						</g>
						<g>
							<path fill="#FFCE00" d="M468.278,71.587c-0.516,0-1.032-0.196-1.423-0.59l-8.618-8.618c-0.787-0.787-0.787-2.061,0-2.847
								c0.786-0.786,2.061-0.786,2.846,0l8.617,8.617c0.786,0.786,0.786,2.062,0,2.848
								C469.308,71.391,468.793,71.587,468.278,71.587z"/>
						</g>
					</g>
					<g>
						<g>
							<path fill="#FFCE00" d="M509,70.223c-1.113,0-2-0.902-2-2.014V62h-5.964c-1.111,0-2.014-0.891-2.014-2
								c0-1.113,0.902-2,2.014-2H511v10.209C511,69.32,510.111,70.223,509,70.223z"/>
						</g>
						<g>
							<path fill="#FFCE00" d="M500.64,72.309c-0.516,0-1.03-0.196-1.424-0.59c-0.786-0.787-0.786-2.06,0-2.846l9.34-9.341
								c0.787-0.786,2.062-0.786,2.848,0c0.786,0.786,0.786,2.06,0,2.847l-9.341,9.34C501.669,72.112,501.154,72.309,500.64,72.309z
								"/>
						</g>
					</g>
					<g>
						<g>
							<path fill="#FFCE00" d="M479.274,57.285c-0.514,0-1.03-0.194-1.424-0.588c-0.786-0.787-0.786-2.061,0-2.848l7.828-7.826
								l7.116,7.115c0.787,0.785,0.787,2.061,0,2.847c-0.786,0.786-2.061,0.786-2.846,0l-4.271-4.269l-4.98,4.98
								C480.305,57.091,479.789,57.285,479.274,57.285z"/>
						</g>
						<g>
							<path fill="#FFCE00" d="M485,63.176c-1.111,0-2-0.9-2-2.014V50.094c0-1.112,0.889-2.014,2-2.014s2,0.901,2,2.014v11.068
								C487,62.275,486.111,63.176,485,63.176z"/>
						</g>
					</g>
				</g>
			</g>
			<g>
				<g>
					<circle cx="287" cy="87.654" r="59.192"/>
				</g>
				<g>
					<g>
						<circle fill="#FFCE00" cx="268.454" cy="52.257" r="6.212"/>
					</g>
					<g>
						<circle fill="#FFCE00" cx="287.575" cy="45.213" r="6.211"/>
					</g>
					<g>
						<circle fill="#FFCE00" cx="305.69" cy="52.257" r="6.213"/>
					</g>
					<g>
						<g>
							<polygon fill="none" points="313.699,92.283 313.699,92.283 313.692,92.283 							"/>
						</g>
						<g>
							<path fill="#FFFFFF" d="M313.55,92.131L313.55,92.131 M260.211,92.293c-1.007-0.186-2.144,0.085-2.941,0.692
								c-0.901,0.683-1.445,1.769-1.74,3.077c-0.264,1.159-0.293,2.521-0.156,3.92c0.365,3.75,2.092,7.959,4.462,9.54
								c0.291,0.196,0.567,0.288,0.825,0.312c0.932,6.162,3.831,12.343,7.999,17.164c4.781,5.535,11.245,9.312,18.356,9.312
								c7.084,0,13.543-3.794,18.327-9.341c4.171-4.827,7.08-11.003,8.021-17.145c0.259-0.024,0.528-0.113,0.823-0.31
								c2.371-1.581,4.093-5.787,4.455-9.541c0.134-1.4,0.055-2.76-0.211-3.92c-0.294-1.309-0.903-2.395-1.809-3.08
								c-0.797-0.6-2.068-0.945-3.073-0.768L260.211,92.293z"/>
						</g>
					</g>
					<g>
						<g>
							<circle fill="#4D4C4D" cx="299.686" cy="102.991" r="3.07"/>
						</g>
						<g>
							<path fill="#4D4C4D" d="M274.316,99.921c-1.697,0-3.072,1.376-3.072,3.07c0,1.696,1.375,3.069,3.072,3.069
								c1.693,0,3.069-1.373,3.069-3.069C277.386,101.297,276.01,99.921,274.316,99.921z"/>
						</g>
					</g>
					<g>
						<g>
							<path fill="#FFCE00" d="M284.059,95.338c-0.835-1.195-2.028-1.561-5.492-1.561l-9.191,0.052h-0.358
								c-2.687,0-3.643-0.103-4.955-0.363c-0.955-0.208-1.851-0.625-2.567-1.194c-1.551-1.146-2.089-2.549-2.089-5.512v-2.755h4.298
								l-0.061,0.884c-0.059,1.143,0.3,1.871,0.955,2.392c0.419,0.309,0.837,0.521,1.314,0.622c0.896,0.209,1.434,0.209,4.238,0.209
								h8.954c4.896,0,6.566,0.883,8.118,4.263c0.358-1.196,0.597-1.663,1.373-2.442c1.433-1.404,2.984-1.82,6.566-1.82h9.015
								c2.686,0,3.342-0.053,4.18-0.261c1.49-0.312,2.268-1.403,2.268-3.119v-0.727h4.298v2.703c0,3.066-0.537,4.366-2.089,5.563
								c-0.778,0.569-1.672,0.986-2.567,1.194c-1.372,0.261-2.27,0.363-5.016,0.363h-0.297l-9.254-0.052
								c-2.389,0-3.521,0.106-4.357,0.52c-1.193,0.572-1.732,1.717-1.97,3.953h-4.478C284.716,96.639,284.596,96.117,284.059,95.338
								z"/>
						</g>
					</g>
					<g>
						<g>
							<path fill="#FFCE00" d="M287,70.197c-1.111,0-1-0.898-1-2.01V58.121c0-1.11-0.111-2.012,1-2.012s1,0.901,1,2.012v10.066
								C288,69.299,288.111,70.197,287,70.197z"/>
						</g>
						<g>
							<path fill="#FFCE00" d="M287.279,72.213l-6.428-6.068c-0.607-0.572-0.635-1.528-0.062-2.135
								c0.573-0.602,1.526-0.632,2.134-0.061l4.328,4.087l3.811-3.69c0.597-0.58,1.554-0.566,2.135,0.034
								c0.58,0.599,0.564,1.554-0.034,2.134L287.279,72.213z"/>
						</g>
					</g>
					<g>
						<g>
							<path fill="#FFCE00" d="M269,77.244c-1.111,0-1-0.902-1-2.014V65.168c0-1.113-0.111-2.014,1-2.014s1,0.9,1,2.014V75.23
								C270,76.342,270.111,77.244,269,77.244z"/>
						</g>
						<g>
							<path fill="#FFCE00" d="M269.201,79.258l-6.43-6.068c-0.607-0.572-0.633-1.527-0.062-2.134s1.527-0.634,2.134-0.062
								l4.33,4.088l3.808-3.691c0.599-0.582,1.555-0.568,2.136,0.033c0.58,0.599,0.564,1.555-0.033,2.135L269.201,79.258z"/>
						</g>
					</g>
					<g>
						<g>
							<path fill="#FFCE00" d="M305,77.244c-1.111,0-1-0.902-1-2.014V65.168c0-1.113-0.111-2.014,1-2.014s1,0.9,1,2.014V75.23
								C306,76.342,306.111,77.244,305,77.244z"/>
						</g>
						<g>
							<path fill="#FFCE00" d="M305.43,79.258l-6.429-6.068c-0.606-0.572-0.632-1.527-0.062-2.134
								c0.573-0.606,1.527-0.634,2.134-0.062l4.329,4.088l3.81-3.691c0.599-0.582,1.554-0.568,2.135,0.033
								c0.581,0.599,0.565,1.555-0.033,2.135L305.43,79.258z"/>
						</g>
					</g>
				</g>
			</g>
			<g>
				<circle cx="89.563" cy="453.346" r="59.192"/>
				<g>
					<g>
						<polygon fill="none" points="116.262,451.432 116.262,451.432 116.257,451.432 						"/>
						<path fill="#FFFFFF" d="M116.112,451.279L116.112,451.279 M62.773,451.439c-1.006-0.184-2.143,0.087-2.94,0.691
							c-0.9,0.686-1.444,1.77-1.739,3.08c-0.266,1.158-0.295,2.518-0.157,3.92c0.366,3.748,2.091,7.959,4.462,9.54
							c0.291,0.196,0.567,0.286,0.825,0.31c0.933,6.164,3.831,12.345,7.999,17.164c4.781,5.535,11.244,9.314,18.355,9.314
							c7.084,0,13.543-3.795,18.328-9.342c4.17-4.828,7.08-11.004,8.021-17.144c0.259-0.024,0.529-0.116,0.824-0.31
							c2.371-1.582,4.092-5.789,4.454-9.543c0.134-1.399,0.054-2.758-0.21-3.92c-0.295-1.309-0.905-2.395-1.811-3.077
							c-0.797-0.601-2.066-0.948-3.073-0.769L62.773,451.439z"/>
					</g>
					<g>
						<path fill="#4D4C4D" d="M102.248,459.068c-1.695,0-3.068,1.374-3.068,3.071c0,1.692,1.373,3.067,3.068,3.067
							c1.697,0,3.07-1.375,3.07-3.067C105.318,460.442,103.945,459.068,102.248,459.068z"/>
						<path fill="#4D4C4D" d="M76.879,459.068c-1.695,0-3.07,1.374-3.07,3.071c0,1.692,1.375,3.067,3.07,3.067
							s3.069-1.375,3.069-3.067C79.948,460.442,78.574,459.068,76.879,459.068z"/>
					</g>
					<g>
						<path fill="#FFCE00" d="M86.621,454.486c-0.834-1.197-2.027-1.561-5.49-1.561l-9.194,0.052h-0.357
							c-2.687,0-3.642-0.104-4.954-0.363c-0.955-0.209-1.852-0.626-2.567-1.196c-1.552-1.144-2.089-2.547-2.089-5.512v-2.756h4.297
							l-0.061,0.884c-0.059,1.144,0.301,1.872,0.957,2.392c0.418,0.312,0.835,0.52,1.313,0.625c0.896,0.208,1.433,0.208,4.237,0.208
							h8.954c4.896,0,6.567,0.882,8.119,4.263c0.358-1.195,0.597-1.665,1.374-2.443c1.432-1.404,2.984-1.819,6.566-1.819h9.014
							c2.686,0,3.342-0.054,4.179-0.263c1.491-0.311,2.268-1.4,2.268-3.119v-0.727h4.298v2.703c0,3.068-0.537,4.367-2.09,5.564
							c-0.775,0.57-1.672,0.987-2.566,1.196c-1.373,0.259-2.269,0.363-5.014,0.363h-0.299l-9.253-0.052
							c-2.388,0-3.522,0.104-4.357,0.519c-1.193,0.571-1.731,1.716-1.97,3.951h-4.478C87.279,455.784,87.159,455.266,86.621,454.486
							z"/>
					</g>
					<g>
						<path fill="#FFCE00" d="M79,443.033c0,1.255-0.746,2.271-2,2.271l0,0c-1.254,0-2-1.017-2-2.271v-6.053
							c0-1.252,0.746-2.27,2-2.27l0,0c1.254,0,2,1.018,2,2.27V443.033z"/>
						<path fill="#FFCE00" d="M100,443.033c0,1.255-1.246,2.271-2.5,2.271l0,0c-1.254,0-2.5-1.017-2.5-2.271v-6.053
							c0-1.252,1.246-2.27,2.5-2.27l0,0c1.254,0,2.5,1.018,2.5,2.27V443.033z"/>
						<path fill="#FFCE00" d="M108,441.729c0,1.254-1.016,2.271-2.27,2.271h-0.461c-1.254,0-2.27-1.018-2.27-2.271v-14.457
							c0-1.254,1.016-2.271,2.27-2.271h0.461c1.254,0,2.27,1.018,2.27,2.271V441.729z"/>
						<path fill="#FFCE00" d="M89,443.729c0,1.254-1.017,2.271-2.271,2.271h-0.457c-1.255,0-2.271-1.018-2.271-2.271v-27.457
							c0-1.254,1.017-2.271,2.271-2.271h0.457c1.255,0,2.271,1.018,2.271,2.271V443.729z"/>
					</g>
					<g>
						<path fill="#FFCE00" d="M79.354,424.9l8.759,8.758c0.665,0.665,1.606,0.665,2.272,0L107,416.904v1.941
							c0,0.94,0.56,1.702,1.5,1.702c0.939,0,1.5-0.762,1.5-1.702v-6.621c0-0.625,0.17,0.775-0.457,0.775h-6.622
							c-0.938,0-1.702,0.56-1.702,1.5c0,0.939,0.764,1.5,1.702,1.5h1.942l-15.549,14.801l-8.759-9.136
							c-0.665-0.664-1.743-0.854-2.407-0.188l-9.336,9.21c0,0-2.824,1.96,0,4.784L79.354,424.9z"/>
					</g>
				</g>
			</g>
			<g>
				<circle cx="89.563" cy="270.5" r="59.192"/>
				<g>
					<g>
						<g>
							<polygon fill="none" points="116.262,271.428 116.262,271.428 116.257,271.428 							"/>
						</g>
						<g>
							<path fill="#FFFFFF" d="M116.112,271.273L116.112,271.273 M62.773,271.438c-1.006-0.186-2.143,0.086-2.94,0.691
								c-0.9,0.684-1.444,1.769-1.739,3.078c-0.266,1.16-0.295,2.519-0.157,3.918c0.366,3.752,2.092,7.962,4.462,9.543
								c0.291,0.196,0.567,0.285,0.825,0.311c0.933,6.163,3.832,12.344,7.999,17.164c4.781,5.533,11.244,9.312,18.356,9.312
								c7.084,0,13.542-3.794,18.327-9.342c4.17-4.826,7.08-11.003,8.021-17.145c0.259-0.022,0.529-0.113,0.824-0.311
								c2.371-1.578,4.092-5.785,4.455-9.54c0.133-1.399,0.053-2.759-0.211-3.919c-0.295-1.309-0.905-2.395-1.811-3.079
								c-0.797-0.6-2.066-0.946-3.073-0.769L62.773,271.438z"/>
						</g>
					</g>
					<g>
						<g>
							<circle fill="#4D4C4D" cx="102.249" cy="282.135" r="3.07"/>
						</g>
						<g>
							<circle fill="#4D4C4D" cx="76.879" cy="282.135" r="3.07"/>
						</g>
					</g>
					<g>
						<g>
							<path fill="#FFCE00" d="M86.622,274.482c-0.835-1.196-2.028-1.561-5.491-1.561l-9.193,0.053H71.58
								c-2.688,0-3.643-0.104-4.955-0.364c-0.955-0.209-1.852-0.624-2.567-1.194c-1.552-1.145-2.089-2.549-2.089-5.512v-2.756h4.298
								l-0.06,0.885c-0.06,1.143,0.299,1.871,0.955,2.391c0.418,0.311,0.835,0.521,1.313,0.623c0.896,0.21,1.433,0.21,4.237,0.21
								h8.955c4.895,0,6.566,0.881,8.118,4.261c0.358-1.194,0.597-1.664,1.374-2.441c1.432-1.405,2.984-1.819,6.566-1.819h9.014
								c2.686,0,3.343-0.056,4.179-0.263c1.491-0.312,2.268-1.404,2.268-3.117v-0.729h4.298v2.703c0,3.068-0.537,4.367-2.089,5.564
								c-0.776,0.57-1.671,0.985-2.567,1.194c-1.372,0.261-2.268,0.364-5.014,0.364h-0.299l-9.253-0.053
								c-2.388,0-3.521,0.105-4.357,0.52c-1.193,0.572-1.731,1.715-1.97,3.951h-4.477C87.279,275.781,87.16,275.262,86.622,274.482z
								"/>
						</g>
					</g>
					<g>
						<path fill="#FFCE00" d="M117.607,240.702c-0.277,0.898-0.807,2.144-2.742,3.017c-0.69,0.299-1.243,0.439-2.672,0.6v2.765
							h-1.842v-2.765c-0.438-0.047-0.853-0.09-1.291-0.16c-1.889-0.301-3.34-0.969-3.938-1.312c-0.322-0.186-0.668-0.415-0.99-0.646
							l2.119-2.396c0.438,0.229,1.704,1.015,3.225,1.29c0.276,0.045,0.576,0.067,0.876,0.092v-3.547
							c-0.115-0.024-1.773-0.322-2.787-0.691c-0.83-0.324-2.765-1.197-2.765-3.777c0-3.157,2.28-4.238,3.363-4.605
							c0.968-0.324,1.819-0.346,2.165-0.393v-2.627h1.865v2.648c0.438,0.047,0.876,0.095,1.291,0.184
							c1.865,0.416,3.316,1.362,3.846,1.684l-2.026,2.35c-1.705-0.852-2.027-0.898-3.11-1.128v3.063
							c0.783,0.182,1.59,0.367,2.351,0.621c1.773,0.576,2.487,1.381,2.879,2.164c0.185,0.347,0.46,1.014,0.46,1.959
							C117.883,239.666,117.791,240.149,117.607,240.702z M110.328,231.258c-0.622,0.092-1.175,0.206-1.59,0.762
							c-0.207,0.299-0.253,0.597-0.253,0.736c0,0.092,0,0.299,0.138,0.527c0.23,0.414,0.784,0.555,1.729,0.74L110.328,231.258z
							 M114.037,238.789c-0.347-0.574-1.291-0.713-1.844-0.805v3.154c0.186-0.045,1.199-0.138,1.705-0.828
							c0.276-0.369,0.299-0.737,0.299-0.922C114.197,239.065,114.106,238.906,114.037,238.789z"/>
					</g>
					<g>
						<path fill="#FFCE00" d="M96.121,250.767c-0.277,0.898-0.807,2.144-2.742,3.017c-0.69,0.299-1.244,0.438-2.672,0.6v2.764
							h-1.843v-2.764c-0.438-0.047-0.853-0.092-1.29-0.162c-1.889-0.299-3.34-0.968-3.938-1.311
							c-0.323-0.186-0.668-0.416-0.989-0.647l2.117-2.395c0.438,0.229,1.705,1.013,3.226,1.289c0.276,0.046,0.575,0.069,0.875,0.093
							v-3.547c-0.114-0.023-1.772-0.324-2.786-0.691c-0.83-0.323-2.766-1.198-2.766-3.777c0-3.157,2.281-4.238,3.363-4.607
							c0.969-0.323,1.82-0.348,2.166-0.392v-2.627h1.865v2.649c0.438,0.046,0.875,0.094,1.289,0.186
							c1.867,0.413,3.318,1.359,3.848,1.682l-2.027,2.348c-1.705-0.852-2.026-0.896-3.109-1.127v3.062
							c0.783,0.185,1.59,0.37,2.35,0.624c1.774,0.576,2.488,1.381,2.88,2.164c0.185,0.346,0.46,1.014,0.46,1.959
							C96.396,249.73,96.305,250.214,96.121,250.767z M88.842,241.322c-0.623,0.09-1.175,0.206-1.59,0.76
							c-0.207,0.299-0.254,0.6-0.254,0.736c0,0.093,0,0.301,0.139,0.531c0.23,0.412,0.783,0.553,1.728,0.736L88.842,241.322z
							 M92.55,248.853c-0.345-0.575-1.29-0.712-1.843-0.804v3.154c0.185-0.046,1.198-0.138,1.705-0.828
							c0.276-0.369,0.3-0.738,0.3-0.922C92.712,249.131,92.619,248.97,92.55,248.853z"/>
					</g>
					<g>
						<path fill="#FFCE00" d="M76.043,240.702c-0.277,0.898-0.807,2.144-2.741,3.017c-0.692,0.299-1.244,0.439-2.673,0.6v2.765
							h-1.843v-2.765c-0.438-0.047-0.851-0.09-1.289-0.16c-1.889-0.301-3.341-0.969-3.938-1.312
							c-0.324-0.186-0.668-0.415-0.99-0.646l2.118-2.396c0.438,0.229,1.704,1.015,3.225,1.29c0.277,0.045,0.577,0.067,0.875,0.092
							v-3.547c-0.114-0.024-1.772-0.322-2.786-0.691c-0.83-0.324-2.766-1.197-2.766-3.777c0-3.157,2.281-4.238,3.365-4.605
							c0.967-0.324,1.818-0.346,2.164-0.393v-2.627h1.865v2.648c0.438,0.047,0.875,0.095,1.291,0.184
							c1.865,0.416,3.316,1.362,3.846,1.684l-2.026,2.35c-1.704-0.852-2.027-0.898-3.11-1.128v3.063
							c0.784,0.182,1.59,0.367,2.35,0.621c1.774,0.576,2.488,1.381,2.881,2.164c0.184,0.347,0.459,1.014,0.459,1.959
							C76.318,239.666,76.228,240.149,76.043,240.702z M68.764,231.258c-0.621,0.092-1.174,0.206-1.589,0.762
							c-0.208,0.299-0.253,0.597-0.253,0.736c0,0.092,0,0.299,0.137,0.527c0.23,0.414,0.783,0.555,1.728,0.74L68.764,231.258z
							 M72.473,238.789c-0.346-0.574-1.29-0.713-1.844-0.805v3.154c0.186-0.045,1.198-0.138,1.705-0.828
							c0.275-0.369,0.3-0.737,0.3-0.922C72.634,239.065,72.542,238.906,72.473,238.789z"/>
					</g>
				</g>
			</g>
			<g>
				<g>
					<circle cx="484.437" cy="270.5" r="59.192"/>
				</g>
				<g>
					<g>
						<g>
							<polygon fill="none" points="511.136,271.287 511.136,271.287 511.13,271.287 							"/>
						</g>
						<g>
							<path fill="#FFFFFF" d="M510.986,271.132L510.986,271.132 M457.648,271.294c-1.008-0.185-2.143,0.087-2.94,0.692
								c-0.9,0.684-1.446,1.77-1.74,3.078c-0.267,1.16-0.294,2.52-0.158,3.92c0.367,3.749,2.094,7.961,4.464,9.54
								c0.289,0.196,0.568,0.288,0.824,0.312c0.931,6.163,3.831,12.342,8.001,17.161c4.779,5.537,11.243,9.314,18.354,9.314
								c7.083,0,13.543-3.793,18.327-9.342c4.171-4.828,7.08-11.004,8.021-17.145c0.262-0.021,0.53-0.113,0.824-0.309
								c2.371-1.58,4.092-5.787,4.454-9.543c0.137-1.398,0.055-2.76-0.208-3.918c-0.294-1.309-0.906-2.395-1.811-3.078
								c-0.798-0.6-2.067-0.949-3.074-0.77L457.648,271.294z"/>
						</g>
					</g>
					<g>
						<g>
							<path fill="#4D4C4D" d="M497.122,278.923c-1.696,0-3.068,1.374-3.068,3.07c0,1.694,1.372,3.07,3.068,3.07
								c1.698,0,3.072-1.376,3.072-3.07C500.194,280.297,498.82,278.923,497.122,278.923z"/>
						</g>
						<g>
							<circle fill="#4D4C4D" cx="471.753" cy="281.993" r="3.07"/>
						</g>
					</g>
					<g>
						<g>
							<path fill="#FFCE00" d="M481.496,274.34c-0.835-1.195-2.027-1.561-5.491-1.561l-9.193,0.052h-0.356
								c-2.688,0-3.645-0.103-4.956-0.364c-0.957-0.207-1.851-0.623-2.567-1.195c-1.552-1.144-2.09-2.549-2.09-5.51v-2.756h4.299
								l-0.06,0.886c-0.06,1.142,0.3,1.87,0.954,2.39c0.418,0.311,0.837,0.52,1.315,0.625c0.894,0.206,1.433,0.206,4.238,0.206
								h8.953c4.896,0,6.567,0.884,8.119,4.263c0.357-1.196,0.596-1.663,1.372-2.443c1.433-1.404,2.986-1.819,6.566-1.819h9.015
								c2.686,0,3.343-0.052,4.179-0.261c1.492-0.312,2.269-1.403,2.269-3.119v-0.727h4.296v2.703c0,3.068-0.536,4.367-2.088,5.562
								c-0.777,0.572-1.671,0.988-2.567,1.195c-1.371,0.262-2.269,0.364-5.015,0.364h-0.297l-9.254-0.052
								c-2.389,0-3.522,0.105-4.357,0.521c-1.192,0.571-1.731,1.716-1.971,3.952h-4.478
								C482.153,275.64,482.032,275.119,481.496,274.34z"/>
						</g>
					</g>
					<g>
						<g>
							<path fill="#FFCE00" d="M509.293,254.441c-0.386,0-0.773-0.146-1.068-0.441l-9.127-9.127c-0.592-0.59-0.592-1.547,0-2.137
								c0.589-0.59,1.544-0.59,2.134,0l9.128,9.129c0.59,0.59,0.59,1.545,0,2.135C510.064,254.296,509.68,254.441,509.293,254.441z"
								/>
						</g>
						<g>
							<path fill="#FFCE00" d="M500.164,254.441c-0.386,0-0.772-0.146-1.066-0.441c-0.592-0.59-0.592-1.545,0-2.135l9.127-9.129
								c0.589-0.59,1.546-0.59,2.135,0c0.59,0.59,0.59,1.547,0,2.137L501.231,254C500.936,254.296,500.551,254.441,500.164,254.441z
								"/>
						</g>
					</g>
					<g>
						<g>
							<path fill="#FFCE00" d="M467.619,254.441c-0.387,0-0.771-0.146-1.067-0.441l-9.127-9.127c-0.59-0.59-0.59-1.547,0-2.137
								c0.588-0.59,1.544-0.59,2.134,0l9.128,9.129c0.59,0.59,0.59,1.545,0,2.135C468.393,254.296,468.006,254.441,467.619,254.441z
								"/>
						</g>
						<g>
							<path fill="#FFCE00" d="M458.491,254.441c-0.388,0-0.773-0.146-1.066-0.441c-0.59-0.59-0.59-1.545,0-2.135l9.127-9.129
								c0.59-0.59,1.545-0.59,2.135,0s0.59,1.547,0,2.137L459.559,254C459.264,254.296,458.877,254.441,458.491,254.441z"/>
						</g>
					</g>
					<g>
						<g>
							<path fill="#FFCE00" d="M481.731,237.836c-0.517,0-1.03-0.197-1.424-0.59l-3.317-3.315c-0.787-0.785-0.787-2.062,0-2.848
								c0.786-0.786,2.061-0.786,2.846,0l3.316,3.317c0.787,0.786,0.787,2.061,0.002,2.846
								C482.762,237.639,482.245,237.836,481.731,237.836z"/>
						</g>
						<g>
							<path fill="#FFCE00" d="M481.66,237.836c-0.517,0-1.03-0.197-1.424-0.59c-0.786-0.785-0.786-2.06,0-2.846l10.135-10.135
								c0.786-0.787,2.062-0.787,2.848,0s0.786,2.061,0,2.848l-10.137,10.133C482.689,237.639,482.175,237.836,481.66,237.836z"/>
						</g>
					</g>
				</g>
			</g>
			<g>
				<circle cx="484.437" cy="453.346" r="59.192"/>
				<g>
					<g>
						<polygon fill="none" points="511.135,450.529 511.135,450.529 511.13,450.529 						"/>
						<path fill="#FFFFFF" d="M510.986,450.377L510.986,450.377 M457.648,450.537c-1.008-0.186-2.145,0.087-2.942,0.691
							c-0.9,0.684-1.444,1.771-1.739,3.078c-0.263,1.161-0.293,2.521-0.157,3.92c0.367,3.75,2.094,7.961,4.464,9.541
							c0.289,0.197,0.565,0.286,0.824,0.311c0.931,6.164,3.833,12.344,7.999,17.165c4.78,5.533,11.245,9.312,18.356,9.312
							c7.083,0,13.543-3.793,18.327-9.339c4.171-4.829,7.08-11.004,8.02-17.145c0.26-0.024,0.531-0.114,0.825-0.312
							c2.371-1.58,4.092-5.787,4.454-9.54c0.135-1.399,0.054-2.761-0.209-3.921c-0.295-1.309-0.905-2.395-1.81-3.077
							c-0.798-0.601-2.067-0.947-3.074-0.769L457.648,450.537z"/>
					</g>
					<g>
						<circle fill="#4D4C4D" cx="497.122" cy="461.236" r="3.068"/>
						<path fill="#4D4C4D" d="M471.753,458.168c-1.696,0-3.071,1.373-3.071,3.068s1.375,3.068,3.071,3.068
							c1.693,0,3.07-1.373,3.07-3.068S473.446,458.168,471.753,458.168z"/>
					</g>
					<g>
						<path fill="#FFCE00" d="M481.496,453.582c-0.835-1.194-2.029-1.558-5.491-1.558l-9.193,0.05h-0.356
							c-2.688,0-3.642-0.104-4.956-0.363c-0.957-0.209-1.851-0.625-2.567-1.195c-1.552-1.144-2.088-2.547-2.088-5.511v-2.757h4.297
							l-0.06,0.885c-0.06,1.143,0.299,1.872,0.954,2.391c0.418,0.312,0.837,0.52,1.314,0.625c0.895,0.208,1.432,0.208,4.239,0.208
							h8.953c4.895,0,6.567,0.884,8.119,4.265c0.357-1.197,0.596-1.666,1.372-2.446c1.433-1.403,2.983-1.818,6.565-1.818h9.014
							c2.688,0,3.345-0.052,4.181-0.261c1.491-0.312,2.268-1.404,2.268-3.121v-0.727h4.297v2.705c0,3.066-0.536,4.365-2.088,5.562
							c-0.777,0.57-1.671,0.986-2.567,1.195c-1.371,0.26-2.269,0.363-5.015,0.363h-0.297l-9.254-0.05
							c-2.389,0-3.522,0.103-4.357,0.518c-1.193,0.572-1.731,1.718-1.971,3.952h-4.478
							C482.153,454.882,482.032,454.361,481.496,453.582z"/>
					</g>
					
						<line fill="none" stroke="#FFCE00" stroke-width="3" stroke-linecap="round" stroke-miterlimit="10" x1="463" y1="415.5" x2="476" y2="415.5"/>
					
						<line fill="none" stroke="#FFCE00" stroke-width="3" stroke-linecap="round" stroke-miterlimit="10" x1="463" y1="424.5" x2="472" y2="424.5"/>
					
						<line fill="none" stroke="#FFCE00" stroke-width="3" stroke-linecap="round" stroke-miterlimit="10" x1="463" y1="432.5" x2="474" y2="432.5"/>
					<path fill="#FFCE00" d="M497.182,429.699c-0.016-0.017-0.032-0.033-0.048-0.048c0.954-1.544,1.508-3.364,1.508-5.304
						c0-5.572-4.548-10.122-10.122-10.122c-5.572,0-10.123,4.55-10.123,10.122c0,5.574,4.551,10.121,10.123,10.121
						c1.942,0,3.762-0.553,5.305-1.508c0.014,0.016,0.032,0.032,0.048,0.047l5.449,6.361c0.436,0.453,1.037,1.631,1.668,1.631
						c0.009,0,0.017,0,0.024,0c0.621,0,1.215-1.154,1.655-1.594c0.447-0.445,0.692-1.506,0.687-2.135
						c-0.007-0.633-0.27-1.461-0.724-1.896L497.182,429.699z M488.52,431.354c-3.889,0-7.007-3.119-7.007-7.006
						s3.118-7.008,7.007-7.008s7.008,3.121,7.008,7.008S492.408,431.354,488.52,431.354z"/>
				</g>
			</g>
			<g>
				<circle cx="287" cy="453.346" r="59.192"/>
				<g>
					<g>
						<polygon fill="none" points="313.699,445.896 313.699,445.896 313.692,445.896 						"/>
						<path fill="#FFFFFF" d="M313.55,445.744L313.55,445.744 M260.211,445.904c-1.007-0.186-2.144,0.086-2.941,0.692
							c-0.901,0.684-1.445,1.769-1.74,3.078c-0.264,1.159-0.293,2.521-0.156,3.919c0.365,3.751,2.092,7.961,4.462,9.541
							c0.291,0.197,0.567,0.287,0.825,0.312c0.932,6.162,3.831,12.342,7.999,17.162c4.781,5.535,11.245,9.313,18.356,9.313
							c7.084,0,13.543-3.794,18.327-9.342c4.171-4.826,7.08-11.004,8.021-17.142c0.259-0.025,0.528-0.115,0.823-0.312
							c2.371-1.58,4.093-5.786,4.455-9.541c0.134-1.4,0.055-2.759-0.211-3.919c-0.294-1.31-0.903-2.394-1.809-3.079
							c-0.797-0.6-2.068-0.945-3.073-0.77L260.211,445.904z"/>
					</g>
					<g>
						<circle fill="#4D4C4D" cx="299.686" cy="456.604" r="3.07"/>
						<path fill="#4D4C4D" d="M274.316,453.533c-1.697,0-3.072,1.373-3.072,3.07c0,1.695,1.375,3.07,3.072,3.07
							c1.693,0,3.069-1.375,3.069-3.07C277.386,454.906,276.01,453.533,274.316,453.533z"/>
					</g>
					<g>
						<path fill="#FFCE00" d="M284.059,448.95c-0.835-1.197-2.028-1.561-5.492-1.561l-9.191,0.052h-0.358
							c-2.687,0-3.643-0.104-4.955-0.363c-0.955-0.209-1.851-0.623-2.567-1.195c-1.551-1.145-2.089-2.548-2.089-5.512v-2.755h4.298
							l-0.061,0.884c-0.059,1.143,0.3,1.871,0.955,2.391c0.419,0.311,0.837,0.521,1.314,0.625c0.896,0.209,1.434,0.209,4.238,0.209
							h8.954c4.896,0,6.566,0.881,8.118,4.262c0.358-1.195,0.597-1.664,1.373-2.442c1.433-1.405,2.984-1.819,6.566-1.819h9.015
							c2.686,0,3.342-0.055,4.18-0.263c1.49-0.312,2.268-1.403,2.268-3.118v-0.728h4.298v2.703c0,3.067-0.537,4.367-2.089,5.563
							c-0.778,0.572-1.672,0.986-2.567,1.195c-1.372,0.26-2.27,0.363-5.016,0.363h-0.297l-9.254-0.052
							c-2.389,0-3.521,0.106-4.357,0.521c-1.193,0.57-1.732,1.715-1.97,3.951h-4.478C284.716,450.25,284.596,449.729,284.059,448.95
							z"/>
					</g>
					<circle fill="#FFCE00" cx="308.709" cy="422.979" r="6.212"/>
					<g>
						
							<line fill="none" stroke="#FFCE00" stroke-width="3" stroke-linecap="round" stroke-miterlimit="10" x1="279" y1="423.5" x2="293" y2="423.5"/>
						<polyline fill="none" stroke="#FFCE00" stroke-width="3" stroke-linecap="round" stroke-miterlimit="10" points="
							289.621,427.256 293.73,422.902 293.73,422.902 289.931,418.979 						"/>
					</g>
					<rect x="258" y="416" fill="#FFCE00" width="14" height="14"/>
				</g>
			</g>
			<g>
				<circle cx="287" cy="270.5" r="59.192"/>
				<g>
					<g>
						<polygon fill="none" points="313.699,273.115 313.699,273.115 313.692,273.115 						"/>
						<path fill="#FFFFFF" d="M313.55,272.961L313.55,272.961 M260.211,273.123c-1.007-0.184-2.144,0.088-2.941,0.693
							c-0.901,0.684-1.445,1.769-1.74,3.078c-0.264,1.16-0.293,2.519-0.156,3.919c0.365,3.752,2.092,7.961,4.462,9.542
							c0.291,0.195,0.567,0.285,0.825,0.311c0.932,6.163,3.831,12.344,7.999,17.162c4.781,5.535,11.245,9.314,18.356,9.314
							c7.084,0,13.543-3.793,18.327-9.342c4.171-4.826,7.08-11.003,8.021-17.145c0.259-0.022,0.528-0.113,0.823-0.311
							c2.371-1.578,4.093-5.785,4.455-9.539c0.134-1.4,0.055-2.76-0.211-3.92c-0.294-1.309-0.903-2.395-1.809-3.079
							c-0.797-0.6-2.068-0.946-3.073-0.769L260.211,273.123z"/>
					</g>
					<g>
						<circle fill="#4D4C4D" cx="299.686" cy="283.822" r="3.07"/>
						<path fill="#4D4C4D" d="M274.316,280.752c-1.697,0-3.072,1.375-3.072,3.07c0,1.697,1.375,3.07,3.072,3.07
							c1.693,0,3.069-1.373,3.069-3.07C277.386,282.127,276.01,280.752,274.316,280.752z"/>
					</g>
					<g>
						<path fill="#FFCE00" d="M284.059,276.17c-0.835-1.195-2.028-1.56-5.492-1.56l-9.191,0.052h-0.358
							c-2.687,0-3.643-0.103-4.955-0.365c-0.955-0.208-1.851-0.623-2.567-1.193c-1.551-1.145-2.089-2.551-2.089-5.512v-2.757h4.298
							l-0.061,0.886c-0.059,1.143,0.3,1.871,0.955,2.391c0.419,0.311,0.837,0.52,1.314,0.623c0.896,0.21,1.434,0.21,4.238,0.21
							h8.954c4.896,0,6.566,0.881,8.118,4.261c0.358-1.197,0.597-1.662,1.373-2.441c1.433-1.406,2.984-1.819,6.566-1.819h9.015
							c2.686,0,3.342-0.054,4.18-0.262c1.49-0.312,2.268-1.405,2.268-3.121v-0.727h4.298v2.703c0,3.069-0.537,4.368-2.089,5.565
							c-0.778,0.57-1.672,0.985-2.567,1.193c-1.372,0.263-2.27,0.365-5.016,0.365h-0.297l-9.254-0.052
							c-2.389,0-3.521,0.104-4.357,0.519c-1.193,0.573-1.732,1.715-1.97,3.953h-4.478
							C284.716,277.469,284.596,276.95,284.059,276.17z"/>
					</g>
					<circle fill="#FFCE00" cx="265.617" cy="250.199" r="6.212"/>
					<circle fill="#FFCE00" cx="308.709" cy="250.199" r="6.212"/>
					<g>
						
							<line fill="none" stroke="#FFCE00" stroke-width="3" stroke-linecap="round" stroke-miterlimit="10" x1="282.6" y1="245.635" x2="291.727" y2="254.762"/>
						
							<line fill="none" stroke="#FFCE00" stroke-width="3" stroke-linecap="round" stroke-miterlimit="10" x1="282.6" y1="254.762" x2="291.727" y2="245.635"/>
					</g>
					<circle fill="#FFCE00" cx="287.163" cy="230.071" r="6.213"/>
				</g>
			</g>
		</g>
	</g>
</g>
<g id="Layer_2">
</g>
</svg>
